<svg xmlns="http://www.w3.org/2000/svg" viewBox="0 0 600 300"><g data-paper-data="{&quot;isPaintingLayer&quot;:true}" stroke-miterlimit="10" style="mix-blend-mode:normal"><path d="M0 300V0h600v300z" fill="#1fe500"/><path d="M0 300V0s116 17 165 41c51 26 135 109 135 109s-111 11-173 43A512 512 0 0 0 0 300z" fill="#15a100"/><path d="M600 0v300s-116-17-165-41a772 772 0 0 1-135-109s111-11 173-43C535 76 600 0 600 0z" data-paper-data="{&quot;index&quot;:null}" fill="#15a100"/><path d="M409 15a772 772 0 0 1-109 135s-9-87-33-150h149l-7 15zM191 285c26-51 109-135 109-135s9 87 33 150H184l7-15z" fill="#15a100"/><path d="m195 63 2-3h5l2 1 3 2 2 1 8-1 2-2 2-2 2-2 165-19c1 0 2 0 2 2l15 121-2 2-165 20-2 1-2 3-3 1-7 1-2-1-3-2-2-1-5 1-3-2z" fill="#0ff" stroke-opacity=".7" stroke="#000" stroke-width="15"/><path d="m195 63 2-3h5l2 1 3 2 2 1 7-1 2-2 3-2 2-2 165-19 2 2 15 121c0 1-1 2-3 2l-164 20-3 1-2 3-2 2h-9l-3-3h-7l-3-2z" fill="#96f" stroke="#774dcb" stroke-width="4"/><path d="m279 58 2-3 90-10 2 2 2 17c0 1 0 2-2 2l-54 7-2 1-2 3-2 1-7 1-3-1-2-2-3-1-5 1-2 2 9 71 2 2 5-1 2 1 3 2 3 1 7-1 2-1 2-3 2-1 54-7c1 0 3 1 3 3l1 14c1 1 0 2-2 2l-89 11-3-2z" fill="#565656" stroke="#3e3e3e" stroke-width="4"/><path d="m291 78 2-2 5-1 3 1 2 2 3 1 7-1 2-1 2-3 2-1 64-8 2 2 3 24-2 2-54 7-2 1-2 3-3 1-7 1-2-1-3-2-2-1-5 1c-1 0-2 1-2 3l3 23 2 2 80-9c2-1 3 0 3 2l2 14-2 2-64 8-2 1-2 3-2 1-7 1-3-1-3-2-2-1-5 1-2-2z" fill="#ffab19" stroke="#cf8b17" stroke-width="4"/><path d="m329 76 11-1 11 8-8 11-12 1-10-8z" fill="#cf8b17"/><path d="m304 106 2-3h5c1-1 2 0 2 1l3 2h9c2 0 2-1 3-2l2-2 2-2 28-3 3 2 3 23c0 2-1 3-2 3l-55 6c-1 1-2 0-2-2z" fill="#565656" stroke="#3e3e3e" stroke-width="4"/><path d="M127 250v-23h-5l-2-3a21 21 0 0 1 0-5l2-3h22l2 3a15 15 0 0 1 0 5l-2 3h-4v23h4c1 0 2 1 2 3a15 15 0 0 1 0 6c0 2-1 3-2 3h-22l-1-3a15 15 0 0 1 0-6l1-3zm37 11-5 1-6-1v-21h-2c-1 0-2-1-2-3a11 11 0 0 1 0-6c1-2 2-3 4-3l5 1 2 3c3-3 6-4 10-4s7 1 8 3c2 2 3 6 3 10v20l-6 1-5-1v-19c0-2-1-3-3-3h-2l-1 1zm34 0-6 1-6-1v-45h12zm18 0-6 1-6-1v-32h12zm0-36-6 1-6-1v-9l6-1 6 1zm20 36-5 1-6-1v-21h-2c-1 0-2-1-2-3a11 11 0 0 1 0-6c1-2 2-3 4-3l5 1 2 3c3-3 6-4 10-4s7 1 8 3c2 2 3 6 3 10v20l-6 1-5-1v-19c0-2-1-3-3-3h-2l-1 1zm47-1c-2 2-6 2-10 2-5 0-8-1-11-4s-5-7-5-12c0-6 2-10 4-13 3-3 7-5 11-5 5 0 8 1 11 4 2 2 3 4 3 8 0 7-4 10-12 10h-5l1 3 4 1 8-2 1 1 2 4c0 2-1 3-2 3zm-8-19c0-2-1-3-3-3l-2 1-1 2v2h4l2-2zm60-13c0 4-2 8-6 10l6 4 2 8c0 4-1 7-4 9s-6 3-11 3h-16l-2-1v-45h16c10 0 15 4 15 12zm-19-2v9h1c4 0 6-1 6-4l-1-4-4-1zm0 17v8h2l4-1 1-3-1-3-4-1zm38 18-7 1-5-1v-45h12zm8-3a21 21 0 0 1 0-25c3-3 7-5 12-5 4 0 8 2 11 5a21 21 0 0 1 0 25c-3 3-7 4-11 4-5 0-9-1-12-4zm12-19c-3 0-4 2-4 6s1 6 4 6c2 0 3-2 3-6s-1-6-3-6zm30 6c0 5 2 7 5 7l5-1 2 3v6c-2 2-5 2-9 2s-8-1-11-4-4-7-4-12c0-6 1-10 4-13s7-5 11-5c5 0 8 1 10 4l1 2-1 3-3 5h-1l-1-1-4-2-3 1-1 5zm17-29 6-1 6 1v25l6-12 6-1 6 1-8 14 10 18-3 1a68 68 0 0 1-11-1l-6-14v14l-6 1-6-1zm35 34 9 3 2-1-4-3c-5-2-8-6-8-11 0-3 1-6 3-7l9-3 8 1 4 3-2 4-2 2-6-1-1 1v1l3 2a43 43 0 0 1 6 3c2 2 3 4 3 7s-1 6-4 8c-2 2-6 3-10 3l-9-1c-2-1-4-3-4-5l1-3 2-3z" stroke-opacity=".5" stroke="#000" stroke-width="10" stroke-linecap="square"/><path d="M127 250v-23h-5l-2-3a21 21 0 0 1 0-5l2-3h22l2 3a15 15 0 0 1 0 5l-2 3h-4v23h4c1 0 2 1 2 3a15 15 0 0 1 0 6c0 2-1 3-2 3h-22l-1-3a15 15 0 0 1 0-6l1-3zm37 11-5 1-6-1v-21h-2c-1 0-2-1-2-3a11 11 0 0 1 0-6c1-2 2-3 4-3l5 1 2 3c3-3 6-4 10-4s7 1 8 3c2 2 3 6 3 10v20l-6 1-5-1v-19c0-2-1-3-3-3h-2l-1 1zm34 0-6 1-6-1v-45h12zm18 0-6 1-6-1v-32h12zm0-36-6 1-6-1v-9l6-1 6 1zm20 36-5 1-6-1v-21h-2c-1 0-2-1-2-3a11 11 0 0 1 0-6c1-2 2-3 4-3l5 1 2 3c3-3 6-4 10-4s7 1 8 3c2 2 3 6 3 10v20l-6 1-5-1v-19c0-2-1-3-3-3h-2l-1 1zm47-1c-2 2-6 2-10 2-5 0-8-1-11-4s-5-7-5-12c0-6 2-10 4-13 3-3 7-5 11-5 5 0 8 1 11 4 2 2 3 4 3 8 0 7-4 10-12 10h-5l1 3 4 1 8-2 1 1 2 4c0 2-1 3-2 3zm-8-19c0-2-1-3-3-3l-2 1-1 2v2h4l2-2zm60-13c0 4-2 8-6 10l6 4 2 8c0 4-1 7-4 9s-6 3-11 3h-16l-2-1v-45h16c10 0 15 4 15 12zm-19-2v9h1c4 0 6-1 6-4l-1-4-4-1zm0 17v8h2l4-1 1-3-1-3-4-1zm38 18-7 1-5-1v-45h12zm8-3a21 21 0 0 1 0-25c3-3 7-5 12-5 4 0 8 2 11 5a21 21 0 0 1 0 25c-3 3-7 4-11 4-5 0-9-1-12-4zm12-19c-3 0-4 2-4 6s1 6 4 6c2 0 3-2 3-6s-1-6-3-6zm30 6c0 5 2 7 5 7l5-1 2 3v6c-2 2-5 2-9 2s-8-1-11-4-4-7-4-12c0-6 1-10 4-13s7-5 11-5c5 0 8 1 10 4l1 2-1 3-3 5h-1l-1-1-4-2-3 1-1 5zm17-29 6-1 6 1v25l6-12 6-1 6 1-8 14 10 18-3 1a68 68 0 0 1-11-1l-6-14v14l-6 1-6-1zm35 34 9 3 2-1-4-3c-5-2-8-6-8-11 0-3 1-6 3-7l9-3 8 1 4 3-2 4-2 2-6-1-1 1v1l3 2a43 43 0 0 1 6 3c2 2 3 4 3 7s-1 6-4 8c-2 2-6 3-10 3l-9-1c-2-1-4-3-4-5l1-3 2-3z" fill="#fff"/></g></svg>