<svg xmlns="http://www.w3.org/2000/svg" viewBox="0 0 599 300"><defs><radialGradient cx="515" cy="186" r="8.3" gradientUnits="userSpaceOnUse" id="a"><stop offset="0" stop-color="#fff" stop-opacity=".7"/><stop offset="1" stop-color="#fff" stop-opacity="0"/></radialGradient><radialGradient cx="5" cy="65" r="8.3" gradientUnits="userSpaceOnUse" id="b"><stop offset="0" stop-color="#fff" stop-opacity=".7"/><stop offset="1" stop-color="#fff" stop-opacity="0"/></radialGradient><radialGradient cx="47" cy="98" r="12.3" gradientUnits="userSpaceOnUse" id="c"><stop offset="0" stop-color="#fff" stop-opacity=".7"/><stop offset="1" stop-color="#fff" stop-opacity="0"/></radialGradient><radialGradient cx="-26" cy="154" r="12.3" gradientUnits="userSpaceOnUse" id="d"><stop offset="0" stop-color="#fff" stop-opacity=".7"/><stop offset="1" stop-color="#fff" stop-opacity="0"/></radialGradient><radialGradient cx="44" cy="253" r="18.3" gradientUnits="userSpaceOnUse" id="e"><stop offset="0" stop-color="#fff" stop-opacity=".7"/><stop offset="1" stop-color="#fff" stop-opacity="0"/></radialGradient><radialGradient cx="236" cy="57" r="18.3" gradientUnits="userSpaceOnUse" id="f"><stop offset="0" stop-color="#fff" stop-opacity=".7"/><stop offset="1" stop-color="#fff" stop-opacity="0"/></radialGradient><radialGradient cx="444" cy="203" r="18.3" gradientUnits="userSpaceOnUse" id="g"><stop offset="0" stop-color="#fff" stop-opacity=".7"/><stop offset="1" stop-color="#fff" stop-opacity="0"/></radialGradient><radialGradient cx="366" cy="293" r="18.3" gradientUnits="userSpaceOnUse" id="h"><stop offset="0" stop-color="#fff" stop-opacity=".7"/><stop offset="1" stop-color="#fff" stop-opacity="0"/></radialGradient><radialGradient cx="156" cy="270" r="8.3" gradientUnits="userSpaceOnUse" id="i"><stop offset="0" stop-color="#fff" stop-opacity=".7"/><stop offset="1" stop-color="#fff" stop-opacity="0"/></radialGradient><radialGradient cx="9" cy="298" r="8.3" gradientUnits="userSpaceOnUse" id="j"><stop offset="0" stop-color="#fff" stop-opacity=".7"/><stop offset="1" stop-color="#fff" stop-opacity="0"/></radialGradient><radialGradient cx="370" cy="50" r="8.3" gradientUnits="userSpaceOnUse" id="k"><stop offset="0" stop-color="#fff" stop-opacity=".7"/><stop offset="1" stop-color="#fff" stop-opacity="0"/></radialGradient><radialGradient cx="396" cy="74" r="8.3" gradientUnits="userSpaceOnUse" id="l"><stop offset="0" stop-color="#fff" stop-opacity=".7"/><stop offset="1" stop-color="#fff" stop-opacity="0"/></radialGradient><radialGradient cx="493" cy="70" r="8.3" gradientUnits="userSpaceOnUse" id="m"><stop offset="0" stop-color="#fff" stop-opacity=".7"/><stop offset="1" stop-color="#fff" stop-opacity="0"/></radialGradient><radialGradient cx="492" cy="265" r="12.3" gradientUnits="userSpaceOnUse" id="n"><stop offset="0" stop-color="#fff" stop-opacity=".7"/><stop offset="1" stop-color="#fff" stop-opacity="0"/></radialGradient><radialGradient cx="502" cy="132" r="12.3" gradientUnits="userSpaceOnUse" id="o"><stop offset="0" stop-color="#fff" stop-opacity=".7"/><stop offset="1" stop-color="#fff" stop-opacity="0"/></radialGradient><radialGradient cx="177" cy="69" r="12.3" gradientUnits="userSpaceOnUse" id="p"><stop offset="0" stop-color="#fff" stop-opacity=".7"/><stop offset="1" stop-color="#fff" stop-opacity="0"/></radialGradient><radialGradient cx="228" cy="283" r="12.3" gradientUnits="userSpaceOnUse" id="q"><stop offset="0" stop-color="#fff" stop-opacity=".7"/><stop offset="1" stop-color="#fff" stop-opacity="0"/></radialGradient><radialGradient cx="9.9" cy="225.5" r="75.5" gradientUnits="userSpaceOnUse" id="D"><stop offset="0" stop-color="#fff" stop-opacity=".4"/><stop offset="1" stop-color="#fff" stop-opacity="0"/></radialGradient><radialGradient cx="432.4" cy="63.5" r="59.5" gradientUnits="userSpaceOnUse" id="E"><stop offset="0" stop-color="#fff" stop-opacity=".4"/><stop offset="1" stop-color="#fff" stop-opacity="0"/></radialGradient><radialGradient cx="204.9" cy="61.5" r="27" gradientUnits="userSpaceOnUse" id="F"><stop offset="0" stop-color="#fff" stop-opacity=".4"/><stop offset="1" stop-color="#fff" stop-opacity="0"/></radialGradient><radialGradient cx="191.9" cy="277.5" r="35" gradientUnits="userSpaceOnUse" id="G"><stop offset="0" stop-color="#fff" stop-opacity=".4"/><stop offset="1" stop-color="#fff" stop-opacity="0"/></radialGradient><radialGradient cx="429.9" cy="249.5" r="64" gradientUnits="userSpaceOnUse" id="H"><stop offset="0" stop-color="#fff" stop-opacity=".4"/><stop offset="1" stop-color="#fff" stop-opacity="0"/></radialGradient><linearGradient x1="262" y1="132.4" x2="226.1" y2="403.2" gradientUnits="userSpaceOnUse" id="r"><stop offset="0" stop-color="#007bff" stop-opacity="0"/><stop offset="1" stop-color="#007bff" stop-opacity=".3"/></linearGradient><linearGradient x1="215.5" y1="227.8" x2="251.4" y2="-43.1" gradientUnits="userSpaceOnUse" id="s"><stop offset="0" stop-color="#e74eff" stop-opacity="0"/><stop offset="1" stop-color="#e74eff" stop-opacity=".3"/></linearGradient><linearGradient x1="98.9" y1="140.3" x2="98.9" y2="154.8" gradientUnits="userSpaceOnUse" id="t"><stop offset="0" stop-color="#c1c1c0"/><stop offset="1" stop-color="#a4a4a5"/></linearGradient><linearGradient x1="113.6" y1="102.4" x2="113.6" y2="150.7" gradientUnits="userSpaceOnUse" id="u"><stop offset="0" stop-color="#fff"/><stop offset="1" stop-color="#b5b3b3"/></linearGradient><linearGradient x1="88.3" y1="140.4" x2="88.3" y2="192.7" gradientUnits="userSpaceOnUse" id="v"><stop offset="0" stop-color="#b8b7b9"/><stop offset="1" stop-color="#7e7e7e"/></linearGradient><linearGradient x1="105" y1="140.4" x2="105" y2="154.7" gradientUnits="userSpaceOnUse" id="w"><stop offset="0" stop-color="#b3b3b2"/><stop offset="1" stop-color="#adacae"/></linearGradient><linearGradient x1="195" y1="102.4" x2="195" y2="192.7" gradientUnits="userSpaceOnUse" id="x"><stop offset="0" stop-color="#fff"/><stop offset="1" stop-color="#7e7e7e"/></linearGradient><linearGradient x1="285" y1="102.4" x2="285" y2="192.7" gradientUnits="userSpaceOnUse" id="y"><stop offset="0" stop-color="#fff"/><stop offset="1" stop-color="#7e7e7e"/></linearGradient><linearGradient x1="375" y1="102.4" x2="375" y2="192.7" gradientUnits="userSpaceOnUse" id="z"><stop offset="0" stop-color="#fff"/><stop offset="1" stop-color="#7e7e7e"/></linearGradient><linearGradient x1="85.5" y1="228.9" x2="129.8" y2="228.9" gradientUnits="userSpaceOnUse" id="A"><stop offset="0" stop-color="#d4d4d4" stop-opacity="0"/><stop offset="1" stop-color="#d4d4d4" stop-opacity=".5"/></linearGradient><linearGradient x1="346.5" y1="228.9" x2="390.8" y2="228.9" gradientUnits="userSpaceOnUse" id="B"><stop offset="0" stop-color="#bec1c4" stop-opacity=".5"/><stop offset="1" stop-color="#bec1c4" stop-opacity="0"/></linearGradient><linearGradient x1="239.3" y1="210" x2="239.3" y2="257.6" gradientUnits="userSpaceOnUse" id="C"><stop offset="0" stop-color="#fff"/><stop offset="1" stop-color="#7f7f7f"/></linearGradient></defs><g data-paper-data="{&quot;isPaintingLayer&quot;:true}" stroke-miterlimit="10" style="mix-blend-mode:normal"><path d="M1 300V0h598v300z" fill="#05000e"/><path d="M507 186a8 8 0 1 1 16 0 8 8 0 0 1-16 0z" fill="url(#a)" transform="translate(61 -30)"/><path d="M572 156a4 4 0 1 1 8 0 4 4 0 0 1-8 0z" fill-opacity=".6" fill="#fff"/><path d="M-3 65a8 8 0 1 1 16 0 8 8 0 0 1-16 0z" fill="url(#b)" transform="translate(61 -30)"/><path d="M62 35a4 4 0 1 1 8 0 4 4 0 0 1-8 0z" fill-opacity=".6" fill="#fff"/><path d="M35 98a12 12 0 1 1 24 0 12 12 0 0 1-24 0z" fill="url(#c)" transform="translate(61 -30)"/><path d="M102 68a6 6 0 1 1 11 0 6 6 0 0 1-11 0z" fill-opacity=".6" fill="#fff"/><path d="M-38 154a12 12 0 1 1 24 0 12 12 0 0 1-24 0z" fill="url(#d)" transform="translate(61 -30)"/><path d="M29 124a6 6 0 1 1 11 0 6 6 0 0 1-11 0z" fill-opacity=".6" fill="#fff"/><path d="M26 253a18 18 0 1 1 36 0 18 18 0 0 1-36 0z" fill="url(#e)" transform="translate(61 -30)"/><path d="M96 223a8 8 0 1 1 17 0 8 8 0 0 1-17 0z" fill-opacity=".6" fill="#fff"/><path d="M218 57a18 18 0 1 1 36 0 18 18 0 0 1-36 0z" fill="url(#f)" transform="translate(61 -30)"/><path d="M288 27a8 8 0 1 1 17 0 8 8 0 0 1-17 0z" fill-opacity=".6" fill="#fff"/><path d="M426 203a18 18 0 1 1 36 0 18 18 0 0 1-36 0z" fill="url(#g)" transform="translate(61 -30)"/><path d="M496 173a8 8 0 1 1 17 0 8 8 0 0 1-17 0z" fill-opacity=".6" fill="#fff"/><path d="M348 293a18 18 0 1 1 36 0 18 18 0 0 1-36 0z" fill="url(#h)" transform="translate(61 -30)"/><path d="M418 263a8 8 0 1 1 17 0 8 8 0 0 1-17 0z" fill-opacity=".6" fill="#fff"/><path d="M148 270a8 8 0 1 1 16 0 8 8 0 0 1-16 0z" fill="url(#i)" transform="translate(61 -30)"/><path d="M213 240a4 4 0 1 1 8 0 4 4 0 0 1-8 0z" fill-opacity=".6" fill="#fff"/><path d="M1 298a8 8 0 1 1 16 0 8 8 0 0 1-16 0z" fill="url(#j)" transform="translate(61 -30)"/><path d="M66 268a4 4 0 1 1 8 0 4 4 0 0 1-8 0z" fill-opacity=".6" fill="#fff"/><path d="M362 50a8 8 0 1 1 16 0 8 8 0 0 1-16 0z" fill="url(#k)" transform="translate(61 -30)"/><path d="M427 20a4 4 0 1 1 8 0 4 4 0 0 1-8 0z" fill-opacity=".6" fill="#fff"/><path d="M388 74a8 8 0 1 1 16 0 8 8 0 0 1-16 0z" fill="url(#l)" transform="translate(61 -30)"/><path d="M453 44a4 4 0 1 1 8 0 4 4 0 0 1-8 0z" fill-opacity=".6" fill="#fff"/><path d="M485 70a8 8 0 1 1 16 0 8 8 0 0 1-16 0z" fill="url(#m)" transform="translate(61 -30)"/><path d="M550 40a4 4 0 1 1 8 0 4 4 0 0 1-8 0z" fill-opacity=".6" fill="#fff"/><path d="M480 265a12 12 0 1 1 24 0 12 12 0 0 1-24 0z" fill="url(#n)" transform="translate(61 -30)"/><path d="M547 235a6 6 0 1 1 11 0 6 6 0 0 1-11 0z" fill-opacity=".6" fill="#fff"/><path d="M490 132a12 12 0 1 1 24 0 12 12 0 0 1-24 0z" fill="url(#o)" transform="translate(61 -30)"/><path d="M557 102a6 6 0 1 1 11 0 6 6 0 0 1-11 0z" fill-opacity=".6" fill="#fff"/><path d="M165 69a12 12 0 1 1 24 0 12 12 0 0 1-24 0z" fill="url(#p)" transform="translate(61 -30)"/><path d="M232 39a6 6 0 1 1 11 0 6 6 0 0 1-11 0z" fill-opacity=".6" fill="#fff"/><path d="M216 283a12 12 0 1 1 24 0 12 12 0 0 1-24 0z" fill="url(#q)" transform="translate(61 -30)"/><path d="M283 253a6 6 0 1 1 11 0 6 6 0 0 1-11 0z" fill-opacity=".6" fill="#fff"/><path d="m-61 330 1-267s229-12 334-5c92 7 264 47 264 47v225z" fill="url(#r)" transform="translate(61 -30)"/><path d="M538 30v267s-229 12-334 5c-93-7-263-47-263-47l-1-224z" fill="url(#s)" transform="translate(61 -30)"/><path d="M67 147c6-4 14-7 22-7h42l-8 15H81l2-4c-6-1-19-2-16-4z" fill="url(#t)" transform="translate(61 -30)"/><path d="M67 147c6-4 14-7 22-7 12 0-3 11-3 11s-22-1-19-4zm80-45c11 0 16 7 12 16l-16 30h-19l11-22c3-5 0-9-7-9H83c5-8 17-15 28-15z" fill="url(#u)" transform="translate(61 -30)"/><path d="M67 147c6-4 14-7 22-7 12 0-3 11-3 11h-2l-9 18c-3 5 0 9 7 9h45c-5 8-17 15-28 15H63c-11 0-16-7-12-16l16-29v-1z" fill="url(#v)" transform="translate(61 -30)"/><path d="M67 147c6-4 14-7 22-7 12 0-3 11-3 11s-22-1-19-4zm76 1c-6 4-14 7-22 7-12 0 2-11 2-11s23 1 20 4z" fill="url(#w)" transform="translate(61 -30)"/><path d="M153 193c-11 0-16-7-12-15l32-60c4-9 17-16 28-16h36c11 0 16 7 12 16l-32 60c-4 8-17 15-28 15zm33-15c7 0 14-4 17-9l22-43c3-5 0-9-7-9h-14c-7 0-14 4-17 9l-22 43c-3 5 0 9 7 9z" fill="url(#x)" transform="translate(61 -30)"/><path d="M243 193c-11 0-16-7-12-15l32-60c4-9 17-16 28-16h36c11 0 16 7 12 16l-32 60c-4 8-17 15-28 15zm33-15c7 0 14-4 17-9l22-43c3-5 0-9-7-9h-14c-7 0-14 4-17 9l-22 43c-3 5 0 9 7 9z" fill="url(#y)" transform="translate(61 -30)"/><path d="M333 193c-11 0-16-7-12-15l32-60c4-9 17-16 28-16h36c11 0 16 7 12 16l-32 60c-4 8-17 15-28 15zm33-15c7 0 14-4 17-9l22-43c3-5 0-9-7-9h-14c-7 0-14 4-17 9l-22 43c-3 5 0 9 7 9z" fill="url(#z)" transform="translate(61 -30)"/><path d="M85 248v-38h45v38z" fill="url(#A)" transform="translate(61 -30)"/><path d="M346 248v-38h45v38z" data-paper-data="{&quot;index&quot;:null}" fill="url(#B)" transform="translate(61 -30)"/><path d="m145 225 1 4-1 3v1h-7v5h10l1 3a13 13 0 0 1 0 5l-1 2h-18c-2 0-3-1-3-2v-34l2-2h19l1 5-1 5h-10v5zm24-4h11l-7 14 7 12-3 1h-5l-4-1-2-9-4 9-3 1h-5l-2-1 6-12a1497 1497 0 0 1-5-14h8l2 1 3 8 3-9zm25 36-4 1-5-1v-27h-2l-1-2-1-2 1-3c1-2 2-2 4-2h2l2 2h1l7-2c3 0 6 1 8 3s2 5 2 10c0 4 0 8-2 10-2 3-5 4-8 4h-4zm2-27h-1v10h2c1 0 2-2 2-6 0-3-1-4-3-4zm20-2-2-4 1-2 8-1c4 0 6 0 8 2l2 7v9h2l1 1 1 3-1 3c-1 2-2 2-3 2l-4-1-2-2c-1 2-4 3-7 3s-5-1-7-3l-2-6c0-6 3-9 10-9h3l-1-2-2-1-5 1zm4 10v2h4v-4h-2c-1 0-2 0-2 2zm31 9-4 1-5-1v-17h-2l-2-2a8 8 0 0 1 1-5c1-2 2-2 3-2l4 1 2 1 8-2c3 0 5 0 6 2 2 2 2 4 2 8v16l-4 1-5-1v-15c0-2 0-3-2-3l-1 1h-1zm31-36 4-1h4l2 1v28h1c1 0 2 0 2 2v5l-4 2-3-1-2-1v-1c-2 2-5 3-8 3-2 0-5-1-7-4-2-2-3-5-3-10 0-4 1-7 3-10 2-2 5-3 8-3h3zm-2 18c-1 0-2 2-2 5v4l2 1h2v-9l-2-1zm39 17-9 2-9-3c-2-3-3-6-3-10 0-5 1-8 3-11 3-2 5-3 9-3s6 0 8 2 3 4 3 7c0 6-3 8-10 8h-3v3h3l7-1h1l1 4-1 2zm-7-15c0-2-1-2-2-2h-2v4h2c2 0 2-1 2-2zm26-20 4-1h3l2 1v28h2c1 0 2 0 2 2v2l-1 3-3 2-3-1-2-1-1-1c-1 2-4 3-7 3s-5-1-7-4c-2-2-3-5-3-10 0-4 1-7 3-10 2-2 5-3 8-3h3zm-2 18c-2 0-3 2-3 5l1 4 2 1h2v-9l-2-1z" fill="url(#C)" transform="translate(61 -30)"/><path d="M44 254 7 301l-31-151z" fill="none" stroke="url(#D)" stroke-width="2.5" stroke-linecap="round" transform="translate(61 -30)"/><path d="m492 70-95 7-24-27z" fill="none" stroke="url(#E)" stroke-width="2.5" stroke-linecap="round" transform="translate(61 -30)"/><path d="m232 56-54 11" fill="none" stroke="url(#F)" stroke-width="2.5" stroke-linecap="round" transform="translate(61 -30)"/><path d="m227 284-70-13" fill="none" stroke="url(#G)" stroke-width="2.5" stroke-linecap="round" transform="translate(61 -30)"/><path d="m366 295 79-91 49 63z" fill="none" stroke="url(#H)" stroke-width="2.5" stroke-linecap="round" transform="translate(61 -30)"/></g></svg>