<svg xmlns="http://www.w3.org/2000/svg" viewBox="0 0 600 300"><path fill="#0fbd8c" d="M0 0h600v300H0Z" style="stroke-width:.898027"/><path fill="#ffd641" d="M-19 186a319 319 0 1 1 638 0 319 319 0 0 1-638 0Z" style="fill:#0eaa7e;fill-opacity:1;fill-rule:nonzero;stroke-linecap:butt;stroke-linejoin:miter;stroke-miterlimit:10;stroke-dasharray:none;stroke-dashoffset:0" transform="translate(18 -25) scale(.93943)"/><path fill="#ffc800" d="M20 186a280 280 0 1 1 560 0 280 280 0 0 1-560 0Z" style="fill:#0fbd8c;fill-opacity:1;fill-rule:nonzero;stroke-linecap:butt;stroke-linejoin:miter;stroke-miterlimit:10;stroke-dasharray:none;stroke-dashoffset:0" transform="translate(18 -25) scale(.93943)"/><path fill="#ffd641" d="M60 186a240 240 0 1 1 480 0 240 240 0 0 1-480 0Z" style="fill:#0eaa7e;fill-opacity:1;fill-rule:nonzero;stroke-linecap:butt;stroke-linejoin:miter;stroke-miterlimit:10;stroke-dasharray:none;stroke-dashoffset:0" transform="translate(18 -25) scale(.93943)"/><path fill="#ffc800" d="M101 186a199 199 0 1 1 398 0 199 199 0 0 1-398 0z" style="fill:#0fbd8c;fill-opacity:1;fill-rule:nonzero;stroke-linecap:butt;stroke-linejoin:miter;stroke-miterlimit:10;stroke-dasharray:none;stroke-dashoffset:0" transform="translate(18 -25) scale(.93943)"/><path fill="#ffd641" d="M140 186a160 160 0 1 1 320 0 160 160 0 0 1-320 0z" style="fill:#0eaa7e;fill-opacity:1;fill-rule:nonzero;stroke-linecap:butt;stroke-linejoin:miter;stroke-miterlimit:10;stroke-dasharray:none;stroke-dashoffset:0" transform="translate(18 -25) scale(.93943)"/><path fill="#ffc800" d="M181 186a119 119 0 1 1 238 0 119 119 0 0 1-238 0z" style="fill:#0fbd8c;fill-opacity:1;fill-rule:nonzero;stroke-linecap:butt;stroke-linejoin:miter;stroke-miterlimit:10;stroke-dasharray:none;stroke-dashoffset:0" transform="translate(18 -25) scale(.93943)"/><path fill="#ffd641" d="M220 186a80 80 0 1 1 160 0 80 80 0 0 1-160 0z" style="fill:#0eaa7e;fill-opacity:1;fill-rule:nonzero;stroke-linecap:butt;stroke-linejoin:miter;stroke-miterlimit:10;stroke-dasharray:none;stroke-dashoffset:0" transform="translate(18 -25) scale(.93943)"/><path fill="#ffc800" d="M260 186a40 40 0 1 1 80 0 40 40 0 0 1-80 0z" style="fill:#0fbd8c;fill-opacity:1;fill-rule:nonzero;stroke-linecap:butt;stroke-linejoin:miter;stroke-miterlimit:10;stroke-dasharray:none;stroke-dashoffset:0" transform="translate(18 -25) scale(.93943)"/><path fill="#fff" d="M169 135c23 0 27-12 27-23l-2-26-2-26c0-32 20-46 53-46h12v29h-6c-16 0-20 9-20 25l1 20 2 23c0 26-11 35-29 40 18 4 29 14 29 40l-2 23-1 18c0 16 4 25 20 25h6v29h-12c-31 0-51-12-51-46 0-9 0-17 2-26l1-26c0-10-3-23-26-23zm262 27c-23 0-27 13-27 23l2 26c2 9 2 18 2 26 0 34-22 46-53 46h-12v-26h6c16 0 20-9 20-25l-1-18-2-23c0-26 11-36 29-40-18-5-29-14-29-40l2-23 1-20c0-16-6-23-20-25h-6V14h12c33 0 53 14 53 46l-2 26c-2 9-2 19-2 26 0 11 4 23 27 23z"/></svg>