<svg xmlns="http://www.w3.org/2000/svg" viewBox="0 0 600 300"><g data-paper-data="{&quot;isPaintingLayer&quot;:true}" stroke-miterlimit="10" style="mix-blend-mode:normal"><path d="M0 300V0h600v300z" fill="#3b3b3b"/><path d="M372 68c0 16-33 30-72 30s-72-13-72-30c0-16 33-30 72-30s72 14 72 30z" fill="none" stroke-opacity=".1" stroke="#000" stroke-width="10"/><path d="M372 123c0 16-33 30-72 30s-72-14-72-30V84c14 12 41 24 72 24s58-12 72-24z" fill="none" stroke-opacity=".1" stroke="#000" stroke-width="10"/><path d="M372 181c0 16-33 31-72 31s-72-14-72-31v-43c14 12 41 24 72 24s58-12 72-24z" fill="none" stroke-opacity=".1" stroke="#000" stroke-width="10"/><path d="M372 232c0 17-33 30-72 30s-72-13-72-30v-35c14 12 41 24 72 24s58-12 72-24z" fill="none" stroke-opacity=".1" stroke="#000" stroke-width="10"/><path d="M372 68c0 16-33 30-72 30s-72-13-72-30c0-16 33-30 72-30s72 14 72 30z" fill="#fff"/><path d="M372 88v35c0 16-33 30-72 30s-72-14-72-30V88c14 12 41 20 72 20s58-8 72-20z" fill="#fff"/><path d="M372 142v39c0 16-33 31-72 31s-72-14-72-31v-39c14 12 41 20 72 20s58-8 72-20z" fill="#fff"/><path d="M372 201v31c0 17-33 30-72 30s-72-13-72-30v-31c14 12 41 20 72 20s58-8 72-20z" fill="#fff"/><path d="M343 119a9 9 0 1 1 18 0 9 9 0 0 1-18 0z" fill="red" stroke="#c10000" stroke-width="2.5"/><text transform="matrix(.5 0 0 .5 96 95)" font-size="40" xml:space="preserve" font-family="&quot;Lato-Bold&quot;, Sans Serif" style="mix-blend-mode:normal"><tspan x="0" dy="0">.png</tspan></text><path d="m437 86-2 7h-10v53h10v8h-10v53h10l2 7h-16c-2 0-3-1-3-4v-56h-15v-8h15V90c0-3 1-4 3-4z" fill="none" stroke-opacity=".1" stroke="#000" stroke-width="10"/><path d="m437 86-2 7h-10v53h10v8h-10v53h10l2 7h-16c-2 0-3-1-3-4v-56h-15v-8h15V90c0-3 1-4 3-4z" fill="#fff"/><g data-paper-data="{&quot;index&quot;:null}"><path d="M179 86c2 0 3 1 3 4v56h15v8h-15v56c0 3-1 4-3 4h-16l2-7h10v-53h-10v-8h10V93h-10l-2-7z" fill="none" stroke-opacity=".1" stroke="#000" stroke-width="10"/><path d="M179 86c2 0 3 1 3 4v56h15v8h-15v56c0 3-1 4-3 4h-16l2-7h10v-53h-10v-8h10V93h-10l-2-7z" fill="#fff"/></g><text transform="matrix(.5 0 0 .5 467 96)" font-size="40" xml:space="preserve" font-family="&quot;Lato-Bold&quot;, Sans Serif" style="mix-blend-mode:normal"><tspan x="0" dy="0">image/png</tspan></text><text transform="translate(33 154) scale(.38285)" font-size="40" xml:space="preserve" font-family="&quot;Lato-Bold&quot;, Sans Serif" style="mix-blend-mode:normal"><tspan x="0" dy="0">application/x-zip</tspan></text><text transform="matrix(.5 0 0 .5 467 157)" font-size="40" xml:space="preserve" font-family="&quot;Lato-Bold&quot;, Sans Serif" style="mix-blend-mode:normal"><tspan x="0" dy="0">.zip</tspan></text><text transform="matrix(.5 0 0 .5 70 214)" font-size="40" xml:space="preserve" font-family="&quot;Lato-Bold&quot;, Sans Serif" style="mix-blend-mode:normal"><tspan x="0" dy="0">.jpg,.jpeg</tspan></text><text transform="matrix(.5 0 0 .5 458 214)" font-size="40" xml:space="preserve" font-family="&quot;Lato-Bold&quot;, Sans Serif" style="mix-blend-mode:normal"><tspan x="0" dy="0">image/jpeg</tspan></text></g></svg>