<svg xmlns="http://www.w3.org/2000/svg" viewBox="0 0 600 300"><g data-paper-data="{&quot;isPaintingLayer&quot;:true}" stroke-miterlimit="10" style="mix-blend-mode:normal"><path d="M0 300V0h600v300z" fill="#ed6300"/><path d="M85 188h2v4h4v-2l1-2h2v4h1l2 1 1-2v-2l2 1v1l1 3h2l1-1 1-2 2 1v2l-1 2 3 1 1-1 2-2 1 1v2l-1 2 3 1 1-1 1-1h1l1 1-1 2-1 2 1 1 1 1 2-1 2-2 1 1v1l-1 1-1 2 1 1 1 1h1l2-1 1 1-1 2-1 1 1 2v1l2-1 2-1 1 2a65 65 0 0 1-3 3l1 3 2-1 3 1v1l-2 1-2 1 1 3h4l1 1-1 1-2 1h-1v3h4v3h-3v4h3v2l-2 1h-2v3l2 1h2l-1 2h-4l-1 3 2 1 2 1-1 1v1h-1l-2-1h-1v2l-1 1 2 1 1 1-1 2h-2l-2-1v1l-1 2 1 1c2 1 2 1 1 3h-1l-2-1-1-1-1 1-1 2 1 2 1 1v1h-1l-2-1-2-1-1 1-1 1 1 2v2l-1 1-1-1-1-2-3 2 1 2v2h-1l-1 1-1-2-1-1-3 1a34 34 0 0 0 1 4l-2 1-1-2-1-2-1 1h-2v4l-2 1v-2l-1-2h-2l-1 1v4h-2l-1-2v-2h-4v4h-2l-1-1v-3h-3l-1 1v2h-2v-4h-2l-1-1-1 2-1 2-1-1h-1v-4l-2-1-2 2-1 1-2-1 1-2 1-1-1-1-2-1-1 2-2 1-1-1h-1l1-2 1-2-1-1-1-1-1 1-2 2-1-1-1-1 1-1 1-2-1-1-1-1-1 1-2 1-1-1-1-1 2-1 1-2-1-1-1-1-2 1h-2l-1-2 3-2v-1c-1-2-1-2-3-1h-2v-1l-1-1 2-1 2-1-1-1-1-2-3 1-1-1v-1l2-1 1-1v-3h-4v-2l1-1h2v-3l-1-1h-3v-2h1a59 59 0 0 1 3-1v-3h-2l-1-1v-2h4v-3l-1-1-2-1v-1l1-1h2l1 1 1-2 1-1-2-1-2-2 1-1h2l2 1 1-3a699 699 0 0 0-1-5l1 1 2 1 1-1 1-2h-1l-1-2h-1l1-1 1-1 1 1 2 1 1-1 1-1-2-4h1l1-1 2 2 1 1 1-1 1-2-1-1-1-2 1-1h1l2 1 1 2 2-2h1l-1-2-1-2 2-1 1 2 2 2 2-1v-4l1-1h1l1 2 1 2 1-1h2v-4h2v1l1 2h3v-3zm1 43c-4 1-6 4-6 8 1 4 5 6 8 6 4-1 7-4 6-8a7 7 0 0 0-8-6zm73-64h2v3h2v-1l1-1h1v2h2l1-1v-1l1 1v1l1 1 1 1 1-1v-1h1v2l2 1v-1l1-1 1 1v1l-1 1 2 2 1-1 1-1 1 1-1 1v1l1 1 1-1h2v1l-1 1v1l1 1h1l1-1 1 1-1 1-1 1 1 1v1l1-1h1l1 1a40 40 0 0 1-2 1l1 2h1l1 1h1l-1 1h-2l1 2h1l2 1-1 1h-2v1l1 1h2v2h-2v2h1l1 1v1h-2l-1 1v1l1 1h2l-1 1h-2l-1 2 1 1h1v1h-2l-1 1v1h1l1 1-1 1h-3v1l1 1v2l-2-1h-1l-1 2 1 1h1l-1 1h-1l-1-1-1 1h-1l1 1v2h-1l-1-1v-1l-2 1v2l1 1h-1v1l-1-1-1-1h-2a21 21 0 0 0 1 3h-1l-1-1-1-1h-1v3h-2v-2h-2l-1 2v1h-1v-2h-2l-1 1v1h-1v-1l-1-1-1-1h-1v3h-1l-1-1v-2l-1-1-1 2-1 1-1-1v-2l-1-1-1 1-1 1-1-1 1-1v-1l-2-1-1 1v1h-1l-1-1 1-1v-2h-2l-1 1-1-1 1-1v-1l-1-1-1 1h-1l-1-1 1-1 1-1h-1v-1h-2l-1 1v-2l2-1-1-1h-3v-1l1-1 1-1v-1l-1-1-2 1v-1l-1-1h1l2-1-1-1h-2v-2h2v-2l-1-1h-2v-1h1a37 37 0 0 1 2-1v-2h-2v-2h2l1-2h-2v-2h1l1 1 1-1v-1l-1-1-1-1 1-1h1l1 1 1-2a436 436 0 0 0 1-2l1-1v-1l-1-1v-1l2 1 1-1h1l-1-2v-1h1l1 1h1l1-1-1-1v-1l1-1 1 1 1 1 1-1h1l-1-1v-1l1-1 1 1v1h2v-3h1l1 1v1h1l1-1v-2h1l1 1v1h2v-2zm1 28c-2 0-4 2-4 4 1 3 3 4 5 4 3 0 4-3 4-5a4 4 0 0 0-5-3zm38-180v10h-48V5h48zm-51 0v10h-47V5h47zM96 5v20H49V5h47zm123 32v10h-47V27h47zm-51 0v10h-47V27h48zm-51 0v10H70V27h47zm-51 0v10H6V27h60zm81 22v10h-47V50h47zm-51 0v10H49V50h47zM45 15v10H5V5h40zm0 44v10H5V50h40zm131 22v10h-47V72h47zm-51 0v10H78V72h47zm-51-9v19H27V72h47zm20 34v10H47V97h47zm-51 0v10H5V97h38zm80 22v10H76v-19h47zm-51 0v10H25v-19h47zm29 23v9H54v-19h47zm-51 0v9H3v-19h47zm22 12v19H48l-23 1v-20h47zM23 81v10H6V72h17zm-1 47v10H5v-19h17zm0 45v10l-8-1H5v-19h17z" data-paper-data="{&quot;index&quot;:null}" fill-opacity=".5"/><path d="m376 296-24-1v-19h47v20h-23zm27-10v-10h47v20h-47zm51 0v-10h47v20h-47zm74 9h-23v-19h47v19h-24zm-147-31v-10h47v19h-47zm51 0v-10h47v19h-47zm51 0v-10h47v19h-47zm51 0v-10h61v19h-61zm-131-23v-9h47v19h-47zm-51 0v-9h47v19h-47zm102 0v-9h47v19h-47zm51 0v-9h47v19h-47zm51 45v-10h40v19h-20l-20 1zm0-45v-9h40v19h-40zm-182-22v-9h47v19h-47zm51 0v-10h47v20h-47zm51 0v-9h47v19h-47zm74 10h-23v-19h47v19h-24zm-94-35v-9h47v19h-47zm51 0v-9h47v19h-47zm51 0v-9h38v19h-38zm-131-22v-10h47v20h-47zm51 0v-10h47v20h-47zm51 0v-9h47v19h-47zm-29-22v-10h47v20h-47zm51 0v-10h47v20h-47zm1-12-23-1v-19h47v20h-24zm26 81v-9h17v19h-17zm0-47v-10l9 1h9v19h-18zm0-44v-10h18v20h-18z" fill-opacity=".5"/><path d="m138 251-6 1-8-1-11-21v21l-6 1-7-1v-46l6-1h5l3 2 11 21v-22l7-1 6 1v46zm19 1h-13v-34h13zm0-38h-13v-10l7-1 6 1zm18 21c0 5 1 7 5 7l5-1 2 3v7l-10 2c-4 0-8-2-11-5s-4-7-4-13c0-5 1-10 4-13s7-5 12-5 8 1 10 4l1 2-1 3-3 6h-1l-1-1c-2-2-3-3-5-3l-2 2-1 5zm29 17h-6l-6-1v-47h3l3-1c4 0 6 1 6 2v13l6-1c3 0 6 1 8 3s3 5 3 10v22h-11v-21c0-2-1-3-3-3l-3 1zm49-2c-3 2-7 3-11 3-5 0-9-2-12-5s-4-7-4-13c0-5 1-10 4-13s7-5 11-5c5 0 9 1 11 4 3 2 4 5 4 8 0 8-4 11-13 11h-5l1 3 4 1 9-2v1c2 2 2 3 2 5l-1 2zm-9-20c0-1-1-2-3-2h-2l-1 3v2h4c1 0 2-1 2-3zm50 21-7 1-6-1v-34h-9l-1-4a23 23 0 0 1 0-6l1-3h30c1 0 2 1 2 3a23 23 0 0 1 0 6c0 3-1 4-2 4h-8zm14-3c-3-3-4-7-4-13s1-10 4-13 7-5 12-5 9 2 11 5c3 3 5 7 5 13s-2 10-5 13c-2 3-6 5-11 5s-9-2-12-5zm12-19c-3 0-4 2-4 6s1 6 4 6c2 0 4-2 4-6s-2-6-4-6zm24 19c-3-3-5-7-5-13s2-10 5-13c2-3 6-5 11-5s9 2 12 5 4 7 4 13-1 10-4 13-7 5-12 5-9-2-11-5zm11-19c-2 0-4 2-4 6s2 6 4 6c3 0 4-2 4-6s-1-6-4-6zm33 23h-12v-47l6-1 6 1zm7-48 6-1 6 1v14l4-1c10 0 14 6 14 17 0 6-1 11-4 14s-7 5-13 5c-5 0-10-1-13-4zm14 24-2 1v13h2l2-1 2-6c0-5-1-7-4-7zm24 20c-3-3-4-7-4-13s1-10 4-13 7-5 12-5 9 2 11 5c3 3 5 7 5 13s-2 10-5 13c-2 3-6 5-11 5s-9-2-12-5zm12-19c-3 0-4 2-4 6s1 6 4 6c2 0 4-2 4-6s-2-6-4-6zm41-11 4-1 10 1-9 18 9 15-4 1h-6l-5-1-4-11-4 12h-10l-3-1 8-15a2328 2328 0 0 1-6-18h12l4 12z" fill="none" stroke-opacity=".4" stroke="#000" stroke-width="12.5" stroke-linecap="square"/><path d="M314 48c7 1 12 3 17 7a248 248 0 0 1 27 32l2 3 3 5h1l3-1 5 2 2 5-1 3-6 6-6 6h-6c-2-1-4-3-4-6 0-2 0-3 2-5l1-1-2-2c-3-4-5-6-8-6h-2c-3 1-5 1-7-1l-2-1-12 12-12 12a111 111 0 0 0 9 10 5489 5489 0 0 1 21 20l4 4a644 644 0 0 1 19 18c2 2 3 6 2 9 0 4-4 8-8 10h-3l-4-1c-2 0-3-1-5-3l-7-7-8-9-19-21-5-5a2763 2763 0 0 1-7-6l-10 10a3455 3455 0 0 1-40 40l-3-1c-2 0-2-1-8-7s-7-7-7-9c-1-1 0-3 1-5a141 141 0 0 1 12-11l11-12 6-5 5-6 6-5a1463 1463 0 0 1 10-10l-9-8-3-5-2-1h-1a243 243 0 0 1-21 4 1252 1252 0 0 1-19-27l4-4 4-4 8 8 8 9 5-2 6-2 1-3a422 422 0 0 0 2-7l-8-9-8-8 4-4 4-4h1a4711 4711 0 0 0 26 20l-1 6-1 3-1 4-1 3v4l5 6a3804 3804 0 0 1 12 12h1l12-12 12-13-1-4 1-3 1-5c-1-5-4-10-10-14l-11-5c-3-1 0-4 4-4a94 94 0 0 1 9 1z" fill="none" stroke-opacity=".4" stroke="#000" stroke-width="12.5"/><path d="m138 251-6 1-8-1-11-21v21l-6 1-7-1v-46l6-1h5l3 2 11 21v-22l7-1 6 1v46zm19 1h-13v-34h13zm0-38h-13v-10l7-1 6 1zm18 21c0 5 1 7 5 7l5-1 2 3v7l-10 2c-4 0-8-2-11-5s-4-7-4-13c0-5 1-10 4-13s7-5 12-5 8 1 10 4l1 2-1 3-3 6h-1l-1-1c-2-2-3-3-5-3l-2 2-1 5zm29 17h-6l-6-1v-47h3l3-1c4 0 6 1 6 2v13l6-1c3 0 6 1 8 3s3 5 3 10v22h-11v-21c0-2-1-3-3-3l-3 1zm49-2c-3 2-7 3-11 3-5 0-9-2-12-5s-4-7-4-13c0-5 1-10 4-13s7-5 11-5c5 0 9 1 11 4 3 2 4 5 4 8 0 8-4 11-13 11h-5l1 3 4 1 9-2v1c2 2 2 3 2 5l-1 2zm-9-20c0-1-1-2-3-2h-2l-1 3v2h4c1 0 2-1 2-3zm50 21-7 1-6-1v-34h-9l-1-4a23 23 0 0 1 0-6l1-3h30c1 0 2 1 2 3a23 23 0 0 1 0 6c0 3-1 4-2 4h-8zm14-3c-3-3-4-7-4-13s1-10 4-13 7-5 12-5 9 2 11 5c3 3 5 7 5 13s-2 10-5 13c-2 3-6 5-11 5s-9-2-12-5zm12-19c-3 0-4 2-4 6s1 6 4 6c2 0 4-2 4-6s-2-6-4-6zm24 19c-3-3-5-7-5-13s2-10 5-13c2-3 6-5 11-5s9 2 12 5 4 7 4 13-1 10-4 13-7 5-12 5-9-2-11-5zm11-19c-2 0-4 2-4 6s2 6 4 6c3 0 4-2 4-6s-1-6-4-6zm33 23h-12v-47l6-1 6 1zm7-48 6-1 6 1v14l4-1c10 0 14 6 14 17 0 6-1 11-4 14s-7 5-13 5c-5 0-10-1-13-4zm14 24-2 1v13h2l2-1 2-6c0-5-1-7-4-7zm24 20c-3-3-4-7-4-13s1-10 4-13 7-5 12-5 9 2 11 5c3 3 5 7 5 13s-2 10-5 13c-2 3-6 5-11 5s-9-2-12-5zm12-19c-3 0-4 2-4 6s1 6 4 6c2 0 4-2 4-6s-2-6-4-6zm41-11 4-1 10 1-9 18 9 15-4 1h-6l-5-1-4-11-4 12h-10l-3-1 8-15a2328 2328 0 0 1-6-18h12l4 12zM313 47l1 1c7 1 12 3 17 7a248 248 0 0 1 27 32l2 3 3 5h1l3-1 5 2 2 5-1 3-6 6-6 6h-6c-2-1-4-3-4-6 0-2 0-3 2-5l1-1-2-2c-3-4-5-6-8-6h-2c-3 1-5 1-7-1l-2-1-12 12-12 12a111 111 0 0 0 9 10 5493 5493 0 0 1 21 20l4 4a644 644 0 0 1 19 18c2 2 3 6 2 9 0 4-4 8-8 10h-3l-4-1c-2 0-3-1-5-3l-7-7-8-9-19-21-5-5a2758 2758 0 0 1-7-6l-10 10a3449 3449 0 0 1-40 40l-3-1c-2 0-2-1-8-7s-7-7-7-9c-1-1 0-3 1-5a141 141 0 0 1 12-11l11-12 6-5 5-6 6-5a1463 1463 0 0 1 10-10l-9-8-3-5-2-1h-1a243 243 0 0 1-21 4 1252 1252 0 0 1-19-27l4-4 4-4 8 8 8 9 5-2 6-2 1-3a422 422 0 0 0 2-7l-8-9-8-8 4-4 4-4h1a4711 4711 0 0 0 26 20l-1 6-1 3-1 4-1 3v4l5 6a3806 3806 0 0 1 12 12h1l12-12 12-13-1-4 1-3 1-5c-1-5-4-10-10-14l-11-5c-3-1 0-4 4-4h8z" fill="#fff"/><path d="M505 110h-2v-2l-1-2h-3v2l-1 2h-1l-1-1v-4h-3l-1 2-1 1h-2v-2c1-2 1-2-1-2l-1-1-1 2-1 2-2-1v-2l1-2-3-1-1 1-2 2-2-1 1-2 1-2-3-2-1 2-2 1v-1h-1l1-2 1-2-1-1-2-1-1 1-2 1-1-1 1-2 1-1-1-1-1-2-2 1-1 1-2-2 2-1 1-1-1-2-1-1-1 1h-2l-1-2a65 65 0 0 1 3-2l-1-3-2 1-3-1v-1l2-1 1-1v-3h-2l-3-1v-1h1l2-1h1v-3h-2l-2-1-1-1v-1h3l1-1v-3h-2l-2-1v-1l1-1h3l1-1v-2l-2-1-2-1 1-2h2l2 1v-3l-1-1-2-1v-1l1-1h3l1 1v-2l1-1-2-2-1-1 1-2 2 1 1 1 1-1 1-2-1-1c-2-2-2-2-1-3l1-1 1 1 2 1 2-2-1-2-1-1v-1l1-1 2 1 1 1 2-1 1-1-1-1v-3l2 1 1 1 3-1-1-2-1-2 1-1h1l1 1 2 2 3-2a34 34 0 0 0-1-3l2-1 1 2 1 1h1l2-1-1-2v-2h2l1 2 1 1v1l1-1h2v-4h2l1 2v2h3l1-2v-2h2v1l1 3h3v-2l1-2h1l1 1v4h3l1-1 1-2h1l1 1v2l-1 1 3 1 1-1 1-2 2 1v2l-1 2 3 1 1-1 1-1h1l1 1-1 2v1l1 1 1 1 1-1 2-1h1l1 1-1 2-2 2 2 1 1 1 1-1 2-1 1 1-1 2-1 1 1 2 1 1 2-1 1-1 1 2-3 3 1 1c1 2 1 2 3 1l2-1v3l-1 1-2 1 1 1 1 2 3-1 1 1v1l-2 1-2 1 1 3h4v2h-2l-2 1v2l1 1h1l2 1v2a59 59 0 0 1-3 0l-1 2v2h2l2 1v2h-4l-1 3 2 1h2v2l-1 1-2-1h-2v2l-1 1 2 1 1 1-1 2h-1l-2-1-2 3 2 1 1 1-1 2h-1l-2-1-1 1-1 1v1l2 1v2l-1 1-2-1-1-1-1 1-1 1 2 3-1 1-1 1v-1l-2-1-1-1-1 1-1 1v2l1 2h-1l-1 1-1-1-1-2-3 1v1l1 1v2l-2 1-1-1-1-2-3 1 1 2v2h-1l-1 1-1-2-1-2-1 1h-2v4h-2l-1-2v-1h-3l-1 3zm-1-43c3-1 6-5 5-8 0-4-4-7-8-6-3 1-6 4-6 8a7 7 0 0 0 9 6zm-74 63h-1v-2h-2l-1 1v1h-1v-3h-2l-1 1v1h-2l1-1-1-2h-1l-1 1v1h-2l1-2v-1l-2-1-1 1v1h-2l1-2v-1l-1-1-1 1-1 1-1-1 1-1v-1l-1-1h-1l-1 1-1-1v-1l1-1v-1h-2l-1 1-1-2h1l1-1-1-1v-1l-1 1h-2v-1a40 40 0 0 1 2-2l-1-2-1 1-2-1 1-1 1-1v-1h-1l-2-1 1-1h1v-2h-1l-1-1v-1h2v-3h-2v-1h2v-1l1-1-2-1h-1l1-2h1l1 1 1-2-2-1h-1l1-1v-1l2 1 1-1v-1l-1-1-1-1 1-1 1 1h1l1-1-1-1v-2h1l1 1 1-1 1-1-1-1-1-1h1v-1l1 1 1 1 1-1h1l-1-2v-1h1l1 1 2-1-1-1v-1h1v-1l1 1 1 1 1-1a21 21 0 0 0 0-2l1-1 1 2v1l1-1h1v-2l1-1 1 1v2l1-1h1v-2h2v2h2l1-1v-1h1l1 2h1l1-1v-1h1v3h2l1-1v-1h2l-1 2v1h2l1-1h2l-1 1v2h2v-1h2v2l-1 1h1l1 1 1-1 1-1v1h1l-1 1-1 1 1 1 1 1 1-1h1l1 1h-1l-1 1 1 1v1l1-1h1l1 1-2 2 1 1h3v1l-1 1h-1v1l1 1h2v1l-1 1h-1v2h3v1l-1 1h-1v2h2v2a37 37 0 0 1-2 0v2l1 1h1v1h-3v2l1 1h1v2l-1-1h-2v2l1 1h1l-1 2-1-1h-1l-1 2h1l1 1-1 1h-1l-1-1-1 1v1l1 1v1l-1 1-1-1-1-1v1l-1 1 1 2-1 1-1-1-1-1v1l-1 1v1l1 1h-2l-1-1h-2v1l1 1v1l-1 1-1-1v-1h-2v3h-1l-1-1v-1h-2v3h-2v-2h-2v2zm0-27c2 0 4-2 3-5 0-2-2-4-5-3-2 0-4 2-3 5a4 4 0 0 0 5 3z" data-paper-data="{&quot;index&quot;:null}" fill-opacity=".5"/><g stroke-width="0"><path d="M0 19V0h200v19z"/><path d="m102 19 32-19h31l-32 19zm66 0 32-19v19zM35 19 67 0h32L67 19zM0 0h32L0 19z" fill="#ffb900"/><path d="M200 19V0h200v19z"/><path d="m302 19 31-19h32l-32 19zm66 0 32-19v19zm-133 0 32-19h31l-32 19zM200 0h32l-32 19z" fill="#ffb900"/><path d="M400 19V0h200v19z"/><path d="m501 19 32-19h32l-32 19zm67 0 32-19v19zm-133 0 32-19h31l-32 19zM400 0h32l-32 19z" fill="#ffb900"/></g><g data-paper-data="{&quot;index&quot;:null}" stroke-width="0"><path d="M200 281v19H0v-19z"/><path d="m133 281 32 19h-31l-32-19zm67 0v19l-32-19zm-133 0 32 19H67l-32-19zm-67 0 32 19H0z" fill="#ffb900"/><path d="M400 281v19H200v-19z"/><path d="m333 281 32 19h-32l-31-19zm67 0v19l-32-19zm-134 0 32 19h-31l-32-19zm-66 0 32 19h-32z" fill="#ffb900"/><path d="M600 281v19H400v-19z"/><path d="m533 281 32 19h-32l-32-19zm67 0v19l-32-19zm-134 0 32 19h-31l-32-19zm-66 0 32 19h-32z" fill="#ffb900"/></g></g></svg>