<svg version="1.1" xmlns="http://www.w3.org/2000/svg" xmlns:xlink="http://www.w3.org/1999/xlink" width="600" height="300" viewBox="0,0,600,300"><g transform="translate(60,-30)"><g data-paper-data="{&quot;isPaintingLayer&quot;:true}" fill-rule="nonzero" stroke-linejoin="miter" stroke-miterlimit="10" stroke-dasharray="" stroke-dashoffset="0" style="mix-blend-mode: normal"><path d="M-60,330v-300h600v300z" fill="#ed6300" stroke="none" stroke-width="0" stroke-linecap="butt"/><path d="M24.52071,217.81354h1.15164h1.15164l0.27191,1.87141c0.14396,1.02368 0.33589,1.9354 0.39988,1.99938c0.07997,0.07997 0.81574,0.11196 1.64749,0.09597l1.50353,-0.04798l0.39988,-1.79143c0.22393,-0.97569 0.44786,-1.82344 0.49585,-1.88742c0.06398,-0.04799 0.57581,-0.04798 1.15164,0.016l1.05567,0.11196l0.04798,1.99937l0.04799,2.01537l1.51952,0.27191c0.83175,0.14396 1.56751,0.22393 1.6155,0.15996c0.06398,-0.04799 0.36789,-0.81575 0.70378,-1.69548c0.3199,-0.87973 0.6398,-1.66348 0.71977,-1.72745c0.12796,-0.14396 1.71147,0.14396 2.06335,0.35189c0.11196,0.07997 0.09598,0.60781 -0.06398,1.69547c-0.35189,2.44724 -0.43186,2.23931 1.08767,2.71916c0.71978,0.22393 1.39156,0.44786 1.50353,0.49585c0.11196,0.04798 0.55982,-0.60781 1.08766,-1.5995c0.49585,-0.92771 0.94371,-1.72746 1.00769,-1.75945c0.09598,-0.06398 1.9194,0.6078 2.06336,0.76776c0.03199,0.03199 -0.15996,0.83174 -0.43187,1.79144c-0.25592,0.9597 -0.47985,1.82343 -0.47985,1.90341c0,0.12796 2.54321,1.51952 2.78314,1.51952c0.03199,0 0.57582,-0.68779 1.19962,-1.51952c0.62381,-0.83175 1.21562,-1.51952 1.29559,-1.51952c0.11196,0 1.69547,0.86372 1.87142,1.02368c0.03199,0.01599 -0.31989,0.84774 -0.75176,1.85542c-0.44786,0.99169 -0.78375,1.82343 -0.76776,1.83943c0.51184,0.38388 2.5432,1.67947 2.63917,1.67947c0.06398,0 0.73578,-0.60781 1.48754,-1.35957l1.35958,-1.34358l0.84773,0.63979c0.44786,0.35189 0.83175,0.70379 0.83175,0.76776c0,0.06398 -0.44786,0.86373 -0.99169,1.74346l-0.97569,1.63149l1.08766,0.99169c0.59181,0.55982 1.15164,1.03967 1.23162,1.05566c0.06398,0.03199 0.79974,-0.44786 1.63149,-1.07166c0.87973,-0.68779 1.58351,-1.10366 1.72746,-1.05566c0.12796,0.04798 0.49585,0.41587 0.83174,0.81574l0.59181,0.70378l-1.07166,1.32758c-0.59181,0.71977 -1.15164,1.40756 -1.23162,1.50353c-0.11196,0.14396 0.12795,0.54383 0.76776,1.32758c0.51184,0.62381 0.99169,1.16764 1.05567,1.21562c0.07997,0.04798 0.86373,-0.3199 1.72746,-0.79975c0.86373,-0.49585 1.66348,-0.89572 1.74345,-0.89572c0.17594,0 1.31159,1.47154 1.31159,1.71147c0,0.07998 -0.60782,0.70379 -1.35958,1.39157c-0.75176,0.67179 -1.35958,1.29559 -1.35958,1.37557c0,0.07997 0.36789,0.70378 0.81575,1.40756l0.79975,1.2636l1.83943,-0.71977c1.00768,-0.38388 1.85542,-0.68779 1.88741,-0.65579c0.12796,0.17594 1.05567,1.96739 1.00768,1.98338c-0.01599,0.016 -0.73577,0.52783 -1.58351,1.10366c-0.86373,0.59181 -1.56751,1.13565 -1.56751,1.18363c0,0.07997 1.07166,2.62318 1.21562,2.8791c0,0.01599 0.87973,-0.17594 1.9194,-0.43187c2.14333,-0.51184 1.96739,-0.57582 2.46323,0.84773l0.28791,0.84774l-1.74345,0.86373c-0.9597,0.46386 -1.74346,0.92771 -1.74346,1.02368c0.01599,0.22393 0.78376,2.83112 0.86373,2.92708c0.04798,0.03199 0.92771,-0.01599 1.95139,-0.12796c2.11135,-0.20794 2.04736,-0.23992 2.2233,0.92771c0.06398,0.38388 0.14396,0.79975 0.17595,0.91172c0.06398,0.14396 -0.28791,0.33589 -1.00769,0.55982c-0.59181,0.20794 -1.45554,0.49585 -1.90341,0.6558l-0.81575,0.3039l0.20794,1.40756c0.12796,0.76776 0.22393,1.47154 0.22393,1.56751c0,0.11196 0.70378,0.22393 1.95139,0.28791c1.08766,0.06398 1.98338,0.14396 2.01537,0.15995c0.01599,0.03199 0.04798,0.54383 0.07997,1.13565l0.03199,1.10366l-1.11965,0.20794c-0.60781,0.12796 -1.47154,0.28791 -1.9194,0.38388l-0.79975,0.14396v1.59949v1.5995l0.79975,0.15995c0.44786,0.09598 1.31159,0.25592 1.9194,0.36789l1.11965,0.20794l-0.03199,1.08766c-0.03199,0.60781 -0.06397,1.11964 -0.09597,1.15164c-0.01599,0.03199 -0.91172,0.09598 -1.98338,0.15995l-1.9354,0.11196l-0.19194,1.37558c-0.09598,0.75176 -0.19194,1.47154 -0.20794,1.5995c-0.01599,0.14396 0.57582,0.41587 1.79144,0.83174c1.00768,0.33589 1.83942,0.6398 1.87141,0.65579c0.06398,0.06398 -0.36789,2.04737 -0.46385,2.14333c-0.04798,0.04798 -0.92771,0 -1.95139,-0.09598c-1.02368,-0.09598 -1.90341,-0.15995 -1.93539,-0.11196c-0.07997,0.07997 -0.86373,2.70315 -0.86373,2.91109c0,0.09598 0.78375,0.55983 1.74345,1.03968l1.74346,0.84773l-0.36789,1.02369c-0.20794,0.57582 -0.39987,1.05567 -0.43186,1.08766c-0.03199,0.03199 -0.44786,-0.03199 -0.92771,-0.15996c-0.47985,-0.12796 -1.32759,-0.33589 -1.88741,-0.46386l-1.02369,-0.23992l-0.62381,1.37558c-0.33589,0.75176 -0.62381,1.42356 -0.62381,1.48753c0,0.07998 0.70379,0.62381 1.56752,1.21562c0.84773,0.57582 1.56751,1.08767 1.5995,1.10366c0.07997,0.06398 -1.00768,1.99937 -1.13564,1.99937c-0.06398,0 -0.89573,-0.31989 -1.87142,-0.70378l-1.74345,-0.70378l-0.71977,1.15164c-0.39988,0.6398 -0.76776,1.2796 -0.81575,1.40756c-0.06398,0.15995 0.35189,0.65579 1.2956,1.53552c1.56751,1.45555 1.55151,1.39157 0.51184,2.65517l-0.44786,0.55983l-1.71147,-0.97569l-1.69547,-0.99169l-0.47985,0.55983c-1.5995,1.88741 -1.59949,1.88741 -1.37557,2.19131c0.11196,0.14396 0.67179,0.83175 1.23161,1.51952l1.02369,1.23162l-0.67179,0.79975c-0.36789,0.44786 -0.75177,0.79975 -0.84774,0.79975c-0.07997,0 -0.83175,-0.51184 -1.66348,-1.11965c-0.97569,-0.75177 -1.56751,-1.08766 -1.71147,-1.00769c-0.11196,0.06398 -0.65579,0.54383 -1.21562,1.03968l-1.00769,0.91171l1.00769,1.69548c1.10366,1.85541 1.10365,1.77544 -0.04799,2.59118l-0.70378,0.51184l-1.34358,-1.35958c-0.73577,-0.73577 -1.39156,-1.34358 -1.47154,-1.34358c-0.09598,0 -2.09535,1.2796 -2.63918,1.67947c-0.01599,0.016 0.3199,0.84774 0.76776,1.83943c0.43187,1.00768 0.78375,1.83942 0.75176,1.85541c-0.01599,0.01599 -0.46385,0.28791 -0.97569,0.59181l-0.9437,0.57581l-1.10366,-1.47154c-0.60781,-0.81574 -1.16764,-1.53551 -1.23162,-1.59949c-0.15996,-0.15995 -2.8951,1.16764 -2.8951,1.40756c0,0.07997 0.22393,0.94371 0.47985,1.90341c0.27191,0.9597 0.46385,1.75946 0.43187,1.79144c-0.14396,0.15996 -1.96739,0.83174 -2.06335,0.76776c-0.06398,-0.03199 -0.51184,-0.81574 -0.99169,-1.72745l-0.89572,-1.66348l-1.47154,0.47985c-0.81574,0.25592 -1.51952,0.49584 -1.55152,0.54383c-0.03199,0.03199 0.04798,0.89573 0.19194,1.9354c0.15996,1.2636 0.19194,1.9194 0.09598,1.98338c-0.35189,0.20793 -1.9354,0.49584 -2.06336,0.35189c-0.07997,-0.06398 -0.35189,-0.70378 -0.60781,-1.40756c-0.27191,-0.70378 -0.55983,-1.47154 -0.6398,-1.69547l-0.15995,-0.41587l-1.5835,0.27191l-1.56752,0.25592l-0.04798,2.01537l-0.04798,2.01537l-1.03967,0.11196c-0.57581,0.06398 -1.10366,0.06398 -1.15165,0c-0.06398,-0.04798 -0.28791,-0.91171 -0.51183,-1.88741l-0.39988,-1.79144l-1.50353,-0.04798c-0.83175,-0.016 -1.56751,0.01599 -1.64749,0.09597c-0.06398,0.06398 -0.25592,0.9757 -0.39988,1.99937l-0.27191,1.87142h-1.15165h-1.15164l-0.11196,-1.24761c-0.20794,-2.73514 -0.20794,-2.73514 -0.76776,-2.83111c-0.28791,-0.04799 -1.00769,-0.09598 -1.6155,-0.12796l-1.08766,-0.03199l-0.52783,1.75945l-0.51184,1.75945l-0.70378,-0.016c-0.38388,0 -0.91172,-0.06398 -1.16764,-0.12796l-0.44786,-0.11196l0.11196,-1.96739l0.11196,-1.95139l-1.55151,-0.41587l-1.55152,-0.39988l-0.84773,1.80743c-0.55982,1.18363 -0.92771,1.79144 -1.07166,1.75945c-0.11196,-0.04798 -0.59181,-0.19194 -1.03968,-0.33589c-0.46386,-0.14396 -0.84773,-0.3519 -0.84773,-0.44786c0,-0.11196 0.15995,-0.97569 0.33589,-1.9194c0.20794,-1.00768 0.28791,-1.77544 0.20794,-1.85541c-0.33589,-0.3039 -2.81511,-1.16764 -2.91109,-1.02369c-0.06398,0.07997 -0.52783,0.81574 -1.03968,1.6155c-0.52783,0.81574 -1.00769,1.47154 -1.08766,1.47154c-0.3039,0 -1.90341,-0.87973 -1.90341,-1.03968c0,-0.09598 0.28791,-0.9437 0.62381,-1.88741l0.62381,-1.72746l-0.35189,-0.20793c-1.95139,-1.18363 -2.38326,-1.37558 -2.59119,-1.19963c-0.12796,0.11196 -0.70378,0.75177 -1.29559,1.43955c-0.57581,0.70379 -1.11965,1.2636 -1.19962,1.2636c-0.09598,0 -0.54383,-0.27191 -1.00769,-0.59181l-0.84773,-0.60781l0.86372,-1.69547c0.47985,-0.92771 0.86373,-1.72746 0.86373,-1.77545c0,-0.06398 -0.54383,-0.54383 -1.21562,-1.07166l-1.23161,-0.97569l-1.21562,1.07166c-0.67179,0.59181 -1.34358,1.16764 -1.48754,1.29559c-0.25592,0.20794 -0.35189,0.17595 -1.02368,-0.36789c-0.39988,-0.33589 -0.76776,-0.70378 -0.81575,-0.81574c-0.03199,-0.11196 0.43187,-0.91171 1.05567,-1.77545l1.11965,-1.56752l-1.13565,-1.15164l-1.13564,-1.13565l-1.5835,1.02369c-0.86373,0.55982 -1.6315,1.02368 -1.71147,1.02368c-0.07997,0 -0.44786,-0.36789 -0.81574,-0.79975l-0.67179,-0.79975l1.35958,-1.48753l1.35958,-1.47154l-0.87973,-1.19962c-0.47985,-0.6558 -0.9597,-1.21562 -1.07166,-1.24761c-0.09598,-0.01599 -0.92771,0.3199 -1.83943,0.76776c-0.91171,0.44786 -1.71147,0.75176 -1.75946,0.67179c-0.91171,-1.37557 -1.16764,-1.83943 -1.02368,-1.9194c0.43187,-0.3039 2.92708,-2.33526 2.92708,-2.39925c0,-0.04798 -0.33589,-0.68779 -0.73577,-1.42356c-0.84773,-1.55151 -0.60781,-1.50353 -3.07104,-0.67179c-0.75176,0.25592 -1.39156,0.43187 -1.43955,0.39988c-0.03199,-0.03199 -0.25592,-0.49584 -0.51184,-1.02368c-0.33589,-0.71977 -0.41587,-1.00768 -0.27191,-1.11964c0.11196,-0.07997 0.87973,-0.54383 1.72746,-1.03968l1.53552,-0.89573l-0.55982,-1.53551c-0.43187,-1.15164 -0.62381,-1.50353 -0.81574,-1.45555c-0.6558,0.19194 -3.56689,0.59181 -3.64686,0.51184c-0.04798,-0.04798 -0.20793,-0.54383 -0.36789,-1.10366l-0.28791,-1.02368l1.71147,-0.68779c0.92771,-0.38388 1.75945,-0.73577 1.82343,-0.79975c0.11196,-0.11196 -0.15995,-1.80743 -0.47985,-2.94308c-0.07997,-0.28791 -0.20794,-0.3039 -2.06336,-0.19194l-1.96739,0.09597l-0.09597,-0.75176c-0.04798,-0.43187 -0.12796,-0.94371 -0.17594,-1.16764c-0.06398,-0.38388 -0.016,-0.41587 1.80743,-0.89572l1.88741,-0.47985l-0.04798,-1.5995c-0.03199,-0.86373 -0.07998,-1.5995 -0.09598,-1.6155c-0.01599,-0.01599 -0.67178,-0.11196 -1.45554,-0.19194c-0.79975,-0.09597 -1.67948,-0.20793 -1.95139,-0.25591l-0.52783,-0.09598v-1.10366v-1.10366l0.52783,-0.07998c0.27191,-0.04798 1.15164,-0.15995 1.95139,-0.25591c0.78375,-0.09598 1.43955,-0.19194 1.45554,-0.20794c0.01599,-0.016 0.06398,-0.75177 0.09598,-1.6155l0.04798,-1.5835l-1.88741,-0.49585c-1.82343,-0.47985 -1.87141,-0.49585 -1.80743,-0.89572c0.04798,-0.22393 0.12796,-0.73577 0.17594,-1.15164l0.09597,-0.76776l1.96739,0.11196c1.85541,0.09597 1.98338,0.07997 2.06336,-0.20794c0.3199,-1.13565 0.59181,-2.83112 0.47985,-2.94308c-0.06398,-0.06398 -0.89572,-0.41587 -1.82343,-0.79975l-1.71147,-0.68778l0.28791,-1.02369c0.15996,-0.55982 0.3199,-1.05567 0.35189,-1.10366c0.04798,-0.03199 0.94371,0.06398 1.98338,0.23992c1.03968,0.17594 1.9194,0.3039 1.9194,0.28791c0.01599,-0.016 0.28791,-0.70378 0.59181,-1.51952l0.54383,-1.48753l-1.64749,-0.95971c-0.91171,-0.54383 -1.66348,-1.07166 -1.66348,-1.18363c0,-0.41587 0.81574,-1.98338 1.00768,-1.91939c0.11196,0.03199 0.89573,0.28791 1.75946,0.55982c0.86373,0.28791 1.64749,0.47985 1.75945,0.43187c0.28791,-0.11196 1.6155,-2.67117 1.45554,-2.81512c-0.07997,-0.06398 -0.71977,-0.57582 -1.42355,-1.13564c-0.70378,-0.55983 -1.34358,-1.07167 -1.40756,-1.13565c-0.11196,-0.07998 0.70378,-1.59949 1.08766,-2.03137c0.03199,-0.03199 0.78375,0.3199 1.67947,0.76776c0.89572,0.44786 1.72746,0.79975 1.83943,0.76777c0.11196,-0.03199 0.60781,-0.59181 1.08766,-1.24761l0.89573,-1.19963l-0.75177,-0.79975c-0.41587,-0.44786 -1.03968,-1.10366 -1.37557,-1.47154l-0.62381,-0.67179l0.67179,-0.79975c0.38388,-0.44786 0.75177,-0.81575 0.83175,-0.81575c0.06398,0 0.83174,0.46386 1.69547,1.02368l1.56751,1.03968l1.15164,-1.13565c0.70378,-0.68779 1.10365,-1.21562 1.02368,-1.31159c-0.89572,-1.19962 -2.09535,-2.97507 -2.09535,-3.10303c0,-0.09597 0.36789,-0.46385 0.79975,-0.83175l0.79975,-0.67179l0.54383,0.46386c0.3039,0.23992 0.97569,0.83174 1.50353,1.2796l0.9597,0.84773l1.21562,-0.9597c0.67179,-0.52783 1.21562,-1.00768 1.21562,-1.07166c0,-0.04798 -0.38388,-0.86372 -0.86373,-1.79143l-0.86372,-1.69547l0.84773,-0.60781c0.46386,-0.3199 0.91171,-0.59181 1.00768,-0.59181c0.07997,0 0.62381,0.55983 1.19963,1.2636c0.59181,0.68779 1.16764,1.32758 1.29559,1.43956c0.20794,0.17594 0.6398,-0.016 2.59119,-1.19963l0.35189,-0.20793l-0.62381,-1.72746c-0.33589,-0.94371 -0.62381,-1.79143 -0.62381,-1.88741c0,-0.15996 1.5995,-1.03968 1.90341,-1.03968c0.07997,0 0.55983,0.6558 1.08766,1.47154c0.51184,0.79975 0.97569,1.53552 1.03968,1.63149c0.09598,0.14396 2.5432,-0.71977 2.91109,-1.03968c0.07997,-0.07997 0,-0.84773 -0.20793,-1.85541c-0.17594,-0.94371 -0.33589,-1.80743 -0.33589,-1.90341c0,-0.09598 0.41587,-0.3039 0.92771,-0.46385c0.49585,-0.15996 0.9597,-0.3199 1.03967,-0.35189c0.06398,-0.04799 0.51184,0.75176 0.97569,1.75945l0.86373,1.82343l1.55151,-0.39988l1.55151,-0.41587l-0.11196,-1.95139l-0.11196,-1.96738l0.44786,-0.11196c0.25592,-0.06398 0.78375,-0.12796 1.16764,-0.12796l0.68779,-0.01599l0.52783,1.75945l0.51184,1.75945l1.10366,-0.03199c0.60781,-0.03199 1.32758,-0.07997 1.6155,-0.12796c0.55982,-0.09598 0.55983,-0.09598 0.76776,-2.84712zM25.92827,261.06403c-3.53489,0.76776 -5.99813,4.31865 -5.4383,7.80556c0.60781,3.82281 4.25467,6.52596 7.93352,5.91815c3.82281,-0.63979 6.49397,-4.28665 5.87017,-7.96551c-0.49585,-2.8631 -2.55919,-5.08641 -5.34233,-5.74221c-1.19963,-0.27192 -1.82343,-0.28791 -3.02305,-0.016z" data-paper-data="{&quot;index&quot;:null}" fill-opacity="0.50196" fill="#000000" stroke="none" stroke-width="1" stroke-linecap="butt"/><path d="M99.33979,197.39621l0.72171,0.00792l0.72171,0.00793l0.15753,1.17464c0.08317,0.64251 0.19719,1.21518 0.23684,1.25572c0.04957,0.05067 0.51044,0.07577 1.03179,0.07147l0.94256,-0.01973l0.26292,-1.1199c0.14704,-0.60991 0.29321,-1.13963 0.32372,-1.17939c0.04043,-0.02963 0.36119,-0.02611 0.7216,0.01794l0.6608,0.07743l0.01631,1.25329l0.01621,1.26332l0.95039,0.18086c0.52024,0.09593 0.98078,0.15111 1.01129,0.11135c0.04043,-0.02963 0.23616,-0.50867 0.45271,-1.05767c0.20652,-0.5491 0.41239,-1.03807 0.46295,-1.07761c0.08118,-0.08934 1.07155,0.10198 1.29064,0.23471c0.06961,0.05089 0.05596,0.38156 -0.05176,1.06207c-0.23735,1.53121 -0.28605,1.40035 0.66291,1.71152c0.44952,0.14529 0.86898,0.29023 0.93882,0.32108c0.06984,0.03084 0.35501,-0.37705 0.69261,-0.99489c0.31712,-0.57797 0.60328,-1.07607 0.6436,-1.09568c0.06059,-0.03944 1.19866,0.39411 1.28778,0.49534c0.01983,0.02027 -0.10596,0.52013 -0.28296,1.11969c-0.16698,0.59966 -0.31326,1.13941 -0.31381,1.18953c-0.00088,0.08019 1.58332,0.96974 1.73368,0.97139c0.02005,0.00022 0.36558,-0.42705 0.76223,-0.94399c0.39665,-0.51695 0.77225,-0.94389 0.82237,-0.94335c0.07016,0.00077 1.05658,0.55295 1.16574,0.6544c0.01994,0.01024 -0.2063,0.52905 -0.48388,1.15758c-0.28749,0.61839 -0.5037,1.13732 -0.49379,1.14745c0.31811,0.24409 1.58222,1.06998 1.64236,1.07065c0.0401,0.00044 0.46527,-0.37584 0.94156,-0.84179l0.86126,-0.83265l0.52685,0.40678c0.27824,0.2236 0.51639,0.44676 0.51595,0.48686c-0.00044,0.0401 -0.28661,0.5382 -0.63346,1.08576l-0.62267,1.01571l0.67479,0.62895c0.36703,0.3549 0.71456,0.65947 0.76457,0.67004c0.03987,0.02049 0.50427,-0.27516 1.0298,-0.66037c0.55604,-0.42497 0.99993,-0.68075 1.08982,-0.64968c0.07986,0.03095 0.30788,0.26403 0.51563,0.51693l0.36604,0.44512l-0.68072,0.8246c-0.37583,0.44699 -0.73139,0.87416 -0.78217,0.93376c-0.07115,0.08945 0.07645,0.34169 0.47201,0.83725c0.31646,0.39445 0.61343,0.73856 0.6532,0.76907c0.04979,0.03062 0.54349,-0.19454 1.08807,-0.48931c0.54469,-0.3048 1.04863,-0.54989 1.09875,-0.54934c0.11026,0.00121 0.81182,0.93121 0.81017,1.08157c-0.00055,0.05012 -0.38574,0.43686 -0.86159,0.86271c-0.47573,0.41582 -0.86093,0.80257 -0.86148,0.85269c-0.00055,0.05012 0.22571,0.44358 0.50153,0.8877l0.49249,0.79737l1.15769,-0.43841c0.63414,-0.23363 1.16748,-0.41826 1.18731,-0.39799c0.07898,0.11114 0.64803,1.24018 0.61785,1.24987c-0.01013,0.00992 -0.46472,0.32572 -0.99994,0.68075c-0.54535,0.36494 -0.99014,0.7009 -0.99047,0.73097c-0.00055,0.05012 0.65354,1.65126 0.74199,1.81264c-0.00011,0.01003 0.55252,-0.10421 1.20582,-0.25744c1.3467,-0.30602 1.23688,-0.34732 1.53782,0.5482l0.1746,0.53323l-1.09853,0.52929c-0.60462,0.28409 -1.09897,0.56938 -1.09963,0.62953c0.00849,0.14044 0.47169,1.77959 0.52115,1.84028c0.02985,0.02038 0.58148,-0.00365 1.22377,-0.06677c1.32457,-0.11578 1.28469,-0.13627 1.38692,0.59667c0.03746,0.24101 0.08471,0.50218 0.10399,0.57256c0.03911,0.09065 -0.18274,0.20851 -0.63535,0.34389c-0.3723,0.12624 -0.91557,0.30073 -1.19734,0.39788l-0.51331,0.18483l0.12063,0.88352c0.07491,0.48202 0.13021,0.92372 0.12955,0.98387c-0.00077,0.07017 0.43951,0.14517 1.22092,0.19385c0.68117,0.04757 1.24196,0.10386 1.26189,0.1141c0.0098,0.02016 0.02632,0.34114 0.0423,0.71224l0.01246,0.69186l-0.70309,0.12261c-0.38178,0.07601 -0.92417,0.1703 -1.20549,0.22737l-0.50218,0.08471l-0.01101,1.00237l-0.011,1.00237l0.50009,0.10574c0.28,0.06323 0.82018,0.1694 1.20031,0.24375l0.70023,0.13801l-0.02753,0.68139c-0.02423,0.38068 -0.0478,0.70122 -0.06806,0.72105c-0.01024,0.01994 -0.57201,0.05388 -1.24404,0.08659l-1.21364,0.05685l-0.12975,0.86073c-0.06531,0.47046 -0.13041,0.92086 -0.14131,1.00094c-0.01101,0.0901 0.35799,0.26457 1.11693,0.53355c0.62919,0.21743 1.14833,0.41361 1.16827,0.42385c0.03965,0.04053 -0.24463,1.28051 -0.30543,1.33998c-0.0304,0.02974 -0.58138,-0.00638 -1.22224,-0.07356c-0.64086,-0.06718 -1.19173,-0.11334 -1.2121,-0.08348c-0.05067,0.04957 -0.55987,1.68807 -0.56131,1.81838c-0.00066,0.06015 0.48731,0.35622 1.08544,0.66354l1.08675,0.54325l-0.23759,0.63898c-0.13427,0.35942 -0.25786,0.65882 -0.27812,0.67865c-0.02027,0.01983 -0.28044,-0.02313 -0.58027,-0.10662c-0.29983,-0.08349 -0.82966,-0.21963 -1.17961,-0.30367l-0.63986,-0.1574l-0.40039,0.85775c-0.21567,0.46881 -0.40072,0.88782 -0.40116,0.92792c-0.00055,0.05012 0.43676,0.39576 0.97397,0.77258c0.52729,0.36669 0.97485,0.6924 0.99478,0.70265c0.04968,0.04064 -0.64525,1.24603 -0.72544,1.24515c-0.0401,-0.00044 -0.55912,-0.20664 -1.16793,-0.45392l-1.08774,-0.45303l-0.45899,0.71675c-0.255,0.39819 -0.48994,0.79662 -0.52089,0.87648c-0.0412,0.0998 0.21602,0.41339 0.80137,0.97119c0.97231,0.92294 0.96272,0.88274 0.30249,1.66746l-0.28451,0.34775l-1.06583,-0.62322l-1.05569,-0.63313l-0.30457,0.34753c-1.01535,1.1718 -1.01535,1.1718 -0.87712,1.36379c0.06917,0.09098 0.41528,0.52586 0.76137,0.96072l0.63305,0.77887l-0.42649,0.49657c-0.23363,0.27813 -0.47662,0.49601 -0.53676,0.49536c-0.05012,-0.00055 -0.51772,-0.32648 -1.03476,-0.71311c-0.60627,-0.47782 -0.97485,-0.6924 -1.06561,-0.64327c-0.07061,0.03933 -0.41472,0.3363 -0.76896,0.64319l-0.63777,0.56442l0.61983,1.06944c0.67888,1.17034 0.67943,1.12023 -0.04789,1.62351l-0.44457,0.31591l-0.83264,-0.86126c-0.45603,-0.46615 -0.86282,-0.85156 -0.91294,-0.85211c-0.06014,-0.00066 -1.32191,0.78749 -1.66547,1.03433c-0.01013,0.00991 0.19464,0.53346 0.46849,1.15801c0.26371,0.63446 0.4785,1.15812 0.45835,1.16792c-0.01013,0.00992 -0.29266,0.17723 -0.61551,0.36417l-0.59536,0.35436l-0.68151,-0.92977c-0.37529,-0.51539 -0.72117,-0.97031 -0.76083,-1.01085c-0.09914,-0.10134 -1.82232,0.71182 -1.82397,0.86217c-0.00055,0.05012 0.13384,0.59294 0.28761,1.19612c0.1638,0.6033 0.27859,1.1058 0.25832,1.12563c-0.09132,0.09925 -1.23864,0.5077 -1.29834,0.46695c-0.03987,-0.02049 -0.31515,-0.51473 -0.60959,-1.08938l-0.54989,-1.04863l-0.92549,0.29059c-0.51297,0.15476 -0.95566,0.30029 -0.97604,0.33014c-0.02027,0.01983 0.02391,0.56166 0.10697,1.21419c0.09154,0.79297 0.10708,1.20416 0.0465,1.24361c-0.22195,0.12789 -1.21627,0.29742 -1.29548,0.20633c-0.04968,-0.04064 -0.21569,-0.44347 -0.37122,-0.88627c-0.16556,-0.44291 -0.34071,-0.92603 -0.38928,-1.06691l-0.09737,-0.26171l-0.99422,0.15951l-0.98408,0.14959l-0.04393,1.26266l-0.04393,1.26265l-0.65232,0.06302c-0.36129,0.03614 -0.69208,0.0325 -0.72171,-0.00792c-0.03976,-0.03051 -0.17415,-0.57333 -0.30777,-1.18632l-0.23827,-1.12541l-0.9419,-0.04041c-0.52112,-0.01574 -0.98244,-0.00076 -1.03311,0.04881c-0.04053,0.03965 -0.16709,0.60969 -0.26434,1.25022l-0.18328,1.17091l-0.72171,-0.00792l-0.72171,-0.00793l-0.06158,-0.78262c-0.11149,-1.71549 -0.11149,-1.71549 -0.46166,-1.77948c-0.1801,-0.03205 -0.63084,-0.06708 -1.01152,-0.0913l-0.6814,-0.02754l-0.34288,1.09898l-0.33286,1.09909l-0.44094,-0.01486c-0.24057,-0.00264 -0.57091,-0.04637 -0.73086,-0.08822l-0.27989,-0.07324l0.0837,-1.23215l0.08359,-1.22213l-0.96944,-0.27129l-0.96955,-0.26126l-0.54368,1.12685c-0.35897,0.73791 -0.5937,1.11627 -0.6837,1.09524c-0.06984,-0.03084 -0.36956,-0.12435 -0.64923,-0.21765c-0.28969,-0.09341 -0.52884,-0.22636 -0.52818,-0.2865c0.00077,-0.07016 0.10695,-0.61034 0.2237,-1.20054c0.13724,-0.63007 0.19265,-1.11066 0.14308,-1.16132c-0.20841,-0.19276 -1.75615,-0.7511 -1.81728,-0.66154c-0.04064,0.04968 -0.33639,0.50758 -0.66266,1.00525c-0.33639,0.50758 -0.64162,0.91525 -0.69173,0.9147c-0.19045,-0.00209 -1.18677,-0.56439 -1.18567,-0.66463c0.00066,-0.06015 0.18691,-0.58942 0.40391,-1.17851l0.40281,-1.07827l-0.21909,-0.13273c-1.21475,-0.75518 -1.48407,-0.87843 -1.61559,-0.7696c-0.08096,0.06928 -0.44621,0.46627 -0.82182,0.89322c-0.3657,0.43708 -0.71035,0.78418 -0.76047,0.78362c-0.06014,-0.00066 -0.33894,-0.17414 -0.62742,-0.37781l-0.52707,-0.38674l0.55294,-1.05657c0.30709,-0.57808 0.55316,-1.07662 0.55349,-1.1067c0.00044,-0.0401 -0.33706,-0.34455 -0.75443,-0.67995l-0.76511,-0.61992l-0.76918,0.66323c-0.42507,0.36625 -0.85002,0.72249 -0.94112,0.80169c-0.16181,0.12855 -0.22174,0.10783 -0.63899,-0.23759c-0.24828,-0.21325 -0.4763,-0.44633 -0.5056,-0.51682c-0.01928,-0.07039 0.27691,-0.56838 0.67377,-1.10538l0.71245,-0.97463l-0.70376,-0.72952l-0.70388,-0.71949l-0.99939,0.63063c-0.54513,0.34489 -1.02946,0.6303 -1.07958,0.62975c-0.05012,-0.00055 -0.27814,-0.23363 -0.50571,-0.5068l-0.41549,-0.50581l0.86225,-0.92286l0.86214,-0.91283l-0.54305,-0.75783c-0.2962,-0.41427 -0.59306,-0.7684 -0.663,-0.78922c-0.06004,-0.01068 -0.58357,0.19409 -1.15801,0.46849c-0.57443,0.27439 -1.07771,0.45934 -1.10723,0.40889c-0.56189,-0.86831 -0.71908,-1.16076 -0.62831,-1.20988c0.27273,-0.18748 1.8504,-1.44333 1.85084,-1.48343c0.00033,-0.03007 -0.20577,-0.43333 -0.4513,-0.89717c-0.52058,-0.97813 -0.37056,-0.94642 -1.91993,-0.44212c-0.47287,0.1552 -0.87504,0.26108 -0.90489,0.2407c-0.01983,-0.02027 -0.15697,-0.3125 -0.31372,-0.64505c-0.20555,-0.45338 -0.25368,-0.63435 -0.1627,-0.70353c0.07072,-0.04935 0.55505,-0.33475 1.08971,-0.63966l0.96844,-0.55077l-0.34027,-0.96612c-0.26272,-0.72468 -0.38058,-0.94653 -0.5012,-0.91777c-0.41229,0.11577 -2.23936,0.34634 -2.28893,0.29568c-0.02974,-0.0304 -0.12657,-0.34224 -0.22296,-0.69417l-0.17338,-0.6435l1.07727,-0.41925c0.58402,-0.23418 1.10767,-0.44898 1.14821,-0.48864c0.07094,-0.06939 -0.08781,-1.13378 -0.28046,-1.84767c-0.04814,-0.18098 -0.12822,-0.19188 -1.29174,-0.13448l-1.23358,0.04661l-0.05498,-0.47178c-0.0271,-0.27097 -0.07369,-0.59228 -0.10222,-0.73295c-0.03746,-0.24101 -0.00716,-0.26072 1.13885,-0.5489l1.18609,-0.28773l-0.01906,-1.0027c-0.01411,-0.5415 -0.03912,-1.00293 -0.04903,-1.01306c-0.00991,-0.01013 -0.42023,-0.07479 -0.91084,-0.13029c-0.50052,-0.06565 -1.05106,-0.14186 -1.22114,-0.1738l-0.33013,-0.06378l0.0076,-0.69164l0.00759,-0.69164l0.33133,-0.04649c0.17073,-0.0282 0.72281,-0.09231 1.22466,-0.14695c0.49182,-0.05476 0.90346,-0.11039 0.91359,-0.1203c0.01013,-0.00992 0.04526,-0.47068 0.07125,-1.01174l0.04097,-0.99201l-1.17939,-0.32372c-1.13941,-0.31326 -1.16936,-0.32361 -1.12652,-0.57377c0.03161,-0.14 0.08525,-0.46021 0.11818,-0.7205l0.06543,-0.48048l1.23215,0.0837c1.16209,0.0729 1.24239,0.06376 1.29449,-0.11611c0.20828,-0.70948 0.39035,-1.77013 0.32096,-1.84107c-0.03965,-0.04053 -0.55847,-0.26678 -1.13721,-0.51373l-1.06781,-0.44279l0.18747,-0.63953c0.10409,-0.34973 0.20774,-0.65937 0.22812,-0.68922c0.03029,-0.01972 0.59096,0.04659 1.24129,0.164c0.65033,0.11741 1.20076,0.20365 1.20087,0.19363c0.01013,-0.00992 0.18527,-0.43907 0.38133,-0.94818l0.35104,-0.92847l-1.02585,-0.61276c-0.56761,-0.34708 -1.03509,-0.68303 -1.03432,-0.7532c0.00286,-0.26062 0.52485,-1.23733 0.64469,-1.19592c0.06995,0.02082 0.55935,0.18659 1.09876,0.36293c0.5393,0.18637 1.02915,0.31205 1.09964,0.28275c0.1812,-0.06819 1.03077,-1.66285 0.93152,-1.75416c-0.04968,-0.04065 -0.44711,-0.36581 -0.8843,-0.72147c-0.43719,-0.35567 -0.83462,-0.68083 -0.87428,-0.72136c-0.06961,-0.05089 0.45205,-0.99754 0.69559,-1.26553c0.02027,-0.01983 0.48896,0.20586 1.04721,0.49269c0.55825,0.28682 1.07706,0.51308 1.14745,0.4938c0.07038,-0.01928 0.38497,-0.3667 0.6902,-0.77437l0.56958,-0.74562l-0.46562,-0.50636c-0.25754,-0.28352 -0.64395,-0.69878 -0.85192,-0.93164l-0.3863,-0.42529l0.42649,-0.49656c0.24365,-0.27802 0.47673,-0.50604 0.52685,-0.50549c0.0401,0.00044 0.51805,0.2964 1.05548,0.65318l0.97517,0.66233l0.72952,-0.70376c0.44578,-0.42618 0.70001,-0.75421 0.65055,-0.8149c-0.55308,-0.75794 -1.29264,-1.87883 -1.29176,-1.95901c0.00066,-0.06015 0.23374,-0.28816 0.50691,-0.51574l0.5058,-0.4155l0.33762,0.29443c0.1888,0.15245 0.60573,0.52795 0.93343,0.81224l0.5956,0.53786l0.76841,-0.59306c0.42462,-0.32616 0.76873,-0.62313 0.76917,-0.66323c0.00033,-0.03007 -0.23463,-0.54392 -0.52896,-1.12859l-0.52961,-1.06846l0.53543,-0.37507c0.29289,-0.19729 0.57542,-0.36461 0.63557,-0.36395c0.05012,0.00055 0.38707,0.35512 0.74309,0.80012c0.36615,0.43509 0.7226,0.84 0.80202,0.91105c0.1291,0.11169 0.40106,-0.00562 1.63209,-0.73395l0.22196,-0.12789l-0.37905,-1.08686c-0.20401,-0.59371 -0.3786,-1.12694 -0.37795,-1.18709c0.0011,-0.10024 1.00952,-0.64054 1.19997,-0.63845c0.05012,0.00055 0.34632,0.41483 0.67149,0.92967c0.31525,0.50471 0.60088,0.96899 0.64032,1.02957c0.05915,0.09088 1.59872,-0.43357 1.83147,-0.63152c0.05067,-0.04957 0.00584,-0.53126 -0.11754,-1.16418c-0.10377,-0.59261 -0.19806,-1.13498 -0.19741,-1.19513c0.00066,-0.06014 0.2627,-0.18759 0.58456,-0.28431c0.31184,-0.09683 0.60362,-0.19387 0.65396,-0.21337c0.04043,-0.02963 0.31559,0.47463 0.59935,1.10932l0.52873,1.14864l0.97505,-0.23991l0.97516,-0.24994l-0.05674,-1.22367l-0.05663,-1.23369l0.28143,-0.06709c0.16082,-0.03833 0.49204,-0.0748 0.73262,-0.07216l0.43113,-0.00529l0.31868,1.10624l0.30865,1.10613l0.69185,-0.01245c0.38112,-0.01587 0.83252,-0.04099 1.01328,-0.06908c0.35149,-0.05629 0.35149,-0.05629 0.50072,-1.77894zM99.92436,224.51004c-2.22052,0.45682 -3.7886,2.66515 -3.46175,4.85417c0.3546,2.39985 2.62142,4.11894 4.93106,3.76335c2.40007,-0.37465 4.09911,-2.64168 3.7335,-4.95144c-0.29104,-1.79765 -1.56881,-3.20515 -3.30842,-3.63527c-0.74991,-0.17865 -1.14072,-0.19297 -1.89437,-0.03082z" data-paper-data="{&quot;index&quot;:null}" fill-opacity="0.50196" fill="#000000" stroke="none" stroke-width="1" stroke-linecap="butt"/><path d="M137.53374,44.95533v9.82932h-23.52015h-23.52014v-9.82932v-9.82932h23.52014h23.52015z" data-paper-data="{&quot;index&quot;:null}" fill-opacity="0.50196" fill="#000000" stroke="none" stroke-width="1" stroke-linecap="butt"/><path d="M86.51491,44.95533v9.82932h-23.40313h-23.40314v-9.82932v-9.82932h23.40314h23.40313z" data-paper-data="{&quot;index&quot;:null}" fill-opacity="0.50196" fill="#000000" stroke="none" stroke-width="1" stroke-linecap="butt"/><path d="M35.56629,35.28984c0.09361,0.07021 0.16383,4.49339 0.16383,9.82931v9.6655h-23.52015h-23.52015l0.04681,-9.78251l0.07021,-9.7591l23.30952,-0.0702c12.80151,-0.02341 23.37973,0.0234 23.44994,0.11701z" data-paper-data="{&quot;index&quot;:null}" fill-opacity="0.50196" fill="#000000" stroke="none" stroke-width="1" stroke-linecap="butt"/><path d="M159.29865,67.07129v9.71229h-23.52014h-23.52015v-9.71229v-9.7123h23.52015h23.52014z" data-paper-data="{&quot;index&quot;:null}" fill-opacity="0.50196" fill="#000000" stroke="none" stroke-width="1" stroke-linecap="butt"/><path d="M108.46704,67.11809l-0.07021,9.78251l-23.47334,0.07021l-23.44994,0.04681v-9.82932v-9.82932h23.52015h23.52015z" data-paper-data="{&quot;index&quot;:null}" fill-opacity="0.50196" fill="#000000" stroke="none" stroke-width="1" stroke-linecap="butt"/><path d="M57.49503,67.07129v9.71229h-23.52015h-23.52015v-9.71229v-9.7123h23.52015h23.52015z" data-paper-data="{&quot;index&quot;:null}" fill-opacity="0.50196" fill="#000000" stroke="none" stroke-width="1" stroke-linecap="butt"/><path d="M6.4762,67.07129v9.71229h-30.3822h-30.38221v-9.71229v-9.7123h30.38221h30.3822z" data-paper-data="{&quot;index&quot;:null}" fill-opacity="0.50196" fill="#000000" stroke="none" stroke-width="1" stroke-linecap="butt"/><path d="M86.51491,89.30426v9.71229h-23.40313h-23.40314v-9.71229v-9.7123h23.40314h23.40313z" data-paper-data="{&quot;index&quot;:null}" fill-opacity="0.50196" fill="#000000" stroke="none" stroke-width="1" stroke-linecap="butt"/><path d="M35.73012,89.30426v9.71229h-23.52015h-23.52015v-9.71229v-9.7123h23.52015h23.52015z" data-paper-data="{&quot;index&quot;:null}" fill-opacity="0.50196" fill="#000000" stroke="none" stroke-width="1" stroke-linecap="butt"/><path d="M-15.02595,44.95533v9.82932l-19.97715,-0.04681l-19.95722,-0.07021v-9.7123v-9.7123l19.95722,-0.0702l19.97715,-0.04681z" data-paper-data="{&quot;index&quot;:null}" fill-opacity="0.50196" fill="#000000" stroke="none" stroke-width="1" stroke-linecap="butt"/><path d="M-15.02595,89.30426v9.71229h-19.96719h-19.96718v-9.71229v-9.7123h19.96718h19.96719z" data-paper-data="{&quot;index&quot;:null}" fill-opacity="0.50196" fill="#000000" stroke="none" stroke-width="1" stroke-linecap="butt"/><path d="M115.76883,111.42022v9.82932h-23.52015h-23.52015v-9.82932v-9.82932h23.52015h23.52015z" data-paper-data="{&quot;index&quot;:null}" fill-opacity="0.50196" fill="#000000" stroke="none" stroke-width="1" stroke-linecap="butt"/><path d="M64.75,111.35001v9.78251l-23.44994,-0.04681l-23.47334,-0.07021v-9.64209v-9.66549l23.44994,-0.07022l23.47334,-0.04681z" data-paper-data="{&quot;index&quot;:null}" fill-opacity="0.50196" fill="#000000" stroke="none" stroke-width="1" stroke-linecap="butt"/><path d="M13.84819,101.89514c0.07021,0.14042 0.09361,4.51681 0.07021,9.71231l-0.07021,9.40806l-23.47334,0.07021l-23.44994,0.04681v-9.7825v-9.75911h23.40313c18.53528,0 23.44994,0.07021 23.52015,0.30424z" data-paper-data="{&quot;index&quot;:null}" fill-opacity="0.50196" fill="#000000" stroke="none" stroke-width="1" stroke-linecap="butt"/><path d="M33.62383,136.34455v9.7123h-23.52015h-23.52015v-9.7123v-9.7123h23.52015h23.52015z" data-paper-data="{&quot;index&quot;:null}" fill-opacity="0.50196" fill="#000000" stroke="none" stroke-width="1" stroke-linecap="butt"/><path d="M-17.39499,136.34455v9.7123h-18.81102h-18.81102v-9.7123v-9.7123h18.81102h18.81102z" data-paper-data="{&quot;index&quot;:null}" fill-opacity="0.50196" fill="#000000" stroke="none" stroke-width="1" stroke-linecap="butt"/><path d="M62.64372,158.3903v9.78251h-23.40313h-23.40313v-9.78251v-9.7591h23.40313h23.40313z" data-paper-data="{&quot;index&quot;:null}" fill-opacity="0.50196" fill="#000000" stroke="none" stroke-width="1" stroke-linecap="butt"/><path d="M11.81212,158.34349c-0.04681,5.33592 -0.14042,9.7123 -0.25743,9.7123c-0.09361,0 -10.64843,0 -23.44994,0h-23.28611v-9.7123v-9.71229h23.52015h23.52014z" data-paper-data="{&quot;index&quot;:null}" fill-opacity="0.50196" fill="#000000" stroke="none" stroke-width="1" stroke-linecap="butt"/><path d="M40.87881,180.57647v9.7123h-23.52015h-23.52015v-9.7123v-9.71229h23.52015h23.52015z" data-paper-data="{&quot;index&quot;:null}" fill-opacity="0.50196" fill="#000000" stroke="none" stroke-width="1" stroke-linecap="butt"/><path d="M-9.90599,180.57647v9.7123h-23.52015h-23.52014v-9.7123v-9.71229h23.52014h23.52015z" data-paper-data="{&quot;index&quot;:null}" fill-opacity="0.50196" fill="#000000" stroke="none" stroke-width="1" stroke-linecap="butt"/><path d="M11.7419,193.16735c0.07021,0.14042 0.09362,4.54021 0.07022,9.75911l-0.07022,9.47827l-23.47334,0.07021l-23.44993,0.04681v-9.82931v-9.82932h23.40314c18.53528,0 23.44993,0.07021 23.52014,0.30424z" data-paper-data="{&quot;index&quot;:null}" fill-opacity="0.50196" fill="#000000" stroke="none" stroke-width="1" stroke-linecap="butt"/><path d="M-37.07077,111.3032l-0.02572,9.7123h-8.57443h-8.57442l-0.02572,-9.7123l-0.01715,-9.7123h8.61729h8.6173z" data-paper-data="{&quot;index&quot;:null}" fill-opacity="0.50196" fill="#000000" stroke="none" stroke-width="1" stroke-linecap="butt"/><path d="M-37.82532,158.3903v9.78251l-8.59157,-0.04681l-8.60014,-0.07021l-0.02573,-9.7123l-0.01715,-9.71229h8.6173h8.6173z" data-paper-data="{&quot;index&quot;:null}" fill-opacity="0.50196" fill="#000000" stroke="none" stroke-width="1" stroke-linecap="butt"/><path d="M-37.82532,202.69243v9.82931l-8.60014,-0.04681l-8.59157,-0.07021v-9.7123v-9.7123l8.59157,-0.07021l8.60014,-0.04681z" data-paper-data="{&quot;index&quot;:null}" fill-opacity="0.50196" fill="#000000" stroke="none" stroke-width="1" stroke-linecap="butt"/><path d="M315.69087,325.52174c-18.53528,0 -23.44993,-0.07021 -23.52014,-0.30424c-0.07021,-0.14042 -0.09361,-4.54021 -0.07021,-9.75911l0.07021,-9.47827l23.47334,-0.07021l23.44994,-0.0468v9.82931v9.82932h-23.40313z" fill-opacity="0.50196" fill="#000000" stroke="none" stroke-width="1" stroke-linecap="butt"/><path d="M343.07254,315.69242v-9.82931h23.52015h23.52014v9.82931v9.82932h-23.52014h-23.52015z" fill-opacity="0.50196" fill="#000000" stroke="none" stroke-width="1" stroke-linecap="butt"/><path d="M394.09136,315.69242v-9.82931h23.40313h23.40313v9.82931v9.82932h-23.40313h-23.40313z" fill-opacity="0.50196" fill="#000000" stroke="none" stroke-width="1" stroke-linecap="butt"/><path d="M468.48992,325.47492c-12.80151,0.0234 -23.37973,-0.02341 -23.44994,-0.11702c-0.09361,-0.0702 -0.16382,-4.49339 -0.16382,-9.82931v-9.66549h23.52015h23.52015l-0.04681,9.78251l-0.07021,9.75911l-23.30952,0.07021z" fill-opacity="0.50196" fill="#000000" stroke="none" stroke-width="1" stroke-linecap="butt"/><path d="M321.30763,293.57646v-9.7123h23.52015h23.52014v9.7123v9.7123h-23.52014h-23.52015z" fill-opacity="0.50196" fill="#000000" stroke="none" stroke-width="1" stroke-linecap="butt"/><path d="M372.13923,293.52966l0.07021,-9.78251l23.47334,-0.07021l23.44994,-0.04681v9.82932v9.82931h-23.52015h-23.52015z" fill-opacity="0.50196" fill="#000000" stroke="none" stroke-width="1" stroke-linecap="butt"/><path d="M423.11125,293.57646v-9.7123h23.52015h23.52015v9.7123v9.7123h-23.52015h-23.52015z" fill-opacity="0.50196" fill="#000000" stroke="none" stroke-width="1" stroke-linecap="butt"/><path d="M474.13007,293.57646v-9.7123h30.3822h30.38221v9.7123v9.7123h-30.38221h-30.3822z" fill-opacity="0.50196" fill="#000000" stroke="none" stroke-width="1" stroke-linecap="butt"/><path d="M343.07254,271.4605v-9.82932h23.52015h23.52014l-0.0468,9.78251l-0.07021,9.75911l-23.44994,0.07021l-23.47334,0.04681z" fill-opacity="0.50196" fill="#000000" stroke="none" stroke-width="1" stroke-linecap="butt"/><path d="M292.05372,271.34349v-9.7123h23.52014h23.52015v9.7123v9.7123h-23.52015h-23.52014z" fill-opacity="0.50196" fill="#000000" stroke="none" stroke-width="1" stroke-linecap="butt"/><path d="M394.09136,271.34349v-9.7123h23.40313h23.40313v9.7123v9.7123h-23.40313h-23.40313z" fill-opacity="0.50196" fill="#000000" stroke="none" stroke-width="1" stroke-linecap="butt"/><path d="M444.87616,271.34349v-9.7123h23.52015h23.52015v9.7123v9.7123h-23.52015h-23.52015z" fill-opacity="0.50196" fill="#000000" stroke="none" stroke-width="1" stroke-linecap="butt"/><path d="M495.63222,315.69242v-9.82931l19.97714,0.0468l19.95723,0.07021v9.7123v9.7123l-19.95723,0.07021l-19.97714,0.04681z" fill-opacity="0.50196" fill="#000000" stroke="none" stroke-width="1" stroke-linecap="butt"/><path d="M495.63222,271.34349v-9.7123h19.96719h19.96718v9.7123v9.7123h-19.96718h-19.96719z" fill-opacity="0.50196" fill="#000000" stroke="none" stroke-width="1" stroke-linecap="butt"/><path d="M314.05266,249.29774v-9.78251h23.40313h23.40313v9.78251v9.75911h-23.40313h-23.40313z" fill-opacity="0.50196" fill="#000000" stroke="none" stroke-width="1" stroke-linecap="butt"/><path d="M364.83745,249.22753v-9.82932h23.52015h23.52015v9.82932v9.82932h-23.52015h-23.52015z" fill-opacity="0.50196" fill="#000000" stroke="none" stroke-width="1" stroke-linecap="butt"/><path d="M415.85628,249.29775v-9.78251l23.44994,0.0468l23.47334,0.07021v9.64209v9.66549l-23.44994,0.07021l-23.47334,0.04681z" fill-opacity="0.50196" fill="#000000" stroke="none" stroke-width="1" stroke-linecap="butt"/><path d="M490.27822,259.05684c-18.53528,0 -23.44993,-0.07021 -23.52014,-0.30424c-0.07021,-0.14042 -0.09361,-4.5168 -0.07021,-9.7123l0.07021,-9.40806l23.47334,-0.07021l23.44994,-0.0468v9.78251v9.75911h-23.40313z" fill-opacity="0.50196" fill="#000000" stroke="none" stroke-width="1" stroke-linecap="butt"/><path d="M395.96362,224.3032v-9.7123h23.52015h23.52015v9.7123v9.7123h-23.52015h-23.52015z" fill-opacity="0.50196" fill="#000000" stroke="none" stroke-width="1" stroke-linecap="butt"/><path d="M446.98244,224.3032v-9.7123h23.52015h23.52015v9.7123v9.7123h-23.52015h-23.52015z" fill-opacity="0.50196" fill="#000000" stroke="none" stroke-width="1" stroke-linecap="butt"/><path d="M498.00127,224.3032v-9.7123h18.81102h18.81102v9.7123v9.7123h-18.81102h-18.81102z" fill-opacity="0.50196" fill="#000000" stroke="none" stroke-width="1" stroke-linecap="butt"/><path d="M366.94373,202.18724v-9.82931h23.52015h23.52015v9.82931v9.82932h-23.52015h-23.52015z" fill-opacity="0.50196" fill="#000000" stroke="none" stroke-width="1" stroke-linecap="butt"/><path d="M417.96256,202.25745v-9.78251h23.40313h23.40313v9.78251v9.75911h-23.40313h-23.40313z" fill-opacity="0.50196" fill="#000000" stroke="none" stroke-width="1" stroke-linecap="butt"/><path d="M468.79416,202.30426c0.0468,-5.33591 0.14041,-9.7123 0.25743,-9.7123c0.09361,0 10.64843,0 23.44994,0h23.28611v9.7123v9.7123h-23.52015h-23.52014z" fill-opacity="0.50196" fill="#000000" stroke="none" stroke-width="1" stroke-linecap="butt"/><path d="M439.72747,180.07128v-9.7123h23.52015h23.52015v9.7123v9.7123h-23.52015h-23.52015z" fill-opacity="0.50196" fill="#000000" stroke="none" stroke-width="1" stroke-linecap="butt"/><path d="M490.51226,180.07128v-9.7123h23.52014h23.52015v9.7123v9.7123h-23.52015h-23.52014z" fill-opacity="0.50196" fill="#000000" stroke="none" stroke-width="1" stroke-linecap="butt"/><path d="M492.3845,167.78465c-18.53528,0 -23.44993,-0.07021 -23.52014,-0.30424c-0.07021,-0.14042 -0.09361,-4.54021 -0.07021,-9.75911l0.07021,-9.47827l23.47334,-0.07021l23.44994,-0.04681v9.82932v9.82931h-23.40313z" fill-opacity="0.50196" fill="#000000" stroke="none" stroke-width="1" stroke-linecap="butt"/><path d="M517.67705,249.34455l0.02572,-9.7123h8.57443h8.57442l0.02573,9.7123l0.01714,9.7123h-8.61729h-8.6173z" fill-opacity="0.50196" fill="#000000" stroke="none" stroke-width="1" stroke-linecap="butt"/><path d="M518.4316,202.25745v-9.78251l8.59157,0.04681l8.60015,0.07021l0.02572,9.7123l0.01715,9.7123h-8.6173h-8.6173z" fill-opacity="0.50196" fill="#000000" stroke="none" stroke-width="1" stroke-linecap="butt"/><path d="M518.43159,157.95533v-9.82932l8.60015,0.04681l8.59157,0.07021v9.7123v9.7123l-8.59157,0.07021l-8.60015,0.0468z" fill-opacity="0.50196" fill="#000000" stroke="none" stroke-width="1" stroke-linecap="butt"/><path d="M77.96264,280.67532c0,0.96228 -2.15395,1.44343 -6.46185,1.44343c-4.3079,0 -6.64647,-0.34407 -7.01572,-1.03222l-11.48026,-21.44997v21.38284c0,0.82242 -2.12038,1.23363 -6.36114,1.23363c-4.23517,0 -6.35275,-0.41121 -6.35275,-1.23363v-45.9966c0,-0.68814 1.80988,-1.03222 5.42963,-1.03222c1.42105,0 3.08267,0.12868 4.98485,0.38603c1.90219,0.25176 3.05748,0.71891 3.46589,1.40147l11.00192,21.18143v-21.59264c0,-0.86718 2.13157,-1.30076 6.39471,-1.30076c4.26314,0 6.39471,0.43359 6.39471,1.30076v45.30846zM97.07475,281.77467c0,0.36365 -2.098,0.54548 -6.29401,0.54548c-4.19041,0 -6.28561,-0.15945 -6.28561,-0.47834v-33.75266c0,-0.32449 2.0952,-0.48674 6.28561,-0.48674c4.196,0 6.29401,0.13987 6.29401,0.4196zM97.07475,243.96028c0,0.32449 -2.098,0.48674 -6.29401,0.48674c-4.19041,0 -6.28561,-0.13987 -6.28561,-0.4196v-9.89418c0,-0.45876 2.0952,-0.68814 6.28561,-0.68814c4.196,0 6.29401,0.13707 6.29401,0.41121zM114.53362,265.13332c0,4.49252 1.69519,6.73878 5.08556,6.73878c2.2043,0 4.03935,-0.43359 5.50516,-1.30076c0.68814,0 1.24761,1.18048 1.6784,3.54143c0.43638,2.35536 0.65458,3.95823 0.65458,4.80862c0,0.84479 -0.11469,1.40706 -0.34407,1.68679c-2.42809,1.51056 -5.75132,2.26584 -9.96971,2.26584c-4.21279,0 -7.79897,-1.56931 -10.75856,-4.70792c-2.95399,-3.13861 -4.43098,-7.42413 -4.43098,-12.85656c0,-5.43243 1.45462,-9.82145 4.36384,-13.16706c2.90923,-3.34561 6.78074,-5.01842 11.61454,-5.01842c4.83939,0 8.19899,1.16929 10.0788,3.50786c0.40841,0.50352 0.61262,1.24761 0.61262,2.23227c0,0.98466 -0.18183,2.18752 -0.54548,3.60856c-0.82801,2.93161 -1.90499,4.6268 -3.23092,5.08556c-0.18462,0.05035 -0.45037,0.07553 -0.79724,0.07553c-0.34127,0 -0.76367,-0.27694 -1.26719,-0.83081c-1.7847,-1.7847 -3.21694,-2.67705 -4.29671,-2.67705c-1.07418,0 -2.00289,0.55107 -2.78615,1.65323c-0.77766,1.09655 -1.16649,2.88126 -1.16649,5.3541zM143.89228,281.70752c0,0.40841 -1.91338,0.61262 -5.74013,0.61262c-3.82676,0 -5.74013,-0.3189 -5.74013,-0.95669v-47.09595c0,-0.3189 0.71052,-0.54548 2.13157,-0.67975c1.42105,-0.13987 2.61271,-0.2098 3.575,-0.2098c3.84913,0 5.7737,0.41121 5.7737,1.23363v13.7545c2.56236,-0.78326 4.50931,-1.17488 5.84084,-1.17488c3.48548,0 6.23526,0.92871 8.24934,2.78615c2.01968,1.85743 3.02952,5.30655 3.02952,10.34735v21.30731c0,0.41401 -1.7875,0.62101 -5.36249,0.62101c-4.03376,-0.13427 -6.05064,-0.36365 -6.05064,-0.68814v-20.20796c0,-2.24906 -0.7357,-3.37359 -2.2071,-3.37359c-1.00704,0 -2.17353,0.48114 -3.49947,1.44343zM192.83611,280.33125c-2.88685,1.69519 -6.59892,2.54278 -11.1362,2.54278c-4.53728,0 -8.36403,-1.54693 -11.48027,-4.64078c-3.11623,-3.09385 -4.67435,-7.37937 -4.67435,-12.85656c0,-5.47718 1.49937,-9.88858 4.49812,-13.2342c3.00434,-3.34561 6.79753,-5.01842 11.37956,-5.01842c4.58763,0 8.12906,1.16929 10.62428,3.50786c2.49522,2.33857 3.74284,5.18067 3.74284,8.52628c0,7.42413 -4.26034,11.1362 -12.78103,11.1362h-4.74148c0,1.37629 0.37764,2.32738 1.13292,2.85328c0.75528,0.5259 1.86582,0.78885 3.33163,0.78885c3.20575,0 6.25484,-0.7329 9.14729,-2.19871c0.04476,-0.04476 0.24896,0.27694 0.61262,0.96508c1.10215,1.96932 1.65323,3.63094 1.65323,4.98485c0,1.34832 -0.43638,2.22948 -1.30915,2.64348zM184.24269,260.45896c0,-1.92457 -0.9399,-2.88685 -2.81971,-2.88685c-0.86718,0 -1.61127,0.26575 -2.23227,0.79724c-0.61541,0.5259 -0.92312,1.29237 -0.92312,2.29941v2.13157h3.70927c1.51056,0 2.26584,-0.78046 2.26584,-2.34137zM234.22055,281.08653c0,0.91753 -2.26864,1.37629 -6.80592,1.37629c-4.53728,0 -6.80592,-0.45876 -6.80592,-1.37629v-34.50794h-8.24934c-0.77766,0 -1.32594,-1.05459 -1.64483,-3.16379c-0.13987,-1.01263 -0.2098,-2.04485 -0.2098,-3.09665c0,-1.0518 0.06993,-2.08402 0.2098,-3.09665c0.3189,-2.1036 0.86718,-3.1554 1.64483,-3.1554h29.90912c0.77766,0 1.32594,1.0518 1.64483,3.1554c0.13987,1.01263 0.2098,2.04485 0.2098,3.09665c0,1.0518 -0.06993,2.08402 -0.2098,3.09665c-0.3189,2.10919 -0.86718,3.16379 -1.64483,3.16379h-8.04794zM248.28273,278.13254c-2.86447,-3.16659 -4.29671,-7.54442 -4.29671,-13.13349c0,-5.58908 1.43224,-9.96411 4.29671,-13.1251c2.86447,-3.16659 6.72479,-4.74988 11.58096,-4.74988c4.86177,0 8.7137,1.58329 11.5558,4.74988c2.84209,3.16099 4.26314,7.53602 4.26314,13.1251c0,5.58908 -1.42105,9.96691 -4.26314,13.13349c-2.84209,3.16099 -6.69402,4.74148 -11.5558,4.74148c-4.85616,0 -8.71648,-1.5805 -11.58096,-4.74148zM259.89725,258.60433c-2.58473,0 -3.87709,2.10919 -3.87709,6.32757c0,4.21279 1.29236,6.31918 3.87709,6.31918c2.59033,0 3.8855,-2.10639 3.8855,-6.31918c0,-4.21838 -1.29517,-6.32757 -3.8855,-6.32757zM283.55014,278.13254c-2.86449,-3.16659 -4.29674,-7.54442 -4.29674,-13.13349c0,-5.58908 1.43225,-9.96411 4.29674,-13.1251c2.86447,-3.16659 6.7248,-4.74988 11.58097,-4.74988c4.86177,0 8.7137,1.58329 11.5558,4.74988c2.84209,3.16099 4.26314,7.53602 4.26314,13.1251c0,5.58908 -1.42105,9.96691 -4.26314,13.13349c-2.84209,3.16099 -6.69402,4.74148 -11.5558,4.74148c-4.85617,0 -8.7165,-1.5805 -11.58097,-4.74148zM295.16468,258.60433c-2.58474,0 -3.87711,2.10919 -3.87711,6.32757c0,4.21279 1.29237,6.31918 3.87711,6.31918c2.59033,0 3.8855,-2.10639 3.8855,-6.31918c0,-4.21838 -1.29517,-6.32757 -3.8855,-6.32757zM328.34242,281.63201c0,0.41401 -2.33857,0.62101 -7.01572,0.62101c-3.66451,-0.04476 -5.49677,-0.22658 -5.49677,-0.54548v-46.81902c0,-0.68814 2.22108,-1.03222 6.66325,-1.03222c3.89949,0.13987 5.84923,0.36925 5.84923,0.68814zM334.8733,234.26751c0,-0.54828 1.98051,-0.82242 5.94154,-0.82242c3.96662,0 5.94993,0.29652 5.94993,0.88955v13.34329c1.96932,-0.36925 3.36799,-0.55387 4.196,-0.55387c9.62284,0 14.43426,5.52194 14.43426,16.56583c0,6.14295 -1.47979,10.87604 -4.43937,14.19928c-2.95399,3.32324 -7.14719,4.98485 -12.57962,4.98485c-5.42683,0 -9.92775,-1.21404 -13.50274,-3.64213zM349.03062,257.84905c-0.77766,0 -1.53294,0.25176 -2.26584,0.75528v13.13349c0.64339,0.27414 1.31755,0.41121 2.02247,0.41121c0.71052,0 1.43503,-0.27414 2.17353,-0.82242c1.28118,-0.91753 1.92177,-3.0491 1.92177,-6.39471c0,-4.7219 -1.28398,-7.08286 -3.85193,-7.08286zM373.26543,278.13254c-2.86447,-3.16659 -4.29671,-7.54442 -4.29671,-13.13349c0,-5.58908 1.43224,-9.96411 4.29671,-13.1251c2.86447,-3.16659 6.7248,-4.74988 11.58097,-4.74988c4.86177,0 8.7137,1.58329 11.5558,4.74988c2.84209,3.16099 4.26314,7.53602 4.26314,13.1251c0,5.58908 -1.42105,9.96691 -4.26314,13.13349c-2.84209,3.16099 -6.69402,4.74148 -11.5558,4.74148c-4.85617,0 -8.7165,-1.5805 -11.58097,-4.74148zM384.87997,258.60433c-2.58474,0 -3.87711,2.10919 -3.87711,6.32757c0,4.21279 1.29237,6.31918 3.87711,6.31918c2.59033,0 3.8855,-2.10639 3.8855,-6.31918c0,-4.21838 -1.29517,-6.32757 -3.8855,-6.32757zM426.16439,248.02201c0.18462,-0.36925 1.33153,-0.55387 3.44072,-0.55387c6.87585,0 10.22147,0.25176 10.03684,0.75528l-8.39201,17.39663c5.63943,10.54036 8.45914,15.81054 8.45914,15.81054c0,0.27414 -1.37629,0.50352 -4.12887,0.68814c-2.74699,0.18462 -4.69393,0.27694 -5.84084,0.27694c-2.88685,0 -4.42259,-0.29931 -4.60721,-0.89794l-3.70927,-11.48027l-4.26314,11.95861c-0.08951,0.32449 -1.39587,0.48674 -3.91907,0.48674c-2.5176,0 -4.76386,-0.09231 -6.73878,-0.27694c-1.96932,-0.18462 -2.86168,-0.41401 -2.67705,-0.68814l7.771,-15.81054c-5.41005,-11.32362 -8.11507,-17.0078 -8.11507,-17.05256c0,-0.27414 0.69933,-0.5259 2.098,-0.75528c1.39867,-0.22938 2.97916,-0.34407 4.74148,-0.34407c1.76232,0 3.44632,0.08112 5.05199,0.24337c1.60567,0.16225 2.50082,0.38044 2.68544,0.65458l3.64213,11.1362z" fill="none" stroke-opacity="0.42353" stroke="#000000" stroke-width="12.5" stroke-linecap="square"/><path d="M254.16724,77.56329c6.40692,0.99576 12.05468,3.54962 17.11581,7.76697c1.66787,1.37064 3.01367,2.753 15.10286,15.35823c6.00432,6.26747 7.02806,7.45067 8.89147,10.25053c1.28829,1.93296 1.84041,2.97558 3.10569,5.84574c0.60964,1.39407 1.39181,3.01073 1.72539,3.58476c0.63265,1.06606 2.16248,3.19817 2.96767,4.14708l0.44859,0.51545l0.62114,-0.32802c0.9087,-0.46859 1.64486,-0.64433 2.77211,-0.64433c1.7944,0 3.32424,0.70291 4.69305,2.16727c1.24227,1.33549 1.8289,2.62413 1.93243,4.27594c0.08052,1.20663 -0.08052,2.07353 -0.56363,3.0693c-0.31057,0.64432 -1.04672,1.44094 -5.77427,6.27918c-2.97916,3.04586 -5.65927,5.72858 -5.95833,5.95116c-1.67937,1.2652 -4.00289,1.44093 -6.05034,0.45688c-2.42704,-1.17148 -3.94538,-3.36217 -4.12941,-5.9746c-0.12653,-1.85095 0.42559,-3.18645 1.98995,-4.84996l1.05823,-1.1012l-1.63336,-2.06182c-3.70382,-4.70938 -5.61325,-6.15031 -8.35086,-6.30261c-0.66715,-0.04686 -1.25377,0 -1.84041,0.12887c-3.17471,0.7146 -5.30267,0.51545 -7.35013,-0.64433c-0.72466,-0.42174 -1.65637,-1.06605 -2.08197,-1.46436l-0.29907,-0.26944l-12.05468,12.2772c-7.10858,7.2398 -12.03167,12.33578 -11.98567,12.41779c0.04601,0.07029 1.25378,1.24178 2.6916,2.61241c1.43782,1.37064 2.84113,2.72957 3.1287,3.02244c0.28757,0.29287 1.88642,1.85095 3.5658,3.45589c1.67936,1.61665 3.5888,3.45589 4.25594,4.10021c0.66715,0.64432 2.55356,2.46013 4.19844,4.04164c1.64486,1.58151 3.53128,3.39731 4.19843,4.04163c0.66715,0.64432 2.55357,2.46014 4.19844,4.04165c1.64486,1.58151 3.53129,3.39731 4.19844,4.04163c0.66715,0.64432 2.57658,2.49528 4.25595,4.10022c1.67937,1.60494 3.56579,3.42074 4.19844,4.04163c0.63265,0.62089 1.62186,1.56979 2.18549,2.10868c6.57946,6.31432 11.43354,11.03543 12.08918,11.76175c2.20848,2.42497 3.18621,5.76372 2.64559,8.92674c-0.78217,4.52194 -4.0259,8.43472 -8.17832,9.86394c-1.39181,0.46859 -1.84042,0.55059 -3.39325,0.55059c-1.8059,0 -2.61108,-0.15229 -4.11791,-0.77318c-1.65636,-0.67946 -2.91014,-1.55808 -4.4975,-3.12787c-0.50612,-0.49203 -3.72683,-3.95962 -7.16609,-7.69667c-3.42775,-3.73705 -7.07407,-7.68497 -8.0863,-8.78616c-3.03667,-3.28017 -15.79301,-17.11545 -18.86419,-20.44249c-1.57585,-1.71037 -3.63481,-3.94791 -4.58952,-4.97883c-0.95471,-1.03091 -2.86413,-3.10446 -4.24444,-4.60396c-1.38031,-1.48779 -2.55356,-2.71786 -2.61107,-2.71786c-0.04601,0 -0.31058,0.24602 -0.58663,0.5506c-0.48311,0.5506 -2.87564,3.11616 -9.8807,10.63712c-1.86341,2.00324 -4.73906,5.08426 -6.39542,6.85321c-24.04034,25.8079 -28.88291,30.98588 -29.34301,31.40761c-1.13876,1.04262 -2.39254,1.53466 -3.94538,1.53466c-1.23077,0.01172 -1.8174,-0.10543 -3.12869,-0.62089c-1.85191,-0.72633 -2.45005,-1.2535 -8.50039,-7.45067c-6.14237,-6.27918 -6.51044,-6.72435 -7.10858,-8.5753c-0.52912,-1.64008 -0.18404,-3.33875 1.01223,-4.9554c0.23005,-0.3163 2.6456,-2.75301 5.3602,-5.40056c2.7261,-2.65929 5.69376,-5.56457 6.61397,-6.46661c1.7714,-1.74552 4.77356,-4.67424 11.38753,-11.12914c2.243,-2.19069 4.80808,-4.69767 5.69377,-5.56458c0.88569,-0.8669 3.42776,-3.35045 5.63625,-5.506c2.21999,-2.15554 4.75056,-4.63911 5.63625,-5.506c0.88569,-0.87862 3.38174,-3.31531 5.55573,-5.43571c2.16248,-2.1204 3.93388,-3.88934 3.93388,-3.94791c0,-0.10544 -1.05824,-1.26521 -8.05178,-8.83303c-1.36881,-1.48779 -3.1517,-3.42074 -3.96839,-4.31108c-0.80518,-0.87862 -1.49533,-1.60494 -1.51834,-1.60494c-0.02301,0 -0.41408,0.082 -0.87419,0.16401c-0.4601,0.09372 -1.67938,0.33974 -2.72611,0.53889c-1.04674,0.19915 -2.12797,0.41002 -2.41554,0.46859c-0.28757,0.05858 -1.36881,0.26944 -2.41554,0.46859c-1.04674,0.19915 -2.12797,0.41002 -2.41554,0.4686c-0.28757,0.05858 -1.36881,0.26944 -2.41554,0.46859c-1.04674,0.19915 -2.2545,0.43345 -2.70309,0.52717c-3.87636,0.77318 -5.95833,1.12463 -6.02734,1.04262c-0.04601,-0.05858 -1.92092,-2.79986 -4.15242,-6.08003c-2.243,-3.29188 -5.54423,-8.08326 -7.33863,-10.66054c-1.8059,-2.57728 -4.14091,-5.91602 -5.18765,-7.42724c-1.04674,-1.4995 -1.89793,-2.8233 -1.87492,-2.92871c0.02301,-0.10544 1.67938,-1.86267 3.68082,-3.91277l3.64631,-3.71362l8.1093,8.25899l8.10931,8.259l5.47521,-1.59322l5.48672,-1.59322l1.00072,-3.59647c0.56363,-1.9681 1.05824,-3.76048 1.11575,-3.97135c0.09202,-0.36317 0.20705,-0.79661 0.42559,-1.58151c0.16103,-0.52717 0.35659,-1.24179 0.4601,-1.66352c0.09202,-0.33973 -0.09203,-0.55059 -7.99428,-8.61044l-8.0978,-8.259l4.00289,-4.07678l3.99139,-4.06506l1.09274,0.73804c1.40331,0.96062 16.70172,11.10571 22.25745,14.76075c2.34653,1.53465 4.24444,2.85844 4.24444,2.92873c-0.0115,0.08201 -0.18404,0.85518 -0.37958,1.72208c-0.60964,2.72957 -1.29979,5.78715 -1.39181,6.20889c-0.04601,0.22258 -0.35657,1.61665 -0.69015,3.10444c-0.65564,2.90529 -0.72466,3.24502 -0.89721,4.04163c-0.05751,0.29287 -0.37958,1.73381 -0.71316,3.2216c-0.83969,3.77219 -0.82818,3.72534 -0.85119,3.98306c-0.0115,0.24601 0.40259,0.66774 5.62475,5.68171c1.64487,1.58151 3.53128,3.39732 4.19843,4.04163c1.08124,1.05433 6.2574,6.03317 7.97127,7.66154l0.66715,0.64432l12.20422,-12.4295l12.20421,-12.4295l-0.25305,-0.36317c-0.63265,-0.90205 -1.01223,-2.19068 -1.11575,-3.76048c-0.09202,-1.40578 0.05751,-2.21412 0.64415,-3.51447c0.8857,-1.94467 1.12725,-3.35046 0.92021,-5.25998c-0.51761,-4.58052 -3.69232,-9.09075 -9.34008,-13.23782c-3.03667,-2.22583 -7.30412,-4.34622 -10.96193,-5.44742c-3.49979,-1.04271 -0.63265,-3.47933 3.39325,-3.74877c1.20776,-0.08201 7.07407,0.03514 7.87926,0.16401c0,0 1.17319,0.17575 1.61029,0.24604z" fill="none" stroke-opacity="0.42353" stroke="#000000" stroke-width="12.5" stroke-linecap="butt"/><path d="M77.96265,280.67532c0,0.96228 -2.15395,1.44343 -6.46185,1.44343c-4.3079,0 -6.64647,-0.34407 -7.01572,-1.03222l-11.48026,-21.44997v21.38284c0,0.82242 -2.12038,1.23363 -6.36114,1.23363c-4.23517,0 -6.35275,-0.41121 -6.35275,-1.23363v-45.9966c0,-0.68814 1.80988,-1.03222 5.42963,-1.03222c1.42105,0 3.08267,0.12868 4.98485,0.38603c1.90219,0.25176 3.05748,0.71891 3.46589,1.40147l11.00192,21.18143v-21.59264c0,-0.86718 2.13157,-1.30076 6.39471,-1.30076c4.26314,0 6.39471,0.43359 6.39471,1.30076v45.30846zM97.07475,281.77467c0,0.36365 -2.098,0.54548 -6.29401,0.54548c-4.19041,0 -6.28561,-0.15945 -6.28561,-0.47834v-33.75266c0,-0.32449 2.0952,-0.48674 6.28561,-0.48674c4.196,0 6.29401,0.13987 6.29401,0.4196zM97.07475,243.96028c0,0.32449 -2.098,0.48674 -6.29401,0.48674c-4.19041,0 -6.28561,-0.13987 -6.28561,-0.4196v-9.89418c0,-0.45876 2.0952,-0.68814 6.28561,-0.68814c4.196,0 6.29401,0.13707 6.29401,0.41121zM114.53362,265.13332c0,4.49252 1.69519,6.73878 5.08556,6.73878c2.2043,0 4.03935,-0.43359 5.50516,-1.30076c0.68814,0 1.24761,1.18048 1.6784,3.54143c0.43638,2.35536 0.65458,3.95823 0.65458,4.80862c0,0.84479 -0.11469,1.40706 -0.34407,1.68679c-2.42809,1.51056 -5.75132,2.26584 -9.96971,2.26584c-4.21279,0 -7.79897,-1.56931 -10.75856,-4.70792c-2.95399,-3.13861 -4.43098,-7.42413 -4.43098,-12.85656c0,-5.43243 1.45462,-9.82145 4.36384,-13.16706c2.90923,-3.34561 6.78074,-5.01842 11.61454,-5.01842c4.83939,0 8.19899,1.16929 10.0788,3.50786c0.40841,0.50352 0.61262,1.24761 0.61262,2.23227c0,0.98466 -0.18183,2.18752 -0.54548,3.60856c-0.82801,2.93161 -1.90499,4.6268 -3.23092,5.08556c-0.18462,0.05035 -0.45037,0.07553 -0.79724,0.07553c-0.34127,0 -0.76367,-0.27694 -1.26719,-0.83081c-1.7847,-1.7847 -3.21694,-2.67705 -4.29671,-2.67705c-1.07418,0 -2.00289,0.55107 -2.78615,1.65323c-0.77766,1.09655 -1.16649,2.88126 -1.16649,5.3541zM143.89229,281.70753c0,0.40841 -1.91338,0.61262 -5.74013,0.61262c-3.82676,0 -5.74013,-0.3189 -5.74013,-0.95669v-47.09595c0,-0.3189 0.71052,-0.54548 2.13157,-0.67975c1.42105,-0.13987 2.61271,-0.2098 3.575,-0.2098c3.84913,0 5.7737,0.41121 5.7737,1.23363v13.7545c2.56236,-0.78326 4.50931,-1.17488 5.84084,-1.17488c3.48548,0 6.23526,0.92871 8.24934,2.78615c2.01968,1.85743 3.02952,5.30655 3.02952,10.34735v21.30731c0,0.41401 -1.7875,0.62101 -5.36249,0.62101c-4.03376,-0.13427 -6.05064,-0.36365 -6.05064,-0.68814v-20.20796c0,-2.24906 -0.7357,-3.37359 -2.2071,-3.37359c-1.00704,0 -2.17353,0.48114 -3.49947,1.44343zM192.83611,280.33125c-2.88685,1.69519 -6.59892,2.54278 -11.1362,2.54278c-4.53728,0 -8.36403,-1.54693 -11.48027,-4.64078c-3.11623,-3.09385 -4.67435,-7.37937 -4.67435,-12.85656c0,-5.47718 1.49937,-9.88858 4.49812,-13.2342c3.00434,-3.34561 6.79753,-5.01842 11.37956,-5.01842c4.58763,0 8.12906,1.16929 10.62428,3.50786c2.49522,2.33857 3.74284,5.18067 3.74284,8.52628c0,7.42413 -4.26034,11.1362 -12.78103,11.1362h-4.74148c0,1.37629 0.37764,2.32738 1.13292,2.85328c0.75528,0.5259 1.86582,0.78885 3.33163,0.78885c3.20575,0 6.25484,-0.7329 9.14729,-2.19871c0.04476,-0.04476 0.24896,0.27694 0.61262,0.96508c1.10215,1.96932 1.65323,3.63094 1.65323,4.98485c0,1.34832 -0.43638,2.22948 -1.30915,2.64348zM184.24269,260.45897c0,-1.92457 -0.9399,-2.88685 -2.81971,-2.88685c-0.86718,0 -1.61127,0.26575 -2.23227,0.79724c-0.61541,0.5259 -0.92312,1.29237 -0.92312,2.29941v2.13157h3.70927c1.51056,0 2.26584,-0.78046 2.26584,-2.34137zM234.22055,281.08653c0,0.91753 -2.26864,1.37629 -6.80592,1.37629c-4.53728,0 -6.80592,-0.45876 -6.80592,-1.37629v-34.50794h-8.24934c-0.77766,0 -1.32594,-1.05459 -1.64483,-3.16379c-0.13987,-1.01263 -0.2098,-2.04485 -0.2098,-3.09665c0,-1.0518 0.06993,-2.08402 0.2098,-3.09665c0.3189,-2.1036 0.86718,-3.1554 1.64483,-3.1554h29.90912c0.77766,0 1.32594,1.0518 1.64483,3.1554c0.13987,1.01263 0.2098,2.04485 0.2098,3.09665c0,1.0518 -0.06993,2.08402 -0.2098,3.09665c-0.3189,2.10919 -0.86718,3.16379 -1.64483,3.16379h-8.04794zM248.28273,278.13254c-2.86447,-3.16659 -4.29671,-7.54442 -4.29671,-13.13349c0,-5.58908 1.43224,-9.96411 4.29671,-13.1251c2.86447,-3.16659 6.72479,-4.74988 11.58096,-4.74988c4.86177,0 8.7137,1.58329 11.5558,4.74988c2.84209,3.16099 4.26314,7.53602 4.26314,13.1251c0,5.58908 -1.42105,9.96691 -4.26314,13.13349c-2.84209,3.16099 -6.69402,4.74148 -11.5558,4.74148c-4.85616,0 -8.71648,-1.5805 -11.58096,-4.74148zM259.89725,258.60433c-2.58473,0 -3.87709,2.10919 -3.87709,6.32757c0,4.21279 1.29236,6.31918 3.87709,6.31918c2.59033,0 3.8855,-2.10639 3.8855,-6.31918c0,-4.21838 -1.29517,-6.32757 -3.8855,-6.32757zM283.55014,278.13254c-2.86449,-3.16659 -4.29674,-7.54442 -4.29674,-13.13349c0,-5.58908 1.43225,-9.96411 4.29674,-13.1251c2.86447,-3.16659 6.7248,-4.74988 11.58097,-4.74988c4.86177,0 8.7137,1.58329 11.5558,4.74988c2.84209,3.16099 4.26314,7.53602 4.26314,13.1251c0,5.58908 -1.42105,9.96691 -4.26314,13.13349c-2.84209,3.16099 -6.69402,4.74148 -11.5558,4.74148c-4.85617,0 -8.7165,-1.5805 -11.58097,-4.74148zM295.16468,258.60433c-2.58474,0 -3.87711,2.10919 -3.87711,6.32757c0,4.21279 1.29237,6.31918 3.87711,6.31918c2.59033,0 3.8855,-2.10639 3.8855,-6.31918c0,-4.21838 -1.29517,-6.32757 -3.8855,-6.32757zM328.34241,281.63201c0,0.41401 -2.33857,0.62101 -7.01572,0.62101c-3.66451,-0.04476 -5.49677,-0.22658 -5.49677,-0.54548v-46.81902c0,-0.68814 2.22108,-1.03222 6.66325,-1.03222c3.89949,0.13987 5.84923,0.36925 5.84923,0.68814zM334.8733,234.26751c0,-0.54828 1.98051,-0.82242 5.94154,-0.82242c3.96662,0 5.94993,0.29652 5.94993,0.88955v13.34329c1.96932,-0.36925 3.36799,-0.55387 4.196,-0.55387c9.62284,0 14.43426,5.52194 14.43426,16.56583c0,6.14295 -1.47979,10.87604 -4.43937,14.19928c-2.95399,3.32324 -7.14719,4.98485 -12.57962,4.98485c-5.42683,0 -9.92775,-1.21404 -13.50274,-3.64213zM349.03062,257.84905c-0.77766,0 -1.53294,0.25176 -2.26584,0.75528v13.13349c0.64339,0.27414 1.31755,0.41121 2.02247,0.41121c0.71052,0 1.43503,-0.27414 2.17353,-0.82242c1.28118,-0.91753 1.92177,-3.0491 1.92177,-6.39471c0,-4.7219 -1.28398,-7.08286 -3.85193,-7.08286zM373.26543,278.13254c-2.86447,-3.16659 -4.29671,-7.54442 -4.29671,-13.13349c0,-5.58908 1.43224,-9.96411 4.29671,-13.1251c2.86447,-3.16659 6.7248,-4.74988 11.58097,-4.74988c4.86177,0 8.7137,1.58329 11.5558,4.74988c2.84209,3.16099 4.26314,7.53602 4.26314,13.1251c0,5.58908 -1.42105,9.96691 -4.26314,13.13349c-2.84209,3.16099 -6.69402,4.74148 -11.5558,4.74148c-4.85617,0 -8.7165,-1.5805 -11.58097,-4.74148zM384.87997,258.60433c-2.58474,0 -3.87711,2.10919 -3.87711,6.32757c0,4.21279 1.29237,6.31918 3.87711,6.31918c2.59033,0 3.8855,-2.10639 3.8855,-6.31918c0,-4.21838 -1.29517,-6.32757 -3.8855,-6.32757zM426.16439,248.02201c0.18462,-0.36925 1.33153,-0.55387 3.44072,-0.55387c6.87585,0 10.22147,0.25176 10.03684,0.75528l-8.39201,17.39663c5.63943,10.54036 8.45914,15.81054 8.45914,15.81054c0,0.27414 -1.37629,0.50352 -4.12887,0.68814c-2.74699,0.18462 -4.69393,0.27694 -5.84084,0.27694c-2.88685,0 -4.42259,-0.29931 -4.60721,-0.89794l-3.70927,-11.48027l-4.26314,11.95861c-0.08951,0.32449 -1.39587,0.48674 -3.91907,0.48674c-2.5176,0 -4.76386,-0.09231 -6.73878,-0.27694c-1.96932,-0.18462 -2.86168,-0.41401 -2.67705,-0.68814l7.771,-15.81054c-5.41005,-11.32362 -8.11507,-17.0078 -8.11507,-17.05256c0,-0.27414 0.69933,-0.5259 2.098,-0.75528c1.39867,-0.22938 2.97916,-0.34407 4.74148,-0.34407c1.76232,0 3.44632,0.08112 5.05199,0.24337c1.60567,0.16225 2.50082,0.38044 2.68544,0.65458l3.64213,11.1362z" fill="#ffffff" stroke="none" stroke-width="1" stroke-linecap="square"/><path d="M252.55688,77.31728c0.44859,0.05858 1.17326,0.17572 1.61036,0.24601c6.40692,0.99576 12.05468,3.54961 17.11581,7.76697c1.66787,1.37064 3.01367,2.753 15.10286,15.35823c6.00433,6.26747 7.02807,7.45067 8.89147,10.25053c1.28829,1.93296 1.84041,2.97558 3.10569,5.84574c0.60964,1.39407 1.39182,3.01072 1.72539,3.58475c0.63265,1.06606 2.16248,3.19816 2.96767,4.14707l0.44859,0.51545l0.62114,-0.32802c0.9087,-0.46859 1.64486,-0.64433 2.77211,-0.64433c1.79439,0 3.32424,0.7029 4.69305,2.16726c1.24228,1.33549 1.82891,2.62413 1.93243,4.27593c0.08052,1.20663 -0.08052,2.07353 -0.56362,3.0693c-0.31058,0.64432 -1.04673,1.44094 -5.77428,6.27918c-2.97916,3.04586 -5.65927,5.72858 -5.95833,5.95116c-1.67937,1.2652 -4.00289,1.44093 -6.05034,0.45688c-2.42704,-1.17148 -3.94538,-3.36217 -4.12941,-5.9746c-0.12652,-1.85095 0.4256,-3.18645 1.98995,-4.84997l1.05823,-1.1012l-1.63336,-2.06182c-3.70382,-4.70939 -5.61325,-6.15032 -8.35086,-6.30262c-0.66715,-0.04686 -1.25377,0 -1.84041,0.12887c-3.17471,0.7146 -5.30268,0.51545 -7.35014,-0.64433c-0.72466,-0.42174 -1.65637,-1.06605 -2.08196,-1.46436l-0.29907,-0.26944l-12.05468,12.2772c-7.10858,7.2398 -12.03168,12.33577 -11.98567,12.41778c0.04601,0.07029 1.25378,1.24178 2.6916,2.61241c1.43782,1.37064 2.84113,2.72957 3.1287,3.02244c0.28757,0.29287 1.88642,1.85095 3.56579,3.45589c1.67937,1.61665 3.5888,3.45589 4.25595,4.10021c0.66715,0.64432 2.55356,2.46013 4.19844,4.04164c1.64486,1.58151 3.53128,3.39731 4.19843,4.04163c0.66715,0.64432 2.55356,2.46013 4.19844,4.04164c1.64486,1.58151 3.53129,3.39731 4.19844,4.04163c0.66715,0.64432 2.57657,2.49528 4.25595,4.10021c1.67937,1.60494 3.56579,3.42074 4.19844,4.04163c0.63265,0.62089 1.62186,1.56979 2.18549,2.10868c6.57946,6.31433 11.43353,11.03542 12.08918,11.76174c2.20849,2.42497 3.18621,5.76373 2.64559,8.92674c-0.78217,4.52195 -4.0259,8.43472 -8.17832,9.86394c-1.39182,0.46859 -1.84041,0.55059 -3.39325,0.55059c-1.8059,0 -2.61107,-0.15229 -4.11791,-0.77318c-1.65637,-0.67946 -2.91015,-1.55808 -4.4975,-3.12787c-0.50611,-0.49203 -3.72683,-3.95963 -7.16609,-7.69668c-3.42775,-3.73705 -7.07407,-7.68497 -8.0863,-8.78616c-3.03667,-3.28017 -15.79301,-17.11545 -18.86419,-20.44248c-1.57585,-1.71037 -3.6348,-3.94791 -4.58952,-4.97883c-0.95472,-1.03091 -2.86413,-3.10445 -4.24444,-4.60395c-1.38031,-1.48779 -2.55356,-2.71786 -2.61107,-2.71786c-0.04601,0 -0.31058,0.24602 -0.58663,0.5506c-0.48311,0.5506 -2.87564,3.11616 -9.88069,10.63712c-1.86341,2.00324 -4.73905,5.08427 -6.39542,6.85321c-24.04034,25.8079 -28.88292,30.98588 -29.34302,31.40761c-1.13876,1.04262 -2.39254,1.53465 -3.94538,1.53465c-1.23077,0.01172 -1.8174,-0.10543 -3.12869,-0.62089c-1.85191,-0.72633 -2.45005,-1.25349 -8.50039,-7.45067c-6.14237,-6.27918 -6.51045,-6.72435 -7.10858,-8.5753c-0.52912,-1.64008 -0.18404,-3.33874 1.01223,-4.9554c0.23005,-0.3163 2.64559,-2.75301 5.36019,-5.40057c2.7261,-2.65928 5.69377,-5.56458 6.61397,-6.46662c1.7714,-1.74552 4.77356,-4.67424 11.38753,-11.12914c2.243,-2.19068 4.80808,-4.69767 5.69377,-5.56458c0.88569,-0.8669 3.42776,-3.35045 5.63625,-5.50601c2.21999,-2.15554 4.75056,-4.6391 5.63625,-5.506c0.88569,-0.87862 3.38175,-3.31531 5.55573,-5.43571c2.16248,-2.12039 3.93388,-3.88934 3.93388,-3.94791c0,-0.10544 -1.05824,-1.2652 -8.05179,-8.83302c-1.36881,-1.48779 -3.1517,-3.42074 -3.96839,-4.31108c-0.80518,-0.87862 -1.49533,-1.60494 -1.51834,-1.60494c-0.02301,0 -0.41408,0.082 -0.87419,0.16401c-0.4601,0.09372 -1.67938,0.33974 -2.72611,0.53889c-1.04674,0.19915 -2.12797,0.41002 -2.41554,0.46859c-0.28757,0.05858 -1.36881,0.26944 -2.41554,0.46859c-1.04674,0.19915 -2.12797,0.41002 -2.41554,0.4686c-0.28757,0.05858 -1.36881,0.26944 -2.41554,0.46859c-1.04674,0.19915 -2.2545,0.43345 -2.7031,0.52717c-3.87637,0.77318 -5.95833,1.12463 -6.02734,1.04262c-0.04601,-0.05858 -1.92092,-2.79986 -4.15242,-6.08003c-2.243,-3.29188 -5.54423,-8.08327 -7.33862,-10.66054c-1.8059,-2.57727 -4.14092,-5.91603 -5.18766,-7.42724c-1.04674,-1.4995 -1.89793,-2.82329 -1.87491,-2.92871c0.02301,-0.10544 1.67937,-1.86267 3.68082,-3.91277l3.64631,-3.71362l8.1093,8.259l8.10931,8.259l5.47521,-1.59322l5.48672,-1.59322l1.00072,-3.59647c0.56362,-1.9681 1.05824,-3.76048 1.11575,-3.97135c0.09202,-0.36317 0.20705,-0.79661 0.4256,-1.58151c0.16104,-0.52717 0.35658,-1.24178 0.4601,-1.66351c0.09202,-0.33973 -0.09202,-0.55059 -7.99428,-8.61044l-8.0978,-8.259l4.00289,-4.07678l3.99139,-4.06506l1.09274,0.73804c1.40331,0.96062 16.70172,11.10571 22.25745,14.76076c2.34652,1.53465 4.24444,2.85843 4.24444,2.92872c-0.0115,0.08201 -0.18404,0.85518 -0.37958,1.72208c-0.60964,2.72957 -1.29979,5.78716 -1.39182,6.2089c-0.04601,0.22258 -0.35657,1.61665 -0.69015,3.10444c-0.65564,2.90529 -0.72466,3.24502 -0.89721,4.04163c-0.05751,0.29287 -0.37958,1.7338 -0.71316,3.22159c-0.83969,3.77219 -0.82818,3.72533 -0.85119,3.98306c-0.0115,0.24601 0.40259,0.66774 5.62475,5.68172c1.64486,1.58151 3.53129,3.39731 4.19844,4.04163c1.08124,1.05433 6.25739,6.03317 7.97127,7.66154l0.66715,0.64432l12.20422,-12.4295l12.20422,-12.42949l-0.25306,-0.36317c-0.63265,-0.90205 -1.01223,-2.19068 -1.11575,-3.76048c-0.09202,-1.40578 0.05751,-2.21411 0.64415,-3.51446c0.88569,-1.94467 1.12726,-3.35046 0.9202,-5.25999c-0.51762,-4.58052 -3.69232,-9.09075 -9.34008,-13.23782c-3.03667,-2.22583 -7.30412,-4.34622 -10.96193,-5.44743c-3.49979,-1.04271 -0.63265,-3.47932 3.39325,-3.74876c1.20776,-0.08201 7.07407,0.03514 7.87926,0.16401z" fill="#ffffff" stroke="none" stroke-width="1" stroke-linecap="butt"/><path d="M445.26291,139.86731h-1.15164h-1.15164l-0.27192,-1.87141c-0.14396,-1.02368 -0.3359,-1.93539 -0.39987,-1.99937c-0.07998,-0.07998 -0.81575,-0.11196 -1.64749,-0.09597l-1.50353,0.04798l-0.39987,1.79144c-0.22393,0.97569 -0.44786,1.82343 -0.49585,1.88741c-0.06398,0.04798 -0.57582,0.04798 -1.15164,-0.016l-1.05567,-0.11196l-0.04798,-1.99937l-0.04798,-2.01537l-1.51952,-0.27192c-0.83174,-0.14396 -1.56751,-0.22393 -1.6155,-0.15995c-0.06398,0.04798 -0.36789,0.81575 -0.70378,1.69547c-0.3199,0.87973 -0.6398,1.66348 -0.71977,1.72746c-0.12796,0.14396 -1.71147,-0.14396 -2.06335,-0.35189c-0.11196,-0.07998 -0.09597,-0.60781 0.06398,-1.69547c0.35189,-2.44724 0.43187,-2.2393 -1.08766,-2.71915c-0.71977,-0.22393 -1.39156,-0.44786 -1.50353,-0.49585c-0.11196,-0.04798 -0.55983,0.60781 -1.08766,1.5995c-0.49585,0.92771 -0.94371,1.72746 -1.00769,1.75945c-0.09597,0.06398 -1.9194,-0.60781 -2.06335,-0.76776c-0.03199,-0.03199 0.15995,-0.83174 0.43187,-1.79144c0.25592,-0.9597 0.47985,-1.82343 0.47985,-1.90341c0,-0.12796 -2.5432,-1.51952 -2.78313,-1.51952c-0.03199,0 -0.57582,0.68779 -1.19962,1.51952c-0.62381,0.83174 -1.21562,1.51952 -1.2956,1.51952c-0.11196,0 -1.69547,-0.86373 -1.87141,-1.02368c-0.03199,-0.016 0.3199,-0.84773 0.75177,-1.85542c0.44786,-0.99169 0.78375,-1.82343 0.76776,-1.83943c-0.51184,-0.38388 -2.5432,-1.67948 -2.63918,-1.67948c-0.06398,0 -0.73577,0.60781 -1.48754,1.35958l-1.35958,1.34358l-0.84773,-0.6398c-0.44786,-0.35189 -0.83174,-0.70378 -0.83174,-0.76776c0,-0.06398 0.44786,-0.86373 0.99169,-1.74345l0.97569,-1.63149l-1.08766,-0.99169c-0.59181,-0.55983 -1.15164,-1.03968 -1.23162,-1.05567c-0.06398,-0.03199 -0.79975,0.44786 -1.63149,1.07166c-0.87973,0.68779 -1.5835,1.10366 -1.72746,1.05567c-0.12796,-0.04798 -0.49585,-0.41587 -0.83174,-0.81575l-0.59181,-0.70378l1.07166,-1.32758c0.59181,-0.71977 1.15164,-1.40756 1.23162,-1.50353c0.11196,-0.14396 -0.12796,-0.54383 -0.76776,-1.32758c-0.51184,-0.62381 -0.99169,-1.16764 -1.05567,-1.21562c-0.07998,-0.04798 -0.86373,0.3199 -1.72746,0.79975c-0.86373,0.49585 -1.66348,0.89572 -1.74345,0.89572c-0.17594,0 -1.31159,-1.47154 -1.31159,-1.71147c0,-0.07998 0.60781,-0.70378 1.35958,-1.39156c0.75177,-0.67179 1.35958,-1.2956 1.35958,-1.37557c0,-0.07998 -0.36789,-0.70378 -0.81575,-1.40756l-0.79975,-1.2636l-1.83943,0.71977c-1.00769,0.38388 -1.85542,0.68779 -1.88741,0.65579c-0.12796,-0.17594 -1.05567,-1.96739 -1.00769,-1.98338c0.016,-0.016 0.73577,-0.52783 1.5835,-1.10366c0.86373,-0.59181 1.56751,-1.13564 1.56751,-1.18363c0,-0.07998 -1.07166,-2.62318 -1.21562,-2.8791c0,-0.016 -0.87973,0.17594 -1.9194,0.43187c-2.14333,0.51184 -1.96739,0.57582 -2.46323,-0.84773l-0.28791,-0.84773l1.74345,-0.86373c0.9597,-0.46385 1.74345,-0.92771 1.74345,-1.02368c-0.016,-0.22393 -0.78375,-2.83112 -0.86373,-2.92708c-0.04798,-0.03199 -0.92771,0.016 -1.95139,0.12796c-2.11134,0.20794 -2.04736,0.23992 -2.22331,-0.92771c-0.06398,-0.38388 -0.14396,-0.79975 -0.17594,-0.91171c-0.06398,-0.14396 0.28791,-0.3359 1.00769,-0.55983c0.59181,-0.20794 1.45554,-0.49585 1.90341,-0.65579l0.81575,-0.3039l-0.20794,-1.40756c-0.12796,-0.76776 -0.22393,-1.47154 -0.22393,-1.56751c0,-0.11196 -0.70378,-0.22393 -1.95139,-0.28791c-1.08766,-0.06398 -1.98338,-0.14396 -2.01537,-0.15995c-0.016,-0.03199 -0.04798,-0.54383 -0.07998,-1.13564l-0.03199,-1.10366l1.11965,-0.20794c0.60781,-0.12796 1.47154,-0.28791 1.9194,-0.38388l0.79975,-0.14396v-1.5995v-1.5995l-0.79975,-0.15995c-0.44786,-0.09597 -1.31159,-0.25592 -1.9194,-0.36789l-1.11965,-0.20794l0.03199,-1.08766c0.03199,-0.60781 0.06398,-1.11965 0.09597,-1.15164c0.016,-0.03199 0.91171,-0.09597 1.98338,-0.15995l1.93539,-0.11196l0.19194,-1.37557c0.09597,-0.75177 0.19194,-1.47154 0.20794,-1.5995c0.016,-0.14396 -0.57582,-0.41587 -1.79144,-0.83174c-1.00769,-0.3359 -1.83943,-0.6398 -1.87141,-0.65579c-0.06398,-0.06398 0.36789,-2.04736 0.46385,-2.14333c0.04798,-0.04798 0.92771,0 1.95139,0.09597c1.02368,0.09597 1.90341,0.15995 1.93539,0.11196c0.07998,-0.07998 0.86373,-2.70316 0.86373,-2.91109c0,-0.09597 -0.78375,-0.55983 -1.74345,-1.03968l-1.74345,-0.84773l0.36789,-1.02368c0.20794,-0.57582 0.39987,-1.05567 0.43187,-1.08766c0.03199,-0.03199 0.44786,0.03199 0.92771,0.15995c0.47985,0.12796 1.32758,0.3359 1.88741,0.46385l1.02368,0.23992l0.62381,-1.37557c0.3359,-0.75177 0.62381,-1.42356 0.62381,-1.48754c0,-0.07998 -0.70378,-0.62381 -1.56751,-1.21562c-0.84773,-0.57582 -1.56751,-1.08766 -1.5995,-1.10366c-0.07998,-0.06398 1.00769,-1.99937 1.13564,-1.99937c0.06398,0 0.89572,0.3199 1.87141,0.70378l1.74345,0.70378l0.71977,-1.15164c0.39987,-0.6398 0.76776,-1.2796 0.81575,-1.40756c0.06398,-0.15995 -0.35189,-0.65579 -1.2956,-1.53552c-1.56751,-1.45554 -1.55152,-1.39156 -0.51184,-2.65517l0.44786,-0.55983l1.71147,0.97569l1.69547,0.99169l0.47985,-0.55983c1.5995,-1.88741 1.5995,-1.88741 1.37557,-2.19131c-0.11196,-0.14396 -0.67179,-0.83174 -1.23162,-1.51952l-1.02368,-1.23162l0.67179,-0.79975c0.36789,-0.44786 0.75177,-0.79975 0.84773,-0.79975c0.07998,0 0.83174,0.51184 1.66348,1.11965c0.97569,0.75177 1.56751,1.08766 1.71147,1.00769c0.11196,-0.06398 0.65579,-0.54383 1.21562,-1.03968l1.00769,-0.91171l-1.00769,-1.69547c-1.10366,-1.85542 -1.10366,-1.77545 0.04798,-2.59119l0.70378,-0.51184l1.34358,1.35958c0.73577,0.73577 1.39156,1.34358 1.47154,1.34358c0.09597,0 2.09535,-1.2796 2.63918,-1.67948c0.016,-0.016 -0.3199,-0.84773 -0.76776,-1.83943c-0.43187,-1.00769 -0.78375,-1.83943 -0.75177,-1.85542c0.016,-0.016 0.46385,-0.28791 0.97569,-0.59181l0.94371,-0.57582l1.10366,1.47154c0.60781,0.81575 1.16764,1.53552 1.23162,1.5995c0.15995,0.15995 2.8951,-1.16764 2.8951,-1.40756c0,-0.07998 -0.22393,-0.94371 -0.47985,-1.90341c-0.27192,-0.9597 -0.46385,-1.75945 -0.43187,-1.79144c0.14396,-0.15995 1.96739,-0.83174 2.06335,-0.76776c0.06398,0.03199 0.51184,0.81575 0.99169,1.72746l0.89572,1.66348l1.47154,-0.47985c0.81575,-0.25592 1.51952,-0.49585 1.55152,-0.54383c0.03199,-0.03199 -0.04798,-0.89572 -0.19194,-1.93539c-0.15995,-1.2636 -0.19194,-1.9194 -0.09597,-1.98338c0.35189,-0.20794 1.93539,-0.49585 2.06335,-0.35189c0.07998,0.06398 0.35189,0.70378 0.60781,1.40756c0.27192,0.70378 0.55983,1.47154 0.6398,1.69547l0.15995,0.41587l1.5835,-0.27192l1.56751,-0.25592l0.04798,-2.01537l0.04798,-2.01537l1.03968,-0.11196c0.57582,-0.06398 1.10366,-0.06398 1.15164,0c0.06398,0.04798 0.28791,0.91171 0.51184,1.88741l0.39987,1.79144l1.50353,0.04798c0.83174,0.016 1.56751,-0.016 1.64749,-0.09597c0.06398,-0.06398 0.25592,-0.97569 0.39987,-1.99937l0.27192,-1.87141h1.15164h1.15164l0.11196,1.24761c0.20794,2.73514 0.20794,2.73514 0.76776,2.83112c0.28791,0.04798 1.00769,0.09597 1.6155,0.12796l1.08766,0.03199l0.52783,-1.75945l0.51184,-1.75945l0.70378,0.016c0.38388,0 0.91171,0.06398 1.16764,0.12796l0.44786,0.11196l-0.11196,1.96739l-0.11196,1.95139l1.55152,0.41587l1.55152,0.39987l0.84773,-1.80743c0.55983,-1.18363 0.92771,-1.79144 1.07166,-1.75945c0.11196,0.04798 0.59181,0.19194 1.03968,0.3359c0.46385,0.14396 0.84773,0.35189 0.84773,0.44786c0,0.11196 -0.15995,0.97569 -0.3359,1.9194c-0.20794,1.00769 -0.28791,1.77545 -0.20794,1.85542c0.3359,0.3039 2.81512,1.16764 2.91109,1.02368c0.06398,-0.07998 0.52783,-0.81575 1.03968,-1.6155c0.52783,-0.81575 1.00769,-1.47154 1.08766,-1.47154c0.3039,0 1.90341,0.87973 1.90341,1.03968c0,0.09597 -0.28791,0.94371 -0.62381,1.88741l-0.62381,1.72746l0.35189,0.20794c1.95139,1.18363 2.38326,1.37557 2.59119,1.19962c0.12796,-0.11196 0.70378,-0.75177 1.2956,-1.43955c0.57582,-0.70378 1.11965,-1.2636 1.19962,-1.2636c0.09597,0 0.54383,0.27192 1.00769,0.59181l0.84773,0.60781l-0.86373,1.69547c-0.47985,0.92771 -0.86373,1.72746 -0.86373,1.77545c0,0.06398 0.54383,0.54383 1.21562,1.07166l1.23162,0.97569l1.21562,-1.07166c0.67179,-0.59181 1.34358,-1.16764 1.48754,-1.2956c0.25592,-0.20794 0.35189,-0.17594 1.02368,0.36789c0.39987,0.3359 0.76776,0.70378 0.81575,0.81575c0.03199,0.11196 -0.43187,0.91171 -1.05567,1.77545l-1.11965,1.56751l1.13564,1.15164l1.13564,1.13564l1.5835,-1.02368c0.86373,-0.55983 1.63149,-1.02368 1.71147,-1.02368c0.07998,0 0.44786,0.36789 0.81575,0.79975l0.67179,0.79975l-1.35958,1.48754l-1.35958,1.47154l0.87973,1.19962c0.47985,0.65579 0.9597,1.21562 1.07166,1.24761c0.09597,0.016 0.92771,-0.3199 1.83943,-0.76776c0.91171,-0.44786 1.71147,-0.75177 1.75945,-0.67179c0.91171,1.37557 1.16764,1.83943 1.02368,1.9194c-0.43187,0.3039 -2.92708,2.33527 -2.92708,2.39925c0,0.04798 0.3359,0.68779 0.73577,1.42356c0.84773,1.55152 0.60781,1.50353 3.07104,0.67179c0.75177,-0.25592 1.39156,-0.43187 1.43955,-0.39987c0.03199,0.03199 0.25592,0.49585 0.51184,1.02368c0.3359,0.71977 0.41587,1.00769 0.27192,1.11965c-0.11196,0.07998 -0.87973,0.54383 -1.72746,1.03968l-1.53552,0.89572l0.55983,1.53552c0.43187,1.15164 0.62381,1.50353 0.81575,1.45554c0.65579,-0.19194 3.56689,-0.59181 3.64686,-0.51184c0.04798,0.04798 0.20794,0.54383 0.36789,1.10366l0.28791,1.02368l-1.71147,0.68779c-0.92771,0.38388 -1.75945,0.73577 -1.82343,0.79975c-0.11196,0.11196 0.15995,1.80743 0.47985,2.94308c0.07998,0.28791 0.20794,0.3039 2.06335,0.19194l1.96739,-0.09597l0.09597,0.75177c0.04798,0.43187 0.12796,0.94371 0.17594,1.16764c0.06398,0.38388 0.016,0.41587 -1.80743,0.89572l-1.88741,0.47985l0.04798,1.5995c0.03199,0.86373 0.07998,1.5995 0.09597,1.6155c0.016,0.016 0.67179,0.11196 1.45554,0.19194c0.79975,0.09597 1.67948,0.20794 1.95139,0.25592l0.52783,0.09597v1.10366v1.10366l-0.52783,0.07998c-0.27192,0.04798 -1.15164,0.15995 -1.95139,0.25592c-0.78375,0.09597 -1.43955,0.19194 -1.45554,0.20794c-0.016,0.016 -0.06398,0.75177 -0.09597,1.6155l-0.04798,1.5835l1.88741,0.49585c1.82343,0.47985 1.87141,0.49585 1.80743,0.89572c-0.04798,0.22393 -0.12796,0.73577 -0.17594,1.15164l-0.09597,0.76776l-1.96739,-0.11196c-1.85542,-0.09597 -1.98338,-0.07998 -2.06335,0.20794c-0.3199,1.13564 -0.59181,2.83112 -0.47985,2.94308c0.06398,0.06398 0.89572,0.41587 1.82343,0.79975l1.71147,0.68779l-0.28791,1.02368c-0.15995,0.55983 -0.3199,1.05567 -0.35189,1.10366c-0.04798,0.03199 -0.94371,-0.06398 -1.98338,-0.23992c-1.03968,-0.17594 -1.9194,-0.3039 -1.9194,-0.28791c-0.016,0.016 -0.28791,0.70378 -0.59181,1.51952l-0.54383,1.48754l1.64749,0.9597c0.91171,0.54383 1.66348,1.07166 1.66348,1.18363c0,0.41587 -0.81575,1.98338 -1.00769,1.9194c-0.11196,-0.03199 -0.89572,-0.28791 -1.75945,-0.55983c-0.86373,-0.28791 -1.64749,-0.47985 -1.75945,-0.43187c-0.28791,0.11196 -1.6155,2.67116 -1.45554,2.81512c0.07998,0.06398 0.71977,0.57582 1.42356,1.13564c0.70378,0.55983 1.34358,1.07166 1.40756,1.13564c0.11196,0.07998 -0.70378,1.5995 -1.08766,2.03137c-0.03199,0.03199 -0.78375,-0.3199 -1.67948,-0.76776c-0.89572,-0.44786 -1.72746,-0.79975 -1.83943,-0.76776c-0.11196,0.03199 -0.60781,0.59181 -1.08766,1.24761l-0.89572,1.19962l0.75177,0.79975c0.41587,0.44786 1.03968,1.10366 1.37557,1.47154l0.62381,0.67179l-0.67179,0.79975c-0.38388,0.44786 -0.75177,0.81575 -0.83174,0.81575c-0.06398,0 -0.83174,-0.46385 -1.69547,-1.02368l-1.56751,-1.03968l-1.15164,1.13564c-0.70378,0.68779 -1.10366,1.21562 -1.02368,1.31159c0.89572,1.19962 2.09535,2.97507 2.09535,3.10303c0,0.09597 -0.36789,0.46385 -0.79975,0.83174l-0.79975,0.67179l-0.54383,-0.46385c-0.3039,-0.23992 -0.97569,-0.83174 -1.50353,-1.2796l-0.9597,-0.84773l-1.21562,0.9597c-0.67179,0.52783 -1.21562,1.00769 -1.21562,1.07166c0,0.04798 0.38388,0.86373 0.86373,1.79144l0.86373,1.69547l-0.84773,0.60781c-0.46385,0.3199 -0.91171,0.59181 -1.00769,0.59181c-0.07998,0 -0.62381,-0.55983 -1.19962,-1.2636c-0.59181,-0.68779 -1.16764,-1.32758 -1.2956,-1.43955c-0.20794,-0.17594 -0.6398,0.016 -2.59119,1.19962l-0.35189,0.20794l0.62381,1.72746c0.3359,0.94371 0.62381,1.79144 0.62381,1.88741c0,0.15995 -1.5995,1.03968 -1.90341,1.03968c-0.07998,0 -0.55983,-0.65579 -1.08766,-1.47154c-0.51184,-0.79975 -0.97569,-1.53552 -1.03968,-1.63149c-0.09597,-0.14396 -2.5432,0.71977 -2.91109,1.03968c-0.07998,0.07998 0,0.84773 0.20794,1.85542c0.17594,0.94371 0.3359,1.80743 0.3359,1.90341c0,0.09597 -0.41587,0.3039 -0.92771,0.46385c-0.49585,0.15995 -0.9597,0.3199 -1.03968,0.35189c-0.06398,0.04798 -0.51184,-0.75177 -0.97569,-1.75945l-0.86373,-1.82343l-1.55152,0.39987l-1.55152,0.41587l0.11196,1.95139l0.11196,1.96739l-0.44786,0.11196c-0.25592,0.06398 -0.78375,0.12796 -1.16764,0.12796l-0.68779,0.016l-0.52783,-1.75945l-0.51184,-1.75945l-1.10366,0.03199c-0.60781,0.03199 -1.32758,0.07998 -1.6155,0.12796c-0.55983,0.09597 -0.55983,0.09597 -0.76776,2.84711zM443.85535,96.61683c3.53489,-0.76776 5.99813,-4.31865 5.4383,-7.80556c-0.60781,-3.8228 -4.25467,-6.52596 -7.93352,-5.91815c-3.8228,0.6398 -6.49397,4.28666 -5.87017,7.96551c0.49585,2.8631 2.5592,5.08641 5.34233,5.74221c1.19962,0.27192 1.82343,0.28791 3.02306,0.016z" data-paper-data="{&quot;index&quot;:null}" fill-opacity="0.50196" fill="#000000" stroke="none" stroke-width="1" stroke-linecap="butt"/><path d="M370.44384,160.28464l-0.72171,-0.00792l-0.72171,-0.00792l-0.15753,-1.17464c-0.08317,-0.64251 -0.19719,-1.21518 -0.23684,-1.25572c-0.04957,-0.05067 -0.51044,-0.07578 -1.03179,-0.07148l-0.94256,0.01973l-0.26292,1.1199c-0.14705,0.6099 -0.29321,1.13963 -0.32372,1.17939c-0.04042,0.02963 -0.36118,0.02611 -0.7216,-0.01795l-0.6608,-0.07743l-0.01632,-1.25329l-0.01621,-1.26332l-0.95038,-0.18086c-0.52024,-0.09593 -0.98079,-0.15111 -1.0113,-0.11135c-0.04042,0.02963 -0.23616,0.50868 -0.45271,1.05767c-0.20653,0.5491 -0.41239,1.03807 -0.46295,1.07761c-0.08118,0.08933 -1.07155,-0.10199 -1.29064,-0.23472c-0.06961,-0.05089 -0.05596,-0.38156 0.05176,-1.06207c0.23736,-1.53121 0.28604,-1.40035 -0.66291,-1.71152c-0.44953,-0.14529 -0.86898,-0.29024 -0.93882,-0.32108c-0.06983,-0.03084 -0.35501,0.37705 -0.69262,0.99489c-0.31712,0.57797 -0.60328,1.07607 -0.6436,1.09568c-0.06058,0.03943 -1.19867,-0.39411 -1.28778,-0.49533c-0.01983,-0.02027 0.10596,-0.52014 0.28297,-1.11969c0.16698,-0.59966 0.31326,-1.13941 0.31381,-1.18953c0.00088,-0.08019 -1.58332,-0.96974 -1.73368,-0.9714c-0.02005,-0.00022 -0.36558,0.42706 -0.76223,0.944c-0.39665,0.51694 -0.77226,0.94389 -0.82238,0.94334c-0.07016,-0.00077 -1.05658,-0.55295 -1.16573,-0.65439c-0.01994,-0.01025 0.20631,-0.52905 0.48388,-1.15758c0.28748,-0.61839 0.5037,-1.13731 0.49379,-1.14745c-0.31812,-0.24409 -1.58222,-1.06999 -1.64236,-1.07065c-0.04009,-0.00044 -0.46527,0.37584 -0.94156,0.84178l-0.86126,0.83264l-0.52686,-0.40678c-0.27824,-0.2236 -0.51639,-0.44677 -0.51595,-0.48686c0.00044,-0.04009 0.28661,-0.5382 0.63346,-1.08576l0.62267,-1.01571l-0.67479,-0.62895c-0.36703,-0.3549 -0.71456,-0.65947 -0.76457,-0.67004c-0.03987,-0.02049 -0.50427,0.27516 -1.02979,0.66037c-0.55604,0.42497 -0.99994,0.68075 -1.08982,0.64968c-0.07986,-0.03095 -0.30788,-0.26403 -0.51563,-0.51693l-0.36604,-0.44512l0.68072,-0.82459c0.37583,-0.447 0.73139,-0.87417 0.78217,-0.93376c0.07115,-0.08944 -0.07645,-0.34169 -0.47201,-0.83725c-0.31647,-0.39445 -0.61344,-0.73856 -0.6532,-0.76907c-0.04979,-0.03062 -0.54348,0.19453 -1.08806,0.4893c-0.54469,0.3048 -1.04863,0.54989 -1.09875,0.54934c-0.11026,-0.00121 -0.81182,-0.93121 -0.81017,-1.08156c0.00055,-0.05012 0.38574,-0.43686 0.86159,-0.86271c0.47574,-0.41582 0.86093,-0.80257 0.86148,-0.85269c0.00055,-0.05012 -0.22571,-0.44358 -0.50153,-0.8877l-0.49249,-0.79737l-1.15768,0.43841c-0.63414,0.23364 -1.16748,0.41826 -1.18731,0.39799c-0.07898,-0.11114 -0.64803,-1.24018 -0.61785,-1.24988c0.01014,-0.00992 0.46472,-0.32572 0.99994,-0.68074c0.54535,-0.36494 0.99014,-0.7009 0.99047,-0.73097c0.00055,-0.05012 -0.65354,-1.65126 -0.742,-1.81263c0.00011,-0.01003 -0.55252,0.10421 -1.20582,0.25744c-1.3467,0.30601 -1.23688,0.34732 -1.53782,-0.5482l-0.1746,-0.53323l1.09853,-0.52929c0.60462,-0.28409 1.09897,-0.56938 1.09963,-0.62953c-0.00848,-0.14044 -0.47169,-1.77959 -0.52115,-1.84028c-0.02985,-0.02038 -0.58149,0.00364 -1.22377,0.06677c-1.32456,0.11579 -1.28469,0.13627 -1.38692,-0.59667c-0.03745,-0.24101 -0.08471,-0.50218 -0.10399,-0.57256c-0.0391,-0.09065 0.18274,-0.20852 0.63535,-0.3439c0.37231,-0.12624 0.91557,-0.30072 1.19733,-0.39788l0.5133,-0.18484l-0.12063,-0.88352c-0.07491,-0.48202 -0.13021,-0.92372 -0.12955,-0.98387c0.00077,-0.07016 -0.43951,-0.14518 -1.22091,-0.19385c-0.68117,-0.04758 -1.24195,-0.10386 -1.26189,-0.1141c-0.00981,-0.02016 -0.02633,-0.34114 -0.04231,-0.71223l-0.01246,-0.69186l0.70309,-0.12261c0.38178,-0.07601 0.92416,-0.17031 1.20548,-0.22736l0.50218,-0.08471l0.011,-1.00237l0.011,-1.00237l-0.50009,-0.10574c-0.28,-0.06323 -0.82018,-0.1694 -1.20031,-0.24375l-0.70023,-0.13801l0.02753,-0.68139c0.02423,-0.38068 0.04779,-0.70122 0.06806,-0.72105c0.01025,-0.01994 0.57201,-0.05388 1.24405,-0.0866l1.21364,-0.05685l0.12975,-0.86072c0.06532,-0.47045 0.13041,-0.92086 0.14131,-1.00094c0.01102,-0.0901 -0.35799,-0.26458 -1.11693,-0.53356c-0.62918,-0.21743 -1.14833,-0.4136 -1.16826,-0.42385c-0.03965,-0.04053 0.24463,-1.28051 0.30543,-1.33999c0.0304,-0.02974 0.58138,0.00638 1.22223,0.07357c0.64086,0.06719 1.19172,0.11333 1.2121,0.08348c0.05067,-0.04957 0.55987,-1.68807 0.5613,-1.81838c0.00066,-0.06014 -0.48731,-0.35622 -1.08543,-0.66354l-1.08675,-0.54325l0.23759,-0.63899c0.13427,-0.35942 0.25785,-0.65881 0.27813,-0.67864c0.02027,-0.01983 0.28044,0.02313 0.58027,0.10662c0.29983,0.08349 0.82966,0.21963 1.17961,0.30367l0.63987,0.1574l0.40039,-0.85775c0.21567,-0.4688 0.40072,-0.88782 0.40116,-0.92792c0.00055,-0.05012 -0.43676,-0.39577 -0.97396,-0.77258c-0.52729,-0.36668 -0.97484,-0.6924 -0.99478,-0.70264c-0.04968,-0.04064 0.64525,-1.24603 0.72544,-1.24515c0.04009,0.00044 0.55913,0.20663 1.16793,0.45392l1.08774,0.45304l0.45899,-0.71676c0.25499,-0.3982 0.48994,-0.79662 0.52089,-0.87648c0.04119,-0.0998 -0.21601,-0.41339 -0.80136,-0.97119c-0.97231,-0.92294 -0.96273,-0.88274 -0.30249,-1.66746l0.28451,-0.34775l1.06583,0.62322l1.0557,0.63313l0.30456,-0.34753c1.01536,-1.1718 1.01536,-1.1718 0.87712,-1.36379c-0.06917,-0.09098 -0.41528,-0.52586 -0.76138,-0.96073l-0.63305,-0.77887l0.4265,-0.49656c0.23363,-0.27813 0.47662,-0.49601 0.53676,-0.49535c0.05012,0.00055 0.51771,0.32648 1.03476,0.7131c0.60627,0.47783 0.97485,0.6924 1.06561,0.64327c0.0706,-0.03932 0.41471,-0.3363 0.76895,-0.64318l0.63777,-0.56442l-0.61983,-1.06945c-0.67888,-1.17034 -0.67942,-1.12023 0.0479,-1.62351l0.44457,-0.31591l0.83264,0.86126c0.45603,0.46615 0.86282,0.85156 0.91294,0.85211c0.06014,0.00066 1.32191,-0.78748 1.66547,-1.03434c0.01014,-0.00992 -0.19464,-0.53345 -0.46849,-1.15801c-0.26371,-0.63447 -0.47851,-1.15812 -0.45835,-1.16792c0.01014,-0.00992 0.29267,-0.17724 0.61552,-0.36417l0.59536,-0.35436l0.68152,0.92977c0.37529,0.51539 0.72117,0.97031 0.76082,1.01084c0.09914,0.10134 1.82233,-0.71182 1.82398,-0.86217c0.00055,-0.05012 -0.13384,-0.59294 -0.28762,-1.19613c-0.1638,-0.60329 -0.27858,-1.1058 -0.25832,-1.12563c0.09131,-0.09925 1.23864,-0.5077 1.29834,-0.46695c0.03987,0.02049 0.31515,0.51473 0.60959,1.08938l0.54989,1.04863l0.92548,-0.29059c0.51297,-0.15477 0.95566,-0.30029 0.97604,-0.33014c0.02027,-0.01983 -0.02391,-0.56166 -0.10697,-1.21419c-0.09155,-0.79297 -0.10708,-1.20417 -0.0465,-1.24361c0.22195,-0.12789 1.21628,-0.29742 1.29548,-0.20633c0.04968,0.04064 0.21568,0.44347 0.37122,0.88627c0.16556,0.44292 0.34071,0.92603 0.38929,1.06692l0.09738,0.26172l0.99422,-0.15951l0.98409,-0.1496l0.04393,-1.26266l0.04393,-1.26266l0.65231,-0.06301c0.36129,-0.03613 0.69208,-0.0325 0.72171,0.00792c0.03976,0.03051 0.17416,0.57333 0.30777,1.18632l0.23827,1.12541l0.9419,0.04041c0.52112,0.01575 0.98244,0.00076 1.03311,-0.04881c0.04053,-0.03965 0.16709,-0.60969 0.26435,-1.25021l0.18328,-1.1709l0.72171,0.00792l0.72171,0.00792l0.06158,0.78262c0.11149,1.71549 0.11149,1.71549 0.46167,1.77948c0.1801,0.03205 0.63083,0.06707 1.01151,0.0913l0.68139,0.02753l0.34289,-1.09898l0.33286,-1.09909l0.44094,0.01487c0.24057,0.00264 0.57091,0.04637 0.73085,0.08822l0.27989,0.07325l-0.0837,1.23215l-0.08359,1.22212l0.96944,0.27129l0.96955,0.26127l0.54369,-1.12685c0.35897,-0.7379 0.5937,-1.11627 0.68369,-1.09524c0.06983,0.03084 0.36956,0.12436 0.64924,0.21765c0.2897,0.0934 0.52883,0.22635 0.52817,0.28649c-0.00077,0.07016 -0.10695,0.61035 -0.2237,1.20054c-0.13724,0.63006 -0.19264,1.11066 -0.14307,1.16132c0.20841,0.19276 1.75614,0.7511 1.81728,0.66155c0.04064,-0.04968 0.33639,-0.50758 0.66266,-1.00525c0.33639,-0.50758 0.64162,-0.91525 0.69174,-0.9147c0.19045,0.00209 1.18677,0.5644 1.18567,0.66464c-0.00066,0.06014 -0.18692,0.58942 -0.40391,1.17851l-0.40281,1.07827l0.21909,0.13273c1.21475,0.75518 1.48407,0.87844 1.61559,0.7696c0.08096,-0.06928 0.44622,-0.46627 0.82183,-0.89322c0.36569,-0.43709 0.71035,-0.78417 0.76047,-0.78362c0.06014,0.00066 0.33894,0.17414 0.62742,0.37781l0.52708,0.38673l-0.55294,1.05657c-0.30709,0.57808 -0.55316,1.07662 -0.55349,1.10669c-0.00044,0.04009 0.33707,0.34455 0.75443,0.67995l0.76512,0.61992l0.76918,-0.66323c0.42507,-0.36626 0.85003,-0.72249 0.94112,-0.80169c0.16181,-0.12855 0.22173,-0.10784 0.63899,0.23759c0.24828,0.21325 0.4763,0.44633 0.5056,0.51682c0.01928,0.07038 -0.27691,0.56838 -0.67378,1.10537l-0.71244,0.97462l0.70376,0.72952l0.70387,0.71949l0.99939,-0.63063c0.54513,-0.34489 1.02946,-0.6303 1.07958,-0.62975c0.05012,0.00055 0.27813,0.23363 0.50571,0.5068l0.41549,0.50581l-0.86225,0.92286l-0.86214,0.91283l0.54305,0.75783c0.2962,0.41427 0.59306,0.7684 0.66301,0.78922c0.06003,0.01069 0.58357,-0.19409 1.15801,-0.46849c0.57443,-0.27439 1.07771,-0.45934 1.10723,-0.40889c0.56189,0.86831 0.71908,1.16076 0.62831,1.20989c-0.27273,0.18748 -1.8504,1.44333 -1.85084,1.48342c-0.00033,0.03007 0.20577,0.43333 0.4513,0.89717c0.52058,0.97813 0.37056,0.94641 1.91993,0.44212c0.47288,-0.15521 0.87504,-0.26107 0.90489,-0.24069c0.01983,0.02027 0.15697,0.3125 0.31371,0.64504c0.20555,0.45338 0.25369,0.63436 0.1627,0.70353c-0.07071,0.04935 -0.55505,0.33475 -1.08971,0.63966l-0.96844,0.55077l0.34027,0.96613c0.26272,0.72468 0.38059,0.94652 0.5012,0.91777c0.41229,-0.11577 2.23936,-0.34634 2.28893,-0.29567c0.02974,0.0304 0.12657,0.34224 0.22296,0.69417l0.17339,0.6435l-1.07727,0.41925c-0.58402,0.23419 -1.10767,0.44899 -1.14821,0.48864c-0.07093,0.06939 0.08781,1.13378 0.28047,1.84766c0.04814,0.18098 0.12822,0.19188 1.29174,0.13448l1.23358,-0.04661l0.05497,0.47178c0.0271,0.27097 0.0737,0.59228 0.10223,0.73294c0.03745,0.24101 0.00716,0.26073 -1.13884,0.5489l-1.1861,0.28773l0.01907,1.0027c0.01411,0.5415 0.03912,1.00292 0.04903,1.01306c0.00992,0.01014 0.42023,0.07479 0.91084,0.1303c0.50053,0.06565 1.05106,0.14186 1.22113,0.1738l0.33012,0.06378l-0.00759,0.69164l-0.00759,0.69164l-0.33133,0.04649c-0.17073,0.0282 -0.72281,0.09232 -1.22465,0.14696c-0.49182,0.05475 -0.90346,0.11038 -0.91359,0.1203c-0.01014,0.00992 -0.04526,0.47068 -0.07126,1.01173l-0.04096,0.99202l1.17939,0.32372c1.1394,0.31326 1.16936,0.32361 1.12652,0.57376c-0.03161,0.14 -0.08525,0.46021 -0.11818,0.7205l-0.06543,0.48048l-1.23215,-0.0837c-1.16209,-0.07291 -1.24239,-0.06376 -1.29449,0.11612c-0.20829,0.70948 -0.39035,1.77013 -0.32096,1.84106c0.03965,0.04053 0.55847,0.26678 1.1372,0.51373l1.06781,0.44279l-0.18747,0.63954c-0.10409,0.34973 -0.20774,0.65937 -0.22812,0.68922c-0.03029,0.01972 -0.59096,-0.04659 -1.24129,-0.164c-0.65033,-0.11741 -1.20076,-0.20365 -1.20087,-0.19363c-0.01014,0.00992 -0.18527,0.43907 -0.38133,0.94818l-0.35104,0.92846l1.02584,0.61276c0.56761,0.34708 1.03509,0.68303 1.03432,0.7532c-0.00286,0.26062 -0.52485,1.23733 -0.6447,1.19591c-0.06994,-0.02082 -0.55935,-0.18659 -1.09876,-0.36293c-0.5393,-0.18637 -1.02914,-0.31205 -1.09964,-0.28275c-0.1812,0.06818 -1.03077,1.66285 -0.93152,1.75416c0.04968,0.04064 0.4471,0.3658 0.8843,0.72148c0.4372,0.35567 0.83462,0.68083 0.87428,0.72137c0.06961,0.05089 -0.45205,0.99753 -0.69559,1.26553c-0.02027,0.01983 -0.48896,-0.20587 -1.04721,-0.49269c-0.55825,-0.28682 -1.07706,-0.51307 -1.14745,-0.4938c-0.07038,0.01928 -0.38497,0.3667 -0.6902,0.77437l-0.56958,0.74562l0.46561,0.50635c0.25754,0.28352 0.64395,0.69879 0.85192,0.93164l0.3863,0.42529l-0.4265,0.49656c-0.24365,0.27802 -0.47673,0.50604 -0.52685,0.50549c-0.04009,-0.00044 -0.51805,-0.29641 -1.05547,-0.65318l-0.97517,-0.66233l-0.72952,0.70376c-0.44578,0.42618 -0.7,0.75421 -0.65054,0.8149c0.55308,0.75794 1.29264,1.87883 1.29176,1.95902c-0.00066,0.06014 -0.23374,0.28816 -0.50691,0.51573l-0.50581,0.41549l-0.33762,-0.29443c-0.1888,-0.15245 -0.60573,-0.52795 -0.93343,-0.81224l-0.59559,-0.53786l-0.7684,0.59306c-0.42463,0.32616 -0.76874,0.62313 -0.76918,0.66323c-0.00033,0.03007 0.23463,0.54392 0.52896,1.1286l0.52962,1.06846l-0.53544,0.37507c-0.29289,0.19728 -0.57542,0.36461 -0.63557,0.36395c-0.05012,-0.00055 -0.38707,-0.35512 -0.74308,-0.80012c-0.36615,-0.43509 -0.7226,-0.84 -0.80202,-0.91105c-0.1291,-0.11169 -0.40106,0.00562 -1.63209,0.73395l-0.22195,0.12789l0.37904,1.08685c0.20401,0.59371 0.3786,1.12694 0.37794,1.18709c-0.0011,0.10024 -1.00952,0.64054 -1.19998,0.63845c-0.05012,-0.00055 -0.34632,-0.41482 -0.67149,-0.92966c-0.31526,-0.50471 -0.60088,-0.96899 -0.64032,-1.02957c-0.05915,-0.09087 -1.59872,0.43357 -1.83147,0.63152c-0.05067,0.04957 -0.00583,0.53125 0.11755,1.16418c0.10377,0.59261 0.19807,1.13499 0.19741,1.19513c-0.00066,0.06014 -0.26271,0.18759 -0.58457,0.28431c-0.31184,0.09683 -0.60362,0.19387 -0.65396,0.21337c-0.04042,0.02963 -0.31559,-0.47464 -0.59934,-1.10932l-0.52874,-1.14865l-0.97505,0.23992l-0.97516,0.24995l0.05674,1.22366l0.05663,1.23369l-0.28143,0.06708c-0.16082,0.03833 -0.49204,0.0748 -0.73261,0.07216l-0.43113,0.00529l-0.31868,-1.10624l-0.30865,-1.10613l-0.69186,0.01246c-0.38112,0.01587 -0.83252,0.04099 -1.01328,0.06908c-0.35149,0.05629 -0.35149,0.05629 -0.50073,1.77894zM369.85926,133.17081c2.22052,-0.45682 3.78861,-2.66515 3.46176,-4.85417c-0.35461,-2.39985 -2.62142,-4.11895 -4.93106,-3.76335c-2.40007,0.37465 -4.09912,2.64169 -3.7335,4.95144c0.29104,1.79766 1.56881,3.20515 3.30843,3.63527c0.74991,0.17865 1.14072,0.19297 1.89437,0.03082z" data-paper-data="{&quot;index&quot;:null}" fill-opacity="0.50196" fill="#000000" stroke="none" stroke-width="1" stroke-linecap="butt"/><g stroke="none" stroke-width="0" stroke-linecap="butt"><g><path d="M-59.74371,49.48044v-19.42459h199.64241v19.42459z" fill="#000000"/><path d="M41.63027,49.41714l31.94279,-19.34863h31.49913l-31.94278,19.34863z" fill="#ffb900"/><path d="M108.17774,49.41714l31.94279,-19.34863l0.03012,19.34863z" fill="#ffb900"/><path d="M-24.9172,49.41714l31.94279,-19.34863h31.49913l-31.94278,19.34863z" fill="#ffb900"/><path d="M-59.93955,30.06851h31.9168l-31.94278,19.34863z" fill="#ffb900"/></g><g><path d="M140.12677,49.48044v-19.42459h199.64241v19.42459z" fill="#000000"/><path d="M241.50075,49.41714l31.94279,-19.34863h31.49913l-31.94278,19.34863z" fill="#ffb900"/><path d="M308.04822,49.41714l31.94279,-19.34863l0.03012,19.34863z" fill="#ffb900"/><path d="M174.95328,49.41714l31.94279,-19.34863h31.49913l-31.94278,19.34863z" fill="#ffb900"/><path d="M139.93093,30.06851h31.9168l-31.94278,19.34863z" fill="#ffb900"/></g><g><path d="M339.99725,49.48044v-19.42459h199.64241v19.42459z" fill="#000000"/><path d="M441.37123,49.41714l31.94279,-19.34863h31.49913l-31.94278,19.34863z" fill="#ffb900"/><path d="M507.9187,49.41714l31.94279,-19.34863l0.03012,19.34863z" fill="#ffb900"/><path d="M374.82376,49.41714l31.94279,-19.34863h31.49913l-31.94278,19.34863z" fill="#ffb900"/><path d="M339.80141,30.06851h31.9168l-31.94278,19.34863z" fill="#ffb900"/></g></g><g data-paper-data="{&quot;index&quot;:null}" stroke="none" stroke-width="0" stroke-linecap="butt"><g><path d="M139.8987,310.56378v19.42459h-199.64241v-19.42459z" fill="#000000"/><path d="M73.12941,310.62708l31.94278,19.34863h-31.49913l-31.94279,-19.34863z" fill="#ffb900"/><path d="M140.15065,310.62708l-0.03012,19.34863l-31.94279,-19.34863z" fill="#ffb900"/><path d="M6.58194,310.62708l31.94278,19.34863h-31.49913l-31.94279,-19.34863z" fill="#ffb900"/><path d="M-59.96553,310.62708l31.94278,19.34863h-31.9168z" fill="#ffb900"/></g><g><path d="M339.76918,310.56378v19.42459h-199.64241v-19.42459z" fill="#000000"/><path d="M272.99989,310.62708l31.94278,19.34863h-31.49913l-31.94279,-19.34863z" fill="#ffb900"/><path d="M340.02113,310.62708l-0.03012,19.34863l-31.94279,-19.34863z" fill="#ffb900"/><path d="M206.45242,310.62708l31.94278,19.34863h-31.49913l-31.94279,-19.34863z" fill="#ffb900"/><path d="M139.90495,310.62708l31.94278,19.34863h-31.9168z" fill="#ffb900"/></g><g><path d="M539.63966,310.56378v19.42459h-199.64241v-19.42459z" fill="#000000"/><path d="M472.87037,310.62708l31.94278,19.34863h-31.49913l-31.94279,-19.34863z" fill="#ffb900"/><path d="M539.89161,310.62708l-0.03012,19.34863l-31.94279,-19.34863z" fill="#ffb900"/><path d="M406.3229,310.62708l31.94278,19.34863h-31.49913l-31.94279,-19.34863z" fill="#ffb900"/><path d="M339.77543,310.62708l31.94278,19.34863h-31.9168z" fill="#ffb900"/></g></g></g></g></svg>