<svg xmlns="http://www.w3.org/2000/svg" viewBox="0 0 600 300"><g data-paper-data="{&quot;isPaintingLayer&quot;:true}" stroke-miterlimit="10" style="mix-blend-mode:normal"><path d="M0 300V0h600v300z" fill="#15b125"/><path d="m49 213 24-18 21 29-24 18zm414 77-11-56 61-11 11 56zM150 158 126 54l124-28 24 103z" fill="#1be42f"/><path d="M3 104 45 0l85 35-42 103zm323 145 10-158 167 10-10 159zm-242 3 8-88 123 11-8 89zM411 79l-6-62L523 6l6 62z" fill="#19d12b"/><path d="M0 300V0h600v300z" fill-opacity=".3" fill="#4dff54"/><text transform="translate(35 91) scale(.70615)" font-size="40" xml:space="preserve" font-family="&quot;Lato-Bold&quot;, Sans Serif" style="mix-blend-mode:normal"><tspan x="0" dy="0">Secret message.</tspan></text><text transform="matrix(.3656 0 0 .3891 23 137)" font-size="40" xml:space="preserve" font-family="&quot;Lato-Bold&quot;, Sans Serif" style="mix-blend-mode:normal"><tspan x="0" dy="0">MIGJAoGBAOgbPnWuWZdDbrBLb+jKlUqonHMiC3oqDSieQBC/f+2VTkpH/yina04q</tspan><tspan x="0" dy="46">xi/yk0O6W8rfI8kU+ssEf+wojAoF8ZEZDMZzaFeIJgSlecQ/NEzM48hJHoa7EibB</tspan><tspan x="0" dy="46">ESKP6zgZxw718AsViSJpO5CmqgvxtTUa54PAG2w7O1QgF4bvdSxJAgMBAAE=</tspan></text><text transform="translate(175 225) scale(.33629)" font-size="40" xml:space="preserve" font-family="&quot;Lato-Bold&quot;, Sans Serif" style="mix-blend-mode:normal"><tspan x="0" dy="0">4X4Csfmn139pkfXadQtX+xOiRM0IfBusxOI0CPDOENdiQtrqvb</tspan><tspan x="0" dy="46">AZzMEHxwVaxyu4HqDyPYkqtIUNYbLWwTga16rjkUqVRy6sHsq</tspan><tspan x="0" dy="46">AwLJsiZhSstnCXAuAS7xgYo3x0pnXPDf204VHKivXUIHvqK06P</tspan><tspan x="0" dy="46">ppA81KT3E6mNK7hmO0Zu+A=</tspan></text><path d="M313 101h2zm0 0s3-3 7 0c3 4 0 7 0 7l-5 3c-5 0-3 3-6 5l-5 2-2 3-2 1c-2 3-6 1-6 1-3-2-4 0-8-1l-10-7-6-3s-4-2-2-7c2-4 7-2 7-2l6 3 8 6v-3l-2-6-2-6-3-3-1-4h-2c-2-1-3-3-6-3h-24s-5 0-5-5 5-5 5-5h28l11 6c2 2 1 4 2 6l3 2c4 5 6 12 6 18v1l3-2 1-2 7-5h3zM145 253l1-4 1-2 4-1h-6l-4-2c-6-3-11-6-13-13v-5l-1-5-1-13 1-16 1-3v-6s0-5 5-5 5 5 5 5v8c0 2-1 2-2 3v26l2 4c1 4 0 6 3 9l2 1 5 3 6-1h1v-2l-6-1-1-5-2-1s-4-4 0-7c4-4 7 0 7 0l4 4v1l5 2c3 3 3 6 3 9l2 4-2 6h-3v3h-3c-1 1 1 2 1 3-2 2-7 1-4 1l-6 5s-5 0-5-5z"/></g></svg>