<svg xmlns="http://www.w3.org/2000/svg" viewBox="0 0 600 300"><g data-paper-data="{&quot;isPaintingLayer&quot;:true}" stroke-miterlimit="10" style="mix-blend-mode:normal"><path d="M0 300V0h600v300z" fill="#ff7a00"/><path d="M61 283c-16 0-29-13-29-29V45c0-16 13-29 29-29h478c16 0 29 13 29 29v209c0 16-13 29-29 29z" fill="#f90"/><path d="M95 264c-14 0-25-11-25-24V60c0-14 11-25 25-25h410c14 0 25 11 25 25v180c0 13-11 24-25 24z" fill="#ff7a00"/><path d="M126 247c-12 0-21-9-21-21V74c0-12 9-21 21-21h348c12 0 21 9 21 21v152c0 12-9 21-21 21z" fill="#f90"/><path d="M160 228c-9 0-17-8-17-17V88c0-9 8-16 17-16h280c9 0 17 7 17 16v123c0 9-8 17-17 17z" fill="#ff7a00"/><path d="M193 210c-7 0-13-6-13-13v-94c0-7 6-13 13-13h214c7 0 13 6 13 13v94c0 7-6 13-13 13z" fill="#f90"/><path d="M230 189c-5 0-9-4-9-8v-62c0-5 4-9 9-9h140c5 0 9 4 9 9v62c0 4-4 8-9 8z" fill="#ff7a00"/><path d="M263 171c-3 0-5-2-5-5v-33c0-2 2-4 5-4h74c3 0 5 2 5 4v33c0 3-2 5-5 5z" fill="#f90"/><path d="m152 254 6 2 2-2-1-2-2-2a82 82 0 0 1-6-3l-2-2-3-9c0-4 1-7 4-10 3-2 6-3 11-3l8 1c3 0 4 1 4 2 0 0 0 0 0 0l-1 6-2 4c-3-2-5-2-7-2-3 0-4 0-4 2 0 1 1 2 3 2a54 54 0 0 0 3 2 26 26 0 0 1 6 4c2 2 3 5 3 8 0 4-1 8-3 11-3 3-7 4-12 4h-6l-6-3-2-4 1-5 2-4 4 3zm59-18 4-1 7 1-6 30-7 1-7-1-2-10c0-2-1-2-1 0l-2 10-8 1-7-1-5-30 5-1h6l2 17c0 2 1 2 1 1l5-17 4-1 4 1 4 16c0 2 1 2 1 0l2-16zm26 30-6 1-5-1v-30l5-1 6 1zm0-34-6 1-5-1v-9h11zm20 34-5 1-7-1v-22h-3l-1-4v-3l1-1h3v-6l6-1 5 1v6h5l1 4-1 4h-4zm20-14c0 4 0 5 3 5l5-1 1 3 1 5v1l-9 2c-4 0-7-1-10-4s-4-7-4-12 1-9 4-12 6-4 10-4c5 0 8 1 10 3v5l-3 5h-1l-1-1-4-2-3 1-1 5zm25 14-5 1-5-1v-43h5l5 1v12l5-1c3 0 6 1 8 3 1 1 2 4 2 9v19l-5 1-5-1v-18c0-2-1-3-2-3l-3 1zm58-42 4 3-2 6-3 3s0 0 0 0l-2-1-3-1-6 3-2 8 2 7 6 3h3l3-2s0 0 0 0l2 2 2 3v4l-3 4-9 1c-5 0-10-2-13-6-4-3-6-9-6-16s2-12 6-16c3-4 8-6 13-6l8 1zm13 20-2-5 1-3 10-1c4 0 7 1 9 3l2 8v10h2l2 1v4l-1 4c0 1-1 2-3 2s-4 0-5-2l-1-1c-2 2-5 3-9 3-3 0-6-1-8-3s-3-5-3-8c0-6 4-10 12-10h4l-1-2-2-1-7 1zm5 11 1 3h1l3-1v-4h-2c-2 0-3 1-3 2zm24 0 8 3 2-1-3-2c-5-2-8-6-8-11 0-3 1-5 3-7l8-2 8 1c3 1 4 1 4 3l-2 3-2 3-5-2-2 1 1 2 2 1a38 38 0 0 1 6 3c2 1 3 4 3 6 0 3-2 6-4 8s-5 3-10 3l-8-1-3-4 1-4 1-3zm50 10-10 2c-4 0-7-1-10-4s-4-7-4-12 1-9 4-12c2-3 6-4 10-4s7 1 10 3c2 2 3 5 3 8 0 6-4 10-12 10h-4l1 2 3 1 8-2 1 1 1 4-1 3zm-7-18c0-2-1-3-3-3l-2 1-1 2v2h3c2 0 3-1 3-2z" fill="none" stroke-opacity=".5" stroke="#000" stroke-width="12.5" stroke-linecap="square"/><path d="m148 251 4 3 6 2 2-2-1-2-2-2a82 82 0 0 1-6-3l-2-2-3-9c0-4 1-7 4-10 3-2 6-3 11-3l8 1c3 0 4 1 4 2l-1 6-2 4c-3-2-5-2-7-2-3 0-4 0-4 2 0 1 1 2 3 2a54 54 0 0 0 3 2 26 26 0 0 1 6 4c2 2 3 5 3 8 0 4-1 8-3 11-3 3-7 4-12 4h-6l-6-3-2-4 1-5 2-4zm63-15 4-1 7 1-6 30-7 1-7-1-2-14-3 14-8 1-7-1-5-30 5-1h6l2 21 6-20 4-1 4 1 5 20 2-20zm26 30-6 1-5-1v-30l5-1 6 1zm0-34-6 1-5-1v-9h11zm20 34-5 1-7-1v-22h-3l-1-4v-3l1-1h3v-6l6-1 5 1v6h5l1 4-1 4h-4zm18-15c0 4 2 6 5 6l5-1 1 3 1 5v1l-9 2c-4 0-7-1-10-4s-4-7-4-12 1-9 4-12 6-4 10-4c5 0 8 1 10 3v5l-3 5h-1l-1-1-4-2-3 1-1 5zm27 15-5 1-5-1v-43h5l5 1v12l5-1c3 0 6 1 8 3 1 1 2 4 2 9v19l-5 1-5-1v-18c0-2-1-3-2-3l-3 1zm50-43 8 1 4 3-2 6-3 3-2-1-3-1-6 3-2 8 2 7 6 3h3l3-2 2 2 2 3v4l-3 4-9 1c-5 0-10-2-13-6-4-3-6-9-6-16s2-12 6-16c3-4 8-6 13-6zm21 21-2-5 1-3 10-1c4 0 7 1 9 3l2 8v10h2l2 1v4l-1 4c0 1-1 2-3 2s-4 0-5-2l-1-1c-2 2-5 3-9 3-3 0-6-1-8-3s-3-5-3-8c0-6 4-10 12-10h4l-1-2-2-1-7 1zm5 11 1 3h1l3-1v-4h-2c-2 0-3 1-3 2zm24 0 8 3 2-1-3-2c-5-2-8-6-8-11 0-3 1-5 3-7l8-2 8 1c3 1 4 1 4 3l-2 3-2 3-5-2-2 1 1 2 2 1a38 38 0 0 1 6 3c2 1 3 4 3 6 0 3-2 6-4 8s-5 3-10 3l-8-1-3-4 1-4 1-3zm50 10-10 2c-4 0-7-1-10-4s-4-7-4-12 1-9 4-12c2-3 6-4 10-4s7 1 10 3c2 2 3 5 3 8 0 6-4 10-12 10h-4l1 2 3 1 8-2 1 1 1 4-1 3zm-7-18c0-2-1-3-3-3l-2 1-1 2v2h3c2 0 3-1 3-2z" fill="#fff"/><g fill="none" stroke-opacity=".5" stroke="#000" stroke-width="12.5"><path d="M254 149V38c0-3 3-6 6-6h16c3 0 6 3 6 6v122c1 3 5 4 5 4l9 5 1-1v-6c1-3 3-2 4-2l13 9c7 4 13 9 10 11a581 581 0 0 1-24 15s-2 0-3-3v-5l-1-1c-5-1-15 1-26-5-10-6-11-13-14-18l-2-14z"/><path d="M297 119v-6c1-2 3-2 4-1 2 0 5 3 13 8 7 5 13 9 10 11a581 581 0 0 1-24 15s-2 0-3-2v-5l-3-2v-19l3 1zm0-49v-6c1-2 3-2 4-1l13 8c7 5 13 9 10 11a581 581 0 0 1-24 15s-2 0-3-2v-5l-3-2V69l3 1z"/></g><g fill="#fff" stroke-width="0"><path d="M254 38c0-3 3-6 6-6h16c3 0 6 3 6 6v122c2 5 8 7 14 9l1-1v-6c1-3 3-2 4-2a375 375 0 0 1 24 16s2 2-1 4a581 581 0 0 1-24 15s-2 0-3-3v-5l-1-1c-5-1-15 1-26-5-10-6-11-13-14-18 0 0-2-4-2-11V38z"/><path d="M254 154V38c0-3 3-6 6-6h16c3 0 6 3 6 6v71c3 6 8 9 14 11l1-1v-6c1-2 3-2 4-1a375 375 0 0 1 24 15s2 2-1 4a581 581 0 0 1-24 15s-2 0-3-2v-5l-1-2a31 31 0 0 1-14-5v30c0 4-28-5-28-8z"/><path d="M254 154V38c0-3 3-6 6-6h16c3 0 6 3 6 6v23c3 5 8 9 14 11l1-1v-6c1-3 3-2 4-2a375 375 0 0 1 24 16s2 2-1 3a581 581 0 0 1-24 16s-2 0-3-3v-5l-1-1a31 31 0 0 1-14-6v79c0 4-28-5-28-8z"/></g></g></svg>