<svg xmlns="http://www.w3.org/2000/svg" viewBox="0 0 599 299"><defs><radialGradient cx="240.2" cy="182.3" r="145" gradientUnits="userSpaceOnUse" id="b"><stop offset="0" stop-color="#004bff"/><stop offset="1" stop-color="#004bff" stop-opacity="0"/></radialGradient><radialGradient cx="179.4" cy="154.3" r="6.6" gradientUnits="userSpaceOnUse" id="c"><stop offset="0" stop-color="#00f3ff"/><stop offset="1" stop-color="#00f3ff" stop-opacity=".6"/></radialGradient><radialGradient cx="175.2" cy="136.6" r="4.3" gradientUnits="userSpaceOnUse" id="d"><stop offset="0" stop-color="#00f3ff"/><stop offset="1" stop-color="#00f3ff" stop-opacity=".6"/></radialGradient><radialGradient cx="182" cy="126.4" r="2.8" gradientUnits="userSpaceOnUse" id="e"><stop offset="0" stop-color="#00f3ff"/><stop offset="1" stop-color="#00f3ff" stop-opacity=".6"/></radialGradient><radialGradient cx="274.8" cy="104.5" r="4.3" gradientUnits="userSpaceOnUse" id="f"><stop offset="0" stop-color="#00f3ff"/><stop offset="1" stop-color="#00f3ff" stop-opacity=".6"/></radialGradient><radialGradient cx="288.7" cy="117.8" r="7.4" gradientUnits="userSpaceOnUse" id="g"><stop offset="0" stop-color="#00f3ff"/><stop offset="1" stop-color="#00f3ff" stop-opacity=".6"/></radialGradient><radialGradient cx="274.2" cy="89.4" r="2.8" gradientUnits="userSpaceOnUse" id="h"><stop offset="0" stop-color="#00f3ff"/><stop offset="1" stop-color="#00f3ff" stop-opacity=".6"/></radialGradient><radialGradient cx="295.7" cy="132.9" r="4.3" gradientUnits="userSpaceOnUse" id="i"><stop offset="0" stop-color="#00f3ff"/><stop offset="1" stop-color="#00f3ff" stop-opacity=".6"/></radialGradient><radialGradient cx="227.1" cy="80.6" r="6.3" gradientUnits="userSpaceOnUse" id="j"><stop offset="0" stop-color="#00f3ff"/><stop offset="1" stop-color="#00f3ff" stop-opacity=".6"/></radialGradient><radialGradient cx="239.9" cy="75.6" r="4" gradientUnits="userSpaceOnUse" id="k"><stop offset="0" stop-color="#00f3ff"/><stop offset="1" stop-color="#00f3ff" stop-opacity=".6"/></radialGradient><radialGradient cx="248.3" cy="200.7" r="6.3" gradientUnits="userSpaceOnUse" id="l"><stop offset="0" stop-color="#00f3ff"/><stop offset="1" stop-color="#00f3ff" stop-opacity=".6"/></radialGradient><radialGradient cx="210.6" cy="98.8" r="117" gradientUnits="userSpaceOnUse" id="m"><stop offset="0" stop-color="#40a7ff"/><stop offset="1" stop-color="#40a7ff" stop-opacity="0"/></radialGradient><radialGradient cx="215.2" cy="158.1" r="1.8" gradientUnits="userSpaceOnUse" id="n"><stop offset="0" stop-color="#71bdff"/><stop offset="1" stop-color="#71bdff" stop-opacity="0"/></radialGradient><radialGradient cx="216.9" cy="89.2" r=".9" gradientUnits="userSpaceOnUse" id="o"><stop offset="0" stop-color="#71bdff"/><stop offset="1" stop-color="#71bdff" stop-opacity="0"/></radialGradient><radialGradient cx="210.2" cy="159.5" r="7.1" gradientUnits="userSpaceOnUse" id="r"><stop offset="0" stop-color="#1d538f"/><stop offset="1" stop-color="#1d538f" stop-opacity="0"/></radialGradient><radialGradient cx="214.5" cy="163.6" r="7.1" gradientUnits="userSpaceOnUse" id="s"><stop offset="0" stop-color="#1d538f"/><stop offset="1" stop-color="#1d538f" stop-opacity="0"/></radialGradient><radialGradient cx="222.3" cy="167.7" r="8.5" gradientUnits="userSpaceOnUse" id="t"><stop offset="0" stop-color="#1d538f"/><stop offset="1" stop-color="#1d538f" stop-opacity="0"/></radialGradient><radialGradient cx="231.7" cy="169.1" r="8.5" gradientUnits="userSpaceOnUse" id="u"><stop offset="0" stop-color="#1d538f"/><stop offset="1" stop-color="#1d538f" stop-opacity="0"/></radialGradient><radialGradient cx="240.3" cy="172.4" r="8.5" gradientUnits="userSpaceOnUse" id="v"><stop offset="0" stop-color="#1d538f"/><stop offset="1" stop-color="#1d538f" stop-opacity="0"/></radialGradient><radialGradient cx="249.9" cy="171.6" r="8.5" gradientUnits="userSpaceOnUse" id="w"><stop offset="0" stop-color="#1d538f"/><stop offset="1" stop-color="#1d538f" stop-opacity="0"/></radialGradient><radialGradient cx="275" cy="163.5" r="8.5" gradientUnits="userSpaceOnUse" id="x"><stop offset="0" stop-color="#1d538f"/><stop offset="1" stop-color="#1d538f" stop-opacity="0"/></radialGradient><radialGradient cx="245.3" cy="172.5" r="8.5" gradientUnits="userSpaceOnUse" id="y"><stop offset="0" stop-color="#275ac4"/><stop offset="1" stop-color="#275ac4" stop-opacity="0"/></radialGradient><radialGradient cx="236.8" cy="171.9" r="8.5" gradientUnits="userSpaceOnUse" id="z"><stop offset="0" stop-color="#275ac4"/><stop offset="1" stop-color="#275ac4" stop-opacity="0"/></radialGradient><radialGradient cx="229.1" cy="170" r="8.5" gradientUnits="userSpaceOnUse" id="A"><stop offset="0" stop-color="#275ac4"/><stop offset="1" stop-color="#275ac4" stop-opacity="0"/></radialGradient><radialGradient cx="222.6" cy="168.1" r="8.5" gradientUnits="userSpaceOnUse" id="B"><stop offset="0" stop-color="#275ac4"/><stop offset="1" stop-color="#275ac4" stop-opacity="0"/></radialGradient><radialGradient cx="215.7" cy="162.4" r="8.5" gradientUnits="userSpaceOnUse" id="C"><stop offset="0" stop-color="#275ac4"/><stop offset="1" stop-color="#275ac4" stop-opacity="0"/></radialGradient><radialGradient cx="208.9" cy="158.3" r="8.5" gradientUnits="userSpaceOnUse" id="D"><stop offset="0" stop-color="#275ac4"/><stop offset="1" stop-color="#275ac4" stop-opacity="0"/></radialGradient><radialGradient cx="276.9" cy="164.3" r="8.5" gradientUnits="userSpaceOnUse" id="E"><stop offset="0" stop-color="#275ac4"/><stop offset="1" stop-color="#275ac4" stop-opacity="0"/></radialGradient><radialGradient cx="244" cy="176.1" r="8.5" gradientUnits="userSpaceOnUse" id="F"><stop offset="0" stop-color="#003cff"/><stop offset="1" stop-color="#003cff" stop-opacity="0"/></radialGradient><radialGradient cx="237.2" cy="175.3" r="8.5" gradientUnits="userSpaceOnUse" id="G"><stop offset="0" stop-color="#003cff"/><stop offset="1" stop-color="#003cff" stop-opacity="0"/></radialGradient><radialGradient cx="231.3" cy="173.6" r="8.5" gradientUnits="userSpaceOnUse" id="H"><stop offset="0" stop-color="#003cff"/><stop offset="1" stop-color="#003cff" stop-opacity="0"/></radialGradient><radialGradient cx="221.4" cy="173.2" r="8.5" gradientUnits="userSpaceOnUse" id="I"><stop offset="0" stop-color="#003cff"/><stop offset="1" stop-color="#003cff" stop-opacity="0"/></radialGradient><radialGradient cx="211.1" cy="166.4" r="8.5" gradientUnits="userSpaceOnUse" id="J"><stop offset="0" stop-color="#003cff"/><stop offset="1" stop-color="#003cff" stop-opacity="0"/></radialGradient><radialGradient cx="282.1" cy="166.5" r="8.5" gradientUnits="userSpaceOnUse" id="K"><stop offset="0" stop-color="#003cff"/><stop offset="1" stop-color="#003cff" stop-opacity="0"/></radialGradient><radialGradient cx="253" cy="171.3" r="8.5" gradientUnits="userSpaceOnUse" id="L"><stop offset="0" stop-color="#275ac4"/><stop offset="1" stop-color="#275ac4" stop-opacity="0"/></radialGradient><radialGradient cx="252.9" cy="174.9" r="8.5" gradientUnits="userSpaceOnUse" id="M"><stop offset="0" stop-color="#003cff"/><stop offset="1" stop-color="#003cff" stop-opacity="0"/></radialGradient><radialGradient cx="260.9" cy="168" r="8.5" gradientUnits="userSpaceOnUse" id="N"><stop offset="0" stop-color="#275ac4"/><stop offset="1" stop-color="#275ac4" stop-opacity="0"/></radialGradient><radialGradient cx="262.1" cy="171.6" r="8.5" gradientUnits="userSpaceOnUse" id="O"><stop offset="0" stop-color="#003cff"/><stop offset="1" stop-color="#003cff" stop-opacity="0"/></radialGradient><radialGradient cx="267.1" cy="164.6" r="8.5" gradientUnits="userSpaceOnUse" id="P"><stop offset="0" stop-color="#275ac4"/><stop offset="1" stop-color="#275ac4" stop-opacity="0"/></radialGradient><radialGradient cx="272.4" cy="171.1" r="8.5" gradientUnits="userSpaceOnUse" id="Q"><stop offset="0" stop-color="#003cff"/><stop offset="1" stop-color="#003cff" stop-opacity="0"/></radialGradient><radialGradient cx="231.3" cy="197.4" r="4.3" gradientUnits="userSpaceOnUse" id="R"><stop offset="0" stop-color="#00f3ff"/><stop offset="1" stop-color="#00f3ff" stop-opacity=".6"/></radialGradient><linearGradient x1="239.9" y1="67.5" x2="239.9" y2="215.5" gradientUnits="userSpaceOnUse" id="a"><stop offset="0" stop-color="#0004e2"/><stop offset="1" stop-color="#00066f"/></linearGradient><linearGradient x1="255.6" y1="111.8" x2="242.4" y2="171" gradientUnits="userSpaceOnUse" id="p"><stop offset="0" stop-color="#1c688f"/><stop offset="1" stop-color="#323232"/></linearGradient><linearGradient x1="251.7" y1="113.5" x2="238.5" y2="172.8" gradientUnits="userSpaceOnUse" id="q"><stop offset="0" stop-color="#1c688f"/><stop offset="1" stop-color="#323232"/></linearGradient></defs><g data-paper-data="{&quot;isPaintingLayer&quot;:true}" stroke-miterlimit="10" style="mix-blend-mode:normal"><path d="M0 299V0h599v299z" fill="#0ff"/><path d="M0 239V49s120 26 197 24c78-1 154-28 265-32 116-6 137 22 137 22v176z" data-paper-data="{&quot;index&quot;:null}" fill="#00d9ff"/><path d="M0 295V119s99-19 163-17c64 1 163 31 269 32s167-29 167-29v190z" data-paper-data="{&quot;index&quot;:null}" fill="#008fff"/><path d="M0 299V161s101 37 168 37 248-37 298-37c75 0 133 14 133 14v124z" fill="#0037ff"/><path d="m137 246 6 2c2 0 3-1 3-3l-1-1-3-2a84 84 0 0 1-6-3l-3-3-2-10c0-4 1-7 4-9 3-3 7-4 11-4l9 1c3 0 4 1 4 2v1l-1 5-2 4-8-2c-2 0-3 1-3 3l2 2a49 49 0 0 0 4 2 26 26 0 0 1 6 4c2 2 4 5 4 9s-2 8-4 11c-3 3-7 5-12 5l-7-1-6-2c-2-2-2-3-2-5l1-5c0-2 4-2 6-1zm40 13h-6l-5-1v-45h2l3-1c4 0 6 1 6 2v13l5-1 8 2c2 2 3 5 3 10v21h-11v-20c0-2-1-3-2-3l-3 1zm26-24-2-5 1-3 10-1c5 0 8 1 10 3s2 5 2 9v10h3l1 1 1 4-1 5-3 2-6-2-2-2c-2 3-5 4-9 4-3 0-6-1-8-4-2-2-3-5-3-8 0-7 4-10 13-10h3v-3l-3-1-7 1zm5 12 1 3h2l2-1v-5h-2c-2 0-3 1-3 3zm39 12-6 1-6-1v-22h-2l-1-1-1-3c0-5 2-7 4-7l5 1c2 2 2 3 2 5l4-5 5-1c2 0 4 0 4 2l1 1-1 4-1 4-1 1-1-1h-2c-2 0-3 1-3 4zm12-45 6-1h5v26l7-12 6-1h6l-8 14 9 19h-2a68 68 0 0 1-11 0l-7-15v15l-5 1-6-1zm48 45-5 1-7-1v-24h-3l-1-4v-3l1-2h3v-6l6-1 5 1v6h6l1 5-1 5h-5zm22 0h-13v-32l6-1h7zm0-36h-13v-10h13zm17 36h-12v-45l7-1 5 1zm18 0h-12v-32l6-1h6zm0-36h-12v-10h12zm22 36-6 1-7-1v-24h-3l-1-4v-3l1-2h3v-6l6-1 6 1v6h5l1 5-1 5h-4zm21 0h-12v-32l6-1h6zm0-36h-12v-10h12zm30 34c-2 2-6 3-10 3-5 0-8-2-11-5s-5-7-5-12 2-9 5-13c3-3 6-4 11-4 4 0 7 1 10 3 2 2 3 5 3 8 0 7-4 11-12 11h-4l1 3h3c3 0 6 0 9-2v1l2 5-2 2zm-8-19-2-2h-3v5h3c2 0 2-1 2-3zm17 9 8 4c2 0 2-1 2-2l-3-2c-6-3-8-6-8-11 0-4 1-6 3-8 3-2 6-2 9-2l8 1c3 0 4 1 4 2l-2 4-2 3-6-2-2 2 1 1 3 1a43 43 0 0 1 5 4c3 1 4 3 4 6 0 4-2 6-4 9-2 2-6 3-10 3l-9-2c-2-1-4-2-4-4l1-4 2-3z" fill="none" stroke-opacity=".6" stroke="#020081" stroke-width="15" stroke-linecap="square"/><path d="m137 246 6 2c2 0 3-1 3-3l-1-1-3-2a84 84 0 0 1-6-3l-3-3-2-10c0-4 1-7 4-9 3-3 7-4 11-4l9 1c3 0 4 1 4 2v1l-1 5-2 4-8-2c-2 0-3 1-3 3l2 2a49 49 0 0 0 4 2 26 26 0 0 1 6 4c2 2 4 5 4 9s-2 8-4 11c-3 3-7 5-12 5l-7-1-6-2c-2-2-2-3-2-5l1-5 2-4 4 3zm40 13h-6l-5-1v-45h2l3-1c4 0 6 1 6 2v13l5-1 8 2c2 2 3 5 3 10v21h-11v-20c0-2-1-3-2-3l-3 1zm26-24-2-5 1-3 10-1c5 0 8 1 10 3s2 5 2 9v10h3l1 1 1 4-1 5-3 2-6-2-2-2c-2 3-5 4-9 4-3 0-6-1-8-4-2-2-3-5-3-8 0-7 4-10 13-10h3v-3l-3-1-7 1zm5 12 1 3h2l2-1v-5h-2c-2 0-3 1-3 3zm39 12-6 1-6-1v-22h-2l-1-1-1-3c0-5 2-7 4-7l5 1c2 2 2 3 2 5l4-5 5-1c2 0 4 0 4 2l1 1-1 4-1 4-1 1-1-1h-2c-2 0-3 1-3 4zm12-45 6-1h5v26l7-12 6-1h6l-8 14 9 19h-2a68 68 0 0 1-11 0l-7-15v15l-5 1-6-1zm48 45-5 1-7-1v-24h-3l-1-4v-3l1-2h3v-6l6-1 5 1v6h6l1 5-1 5h-5zm22 0h-13v-32l6-1h7zm0-36h-13v-10h13zm17 36h-12v-45l7-1 5 1zm18 0h-12v-32l6-1h6zm0-36h-12v-10h12zm22 36-6 1-7-1v-24h-3l-1-4v-3l1-2h3v-6l6-1 6 1v6h5l1 5-1 5h-4zm21 0h-12v-32l6-1h6zm0-36h-12v-10h12zm30 34c-2 2-6 3-10 3-5 0-8-2-11-5s-5-7-5-12 2-9 5-13c3-3 6-4 11-4 4 0 7 1 10 3 2 2 3 5 3 8 0 7-4 11-12 11h-4l1 3h3c3 0 6 0 9-2v1l2 5-2 2zm-8-19-2-2h-3v5h3c2 0 2-1 2-3zm17 9 8 4c2 0 2-1 2-2l-3-2c-6-3-8-6-8-11 0-4 1-6 3-8 3-2 6-2 9-2l8 1c3 0 4 1 4 2l-2 4-2 3-6-2-2 2 1 1 3 1a43 43 0 0 1 5 4c3 1 4 3 4 6 0 4-2 6-4 9-2 2-6 3-10 3l-9-2c-2-1-4-2-4-4l1-4 2-3z" fill="#fff"/><path d="M226 111a74 74 0 1 1 148 0 74 74 0 0 1-148 0z" fill="none" stroke-opacity=".6" stroke="#020081" stroke-width="22.5"/><path d="M166 142a74 74 0 1 1 148 0 74 74 0 0 1-148 0z" fill="url(#a)" stroke="#0ff" stroke-width="7.5" transform="translate(60 -30)"/><path d="M241 216c-46 0-87-58-73-64 34-16 39-5 71-5 27 0 36-11 68-1 22 7-21 70-66 70z" data-paper-data="{&quot;index&quot;:null}" fill="url(#b)" transform="translate(60 -30)"/><path d="M173 154a7 7 0 1 1 13 0 7 7 0 0 1-13 0z" fill="url(#c)" transform="translate(60 -30)"/><path d="M171 137a4 4 0 1 1 9 0 4 4 0 0 1-9 0z" fill="url(#d)" transform="translate(60 -30)"/><path d="M179 126a3 3 0 1 1 6 0 3 3 0 0 1-6 0z" fill="url(#e)" transform="translate(60 -30)"/><path d="M270 105a4 4 0 1 1 9 0 4 4 0 0 1-9 0z" fill="url(#f)" transform="translate(60 -30)"/><path d="M281 118a7 7 0 1 1 15 0 7 7 0 0 1-15 0z" fill="url(#g)" transform="translate(60 -30)"/><path d="M271 89a3 3 0 1 1 6 0 3 3 0 0 1-6 0z" fill="url(#h)" transform="translate(60 -30)"/><path d="M291 133a4 4 0 1 1 9 0 4 4 0 0 1-9 0z" fill="url(#i)" transform="translate(60 -30)"/><path d="M221 81a6 6 0 1 1 12 0 6 6 0 0 1-12 0z" fill="url(#j)" transform="translate(60 -30)"/><path d="M236 76a4 4 0 1 1 8 0 4 4 0 0 1-8 0z" fill="url(#k)" transform="translate(60 -30)"/><path d="M242 201a6 6 0 1 1 13 0 6 6 0 0 1-13 0z" fill="url(#l)" transform="translate(60 -30)"/><path d="M299 184z" fill="url(#m)" transform="translate(60 -30)"/><path d="M214 159c-1-1 0-2 1-3l2 1c1 1 0 2-1 3l-2-1z" fill="url(#n)" transform="translate(60 -30)"/><path d="m216 90 1-1h1l-1 1h-1z" fill="url(#o)" transform="translate(60 -30)"/><path d="M217 159s11-12 13-21-5-31-5-31 27 8 36 21c9 12 10 31 10 31s0 7-3 9c-6 4-17 4-24 3-11-1-27-12-27-12z" data-paper-data="{&quot;index&quot;:null}" fill="url(#p)" stroke="#000" stroke-width="2.5" stroke-linecap="round" transform="translate(60 -30)"/><path d="M213 161s11-12 13-21-1-32-1-32 23 9 32 22c9 12 11 39 11 39s-17 6-28 4-27-12-27-12z" data-paper-data="{&quot;index&quot;:null}" fill="url(#q)" stroke="#000" stroke-width="2.5" stroke-linecap="round" transform="translate(60 -30)"/><path d="M217 159c1 3-2 7-6 8-4 0-7-3-8-7 0-3 2-7 6-8 4 0 8 3 8 7z" data-paper-data="{&quot;index&quot;:null}" fill="url(#r)" transform="translate(60 -30)"/><path d="M221 163c1 4-2 7-6 8-3 0-7-3-7-6-1-4 2-8 6-8 3-1 7 2 7 6z" data-paper-data="{&quot;index&quot;:null}" fill="url(#s)" transform="translate(60 -30)"/><path d="M231 167c0 4-3 8-8 9-4 1-8-3-9-7-1-5 3-9 7-10 5 0 9 3 10 8z" data-paper-data="{&quot;index&quot;:null}" fill="url(#t)" transform="translate(60 -30)"/><path d="M240 168c1 5-3 9-7 10-5 0-9-3-10-8 0-4 3-9 8-9 4-1 8 2 9 7z" data-paper-data="{&quot;index&quot;:null}" fill="url(#u)" transform="translate(60 -30)"/><path d="M249 171c0 5-3 9-8 10-4 0-8-3-9-7-1-5 3-9 7-10 5-1 9 3 10 7z" data-paper-data="{&quot;index&quot;:null}" fill="url(#v)" transform="translate(60 -30)"/><path d="M258 171c1 4-2 8-7 9s-9-3-9-7c-1-5 2-9 7-10 4 0 9 3 9 8z" data-paper-data="{&quot;index&quot;:null}" fill="url(#w)" transform="translate(60 -30)"/><path d="M283 162c1 5-2 9-7 10-4 1-9-3-9-7-1-5 2-9 7-10 4-1 9 3 9 7z" data-paper-data="{&quot;index&quot;:null}" fill="url(#x)" transform="translate(60 -30)"/><path d="M254 171c0 5-3 9-8 10-4 1-8-3-9-7-1-5 3-9 7-10 5-1 9 3 10 7z" data-paper-data="{&quot;index&quot;:null}" fill="url(#y)" transform="translate(60 -30)"/><path d="M245 171c1 4-3 9-7 9-5 1-9-2-9-7-1-5 2-9 7-10 4 0 8 3 9 8z" data-paper-data="{&quot;index&quot;:null}" fill="url(#z)" transform="translate(60 -30)"/><path d="M237 169c1 5-2 9-7 9-4 1-9-2-9-7-1-5 2-9 7-9 5-1 9 2 9 7z" data-paper-data="{&quot;index&quot;:null}" fill="url(#A)" transform="translate(60 -30)"/><path d="M231 167c1 5-3 9-7 10-5 0-9-3-10-8 0-4 3-9 8-9 4-1 8 2 9 7z" data-paper-data="{&quot;index&quot;:null}" fill="url(#B)" transform="translate(60 -30)"/><path d="M224 161c1 5-3 9-7 10-5 0-9-3-10-8 0-4 3-8 8-9 4-1 8 3 9 7z" data-paper-data="{&quot;index&quot;:null}" fill="url(#C)" transform="translate(60 -30)"/><path d="M217 157c1 5-2 9-7 10-4 0-9-3-9-8-1-4 2-8 7-9 4-1 9 3 9 7z" data-paper-data="{&quot;index&quot;:null}" fill="url(#D)" transform="translate(60 -30)"/><path d="M285 163c1 5-2 9-7 10-5 0-9-3-9-8-1-4 2-9 7-9 4-1 9 2 9 7z" data-paper-data="{&quot;index&quot;:null}" fill="url(#E)" transform="translate(60 -30)"/><path d="M252 175c1 5-2 9-7 10-4 0-9-3-9-8-1-4 2-9 7-9 4-1 9 2 9 7z" data-paper-data="{&quot;index&quot;:null}" fill="url(#F)" transform="translate(60 -30)"/><path d="M246 174c0 5-3 9-8 10-4 0-8-3-9-8-1-4 3-8 7-9 5-1 9 3 10 7z" data-paper-data="{&quot;index&quot;:null}" fill="url(#G)" transform="translate(60 -30)"/><path d="M240 173c0 4-3 8-8 9-4 1-8-3-9-7-1-5 3-9 7-10 5 0 9 3 10 8z" data-paper-data="{&quot;index&quot;:null}" fill="url(#H)" transform="translate(60 -30)"/><path d="M230 172c0 5-3 9-8 10-4 0-8-3-9-8-1-4 3-9 7-9 5-1 9 2 10 7z" data-paper-data="{&quot;index&quot;:null}" fill="url(#I)" transform="translate(60 -30)"/><path d="M219 165c1 5-2 9-7 10-4 0-9-3-9-7-1-5 2-9 7-10s9 3 9 7z" data-paper-data="{&quot;index&quot;:null}" fill="url(#J)" transform="translate(60 -30)"/><path d="M290 165c1 5-2 9-7 10-4 1-9-3-9-7-1-5 2-9 7-10s9 3 9 7z" data-paper-data="{&quot;index&quot;:null}" fill="url(#K)" transform="translate(60 -30)"/><path d="M261 170c1 5-2 9-7 10-4 0-9-3-9-8-1-4 2-8 7-9 4-1 9 3 9 7z" data-paper-data="{&quot;index&quot;:null}" fill="url(#L)" transform="translate(60 -30)"/><path d="M261 174c1 4-2 9-7 9-5 1-9-2-9-7-1-5 2-9 7-10 4 0 9 3 9 8z" data-paper-data="{&quot;index&quot;:null}" fill="url(#M)" transform="translate(60 -30)"/><path d="M269 167c1 5-2 9-7 9-5 1-9-2-9-7-1-5 2-9 7-9 4-1 9 2 9 7z" data-paper-data="{&quot;index&quot;:null}" fill="url(#N)" transform="translate(60 -30)"/><path d="M270 170c1 5-2 9-7 10-4 1-9-3-9-7-1-5 2-9 7-10 5 0 9 3 9 7z" data-paper-data="{&quot;index&quot;:null}" fill="url(#O)" transform="translate(60 -30)"/><path d="M274 160c3 4 2 9-2 12-4 2-10 1-12-3s-1-9 3-12c4-2 9-1 11 3z" data-paper-data="{&quot;index&quot;:null}" fill="url(#P)" transform="translate(60 -30)"/><path d="M280 167c2 4 1 9-3 11-4 3-9 1-12-3-2-4-1-9 3-11 4-3 9-1 12 3z" data-paper-data="{&quot;index&quot;:null}" fill="url(#Q)" transform="translate(60 -30)"/><path d="M281 62a21 21 0 0 1-40 8l2-2c2-1 2-4 3-5l7-11c3-3 13-6 17-8h1c6 4 10 10 10 18z" fill="#0ff"/><path d="M321 157a21 21 0 0 1 41-6l-3 3c-2 0-2 3-3 5l-8 10c-3 3-13 5-17 7h-1c-6-4-9-11-9-19z" data-paper-data="{&quot;index&quot;:null}" fill="#0ff"/><path d="M226 111a74 74 0 1 1 148 0 74 74 0 0 1-148 0z" fill="none" stroke="#0ff" stroke-width="7.5"/><path d="m256 67 2 1 2 1 2-1-1-1-1-1a38 38 0 0 1-3-1l-1-1-2-5 2-4c1-2 3-2 5-2h4l2 1a653 653 0 0 0-2 5l-3-1-1 1 1 1a22 22 0 0 0 2 1 12 12 0 0 1 2 1c2 1 2 3 2 4l-1 6-5 2h-4l-2-1-2-2 1-2 1-2z" stroke="#001c7b" stroke-width="5" stroke-linecap="square"/><path d="m256 67 2 1 2 1 2-1-1-1-1-1a38 38 0 0 1-3-1l-1-1-2-5 2-4c1-2 3-2 5-2h4l2 1a653 653 0 0 0-2 5l-3-1-1 1 1 1a22 22 0 0 0 2 1 12 12 0 0 1 2 1c2 1 2 3 2 4l-1 6-5 2h-4l-2-1-2-2 1-2 1-2z" fill="#fff"/><path d="m333 166 2-20 1-1 5 1 7 2 1 6-2 5-3 2h-5v6h-3l-3-1zm7-15v5h2l1-2v-2l-2-1z" stroke="#001c7b" stroke-width="5" stroke-linecap="square"/><path d="m336 167-3-1 2-20 1-1 5 1 7 2 1 6-2 5-3 2h-5v6h-3zm4-16v5h2l1-2v-2l-2-1z" fill="#fff"/><path d="M227 197a4 4 0 1 1 9 0 4 4 0 0 1-9 0z" fill="url(#R)" transform="translate(60 -30)"/></g></svg>