<svg xmlns="http://www.w3.org/2000/svg" viewBox="0 0 23 30"><g data-paper-data="{&quot;isPaintingLayer&quot;:true}" stroke-miterlimit="10" style="mix-blend-mode:normal"><path d="M17 15H7c-2 0-3-1-3-3V9c0-2 1-3 3-3h10c1 0 2 1 2 3v3c0 2-1 3-2 3" fill="#b3b3b3" stroke="#b3b3b3"/><path d="M16 24H7l-2-2v-2a6 6 0 0 1 13 0v2l-2 2m-3 4a2 2 0 1 1-3 0 2 2 0 0 1 3 0m1-25a2 2 0 1 1-5 0 2 2 0 0 1 5 0" fill="#b3b3b3" stroke="#b3b3b3"/><path d="M12 3v25" fill="#b3b3b3" stroke="#b3b3b3" stroke-width=".8"/><path d="M2 24a9 9 0 1 1 19 0" fill="none" stroke="#b3b3b3" stroke-linecap="square"/><path d="M19 26a2 2 0 1 1 4 0M1 26a2 2 0 1 1 3 0" fill="#b3b3b3" stroke="#b3b3b3" stroke-linecap="square"/><path d="M15 12H8a1 1 0 0 1 0-3h7a1 1 0 1 1 0 3"/></g></svg>