<svg xmlns="http://www.w3.org/2000/svg" xml:space="preserve" viewBox="0 0 600 300"><path style="stroke:none;stroke-width:1;stroke-dasharray:none;stroke-linecap:butt;stroke-dashoffset:0;stroke-linejoin:miter;stroke-miterlimit:10;fill:#0fbd8c;fill-rule:nonzero;opacity:1" transform="matrix(1 0 0 1.02 60 -22)" d="M-60 319V19h600v300z"/><path style="stroke:none;stroke-width:1;stroke-dasharray:none;stroke-linecap:butt;stroke-dashoffset:0;stroke-linejoin:miter;stroke-miterlimit:10;fill:#fff;fill-rule:nonzero;opacity:1" transform="matrix(1 0 0 1.02 60 -22)" d="M62 169a108 108 0 1 1 216 0 108 108 0 0 1-216 0z"/><path style="stroke:none;stroke-width:1;stroke-dasharray:none;stroke-linecap:butt;stroke-dashoffset:0;stroke-linejoin:miter;stroke-miterlimit:10;fill:#0fbd8c;fill-rule:nonzero;opacity:1" transform="matrix(1 0 0 1.02 60 -21)" d="M83 169a87 87 0 1 1 174 0 87 87 0 0 1-174 0z"/><path style="stroke:none;stroke-width:1;stroke-dasharray:none;stroke-linecap:butt;stroke-dashoffset:0;stroke-linejoin:miter;stroke-miterlimit:10;fill:#fff;fill-rule:nonzero;opacity:1" transform="matrix(1 0 0 1.02 60 -22)" d="M97 169a73 73 0 1 1 146 0 73 73 0 0 1-146 0z"/><path style="stroke:none;stroke-width:1;stroke-dasharray:none;stroke-linecap:butt;stroke-dashoffset:0;stroke-linejoin:miter;stroke-miterlimit:10;fill:#0fbd8c;fill-rule:nonzero;opacity:1" transform="matrix(1 0 0 1.02 60 -21)" d="M58 299V38h130v261z"/><path style="stroke:none;stroke-width:1;stroke-dasharray:none;stroke-linecap:butt;stroke-dashoffset:0;stroke-linejoin:miter;stroke-miterlimit:10;fill:#0fbd8c;fill-rule:nonzero;opacity:1" transform="matrix(1 0 0 1.02 60 -21)" d="M118 169a52 52 0 1 1 104 0 52 52 0 0 1-104 0z"/><path style="stroke:none;stroke-width:1;stroke-dasharray:none;stroke-linecap:butt;stroke-dashoffset:0;stroke-linejoin:miter;stroke-miterlimit:10;fill:#fff;fill-rule:nonzero;opacity:1" transform="matrix(1 0 0 1.02 60 -22)" d="M63 177v-44h52l54-53v98z"/><path style="stroke:none;stroke-width:1;stroke-dasharray:none;stroke-linecap:butt;stroke-dashoffset:0;stroke-linejoin:miter;stroke-miterlimit:10;fill:#fff;fill-rule:nonzero;opacity:1" transform="matrix(1 0 0 1.02 60 -22)" d="M169 159v98l-54-54H63v-44z"/><path style="stroke:none;stroke-width:1;stroke-dasharray:none;stroke-linecap:butt;stroke-dashoffset:0;stroke-linejoin:miter;stroke-miterlimit:10;fill:#fff;fill-rule:nonzero;opacity:1" transform="matrix(1 0 0 1.02 60 -22)" d="M144 169a26 26 0 1 1 52 0 26 26 0 0 1-52 0z"/><text xml:space="preserve" font-family="Sans Serif" font-size="40" style="stroke:none;stroke-width:1;stroke-dasharray:none;stroke-linecap:butt;stroke-dashoffset:0;stroke-linejoin:miter;stroke-miterlimit:10;fill:#fff;fill-rule:nonzero;opacity:1;white-space:pre" transform="matrix(7.06 0 0 7.2 435 155)"><tspan x="-11" y="13">+</tspan></text></svg>