<svg xmlns="http://www.w3.org/2000/svg" xmlns:xlink="http://www.w3.org/1999/xlink" viewBox="0 0 600 300"><defs><path id="a" stroke-width="11.3" d="M219 110q0 4-2 6-1 3-4 5l-7 2-7 1-9-1-7-1v-10l8 3 8 1q4 0 6-2 2-1 2-3v-2l-2-2-3-1-6-2-6-2-4-3q-2-1-2-3l-1-5 1-6 4-4 6-3 8-1 8 1 6 1v8l-8-1-6-1-6 1-2 4 1 1 1 2 4 2 5 1 7 3 4 3q2 1 2 3l1 5zm52-13v3l-1 3h-29l1 6 2 3 4 3h12l8-2v9l-4 1h-4l-4 1h-4l-9-1-7-5q-3-3-4-7-2-4-2-9 0-6 2-10 1-5 4-8l6-5q4-2 9-2t8 2q4 1 7 4l3 6 2 8zm-11-1-1-5-2-3-3-2-3-1q-4 0-7 3l-3 8zm49 27v-6l-3 3-3 2-4 1-5 1-6-1-5-3-2-4-1-6 1-6 4-4 7-3 10-1h6v-3l-1-3-1-3-3-1-4-1-8 1-8 3v-9l8-2 9-1 8 1 6 3 3 5 1 6v31zm-1-20h-7l-4 1-4 1-1 2-1 3q0 3 2 4l5 1 4-1 6-5zm52-7-1-5-1-3-1-1-3-1-5 2-5 7v28h-11V78h9l1 7 2-3 3-3 4-1 5-1 6 1 4 4 3 6v8zm57 25-7 2-7 1-10-2q-4-1-7-4t-4-7q-2-4-2-10l2-10q1-4 5-7t7-5l10-1h7l5 1v11l-6-3h-6l-5 1-4 3-3 4v6l1 5q0 3 2 5l4 2 6 1h6l3-1 3-1zm40 2V94q0-8-6-8-3 0-5 3-3 2-5 6v28h-11V61h11v15l-1 8 3-3 3-2 3-1 5-1 6 1 4 4q2 2 2 5l1 6v30zm-136 85-1 11-5 7-7 5-10 1h-3l-3-1v18h-11v-63h10v7l3-3q1-2 3-2l4-2 4-1q4 0 7 2l5 5q2 2 3 7l1 9zm-11 0v-6l-2-4-2-3h-4l-5 2-5 6v19l3 1h4l5-1 3-3 2-4 1-7zm49 23v-6l-3 3-4 2-4 2h-5l-6-1-4-3-3-4-1-6 2-6 4-4 7-3 9-1h6v-6l-2-2-3-2h-12l-7 3v-9l7-2 9-1 9 1 6 3 3 5 1 7v30zm-2-20h-6l-5 1-3 1-2 3v2q0 3 2 4 1 2 4 2t5-2l5-5zm52-7v-4l-1-3-2-2-2-1q-3 0-5 2l-6 7v28h-11v-45h10v7l3-3q1-2 3-2l4-2 4-1q4 0 6 2l5 3 2 6 1 8zm49 27v-6l-3 3-4 2-4 2h-4l-6-1-5-3-3-4v-6l1-6 4-4 7-3 10-1h5v-6l-2-2-2-2h-12l-8 3v-9l7-2 9-1 9 1 6 3 3 5 1 7v30zm-2-20h-6l-5 1-3 1-2 3v2q0 3 2 4 1 2 4 2t5-2l5-5zm55 20v-35l-1-2h-2l-2 2-3 6v29h-9v-30l-1-3v-2l-1-2h-1l-3 2-3 6v29h-9v-45h8v7l2-3 2-3 2-1h3q4 0 6 2 2 1 2 5l2-3 2-3 3-1h3q5 0 7 3t2 10v32zm55-13q0 4-2 7l-4 4q-3 2-7 2l-7 1h-9l-7-2v-9l8 2 8 1 6-1 2-4v-2l-2-1-3-2-6-2-6-2-4-3q-2-1-2-3l-1-5 1-5q1-3 4-5l6-2q3-2 8-2l8 1 6 1v9l-8-2-6-1q-4 0-6 2-2 1-2 3l1 2 1 1 4 2 5 2 7 2 4 3q2 1 2 3l1 5z"/><path id="b" stroke-width="11.3" d="m70 80-1 7-4 5-5 3-6 2-1 8h-9l-1-16h7l3-1 3-2 1-2 1-3-1-4-3-3q-2-2-5-2l-7-1h-2V61h3l12 1 8 5q3 2 5 6 2 3 2 7zm-14 37-1 3-1 2-2 1-3 1-3-1-2-1-2-2v-6l2-2 2-2h6l2 2 1 2 1 3zm54 23v-23l-2 3-4 2-3 1-4 1q-4 0-7-2l-6-4-3-7-1-10q0-5 2-9 1-5 4-8l7-5 10-2 3 1h5l2 1 7-2v63zm-19-39 1 6 1 5 3 2 3 1q3 0 5-2l6-6V87l-3-1h-4l-5 1-3 3-3 5-1 6zm41-6v-9h38v9zm0 17v-9h38v9zm40 89-1 10-3 9 9 11h-12l-4-4-6 4-8 1-8-1-6-3q-3-2-4-6l-1-6 1-6q0-3 2-5l3-3 4-3-1-1-4-7-1-6 1-6 3-5 6-3q3-2 7-2l7 1 5 3 3 5 1 5-1 6-3 4-5 4-4 3 9 12 1-5v-6zm-34 14 1 3 2 3 3 2h8l4-2-13-16-3 4q-2 2-2 6zm17-31-1-3-1-2-2-1h-5l-2 2-1 2-1 2 1 5 3 4 1 1 3-2 2-3 2-2 1-3zm67 24-1 11-5 7-8 5-9 1h-3l-3-1v18h-11v-63h9l1 7 2-3 4-2q1-2 3-2l5-1q4 0 7 2l5 5q2 2 3 7l1 9zm-11 0v-6l-2-4-2-3h-4l-5 2-5 6v19l3 1h4l4-1 4-3 2-4 1-7zm20-5v-9h38v9zm0 17v-9h38v9z"/></defs><path fill="#b4b4b4" d="M0 300V0h600v300z" style="stroke-width:.952344;stroke-miterlimit:10"/><path fill="#999" stroke="#999" d="m-74 232 23-77h17l-23 77zm-72 0 23-77h17l-23 77zm71-133a8 8 0 1 1 17 0 8 8 0 0 1-17 0zm0 32a8 8 0 1 1 17 0 8 8 0 0 1-17 0zm24 24 23-78h17l-23 78zm-72 0 23-78h17l-23 78zm71-133a8 8 0 1 1 17 0 8 8 0 0 1-17 0zm0 32a8 8 0 1 1 17 0 8 8 0 0 1-17 0zm24 23L-5 0h17l-23 77zm-72 0 23-77h16l-22 77Zm92 177a8 8 0 1 1 17 0 8 8 0 0 1-17 0zm0 32a8 8 0 1 1 17 0 8 8 0 0 1-17 0zm23 24 23-78h17l-23 78Zm-72 0 23-78h17l-23 78Zm72-133a8 8 0 1 1 16 0 8 8 0 0 1-17 0zm-1 32a8 8 0 1 1 17 0 8 8 0 0 1-17 0zm24 23 23-77h17l-23 77zm-72 0 23-77H6l-23 77zM37 99a8 8 0 1 1 17 0 8 8 0 0 1-17 0zm0 32a8 8 0 1 1 17 0 8 8 0 0 1-17 0zm24 24 23-78h17l-23 78zm-72 0 23-78h17L6 155ZM60 22a8 8 0 1 1 17 0 8 8 0 0 1-17 0zm0 32a8 8 0 1 1 17 0 8 8 0 0 1-17 0zm24 23 23-77h17l-23 77zm-72 0L35 0h17L29 77Zm92 177a8 8 0 1 1 17 0 8 8 0 0 1-17 0zm0 32a8 8 0 1 1 17 0 8 8 0 0 1-17 0zm23 24 23-78h17l-23 78zm-72 0 23-78h17l-23 78Zm72-133a8 8 0 1 1 17 0 8 8 0 0 1-17 0zm0 32a8 8 0 1 1 17 0 8 8 0 0 1-17 0zm23 23 23-77h17l-23 77zm-72 0 23-77h17l-23 77Zm72-133a8 8 0 1 1 17 0 8 8 0 0 1-17 0zm0 32a8 8 0 1 1 17 0 8 8 0 0 1-17 0zm23 24 23-78h17l-23 78zm-72 0 23-78h17l-23 78zm72-133a8 8 0 1 1 16 0 8 8 0 0 1-16 0zm0 32a8 8 0 1 1 16 0 8 8 0 0 1-16 0zm23 23 23-77h17l-23 77Zm-72 0 23-77h17l-23 77Zm92 177a8 8 0 1 1 17 0 8 8 0 0 1-17 0zm0 32a8 8 0 1 1 17 0 8 8 0 0 1-17 0zm24 24 23-78h17l-23 78zm-73 0 23-78h17l-23 78zm72-133a8 8 0 1 1 17 0 8 8 0 0 1-17 0zm0 32a8 8 0 1 1 17 0 8 8 0 0 1-17 0zm24 23 23-77h16l-22 77zm-73 0 23-77h17l-23 77Zm72-133a8 8 0 1 1 17 0 8 8 0 0 1-17 0zm0 32a8 8 0 1 1 17 0 8 8 0 0 1-17 0zm24 24 22-78h17l-23 78zm-73 0 23-78h17l-23 78zm72-133a8 8 0 1 1 17 0 8 8 0 0 1-17 0zm0 32a8 8 0 1 1 17 0 8 8 0 0 1-17 0zm23 23 23-77h17l-23 77zm-72 0 23-77h17l-23 77Zm92 177a8 8 0 1 1 17 0 8 8 0 0 1-17 0zm0 32a8 8 0 1 1 17 0 8 8 0 0 1-17 0zm24 24 23-78h17l-23 78zm-72 0 22-78h17l-23 78zm71-133a8 8 0 1 1 17 0 8 8 0 0 1-17 0zm0 32a8 8 0 1 1 17 0 8 8 0 0 1-17 0zm24 23 23-77h17l-23 77zm-73 0 23-77h17l-23 77zm72-133a8 8 0 1 1 17 0 8 8 0 0 1-17 0zm0 32a8 8 0 1 1 17 0 8 8 0 0 1-17 0zm24 24 23-78h17l-23 78zm-73 0 23-78h17l-23 78zm72-133a8 8 0 1 1 17 0 8 8 0 0 1-17 0zm0 32a8 8 0 1 1 17 0 8 8 0 0 1-17 0zm24 23 23-77h17l-23 77zm-73 0 23-77h17l-23 77zm92 177a8 8 0 1 1 17 0 8 8 0 0 1-17 0zm0 32a8 8 0 1 1 17 0 8 8 0 0 1-17 0zm24 24 23-78h17l-23 78zm-72 0 23-78h17l-23 78zm71-133a8 8 0 1 1 17 0 8 8 0 0 1-17 0zm0 32a8 8 0 1 1 17 0 8 8 0 0 1-17 0zm24 23 23-77h17l-23 77zm-72 0 23-77h17l-23 77zm71-133a8 8 0 1 1 17 0 8 8 0 0 1-17 0zm0 32a8 8 0 1 1 17 0 8 8 0 0 1-17 0zm24 24 23-78h17l-23 78zm-72 0 22-78h17l-22 78zm71-133a8 8 0 1 1 17 0 8 8 0 0 1-17 0zm0 32a8 8 0 1 1 17 0 8 8 0 0 1-17 0zm24 23 23-77h17l-23 77zm-72 0 22-77h17l-23 77zm91 177a8 8 0 1 1 17 0 8 8 0 0 1-17 0zm0 32a8 8 0 1 1 17 0 8 8 0 0 1-17 0zm24 24 23-78h17l-23 78zm-72 0 23-78h17l-23 78zm71-133a8 8 0 1 1 17 0 8 8 0 0 1-17 0zm0 32a8 8 0 1 1 17 0 8 8 0 0 1-17 0zm24 23 23-77h17l-23 77zm-72 0 23-77h17l-23 77zm71-133a8 8 0 1 1 17 0 8 8 0 0 1-17 0zm0 32a8 8 0 1 1 17 0 8 8 0 0 1-17 0zm24 24 23-78h17l-23 78Zm-72 0 23-78h17l-23 78zm71-133a8 8 0 1 1 17 0 8 8 0 0 1-17 0zm0 32a8 8 0 1 1 17 0 8 8 0 0 1-17 0zm24 23 23-77h17l-23 77zm-72 0 23-77h17l-23 77zm92 177a8 8 0 1 1 17 0 8 8 0 0 1-17 0zm0 32a8 8 0 1 1 17 0 8 8 0 0 1-17 0zm23 24 23-78h17l-23 78zm-72 0 23-78h17l-23 78Zm72-133a8 8 0 1 1 17 0 8 8 0 0 1-17 0zm0 32a8 8 0 1 1 17 0 8 8 0 0 1-17 0z" style="stroke-miterlimit:10"/><g stroke="#000" stroke-opacity=".3" stroke-width="11.3" style="font-weight:700;font-size:40px;font-family:Consolas;stroke-linecap:round;stroke-linejoin:round;stroke-miterlimit:10"><use xlink:href="#a" width="100%" height="100%" fill="#fff" aria-label="search params"/><use xlink:href="#b" width="100%" height="100%" fill="#a0a0a0" aria-label="?q= &amp;p="/></g><use xlink:href="#a" width="100%" height="100%" fill="#fff" aria-label="search params" style="font-weight:700;font-size:40px;font-family:Consolas;stroke-linecap:round;stroke-linejoin:round;stroke-miterlimit:10"/><use xlink:href="#b" width="100%" height="100%" fill="silver" aria-label="?q= &amp;p=" style="font-weight:700;font-size:40px;font-family:Consolas;stroke-linecap:round;stroke-linejoin:round;stroke-miterlimit:10"/></svg>