<svg xmlns="http://www.w3.org/2000/svg" viewBox="0 0 600 300"><defs><clipPath id="c" clipPathUnits="userSpaceOnUse"><path d="M400 0h200v300H400z" style="fill:#73a753;fill-opacity:1;stroke:none;stroke-width:1.98563;stroke-miterlimit:10;stroke-dasharray:none;stroke-opacity:1;paint-order:stroke fill markers"/></clipPath><clipPath id="d" clipPathUnits="userSpaceOnUse"><path d="M0 0h200v300H0z" style="fill:#f1b2d1;fill-opacity:1;stroke:none;stroke-width:1.98563;stroke-miterlimit:10;stroke-dasharray:none;stroke-opacity:1;paint-order:stroke fill markers"/></clipPath><clipPath id="b" clipPathUnits="userSpaceOnUse"><path d="M400 0h200v300H400z" style="fill:#592c78;fill-opacity:1;stroke:none;stroke-width:2.18468;stroke-miterlimit:10;stroke-dasharray:none;stroke-opacity:1;paint-order:stroke fill markers" transform="rotate(24)"/></clipPath><clipPath id="a" clipPathUnits="userSpaceOnUse"><path d="M200 0h200v300H200z" style="fill:#fbbb14;fill-opacity:1;stroke:none;stroke-width:2.18468;stroke-miterlimit:10;stroke-dasharray:none;stroke-opacity:1;paint-order:stroke fill markers"/></clipPath><filter id="e" width="1.1" height="1.1" x="0" y="0" style="color-interpolation-filters:sRGB"><feGaussianBlur result="blur" stdDeviation="3 3"/></filter><filter id="f" width="1.1" height="1.1" x="0" y="0" style="color-interpolation-filters:sRGB"><feGaussianBlur result="blur" stdDeviation="3 3"/></filter></defs><path d="M0 0h600v300H0z" style="fill:#f1b2d1;fill-opacity:1;stroke:none;stroke-width:3.78398;stroke-miterlimit:10;stroke-dasharray:none;stroke-opacity:1;paint-order:stroke fill markers"/><path d="M400 0h200v300H400z" style="fill:#592c78;fill-opacity:1;stroke:none;stroke-width:2.18468;stroke-miterlimit:10;stroke-dasharray:none;stroke-opacity:1;paint-order:stroke fill markers"/><path d="M200 0h200v300H200z" style="fill:#fbbb14;fill-opacity:1;stroke:none;stroke-width:2.18468;stroke-miterlimit:10;stroke-dasharray:none;stroke-opacity:1;paint-order:stroke fill markers"/><g clip-path="url(#a)"><path d="M200 343h64v65h-64z" class="cls-5" style="fill:#f4ca6e;stroke:#e99923;stroke-width:5.62737px;stroke-miterlimit:10" transform="rotate(-24)"/><path d="M35-271h79v79H35z" class="cls-5" style="fill:#f4ca6e;stroke:#e99923;stroke-width:5.62737px;stroke-miterlimit:10" transform="rotate(117)"/><path d="m392 76 24-6 24-6-7 24-7 24-17-18zm-21 116-18-3-18-3 12-14 12-14 6 17z" class="cls-5" style="fill:#f4ca6e;stroke:#e99923;stroke-width:5px;stroke-miterlimit:10" transform="translate(-85 -52) scale(1.12547)"/><circle cx="231.5" cy="65.5" r="36.7" class="cls-5" style="fill:#f4ca6e;stroke:#e99923;stroke-width:5.62737px;stroke-miterlimit:10"/><path d="M383 101h65v65h-65z" class="cls-5" style="fill:#f4ca6e;stroke:#e99923;stroke-width:5.62737px;stroke-miterlimit:10"/><circle cx="252.3" cy="259.7" r="31.9" class="cls-5" style="fill:#f4ca6e;stroke:#e99923;stroke-width:5.62737px;stroke-miterlimit:10"/></g><path d="M200 343h64v65h-64z" class="cls-5" clip-path="url(#b)" style="fill:#8d5aa5;stroke:#b283ba;stroke-width:5.62737px;stroke-miterlimit:10;stroke-opacity:1;fill-opacity:1" transform="rotate(-24)"/><g clip-path="url(#c)" style="fill:#8d5aa5;fill-opacity:1;stroke:#b283ba;stroke-opacity:1"><circle cx="476.6" cy="23.9" r="22.6" class="cls-5" style="fill:#8d5aa5;fill-opacity:1;stroke:#b283ba;stroke-width:5.62737px;stroke-miterlimit:10;stroke-opacity:1"/><path d="m440 64-7 24-7 24-17-18-17-18 24-6z" class="cls-5" style="fill:#8d5aa5;fill-opacity:1;stroke:#b283ba;stroke-width:5px;stroke-miterlimit:10;stroke-opacity:1" transform="translate(-85 -52) scale(1.12547)"/><path d="M383 101h65v65h-65z" class="cls-5" style="fill:#8d5aa5;fill-opacity:1;stroke:#b283ba;stroke-width:5.62737px;stroke-miterlimit:10;stroke-opacity:1"/><circle cx="479.7" cy="256.9" r="42.4" class="cls-5" style="fill:#8d5aa5;fill-opacity:1;stroke:#b283ba;stroke-width:5.62737px;stroke-miterlimit:10;stroke-opacity:1"/><path d="m533 87 48 27 47 27-47 28-48 27v-55z" class="cls-5" style="fill:#8d5aa5;fill-opacity:1;stroke:#b283ba;stroke-width:5px;stroke-miterlimit:10;stroke-opacity:1" transform="translate(-85 -52) scale(1.12547)"/><path d="M589-104h65v65h-65z" class="cls-5" style="fill:#8d5aa5;fill-opacity:1;stroke:#b283ba;stroke-width:5px;stroke-miterlimit:10;stroke-opacity:1" transform="rotate(30)"/></g><g clip-path="url(#d)" style="filter:url(#e)"><circle cx="91.3" cy="114" r="19.3" class="cls-5" style="fill:#c04e98;fill-opacity:1;stroke:#a44280;stroke-width:5.62737px;stroke-miterlimit:10;stroke-opacity:1"/><path d="M35-271h79v79H35z" class="cls-5" style="fill:#c04e98;fill-opacity:1;stroke:#a44280;stroke-width:5.62737px;stroke-miterlimit:10;stroke-opacity:1" transform="rotate(117)"/><circle cx="231.5" cy="65.5" r="36.7" class="cls-5" style="fill:#c04e98;fill-opacity:1;stroke:#a44280;stroke-width:5.62737px;stroke-miterlimit:10;stroke-opacity:1"/><path d="m147 296-36-4 21-29 21-29 15 33 14 33z" class="cls-5" style="fill:#c04e98;fill-opacity:1;stroke:#a44280;stroke-width:5px;stroke-miterlimit:10;stroke-opacity:1" transform="translate(-85 -52) scale(1.12547)"/><path d="M88 6h65v65H88z" class="cls-5" style="fill:#c04e98;fill-opacity:1;stroke:#a44280;stroke-width:5.62737px;stroke-miterlimit:10;stroke-opacity:1"/><circle cx="7.3" cy="194.5" r="30.3" class="cls-5" style="fill:#c04e98;fill-opacity:1;stroke:#a44280;stroke-width:5.62737px;stroke-miterlimit:10;stroke-opacity:1"/><path d="m82 89 41-1-20 36-20 35-21-35-21-35z" class="cls-5" style="fill:#c04e98;fill-opacity:1;stroke:#a44280;stroke-width:5px;stroke-miterlimit:10;stroke-opacity:1" transform="translate(-85 -52) scale(1.12547)"/></g><path d="M365 220a5 5 0 0 1-3-1L232 89a5 5 0 0 1 7-7l130 130a5 5 0 0 1-4 8z" class="cls-10" style="fill:#fff;fill-opacity:1;stroke-width:1.15678"/><path d="M258 134a26 26 0 1 1 26-26 26 26 0 0 1-26 26z" class="cls-11" style="fill:#fceed5;fill-opacity:1;stroke-width:1.15678"/><path d="M258 85a23 23 0 1 1-23 23 23 23 0 0 1 23-23m0-5a29 29 0 1 0 29 28 29 29 0 0 0-29-28z" class="cls-10" style="fill:#fff;fill-opacity:1;stroke-width:1.15678"/><path d="M289 165a26 26 0 1 1 25-20 26 26 0 0 1-25 20z" class="cls-11" style="fill:#fceed5;fill-opacity:1;stroke-width:1.15678"/><path d="M289 111v5a22 22 0 0 1 5 1 23 23 0 0 1-5 45 23 23 0 0 1-5-1 23 23 0 0 1 5-45v-5m0 0a29 29 0 1 0 7 0 29 29 0 0 0-7 0z" class="cls-10" style="fill:#fff;fill-opacity:1;stroke-width:1.15678"/><path d="M320 196a26 26 0 1 1 26-26 26 26 0 0 1-26 26z" class="cls-11" style="fill:#fceed5;fill-opacity:1;stroke-width:1.15678"/><path d="M320 148a23 23 0 1 1-22 22 23 23 0 0 1 22-22m0-6a29 29 0 1 0 29 28 29 29 0 0 0-29-28z" class="cls-10" style="fill:#fff;fill-opacity:1;stroke-width:1.15678"/><path d="M365 220a5 5 0 0 1-3-1l-32-32a5 5 0 1 1 7-7l32 32a5 5 0 0 1-4 8z" class="cls-10" style="fill:#fff;fill-opacity:1;stroke-width:1.15678"/><g style="filter:url(#f)" transform="translate(-10)"><path d="M175 220a5 5 0 0 1-4-1L42 89a5 5 0 0 1 7-7l130 130a5 5 0 0 1-4 8z" class="cls-10" style="fill:#fff;fill-opacity:1;stroke-width:1.15678"/><path d="M68 134a26 26 0 1 1 25-26 26 26 0 0 1-25 26Z" class="cls-11" style="fill:#73a753;fill-opacity:1;stroke-width:1.15678"/><path d="M68 85a23 23 0 1 1-23 23 23 23 0 0 1 23-23m0-5a29 29 0 1 0 28 28 29 29 0 0 0-28-28Z" class="cls-10" style="fill:#fff;fill-opacity:1;stroke-width:1.15678"/><path d="M99 165a26 26 0 1 1 25-20 26 26 0 0 1-25 20z" class="cls-11" style="fill:#73a753;fill-opacity:1;stroke-width:1.15678"/><path d="M99 111v5a22 22 0 0 1 5 1 23 23 0 0 1-5 45 23 23 0 0 1-5-1 23 23 0 0 1 5-45v-5m0 0a29 29 0 1 0 6 0 29 29 0 0 0-6 0z" class="cls-10" style="fill:#fff;fill-opacity:1;stroke-width:1.15678"/><path d="M130 196a26 26 0 1 1 26-26 26 26 0 0 1-26 26z" class="cls-11" style="fill:#73a753;fill-opacity:1;stroke-width:1.15678"/><path d="M130 148a23 23 0 1 1-23 22 23 23 0 0 1 23-22m0-6a29 29 0 1 0 29 28 29 29 0 0 0-29-28z" class="cls-10" style="fill:#fff;fill-opacity:1;stroke-width:1.15678"/><path d="M175 220a5 5 0 0 1-4-1l-32-32a5 5 0 1 1 8-7l32 32a5 5 0 0 1-4 8z" class="cls-10" style="fill:#fff;fill-opacity:1;stroke-width:1.15678"/></g><path d="M789 595a5 5 0 0 1-3-1L656 464a5 5 0 0 1 7-7l130 130a5 5 0 0 1-4 8z" class="cls-10" style="fill:#231f20;stroke-width:1.15678" transform="translate(-224 -375)"/><path d="M682 509a26 26 0 1 1 26-26 26 26 0 0 1-26 26z" class="cls-11" style="fill:#3eb167;stroke-width:1.15678" transform="translate(-224 -375)"/><path d="M682 460a23 23 0 1 1-23 23 23 23 0 0 1 23-23m0-6a29 29 0 1 0 29 29 29 29 0 0 0-29-29z" class="cls-10" style="fill:#231f20;stroke-width:1.15678" transform="translate(-224 -375)"/><path d="M713 540a26 26 0 1 1 25-20 26 26 0 0 1-25 20z" class="cls-11" style="fill:#3eb167;stroke-width:1.15678" transform="translate(-224 -375)"/><path d="M713 486v5a22 22 0 0 1 5 1 23 23 0 0 1-5 45 23 23 0 0 1-5-1 23 23 0 0 1 5-45v-5m0 0a29 29 0 1 0 7 0 29 29 0 0 0-7 0z" class="cls-10" style="fill:#231f20;stroke-width:1.15678" transform="translate(-224 -375)"/><path d="M744 571a26 26 0 1 1 26-26 26 26 0 0 1-26 26z" class="cls-11" style="fill:#3eb167;stroke-width:1.15678" transform="translate(-224 -375)"/><path d="M744 522a23 23 0 1 1-22 23 23 23 0 0 1 22-23m0-5a29 29 0 1 0 29 28 29 29 0 0 0-29-28z" class="cls-10" style="fill:#231f20;stroke-width:1.15678" transform="translate(-224 -375)"/><path d="M789 595a5 5 0 0 1-3-1l-32-32a5 5 0 1 1 7-7l32 32a5 5 0 0 1-4 8z" class="cls-10" style="fill:#231f20;stroke-width:1.15678" transform="translate(-224 -375)"/></svg>