<svg xmlns="http://www.w3.org/2000/svg" viewBox="0 0 600 300"><g data-paper-data="{&quot;isPaintingLayer&quot;:true}" stroke-width="0" stroke-miterlimit="10" style="mix-blend-mode:normal"><path d="M0 300V0h600v300z" fill="#0fbd8c"/><path d="m17 19-2-2V6l2-2h11l2 2v11l-2 2zm20 0-2-2V6l2-2h11l2 2v11l-2 2zm20 0-2-2V6l2-2h10c2 0 3 1 3 2v11c0 1-1 2-3 2z" fill="#fff"/><path d="M77 19c-2 0-3-1-3-2V6c0-1 1-2 3-2h10l2 2v11l-2 2z" fill="#0da57a"/><path d="m96 19-2-2V6l2-2h11l2 2v11l-2 2z" fill="#fff"/><path d="m116 19-2-2V6l2-2h10c2 0 3 1 3 2v11c0 1-1 2-3 2z" fill="#0da57a"/><path d="M136 19c-2 0-3-1-3-2V6c0-1 1-2 3-2h10l2 2v11l-2 2z" fill="#fff"/><path d="m155 19-2-2V6l2-2h11l2 2v11l-2 2z" fill="#0da57a"/><path d="m175 19-2-2V6l2-2h10c2 0 3 1 3 2v11c0 1-1 2-3 2z" fill="#fff"/><path d="M195 19c-2 0-3-1-3-2V6c0-1 1-2 3-2h10l2 2v11l-2 2z" fill="#0da57a"/><path d="m214 19-2-2V6l2-2h11l2 2v11l-2 2z" fill="#fff"/><path d="m234 19-2-2V6l2-2h11l2 2v11l-2 2z" fill="#0da57a"/><path d="M254 19c-2 0-2-1-2-2V6c0-1 0-2 2-2h10l2 2v11l-2 2zM17 39l-2-2V26l2-2h11l2 2v11l-2 2zm20 0-2-2V26l2-2h11l2 2v11l-2 2z" fill="#fff"/><path d="m57 39-2-2V26l2-2h10c2 0 3 1 3 2v11c0 1-1 2-3 2z" fill="#0da57a"/><path d="M77 39c-2 0-3-1-3-2V26c0-1 1-2 3-2h10l2 2v11l-2 2z" fill="#fff"/><path d="m96 39-2-2V26l2-2h11l2 2v11l-2 2z" fill="#0da57a"/><path d="m116 39-2-2V26l2-2h10c2 0 3 1 3 2v11c0 1-1 2-3 2z" fill="#fff"/><path d="M136 39c-2 0-3-1-3-2V26c0-1 1-2 3-2h10l2 2v11l-2 2z" fill="#0da57a"/><path d="m155 39-2-2V26l2-2h11l2 2v11l-2 2z" fill="#fff"/><path d="m175 39-2-2V26l2-2h10c2 0 3 1 3 2v11c0 1-1 2-3 2z" fill="#0da57a"/><path d="M195 39c-2 0-3-1-3-2V26c0-1 1-2 3-2h10l2 2v11l-2 2z" fill="#fff"/><path d="m214 39-2-2V26l2-2h11l2 2v11l-2 2z" fill="#0da57a"/><path d="m234 39-2-2V26l2-2h11l2 2v11l-2 2z" fill="#fff"/><path d="M254 39c-2 0-2-1-2-2V26c0-1 0-2 2-2h10l2 2v11l-2 2z" fill="#0da57a"/><path d="M17 59c-1 0-2-1-2-3V46l2-2h11l2 2v10c0 2-1 3-2 3z" fill="#fff"/><path d="M37 59c-1 0-2-1-2-3V46l2-2h11l2 2v10c0 2-1 3-2 3zm20 0c-1 0-2-1-2-3V46l2-2h10c2 0 3 1 3 2v10c0 2-1 3-3 3zm20 0c-2 0-3-1-3-3V46c0-1 1-2 3-2h10l2 2v10c0 2-1 3-2 3zm19 0c-1 0-2-1-2-3V46l2-2h11l2 2v10c0 2-1 3-2 3zm20 0c-1 0-2-1-2-3V46l2-2h10c2 0 3 1 3 2v10c0 2-1 3-3 3zm20 0c-2 0-3-1-3-3V46c0-1 1-2 3-2h10l2 2v10c0 2-1 3-2 3zm19 0c-1 0-2-1-2-3V46l2-2h11l2 2v10c0 2-1 3-2 3zm20 0c-1 0-2-1-2-3V46l2-2h10c2 0 3 1 3 2v10c0 2-1 3-3 3zm20 0c-2 0-3-1-3-3V46c0-1 1-2 3-2h10l2 2v10c0 2-1 3-2 3zm19 0c-1 0-2-1-2-3V46l2-2h11l2 2v10c0 2-1 3-2 3zm20 0c-1 0-2-1-2-3V46l2-2h11l2 2v10c0 2-1 3-2 3zm20 0c-2 0-2-1-2-3V46c0-1 0-2 2-2h10l2 2v10c0 2-1 3-2 3zM17 78l-2-2V66c0-2 1-3 2-3h11c1 0 2 1 2 3v10l-2 2z" fill="#0da57a"/><path d="m37 78-2-2V66c0-2 1-3 2-3h11c1 0 2 1 2 3v10l-2 2z" fill="#fff"/><path d="m57 78-2-2V66c0-2 1-3 2-3h10c2 0 3 1 3 3v10c0 1-1 2-3 2z" fill="#0da57a"/><path d="M77 78c-2 0-3-1-3-2V66c0-2 1-3 3-3h10c1 0 2 1 2 3v10l-2 2z" fill="#fff"/><path d="m96 78-2-2V66c0-2 1-3 2-3h11c1 0 2 1 2 3v10l-2 2zm20 0-2-2V66c0-2 1-3 2-3h10c2 0 3 1 3 3v10c0 1-1 2-3 2zm20 0c-2 0-3-1-3-2V66c0-2 1-3 3-3h10c1 0 2 1 2 3v10l-2 2z" fill="#0da57a"/><path d="m155 78-2-2V66c0-2 1-3 2-3h11c1 0 2 1 2 3v10l-2 2z" fill="#fff"/><path d="m175 78-2-2V66c0-2 1-3 2-3h10c2 0 3 1 3 3v10c0 1-1 2-3 2zm20 0c-2 0-3-1-3-2V66c0-2 1-3 3-3h10c1 0 2 1 2 3v10l-2 2z" fill="#0da57a"/><path d="m214 78-2-2V66c0-2 1-3 2-3h11c1 0 2 1 2 3v10l-2 2zm20 0-2-2V66c0-2 1-3 2-3h11c1 0 2 1 2 3v10l-2 2z" fill="#fff"/><path d="M254 78c-2 0-2-1-2-2V66c0-2 0-3 2-3h10c1 0 2 1 2 3v10l-2 2z" fill="#0da57a"/><path d="m17 98-2-2V85l2-2h11l2 2v11l-2 2z" fill="#fff"/><path d="m37 98-2-2V85l2-2h11l2 2v11l-2 2zm20 0-2-2V85l2-2h10c2 0 3 1 3 2v11c0 1-1 2-3 2z" fill="#0da57a"/><path d="M77 98c-2 0-3-1-3-2V85c0-1 1-2 3-2h10l2 2v11l-2 2zm19 0-2-2V85l2-2h11l2 2v11l-2 2z" fill="#fff"/><path d="m116 98-2-2V85l2-2h10c2 0 3 1 3 2v11c0 1-1 2-3 2z" fill="#0da57a"/><path d="M136 98c-2 0-3-1-3-2V85c0-1 1-2 3-2h10l2 2v11l-2 2zm19 0-2-2V85l2-2h11l2 2v11l-2 2z" fill="#fff"/><path d="m175 98-2-2V85l2-2h10c2 0 3 1 3 2v11c0 1-1 2-3 2z" fill="#0da57a"/><path d="M195 98c-2 0-3-1-3-2V85c0-1 1-2 3-2h10l2 2v11l-2 2z" fill="#fff"/><path d="m214 98-2-2V85l2-2h11l2 2v11l-2 2z" fill="#0da57a"/><path d="m234 98-2-2V85l2-2h11l2 2v11l-2 2z" fill="#fff"/><path d="M254 98c-2 0-2-1-2-2V85c0-1 0-2 2-2h10l2 2v11l-2 2zM17 118c-1 0-2-1-2-3v-10l2-2h11l2 2v10c0 2-1 3-2 3z" fill="#0da57a"/><path d="M37 118c-1 0-2-1-2-3v-10l2-2h11l2 2v10c0 2-1 3-2 3z" fill="#fff"/><path d="M57 118c-1 0-2-1-2-3v-10l2-2h10c2 0 3 1 3 2v10c0 2-1 3-3 3z" fill="#0da57a"/><path d="M77 118c-2 0-3-1-3-3v-10c0-1 1-2 3-2h10l2 2v10c0 2-1 3-2 3z" fill="#fff"/><path d="M96 118c-1 0-2-1-2-3v-10l2-2h11l2 2v10c0 2-1 3-2 3z" fill="#0da57a"/><path d="M116 118c-1 0-2-1-2-3v-10l2-2h10c2 0 3 1 3 2v10c0 2-1 3-3 3z" fill="#fff"/><path d="M136 118c-2 0-3-1-3-3v-10c0-1 1-2 3-2h10l2 2v10c0 2-1 3-2 3z" fill="#0da57a"/><path d="M155 118c-1 0-2-1-2-3v-10l2-2h11l2 2v10c0 2-1 3-2 3z" fill="#fff"/><path d="M175 118c-1 0-2-1-2-3v-10l2-2h10c2 0 3 1 3 2v10c0 2-1 3-3 3z" fill="#0da57a"/><path d="M195 118c-2 0-3-1-3-3v-10c0-1 1-2 3-2h10l2 2v10c0 2-1 3-2 3zm19 0c-1 0-2-1-2-3v-10l2-2h11l2 2v10c0 2-1 3-2 3zm20 0c-1 0-2-1-2-3v-10l2-2h11l2 2v10c0 2-1 3-2 3z" fill="#fff"/><path d="M254 118c-2 0-2-1-2-3v-10c0-1 0-2 2-2h10l2 2v10c0 2-1 3-2 3z" fill="#0da57a"/><path d="m17 137-2-2v-10c0-2 1-3 2-3h11c1 0 2 1 2 3v10l-2 2z" fill="#fff"/><path d="m37 137-2-2v-10c0-2 1-3 2-3h11c1 0 2 1 2 3v10l-2 2zm20 0-2-2v-10c0-2 1-3 2-3h10c2 0 3 1 3 3v10c0 1-1 2-3 2z" fill="#0da57a"/><path d="M77 137c-2 0-3-1-3-2v-10c0-2 1-3 3-3h10c1 0 2 1 2 3v10l-2 2z" fill="#fff"/><path d="m96 137-2-2v-10c0-2 1-3 2-3h11c1 0 2 1 2 3v10l-2 2zm20 0-2-2v-10c0-2 1-3 2-3h10c2 0 3 1 3 3v10c0 1-1 2-3 2zm20 0c-2 0-3-1-3-2v-10c0-2 1-3 3-3h10c1 0 2 1 2 3v10l-2 2z" fill="#0da57a"/><path d="m155 137-2-2v-10c0-2 1-3 2-3h11c1 0 2 1 2 3v10l-2 2z" fill="#fff"/><path d="m175 137-2-2v-10c0-2 1-3 2-3h10c2 0 3 1 3 3v10c0 1-1 2-3 2z" fill="#0da57a"/><path d="M195 137c-2 0-3-1-3-2v-10c0-2 1-3 3-3h10c1 0 2 1 2 3v10l-2 2z" fill="#fff"/><path d="m214 137-2-2v-10c0-2 1-3 2-3h11c1 0 2 1 2 3v10l-2 2z" fill="#0da57a"/><path d="m234 137-2-2v-10c0-2 1-3 2-3h11c1 0 2 1 2 3v10l-2 2z" fill="#fff"/><path d="M254 137c-2 0-2-1-2-2v-10c0-2 0-3 2-3h10c1 0 2 1 2 3v10l-2 2z" fill="#0da57a"/><path d="m274 19-2-2V6l2-2h11l2 2v11l-2 2zm0 20-2-2V26l2-2h11l2 2v11l-2 2z" fill="#fff"/><path d="M274 59c-1 0-2-1-2-3V46l2-2h11l2 2v10c0 2-1 3-2 3z" fill="#0da57a"/><path d="m274 78-2-2V66c0-2 1-3 2-3h11c1 0 2 1 2 3v10l-2 2z" fill="#fff"/><path d="m274 98-2-2V85l2-2h11l2 2v11l-2 2zm0 20c-1 0-2-1-2-3v-10l2-2h11l2 2v10c0 2-1 3-2 3zm0 19-2-2v-10c0-2 1-3 2-3h11c1 0 2 1 2 3v10l-2 2z" fill="#0da57a"/><path d="m17 157-2-2v-11l2-2h11l2 2v11l-2 2zm20 0-2-2v-11l2-2h11l2 2v11l-2 2z" fill="#fff"/><path d="m57 157-2-2v-11l2-2h10c2 0 3 1 3 2v11c0 1-1 2-3 2z" fill="#0da57a"/><path d="M77 157c-2 0-3-1-3-2v-11c0-1 1-2 3-2h10l2 2v11l-2 2z" fill="#fff"/><path d="m96 157-2-2v-11l2-2h11l2 2v11l-2 2zm20 0-2-2v-11l2-2h10c2 0 3 1 3 2v11c0 1-1 2-3 2zm20 0c-2 0-3-1-3-2v-11c0-1 1-2 3-2h10l2 2v11l-2 2z" fill="#0da57a"/><path d="m155 157-2-2v-11l2-2h11l2 2v11l-2 2z" fill="#fff"/><path d="m175 157-2-2v-11l2-2h10c2 0 3 1 3 2v11c0 1-1 2-3 2z" fill="#0da57a"/><path d="M195 157c-2 0-3-1-3-2v-11c0-1 1-2 3-2h10l2 2v11l-2 2z" fill="#fff"/><path d="m214 157-2-2v-11l2-2h11l2 2v11l-2 2z" fill="#0da57a"/><path d="m234 157-2-2v-11l2-2h11l2 2v11l-2 2z" fill="#fff"/><path d="M254 157c-2 0-2-1-2-2v-11c0-1 0-2 2-2h10l2 2v11l-2 2z" fill="#0da57a"/><path d="m17 177-2-2v-11l2-2h11l2 2v11l-2 2z" fill="#fff"/><path d="m37 177-2-2v-11l2-2h11l2 2v11l-2 2zm20 0-2-2v-11l2-2h10c2 0 3 1 3 2v11c0 1-1 2-3 2zm20 0c-2 0-3-1-3-2v-11c0-1 1-2 3-2h10l2 2v11l-2 2zm19 0-2-2v-11l2-2h11l2 2v11l-2 2zm20 0-2-2v-11l2-2h10c2 0 3 1 3 2v11c0 1-1 2-3 2zm20 0c-2 0-3-1-3-2v-11c0-1 1-2 3-2h10l2 2v11l-2 2zm19 0-2-2v-11l2-2h11l2 2v11l-2 2zm20 0-2-2v-11l2-2h10c2 0 3 1 3 2v11c0 1-1 2-3 2zm20 0c-2 0-3-1-3-2v-11c0-1 1-2 3-2h10l2 2v11l-2 2zm19 0-2-2v-11l2-2h11l2 2v11l-2 2zm20 0-2-2v-11l2-2h11l2 2v11l-2 2zm20 0c-2 0-2-1-2-2v-11c0-1 0-2 2-2h10l2 2v11l-2 2zM17 196c-1 0-2 0-2-2v-10l2-2h11l2 2v10c0 2-1 2-2 2z" fill="#0da57a"/><path d="M37 196c-1 0-2 0-2-2v-10l2-2h11l2 2v10c0 2-1 2-2 2z" fill="#fff"/><path d="M57 196c-1 0-2 0-2-2v-10l2-2h10c2 0 3 1 3 2v10c0 2-1 2-3 2zm20 0c-2 0-3 0-3-2v-10c0-1 1-2 3-2h10l2 2v10c0 2-1 2-2 2zm19 0c-1 0-2 0-2-2v-10l2-2h11l2 2v10c0 2-1 2-2 2z" fill="#0da57a"/><path d="M116 196c-1 0-2 0-2-2v-10l2-2h10c2 0 3 1 3 2v10c0 2-1 2-3 2z" fill="#fff"/><path d="M136 196c-2 0-3 0-3-2v-10c0-1 1-2 3-2h10l2 2v10c0 2-1 2-2 2zm19 0c-1 0-2 0-2-2v-10l2-2h11l2 2v10c0 2-1 2-2 2zm20 0c-1 0-2 0-2-2v-10l2-2h10c2 0 3 1 3 2v10c0 2-1 2-3 2zm20 0c-2 0-3 0-3-2v-10c0-1 1-2 3-2h10l2 2v10c0 2-1 2-2 2zm19 0c-1 0-2 0-2-2v-10l2-2h11l2 2v10c0 2-1 2-2 2zm20 0c-1 0-2 0-2-2v-10l2-2h11l2 2v10c0 2-1 2-2 2zm20 0c-2 0-2 0-2-2v-10c0-1 0-2 2-2h10l2 2v10c0 2-1 2-2 2z" fill="#0da57a"/><path d="m17 216-2-2v-11l2-2h11l2 2v11l-2 2z" fill="#fff"/><path d="m37 216-2-2v-11l2-2h11l2 2v11l-2 2zm20 0-2-2v-11l2-2h10c2 0 3 1 3 2v11c0 1-1 2-3 2zm20 0c-2 0-3-1-3-2v-11c0-1 1-2 3-2h10l2 2v11l-2 2z" fill="#0da57a"/><path d="m96 216-2-2v-11l2-2h11l2 2v11l-2 2zm20 0-2-2v-11l2-2h10c2 0 3 1 3 2v11c0 1-1 2-3 2zm20 0c-2 0-3-1-3-2v-11c0-1 1-2 3-2h10l2 2v11l-2 2z" fill="#fff"/><path d="m155 216-2-2v-11l2-2h11l2 2v11l-2 2zm20 0-2-2v-11l2-2h10c2 0 3 1 3 2v11c0 1-1 2-3 2zm20 0c-2 0-3-1-3-2v-11c0-1 1-2 3-2h10l2 2v11l-2 2zm19 0-2-2v-11l2-2h11l2 2v11l-2 2zm20 0-2-2v-11l2-2h11l2 2v11l-2 2zm20 0c-2 0-2-1-2-2v-11c0-1 0-2 2-2h10l2 2v11l-2 2zM17 236l-2-2v-11l2-2h11l2 2v11l-2 2z" fill="#0da57a"/><path d="m37 236-2-2v-11l2-2h11l2 2v11l-2 2z" fill="#fff"/><path d="m57 236-2-2v-11l2-2h10c2 0 3 1 3 2v11c0 1-1 2-3 2zm20 0c-2 0-3-1-3-2v-11c0-1 1-2 3-2h10l2 2v11l-2 2zm19 0-2-2v-11l2-2h11l2 2v11l-2 2z" fill="#0da57a"/><path d="m116 236-2-2v-11l2-2h10c2 0 3 1 3 2v11c0 1-1 2-3 2z" fill="#fff"/><path d="M136 236c-2 0-3-1-3-2v-11c0-1 1-2 3-2h10l2 2v11l-2 2zm19 0-2-2v-11l2-2h11l2 2v11l-2 2zm20 0-2-2v-11l2-2h10c2 0 3 1 3 2v11c0 1-1 2-3 2zm20 0c-2 0-3-1-3-2v-11c0-1 1-2 3-2h10l2 2v11l-2 2zm19 0-2-2v-11l2-2h11l2 2v11l-2 2zm20 0-2-2v-11l2-2h11l2 2v11l-2 2zm20 0c-2 0-2-1-2-2v-11c0-1 0-2 2-2h10l2 2v11l-2 2z" fill="#0da57a"/><path d="M17 256c-1 0-2-1-2-3v-10l2-2h11l2 2v10c0 2-1 3-2 3z" fill="#fff"/><path d="M37 256c-1 0-2-1-2-3v-10l2-2h11l2 2v10c0 2-1 3-2 3zm20 0c-1 0-2-1-2-3v-10l2-2h10c2 0 3 1 3 2v10c0 2-1 3-3 3zm20 0c-2 0-3-1-3-3v-10c0-1 1-2 3-2h10l2 2v10c0 2-1 3-2 3zm19 0c-1 0-2-1-2-3v-10l2-2h11l2 2v10c0 2-1 3-2 3zm20 0c-1 0-2-1-2-3v-10l2-2h10c2 0 3 1 3 2v10c0 2-1 3-3 3zm20 0c-2 0-3-1-3-3v-10c0-1 1-2 3-2h10l2 2v10c0 2-1 3-2 3zm19 0c-1 0-2-1-2-3v-10l2-2h11l2 2v10c0 2-1 3-2 3zm20 0c-1 0-2-1-2-3v-10l2-2h10c2 0 3 1 3 2v10c0 2-1 3-3 3zm20 0c-2 0-3-1-3-3v-10c0-1 1-2 3-2h10l2 2v10c0 2-1 3-2 3zm19 0c-1 0-2-1-2-3v-10l2-2h11l2 2v10c0 2-1 3-2 3zm20 0c-1 0-2-1-2-3v-10l2-2h11l2 2v10c0 2-1 3-2 3zm20 0c-2 0-2-1-2-3v-10c0-1 0-2 2-2h10l2 2v10c0 2-1 3-2 3z" fill="#0da57a"/><path d="m17 275-2-2v-10c0-2 1-3 2-3h11c1 0 2 1 2 3v10l-2 2zm20 0-2-2v-10c0-2 1-3 2-3h11c1 0 2 1 2 3v10l-2 2z" fill="#fff"/><path d="m57 275-2-2v-10c0-2 1-3 2-3h10c2 0 3 1 3 3v10c0 1-1 2-3 2z" fill="#0da57a"/><path d="M77 275c-2 0-3-1-3-2v-10c0-2 1-3 3-3h10c1 0 2 1 2 3v10l-2 2z" fill="#fff"/><path d="m96 275-2-2v-10c0-2 1-3 2-3h11c1 0 2 1 2 3v10l-2 2z" fill="#0da57a"/><path d="m116 275-2-2v-10c0-2 1-3 2-3h10c2 0 3 1 3 3v10c0 1-1 2-3 2z" fill="#fff"/><path d="M136 275c-2 0-3-1-3-2v-10c0-2 1-3 3-3h10c1 0 2 1 2 3v10l-2 2z" fill="#0da57a"/><path d="m155 275-2-2v-10c0-2 1-3 2-3h11c1 0 2 1 2 3v10l-2 2z" fill="#fff"/><path d="m175 275-2-2v-10c0-2 1-3 2-3h10c2 0 3 1 3 3v10c0 1-1 2-3 2z" fill="#0da57a"/><path d="M195 275c-2 0-3-1-3-2v-10c0-2 1-3 3-3h10c1 0 2 1 2 3v10l-2 2z" fill="#fff"/><path d="m214 275-2-2v-10c0-2 1-3 2-3h11c1 0 2 1 2 3v10l-2 2z" fill="#0da57a"/><path d="m234 275-2-2v-10c0-2 1-3 2-3h11c1 0 2 1 2 3v10l-2 2z" fill="#fff"/><path d="M254 275c-2 0-2-1-2-2v-10c0-2 0-3 2-3h10c1 0 2 1 2 3v10l-2 2zm20-118-2-2v-11l2-2h11l2 2v11l-2 2zm0 20-2-2v-11l2-2h11l2 2v11l-2 2zm0 19c-1 0-2 0-2-2v-10l2-2h11l2 2v10c0 2-1 2-2 2z" fill="#0da57a"/><path d="m274 216-2-2v-11l2-2h11l2 2v11l-2 2z" fill="#fff"/><path d="m274 236-2-2v-11l2-2h11l2 2v11l-2 2zm0 20c-1 0-2-1-2-3v-10l2-2h11l2 2v10c0 2-1 3-2 3z" fill="#0da57a"/><path d="m274 275-2-2v-10c0-2 1-3 2-3h11c1 0 2 1 2 3v10l-2 2zm20-256-2-2V6l2-2h11l2 2v11l-2 2zm20 0-2-2V6l2-2h11l2 2v11l-2 2zm20 0-2-2V6l2-2h10l2 2v11l-2 2z" fill="#fff"/><path d="m353 19-2-2V6l2-2h11l2 2v11l-2 2z" fill="#0da57a"/><path d="m373 19-2-2V6l2-2h11l2 2v11l-2 2z" fill="#fff"/><path d="m393 19-2-2V6l2-2h10l2 2v11l-2 2z" fill="#0da57a"/><path d="m412 19-2-2V6l2-2h11l2 2v11l-2 2z" fill="#fff"/><path d="m432 19-2-2V6l2-2h11l2 2v11l-2 2z" fill="#0da57a"/><path d="m452 19-2-2V6l2-2h10c2 0 3 1 3 2v11c0 1-1 2-3 2z" fill="#fff"/><path d="M472 19c-2 0-3-1-3-2V6c0-1 1-2 3-2h10l2 2v11l-2 2z" fill="#0da57a"/><path d="m491 19-2-2V6l2-2h11l2 2v11l-2 2z" fill="#fff"/><path d="m511 19-2-2V6l2-2h10c2 0 3 1 3 2v11c0 1-1 2-3 2z" fill="#0da57a"/><path d="M531 19c-2 0-3-1-3-2V6c0-1 1-2 3-2h10l2 2v11l-2 2z" fill="#fff"/><path d="m294 39-2-2V26l2-2h11l2 2v11l-2 2z" fill="#0da57a"/><path d="m314 39-2-2V26l2-2h11l2 2v11l-2 2z" fill="#fff"/><path d="m334 39-2-2V26l2-2h10l2 2v11l-2 2z" fill="#0da57a"/><path d="m353 39-2-2V26l2-2h11l2 2v11l-2 2z" fill="#fff"/><path d="m373 39-2-2V26l2-2h11l2 2v11l-2 2z" fill="#0da57a"/><path d="m393 39-2-2V26l2-2h10l2 2v11l-2 2z" fill="#fff"/><path d="m412 39-2-2V26l2-2h11l2 2v11l-2 2z" fill="#0da57a"/><path d="m432 39-2-2V26l2-2h11l2 2v11l-2 2z" fill="#fff"/><path d="m452 39-2-2V26l2-2h10c2 0 3 1 3 2v11c0 1-1 2-3 2z" fill="#0da57a"/><path d="M472 39c-2 0-3-1-3-2V26c0-1 1-2 3-2h10l2 2v11l-2 2z" fill="#fff"/><path d="m491 39-2-2V26l2-2h11l2 2v11l-2 2z" fill="#0da57a"/><path d="m511 39-2-2V26l2-2h10c2 0 3 1 3 2v11c0 1-1 2-3 2z" fill="#fff"/><path d="M531 39c-2 0-3-1-3-2V26c0-1 1-2 3-2h10l2 2v11l-2 2zM294 59c-1 0-2-1-2-3V46l2-2h11l2 2v10c0 2-1 3-2 3zm20 0c-1 0-2-1-2-3V46l2-2h11l2 2v10c0 2-1 3-2 3zm20 0c-1 0-2-1-2-3V46l2-2h10l2 2v10c0 2-1 3-2 3zm19 0c-1 0-2-1-2-3V46l2-2h11l2 2v10c0 2-1 3-2 3zm20 0c-1 0-2-1-2-3V46l2-2h11l2 2v10c0 2-1 3-2 3zm20 0c-1 0-2-1-2-3V46l2-2h10l2 2v10c0 2-1 3-2 3zm19 0c-1 0-2-1-2-3V46l2-2h11l2 2v10c0 2-1 3-2 3zm20 0c-1 0-2-1-2-3V46l2-2h11l2 2v10c0 2-1 3-2 3zm20 0c-1 0-2-1-2-3V46l2-2h10c2 0 3 1 3 2v10c0 2-1 3-3 3zm20 0c-2 0-3-1-3-3V46c0-1 1-2 3-2h10l2 2v10c0 2-1 3-2 3zm19 0c-1 0-2-1-2-3V46l2-2h11l2 2v10c0 2-1 3-2 3zm20 0c-1 0-2-1-2-3V46l2-2h10c2 0 3 1 3 2v10c0 2-1 3-3 3zm20 0c-2 0-3-1-3-3V46c0-1 1-2 3-2h10l2 2v10c0 2-1 3-2 3z" fill="#0da57a"/><path d="m294 78-2-2V66c0-2 1-3 2-3h11c1 0 2 1 2 3v10l-2 2zm20 0-2-2V66c0-2 1-3 2-3h11c1 0 2 1 2 3v10l-2 2z" fill="#fff"/><path d="m334 78-2-2V66c0-2 1-3 2-3h10c1 0 2 1 2 3v10l-2 2z" fill="#0da57a"/><path d="m353 78-2-2V66c0-2 1-3 2-3h11c1 0 2 1 2 3v10l-2 2zm20 0-2-2V66c0-2 1-3 2-3h11c1 0 2 1 2 3v10l-2 2zm20 0-2-2V66c0-2 1-3 2-3h10c1 0 2 1 2 3v10l-2 2z" fill="#fff"/><path d="m412 78-2-2V66c0-2 1-3 2-3h11c1 0 2 1 2 3v10l-2 2z" fill="#0da57a"/><path d="m432 78-2-2V66c0-2 1-3 2-3h11c1 0 2 1 2 3v10l-2 2z" fill="#fff"/><path d="m452 78-2-2V66c0-2 1-3 2-3h10c2 0 3 1 3 3v10c0 1-1 2-3 2z" fill="#0da57a"/><path d="M472 78c-2 0-3-1-3-2V66c0-2 1-3 3-3h10c1 0 2 1 2 3v10l-2 2z" fill="#fff"/><path d="m491 78-2-2V66c0-2 1-3 2-3h11c1 0 2 1 2 3v10l-2 2z" fill="#0da57a"/><path d="m511 78-2-2V66c0-2 1-3 2-3h10c2 0 3 1 3 3v10c0 1-1 2-3 2z" fill="#fff"/><path d="M531 78c-2 0-3-1-3-2V66c0-2 1-3 3-3h10c1 0 2 1 2 3v10l-2 2z" fill="#0da57a"/><path d="m294 98-2-2V85l2-2h11l2 2v11l-2 2z" fill="#fff"/><path d="m314 98-2-2V85l2-2h11l2 2v11l-2 2zm20 0-2-2V85l2-2h10l2 2v11l-2 2z" fill="#0da57a"/><path d="m353 98-2-2V85l2-2h11l2 2v11l-2 2z" fill="#fff"/><path d="m373 98-2-2V85l2-2h11l2 2v11l-2 2z" fill="#0da57a"/><path d="m393 98-2-2V85l2-2h10l2 2v11l-2 2z" fill="#fff"/><path d="m412 98-2-2V85l2-2h11l2 2v11l-2 2z" fill="#0da57a"/><path d="m432 98-2-2V85l2-2h11l2 2v11l-2 2z" fill="#fff"/><path d="m452 98-2-2V85l2-2h10c2 0 3 1 3 2v11c0 1-1 2-3 2z" fill="#0da57a"/><path d="M472 98c-2 0-3-1-3-2V85c0-1 1-2 3-2h10l2 2v11l-2 2z" fill="#fff"/><path d="m491 98-2-2V85l2-2h11l2 2v11l-2 2z" fill="#0da57a"/><path d="m511 98-2-2V85l2-2h10c2 0 3 1 3 2v11c0 1-1 2-3 2z" fill="#fff"/><path d="M531 98c-2 0-3-1-3-2V85c0-1 1-2 3-2h10l2 2v11l-2 2z" fill="#0da57a"/><path d="M294 118c-1 0-2-1-2-3v-10l2-2h11l2 2v10c0 2-1 3-2 3z" fill="#fff"/><path d="M314 118c-1 0-2-1-2-3v-10l2-2h11l2 2v10c0 2-1 3-2 3zm20 0c-1 0-2-1-2-3v-10l2-2h10l2 2v10c0 2-1 3-2 3z" fill="#0da57a"/><path d="M353 118c-1 0-2-1-2-3v-10l2-2h11l2 2v10c0 2-1 3-2 3zm20 0c-1 0-2-1-2-3v-10l2-2h11l2 2v10c0 2-1 3-2 3z" fill="#fff"/><path d="M393 118c-1 0-2-1-2-3v-10l2-2h10l2 2v10c0 2-1 3-2 3zm19 0c-1 0-2-1-2-3v-10l2-2h11l2 2v10c0 2-1 3-2 3z" fill="#0da57a"/><path d="M432 118c-1 0-2-1-2-3v-10l2-2h11l2 2v10c0 2-1 3-2 3z" fill="#fff"/><path d="M452 118c-1 0-2-1-2-3v-10l2-2h10c2 0 3 1 3 2v10c0 2-1 3-3 3zm20 0c-2 0-3-1-3-3v-10c0-1 1-2 3-2h10l2 2v10c0 2-1 3-2 3z" fill="#0da57a"/><path d="M491 118c-1 0-2-1-2-3v-10l2-2h11l2 2v10c0 2-1 3-2 3z" fill="#fff"/><path d="M511 118c-1 0-2-1-2-3v-10l2-2h10c2 0 3 1 3 2v10c0 2-1 3-3 3zm20 0c-2 0-3-1-3-3v-10c0-1 1-2 3-2h10l2 2v10c0 2-1 3-2 3z" fill="#0da57a"/><path d="m294 137-2-2v-10c0-2 1-3 2-3h11c1 0 2 1 2 3v10l-2 2z" fill="#fff"/><path d="m314 137-2-2v-10c0-2 1-3 2-3h11c1 0 2 1 2 3v10l-2 2zm20 0-2-2v-10c0-2 1-3 2-3h10c1 0 2 1 2 3v10l-2 2z" fill="#0da57a"/><path d="m353 137-2-2v-10c0-2 1-3 2-3h11c1 0 2 1 2 3v10l-2 2z" fill="#fff"/><path d="m373 137-2-2v-10c0-2 1-3 2-3h11c1 0 2 1 2 3v10l-2 2z" fill="#0da57a"/><path d="m393 137-2-2v-10c0-2 1-3 2-3h10c1 0 2 1 2 3v10l-2 2z" fill="#fff"/><path d="m412 137-2-2v-10c0-2 1-3 2-3h11c1 0 2 1 2 3v10l-2 2z" fill="#0da57a"/><path d="m432 137-2-2v-10c0-2 1-3 2-3h11c1 0 2 1 2 3v10l-2 2z" fill="#fff"/><path d="m452 137-2-2v-10c0-2 1-3 2-3h10c2 0 3 1 3 3v10c0 1-1 2-3 2z" fill="#0da57a"/><path d="M472 137c-2 0-3-1-3-2v-10c0-2 1-3 3-3h10c1 0 2 1 2 3v10l-2 2z" fill="#fff"/><path d="m491 137-2-2v-10c0-2 1-3 2-3h11c1 0 2 1 2 3v10l-2 2z" fill="#0da57a"/><path d="m511 137-2-2v-10c0-2 1-3 2-3h10c2 0 3 1 3 3v10c0 1-1 2-3 2z" fill="#fff"/><path d="M531 137c-2 0-3-1-3-2v-10c0-2 1-3 3-3h10c1 0 2 1 2 3v10l-2 2z" fill="#0da57a"/><path d="m551 19-2-2V6l2-2h11l2 2v11l-2 2zm0 20-2-2V26l2-2h11l2 2v11l-2 2z" fill="#fff"/><path d="M551 59c-1 0-2-1-2-3V46l2-2h11l2 2v10c0 2-1 3-2 3z" fill="#0da57a"/><path d="m551 78-2-2V66c0-2 1-3 2-3h11c1 0 2 1 2 3v10l-2 2z" fill="#fff"/><path d="m551 98-2-2V85l2-2h11l2 2v11l-2 2z" fill="#0da57a"/><path d="M551 118c-1 0-2-1-2-3v-10l2-2h11l2 2v10c0 2-1 3-2 3z" fill="#fff"/><path d="m551 137-2-2v-10c0-2 1-3 2-3h11c1 0 2 1 2 3v10l-2 2z" fill="#0da57a"/><path d="m294 157-2-2v-11l2-2h11l2 2v11l-2 2z" fill="#fff"/><path d="m314 157-2-2v-11l2-2h11l2 2v11l-2 2zm20 0-2-2v-11l2-2h10l2 2v11l-2 2z" fill="#0da57a"/><path d="m353 157-2-2v-11l2-2h11l2 2v11l-2 2z" fill="#fff"/><path d="m373 157-2-2v-11l2-2h11l2 2v11l-2 2z" fill="#0da57a"/><path d="m393 157-2-2v-11l2-2h10l2 2v11l-2 2z" fill="#fff"/><path d="m412 157-2-2v-11l2-2h11l2 2v11l-2 2z" fill="#0da57a"/><path d="m432 157-2-2v-11l2-2h11l2 2v11l-2 2z" fill="#fff"/><path d="m452 157-2-2v-11l2-2h10c2 0 3 1 3 2v11c0 1-1 2-3 2z" fill="#0da57a"/><path d="M472 157c-2 0-3-1-3-2v-11c0-1 1-2 3-2h10l2 2v11l-2 2z" fill="#fff"/><path d="m491 157-2-2v-11l2-2h11l2 2v11l-2 2z" fill="#0da57a"/><path d="m511 157-2-2v-11l2-2h10c2 0 3 1 3 2v11c0 1-1 2-3 2z" fill="#fff"/><path d="M531 157c-2 0-3-1-3-2v-11c0-1 1-2 3-2h10l2 2v11l-2 2zm-237 20-2-2v-11l2-2h11l2 2v11l-2 2zm20 0-2-2v-11l2-2h11l2 2v11l-2 2zm20 0-2-2v-11l2-2h10l2 2v11l-2 2zm19 0-2-2v-11l2-2h11l2 2v11l-2 2zm20 0-2-2v-11l2-2h11l2 2v11l-2 2zm20 0-2-2v-11l2-2h10l2 2v11l-2 2zm19 0-2-2v-11l2-2h11l2 2v11l-2 2zm20 0-2-2v-11l2-2h11l2 2v11l-2 2zm20 0-2-2v-11l2-2h10c2 0 3 1 3 2v11c0 1-1 2-3 2zm20 0c-2 0-3-1-3-2v-11c0-1 1-2 3-2h10l2 2v11l-2 2zm19 0-2-2v-11l2-2h11l2 2v11l-2 2zm20 0-2-2v-11l2-2h10c2 0 3 1 3 2v11c0 1-1 2-3 2zm20 0c-2 0-3-1-3-2v-11c0-1 1-2 3-2h10l2 2v11l-2 2z" fill="#0da57a"/><path d="M294 196c-1 0-2 0-2-2v-10l2-2h11l2 2v10c0 2-1 2-2 2z" fill="#fff"/><path d="M314 196c-1 0-2 0-2-2v-10l2-2h11l2 2v10c0 2-1 2-2 2zm20 0c-1 0-2 0-2-2v-10l2-2h10l2 2v10c0 2-1 2-2 2zm19 0c-1 0-2 0-2-2v-10l2-2h11l2 2v10c0 2-1 2-2 2zm20 0c-1 0-2 0-2-2v-10l2-2h11l2 2v10c0 2-1 2-2 2zm20 0c-1 0-2 0-2-2v-10l2-2h10l2 2v10c0 2-1 2-2 2zm19 0c-1 0-2 0-2-2v-10l2-2h11l2 2v10c0 2-1 2-2 2zm20 0c-1 0-2 0-2-2v-10l2-2h11l2 2v10c0 2-1 2-2 2zm20 0c-1 0-2 0-2-2v-10l2-2h10c2 0 3 1 3 2v10c0 2-1 2-3 2z" fill="#0da57a"/><path d="M472 196c-2 0-3 0-3-2v-10c0-1 1-2 3-2h10l2 2v10c0 2-1 2-2 2z" fill="#fff"/><path d="M491 196c-1 0-2 0-2-2v-10l2-2h11l2 2v10c0 2-1 2-2 2zm20 0c-1 0-2 0-2-2v-10l2-2h10c2 0 3 1 3 2v10c0 2-1 2-3 2zm20 0c-2 0-3 0-3-2v-10c0-1 1-2 3-2h10l2 2v10c0 2-1 2-2 2z" fill="#0da57a"/><path d="m294 216-2-2v-11l2-2h11l2 2v11l-2 2zm20 0-2-2v-11l2-2h11l2 2v11l-2 2z" fill="#fff"/><path d="m334 216-2-2v-11l2-2h10l2 2v11l-2 2zm19 0-2-2v-11l2-2h11l2 2v11l-2 2zm20 0-2-2v-11l2-2h11l2 2v11l-2 2zm20 0-2-2v-11l2-2h10l2 2v11l-2 2zm19 0-2-2v-11l2-2h11l2 2v11l-2 2zm20 0-2-2v-11l2-2h11l2 2v11l-2 2z" fill="#0da57a"/><path d="m452 216-2-2v-11l2-2h10c2 0 3 1 3 2v11c0 1-1 2-3 2zm20 0c-2 0-3-1-3-2v-11c0-1 1-2 3-2h10l2 2v11l-2 2zm19 0-2-2v-11l2-2h11l2 2v11l-2 2z" fill="#fff"/><path d="m511 216-2-2v-11l2-2h10c2 0 3 1 3 2v11c0 1-1 2-3 2zm20 0c-2 0-3-1-3-2v-11c0-1 1-2 3-2h10l2 2v11l-2 2z" fill="#0da57a"/><path d="m294 236-2-2v-11l2-2h11l2 2v11l-2 2z" fill="#fff"/><path d="m314 236-2-2v-11l2-2h11l2 2v11l-2 2zm20 0-2-2v-11l2-2h10l2 2v11l-2 2zm19 0-2-2v-11l2-2h11l2 2v11l-2 2zm20 0-2-2v-11l2-2h11l2 2v11l-2 2zm20 0-2-2v-11l2-2h10l2 2v11l-2 2zm19 0-2-2v-11l2-2h11l2 2v11l-2 2zm20 0-2-2v-11l2-2h11l2 2v11l-2 2zm20 0-2-2v-11l2-2h10c2 0 3 1 3 2v11c0 1-1 2-3 2z" fill="#0da57a"/><path d="M472 236c-2 0-3-1-3-2v-11c0-1 1-2 3-2h10l2 2v11l-2 2z" fill="#fff"/><path d="m491 236-2-2v-11l2-2h11l2 2v11l-2 2zm20 0-2-2v-11l2-2h10c2 0 3 1 3 2v11c0 1-1 2-3 2zm20 0c-2 0-3-1-3-2v-11c0-1 1-2 3-2h10l2 2v11l-2 2zm-237 20c-1 0-2-1-2-3v-10l2-2h11l2 2v10c0 2-1 3-2 3zm20 0c-1 0-2-1-2-3v-10l2-2h11l2 2v10c0 2-1 3-2 3zm20 0c-1 0-2-1-2-3v-10l2-2h10l2 2v10c0 2-1 3-2 3zm19 0c-1 0-2-1-2-3v-10l2-2h11l2 2v10c0 2-1 3-2 3zm20 0c-1 0-2-1-2-3v-10l2-2h11l2 2v10c0 2-1 3-2 3zm20 0c-1 0-2-1-2-3v-10l2-2h10l2 2v10c0 2-1 3-2 3zm19 0c-1 0-2-1-2-3v-10l2-2h11l2 2v10c0 2-1 3-2 3zm20 0c-1 0-2-1-2-3v-10l2-2h11l2 2v10c0 2-1 3-2 3zm20 0c-1 0-2-1-2-3v-10l2-2h10c2 0 3 1 3 2v10c0 2-1 3-3 3zm20 0c-2 0-3-1-3-3v-10c0-1 1-2 3-2h10l2 2v10c0 2-1 3-2 3zm19 0c-1 0-2-1-2-3v-10l2-2h11l2 2v10c0 2-1 3-2 3zm20 0c-1 0-2-1-2-3v-10l2-2h10c2 0 3 1 3 2v10c0 2-1 3-3 3zm20 0c-2 0-3-1-3-3v-10c0-1 1-2 3-2h10l2 2v10c0 2-1 3-2 3zm-237 19-2-2v-10c0-2 1-3 2-3h11c1 0 2 1 2 3v10l-2 2z" fill="#0da57a"/><path d="m314 275-2-2v-10c0-2 1-3 2-3h11c1 0 2 1 2 3v10l-2 2z" fill="#fff"/><path d="m334 275-2-2v-10c0-2 1-3 2-3h10c1 0 2 1 2 3v10l-2 2z" fill="#0da57a"/><path d="m353 275-2-2v-10c0-2 1-3 2-3h11c1 0 2 1 2 3v10l-2 2z" fill="#fff"/><path d="m373 275-2-2v-10c0-2 1-3 2-3h11c1 0 2 1 2 3v10l-2 2z" fill="#0da57a"/><path d="m393 275-2-2v-10c0-2 1-3 2-3h10c1 0 2 1 2 3v10l-2 2z" fill="#fff"/><path d="m412 275-2-2v-10c0-2 1-3 2-3h11c1 0 2 1 2 3v10l-2 2z" fill="#0da57a"/><path d="m432 275-2-2v-10c0-2 1-3 2-3h11c1 0 2 1 2 3v10l-2 2z" fill="#fff"/><path d="m452 275-2-2v-10c0-2 1-3 2-3h10c2 0 3 1 3 3v10c0 1-1 2-3 2z" fill="#0da57a"/><path d="M472 275c-2 0-3-1-3-2v-10c0-2 1-3 3-3h10c1 0 2 1 2 3v10l-2 2z" fill="#fff"/><path d="m491 275-2-2v-10c0-2 1-3 2-3h11c1 0 2 1 2 3v10l-2 2z" fill="#0da57a"/><path d="m511 275-2-2v-10c0-2 1-3 2-3h10c2 0 3 1 3 3v10c0 1-1 2-3 2z" fill="#fff"/><path d="M531 275c-2 0-3-1-3-2v-10c0-2 1-3 3-3h10c1 0 2 1 2 3v10l-2 2z" fill="#0da57a"/><path d="m551 157-2-2v-11l2-2h11l2 2v11l-2 2z" fill="#fff"/><path d="m551 177-2-2v-11l2-2h11l2 2v11l-2 2z" fill="#0da57a"/><path d="M551 196c-1 0-2 0-2-2v-10l2-2h11l2 2v10c0 2-1 2-2 2z" fill="#fff"/><path d="m551 216-2-2v-11l2-2h11l2 2v11l-2 2z" fill="#0da57a"/><path d="m551 236-2-2v-11l2-2h11l2 2v11l-2 2z" fill="#fff"/><path d="M551 256c-1 0-2-1-2-3v-10l2-2h11l2 2v10c0 2-1 3-2 3z" fill="#0da57a"/><path d="m551 275-2-2v-10c0-2 1-3 2-3h11c1 0 2 1 2 3v10l-2 2zM17 295l-2-2v-10c0-2 1-3 2-3h11c1 0 2 1 2 3v10l-2 2zm20 0-2-2v-10c0-2 1-3 2-3h11c1 0 2 1 2 3v10l-2 2zm20 0-2-2v-10c0-2 1-3 2-3h10c2 0 3 1 3 3v10c0 1-1 2-3 2z" fill="#fff"/><path d="M77 295c-2 0-3-1-3-2v-10c0-2 1-3 3-3h10c1 0 2 1 2 3v10l-2 2z" fill="#0da57a"/><path d="m96 295-2-2v-10c0-2 1-3 2-3h11c1 0 2 1 2 3v10l-2 2z" fill="#fff"/><path d="m116 295-2-2v-10c0-2 1-3 2-3h10c2 0 3 1 3 3v10c0 1-1 2-3 2z" fill="#0da57a"/><path d="M136 295c-2 0-3-1-3-2v-10c0-2 1-3 3-3h10c1 0 2 1 2 3v10l-2 2z" fill="#fff"/><path d="m155 295-2-2v-10c0-2 1-3 2-3h11c1 0 2 1 2 3v10l-2 2z" fill="#0da57a"/><path d="m175 295-2-2v-10c0-2 1-3 2-3h10c2 0 3 1 3 3v10c0 1-1 2-3 2z" fill="#fff"/><path d="M195 295c-2 0-3-1-3-2v-10c0-2 1-3 3-3h10c1 0 2 1 2 3v10l-2 2z" fill="#0da57a"/><path d="m214 295-2-2v-10c0-2 1-3 2-3h11c1 0 2 1 2 3v10l-2 2z" fill="#fff"/><path d="m234 295-2-2v-10c0-2 1-3 2-3h11c1 0 2 1 2 3v10l-2 2z" fill="#0da57a"/><path d="M254 295c-2 0-2-1-2-2v-10c0-2 0-3 2-3h10c1 0 2 1 2 3v10l-2 2zm20 0-2-2v-10c0-2 1-3 2-3h11c1 0 2 1 2 3v10l-2 2zm20 0-2-2v-10c0-2 1-3 2-3h11c1 0 2 1 2 3v10l-2 2zm20 0-2-2v-10c0-2 1-3 2-3h11c1 0 2 1 2 3v10l-2 2zm20 0-2-2v-10c0-2 1-3 2-3h10c1 0 2 1 2 3v10l-2 2z" fill="#fff"/><path d="m353 295-2-2v-10c0-2 1-3 2-3h11c1 0 2 1 2 3v10l-2 2z" fill="#0da57a"/><path d="m373 295-2-2v-10c0-2 1-3 2-3h11c1 0 2 1 2 3v10l-2 2z" fill="#fff"/><path d="m393 295-2-2v-10c0-2 1-3 2-3h10c1 0 2 1 2 3v10l-2 2z" fill="#0da57a"/><path d="m412 295-2-2v-10c0-2 1-3 2-3h11c1 0 2 1 2 3v10l-2 2z" fill="#fff"/><path d="m432 295-2-2v-10c0-2 1-3 2-3h11c1 0 2 1 2 3v10l-2 2z" fill="#0da57a"/><path d="m452 295-2-2v-10c0-2 1-3 2-3h10c2 0 3 1 3 3v10c0 1-1 2-3 2z" fill="#fff"/><path d="M472 295c-2 0-3-1-3-2v-10c0-2 1-3 3-3h10c1 0 2 1 2 3v10l-2 2z" fill="#0da57a"/><path d="m491 295-2-2v-10c0-2 1-3 2-3h11c1 0 2 1 2 3v10l-2 2z" fill="#fff"/><path d="m511 295-2-2v-10c0-2 1-3 2-3h10c2 0 3 1 3 3v10c0 1-1 2-3 2z" fill="#0da57a"/><path d="M531 295c-2 0-3-1-3-2v-10c0-2 1-3 3-3h10c1 0 2 1 2 3v10l-2 2zm20 0-2-2v-10c0-2 1-3 2-3h11c1 0 2 1 2 3v10l-2 2zm21-276-2-2V6l2-2h11l2 2v11l-2 2zm0 20-2-2V26l2-2h11l2 2v11l-2 2zm0 20c-1 0-2-1-2-3V46l2-2h11l2 2v10c0 2-1 3-2 3z" fill="#fff"/><path d="m572 78-2-2V66c0-2 1-3 2-3h11c1 0 2 1 2 3v10l-2 2z" fill="#0da57a"/><path d="m572 98-2-2V85l2-2h11l2 2v11l-2 2z" fill="#fff"/><path d="M572 118c-1 0-2-1-2-3v-10l2-2h11l2 2v10c0 2-1 3-2 3z" fill="#0da57a"/><path d="m572 137-2-2v-10c0-2 1-3 2-3h11c1 0 2 1 2 3v10l-2 2zm0 20-2-2v-11l2-2h11l2 2v11l-2 2zm0 20-2-2v-11l2-2h11l2 2v11l-2 2z" fill="#fff"/><path d="M572 196c-1 0-2 0-2-2v-10l2-2h11l2 2v10c0 2-1 2-2 2z" fill="#0da57a"/><path d="m572 216-2-2v-11l2-2h11l2 2v11l-2 2z" fill="#fff"/><path d="m572 236-2-2v-11l2-2h11l2 2v11l-2 2z" fill="#0da57a"/><path d="M572 256c-1 0-2-1-2-3v-10l2-2h11l2 2v10c0 2-1 3-2 3zm0 19-2-2v-10c0-2 1-3 2-3h11c1 0 2 1 2 3v10l-2 2zm0 20-2-2v-10c0-2 1-3 2-3h11c1 0 2 1 2 3v10l-2 2z" fill="#fff"/></g></svg>