<svg xmlns="http://www.w3.org/2000/svg" viewBox="0 0 600 300"><defs><radialGradient cx="300" cy="150" r="299.8" gradientUnits="userSpaceOnUse" id="a"><stop offset="0" stop-color="#0f1233"/><stop offset="1" stop-color="#00001f"/></radialGradient><linearGradient x1="331.6" y1="143.6" x2="597.3" y2="143.6" gradientTransform="translate(-225 -109) scale(.67748)" gradientUnits="userSpaceOnUse" id="b"><stop offset="0" stop-color="#191b3b"/><stop offset="1" stop-color="#fff"/></linearGradient></defs><g data-paper-data="{&quot;isPaintingLayer&quot;:true}" stroke-miterlimit="10" style="mix-blend-mode:normal"><path d="M0 300V0h600v300z" fill="url(#a)"/><text transform="rotate(-29 531 -519) scale(.45021)" font-size="40" xml:space="preserve" fill="#393a54" font-family="Serif" style="mix-blend-mode:normal"><tspan x="0" dy="0">16578910504841019817909078074890799</tspan></text><text transform="rotate(16 -494 84) scale(.63131)" font-size="40" xml:space="preserve" fill="#373851" font-family="Serif" style="mix-blend-mode:normal"><tspan x="0" dy="0">53979465115648978978941165415648798498416</tspan></text><text transform="translate(179 286) scale(1.12265)" font-size="40" xml:space="preserve" data-paper-data="{&quot;index&quot;:null}" fill="#fff" stroke="#fff" stroke-width="0" font-family="&quot;Anurati&quot;, Sans Serif" style="mix-blend-mode:normal"><tspan x="0" dy="0">IETIEIRINI TY</tspan></text><text transform="translate(159 51) scale(1.12265)" font-size="40" xml:space="preserve" fill="#fff" stroke="#fff" stroke-width="0" font-family="&quot;Anurati&quot;, Sans Serif" style="mix-blend-mode:normal"><tspan x="0" dy="0">IBIRIEAIKI ING</tspan></text><path d="M278 112c-44 9-143 147-143 33-1-88 118 58 154 32" fill="none" stroke="#fff" stroke-width="25.5"/><path d="M283 100h-1 5v1l5 1-8-1 6 2-10-1 9 1h-6l1 1h8-5 1l-1 1h2l-3 1h6l-6 1 8-1-2 1h1l-6 1h8-1 3-5l1 1h4-7l3 1 3-1v1l1-1v1l1-1h2l-2 2h1l-4 1h9l-3 1h4l1-1v1h1l-3 1 3 1-4 3-5 4-3 2h-19l1-4v-5h-1c0-1-1-4-2-3h-2l-2-2c-1-2 5-4 4-6l-2-3c0-2 11-1 11-1z" fill="#fff"/><path d="m281 166 3-2v1l2-3v1l1 1-2 1h3l-2 3h5-5 1l-1 1h3l-4 1 6-1-3 1h1-4 8-1v1l-5 1 10-1-4 1h2-4l1 1h2-4l2 1h3l1-1v1l1-1h2l-1 1 1 1h-2l-3 1 8-1v1h2l-4 1h4l1-1v1l2-2-1 1 2-2-2 3-2 1h2l-4 4-4 4-4 2h-19l2-4v-5h-1c-1-1-1-4-3-4l-2 1-2-2c-1-2 5-4 4-6-1-1 4 1 8-2z" data-paper-data="{&quot;index&quot;:null}" fill="#fff"/><path d="m308 97-1 1v-2h1v1zm2 2h-1c0-2 1-1 1 0zm-11-9v1l-3-2v-1 1l1-1v1h1v1h1zm8 1v-1 1l-1 1h-1v-1l1-1 1 1zm-8 7c0-2 1-2 2-1v2c-1 1-2 0-2-1zm0 1h1-1zm3-5v-2 2zm-8 3v1h-1l-1-4v-1 1l2 3zm9 8h5v1h-5l-1-1h1zm-1-2 1-2h1-1a58 58 0 0 0-1 2zm9-1 1 2h-2l1-2zm0 1zm-19 59v-2c2-1 3 0 2 1l-2 2v-1zm8 8v1-3h1v2h-1zm0 0zm-2-5v1l-1-1zm7 6h1-1v1-1s0-1 0 0zm0-2v-1 1zm3 1c0 1-1 0 0 0zm-8-6v-1h1v1s0 1 0 0h-1zm-2-2v-1h1v1h-1zm4 11v-1h1v1h-1zm2-8v1-1zm2-4h1v1h-1v-1zm-3 0h-1 1l-1 1v-1s-1 0 0 0c0-1 0 0 0 0h1zm5-5h-2v-1l1-1 1-2 2 1v3h-2zm1-3zm11 3c1 0 1 4-1 4 0 0-6-5-5-6l2-2 1 1c4-3 4 0 3 3zm-12-17c1 0 3-1 3 1l-2 2c3 4-4 4-6 2-2-1 0-2 1-3 0 0-2-2-1-3s2 0 3 1h2zm6-17a1 1 0 0 1 1 0v2h1v1h-1v1l-1 1h-2l-1-1-1-1h-1v-1h-1v-1l1-1v-1h2v-1h2v2h1zm0 3zm11-11c0 2-2 5-5 3-1-1-1-3-2-2l-3-2v-2l2-3 1-1 2-3c2 0 6 7 5 9zm1-27c2 3-1 8-5 7-2 0-2-2-3-4v-2c-1 0-2 2-2 0-1-1 2-2 3-3 2-1 6-1 7 2zm-16-13c2 0 2 1 3 2v2l-2 6c-2 1-6-2-6-4 1-2 5-2 5-2v-1a1 1 0 0 1 0-1v-2z" fill="#fff"/><text transform="translate(331 161) scale(1.47606)" font-size="40" xml:space="preserve" fill="url(#b)" font-family="Serif" style="mix-blend-mode:normal"><tspan x="0" dy="0">189794651</tspan></text></g></svg>