<svg xmlns="http://www.w3.org/2000/svg" viewBox="0 0 600 300"><g data-paper-data="{&quot;isPaintingLayer&quot;:true}" stroke-miterlimit="10" style="mix-blend-mode:normal"><path d="M0 300V0h600v300z" fill="#515151"/><path d="m11 72 4-4c2-2 5-3 8-3l1-1c13-8 26-14 40-21l7-5c5-3 13-5 19-3 6 1 9 4 12 10 2 1 1 4 2 6v3c2 1 4-1 6-1l11-3c6-2 14-2 20 0 2 1 8 8 8 11 1 2-1 4 1 5 2 2 4-1 7-1s10 3 12 5c4 4 5 8 5 14l1 3-1 2c3 0 6-5 9-5 8-2 15 1 20 8l3 6c1 8-2 12-6 18l-15 27c-8 14-16 25-27 38-7 8-21 16-29 22l-20 14c-10 7-21 13-31 1-16-21 12-32 24-42l-3 2-18 7c-7 2-16 5-23 9-10 5-23 13-33 2-13-15 2-32 16-40l9-4c1-1-1-1-1-2l-4-3c-3-2-4-7-4-10 2-9 5-14 11-20l13-9-1 1h-3c-4 1-8 0-12-1-3 0-7-2-9-4-1-1-2-4-4-4l-7 2h-4l-6-2c-4-2-8-4-9-8a19 19 0 0 1-1-16l2-4zm431-23v1h10v1h2l4 1 3 3 2 1v1l1 1 1 2 2 3v10l-1 5v2l1 4 1 3-3 6-1 2-3 3-1 2 2-1 11-3 3-2h1v-1l3-1 3-1 3-1h8l6 2v1h1l3 3 2 2 1 1v1l2 6v17l-1 3v3l-1 3-1 1h2l2 1h4l2 3 2 1 2 2 2 2v2l2 3v4l1 2-1 2v1l-1 1-1 4-2 2v1l-8 9-11 15h-1v1l-15 19-1 1-1 1-18 15-1 1-1 1-13 8-2 2h-1l-3 1-3 1-2 1-19 3h-2l-1 1h-20l-8 1-11 2-1 1h-5l-1 1h-3l-2-1-4-1-2-3-2-1-1-2-2-3-1-2-1-3v-8l1-1 2-5 2-1v-1l5-5v-3l1-2h-6l-1 1h-11l-3-1h-3l-1-1-8-3h-2l-4-2v-1h-2l-4-5-1-1-1-1v-1l-23 12v1h-1l-20 9-14 7h-2l-3 1-4 1-2 1h-2l-6-1-2-1h-1v-1l-5-2-1-3-2-2-1-5h-1v-3l1-4v-5l1-1 1-1 2-3 3-4 1-1 5-4 8-6h1v-1l13-9h1l16-10 15-9 14-10h1l16-9 2-1 1-1 15-6 5-1h-3l-2-1-5-2-2-2-1-1-2-3-2-3v-1l-1-3v-7l4-8 1-1 4-4 1-1 9-8 1-1 1-1 13-9 15-9 12-10 9-7 2-2h1l3-2 2-1 2-1h1l4-1h2l1-1h5l8 2h1l1 1 4 4 1 1 1 1 2 10zm-76 119 1-3-6 4zm166-94c-13 0-28-1-28-19 0-4 1-8 3-11l8-7c8-7 23-14 35-12l6 1 3 1 2 2 3 2 1 1c3 2 9 4 10 7 2 3 3 6 3 10v2l4 1c7 3 10 13 10 20l-3 15c-3 9-1 13-10 20-2 1-5 3-8 3-11 1-11-3-19-10l-3 1-9-2c-7-4-12-18-7-25zm30 185-2 3-4 3-11 6-22 11c-13 6-26 21-41 10l-4-4-1-3-2-3c-1-5 1-12 3-16s7-6 9-10c1-1-2-2-2-3-2-2-2-8-2-11s2-6 4-8c2-3 4-5 7-6l7-7 12-8c9-4 25-7 32 2l4 10v5l5 2c6 1 10 7 11 13a19 19 0 0 1-1 10l-2 4zm-352-17-4 4-6 3-7 7c-4 4-12 12-17 13-4 2-11 4-15 4l-9-2-1-2-23 2c-2-1-10 5-11 6-6 4-19 4-25 0l-6-5c-2-4-3-7-3-11 0-8 3-13 9-17l10-2c3-1 5-4 7-6l9-2c4-1 9-5 12-7 5-2 9-1 14-2l6-2 20-1 3 1c3-3 5-7 9-8l9-2a19 19 0 0 1 10 0c5 1 9 4 10 8a19 19 0 0 1 1 17l-2 4zM337 38l-3 6-3 3-4 4-9 11-15 12c-7 5-12 11-20 11s-13-4-17-10l-2-6v-4c-5 0-8 4-12 5-8 3-22 6-29 0-6-5-8-13-7-20 3-13 15-13 24-15l17-8c7-3 12-8 20-9 6 0 10 0 16 2 2 1 6 6 7 5l5-5 2-2c2-2 5-3 7-3a19 19 0 0 1 23 23z" fill="#4a4a4a"/><path d="M12 23a12 12 0 1 1 24 0 12 12 0 0 1-24 0z" fill="#353535" stroke="#252525" stroke-width="5"/><path d="m21 20 6 6" fill="none" stroke="#252525" stroke-width="5" stroke-linecap="round"/><path d="m21 26 6-6" data-paper-data="{&quot;index&quot;:null}" fill="none" stroke="#252525" stroke-width="5" stroke-linecap="round"/><path d="M576 35a12 12 0 1 1 0-24 12 12 0 0 1 0 24z" data-paper-data="{&quot;index&quot;:null}" fill="#353535" stroke="#252525" stroke-width="5"/><path d="m579 20-6 6m6 0-6-6" data-paper-data="{&quot;index&quot;:null}" fill="none" stroke="#252525" stroke-width="5" stroke-linecap="round"/><path d="M588 277a12 12 0 1 1-24 0 12 12 0 0 1 24 0z" data-paper-data="{&quot;index&quot;:null}" fill="#353535" stroke="#252525" stroke-width="5"/><path d="m579 280-6-6m0 6 6-6" data-paper-data="{&quot;index&quot;:null}" fill="none" stroke="#252525" stroke-width="5" stroke-linecap="round"/><path d="M24 265a12 12 0 1 1 0 24 12 12 0 0 1 0-24z" data-paper-data="{&quot;index&quot;:null}" fill="#353535" stroke="#252525" stroke-width="5"/><path d="m21 280 6-6m-6 0 6 6" data-paper-data="{&quot;index&quot;:null}" fill="none" stroke="#252525" stroke-width="5" stroke-linecap="round"/><path d="m155 139-4-2V41c0-2 2-3 4-3h290c2 0 4 1 4 3v96l-4 2z" stroke="#252525" stroke-width="7.5"/><path d="m232 117-15 2-1-7h-7l-2 7-14-2 11-38 16-1zm-17-14-2-8h-1l-2 8zm49-4-2 20-12 1 1-4-2 1a8 8 0 0 1-3 1 10 10 0 0 1-6-1l-3-2-3-2a20 20 0 0 1-3-11 156 156 0 0 1 2-22 882 882 0 0 0 14 0 809 809 0 0 0-3 23v2l1 2 1 1 2-1 2-3 1-4a55 55 0 0 0 2-13 147 147 0 0 0 0-8 258 258 0 0 0 13 0l-2 20zm36 5a19 19 0 0 1-13 12l-7 2a48 48 0 0 1-13 0l1-38 7-1h7l7 1 6 3 4 6 2 7-1 8zm-19 4a9 9 0 0 0 6-4 9 9 0 0 0 2-5l-1-3-1-3-2-2h-3zm37-29-2 39-13 1-1-40zm37 23a20 20 0 0 1-5 9 18 18 0 0 1-18 5 19 19 0 0 1-8-5 18 18 0 0 1-5-8 19 19 0 0 1 0-10 20 20 0 0 1 5-9 18 18 0 0 1 8-5h5l8 1a17 17 0 0 1 9 9l2 8-1 5zm-12-4-1-2-1-3-1-1-3-1-2 1a6 6 0 0 0-3 3l-1 3 1 2 1 2 1 2 3 1a5 5 0 0 0 4-2l1-3 1-2zm31 8V91h-15V73h15V59l18-2v15h15v20l-15-1v16z" fill="none" stroke-opacity=".5" stroke="#00940b" stroke-width="12.5" stroke-linecap="square"/><path d="m232 117-15 2-1-7h-7l-2 7-14-2 11-38 16-1zm-17-14-3-10-2 10zm51-24a566 566 0 0 0-4 40l-12 1 1-4-2 1a8 8 0 0 1-3 1 10 10 0 0 1-6-1l-3-2-3-2a20 20 0 0 1-3-11 156 156 0 0 1 2-22 882 882 0 0 0 14 0 809 809 0 0 0-3 23v2l1 2 1 1 2-1 2-3 1-4a55 55 0 0 0 2-13 147 147 0 0 0 0-8 258 258 0 0 0 13 0zm35 17-1 8a19 19 0 0 1-13 12l-7 2a48 48 0 0 1-13 0l1-38 7-1h7l7 1 6 3 4 6 2 7zm-20 12a9 9 0 0 0 6-4 9 9 0 0 0 2-5l-1-3-1-3-2-2h-3zm37-29-2 39-13 1-1-40zm38 18a21 21 0 0 1-3 10 19 19 0 0 1-6 7 18 18 0 0 1-15 2 19 19 0 0 1-8-5 18 18 0 0 1-5-8 19 19 0 0 1 0-10 20 20 0 0 1 5-9 18 18 0 0 1 8-5h5l8 1a17 17 0 0 1 9 9l2 8zm-13 1-1-2-1-3-1-1-3-1-2 1a6 6 0 0 0-3 3l-1 3 1 2 1 2 1 2 3 1a5 5 0 0 0 4-2l1-3 1-2zm31 8V91h-15V73h15V59l18-2v15h15v20l-15-1v16z" fill="#18ff00"/><path d="M159 79h267m-267 8h267m-267 9h267m0 8H159m0 9h267m-267 8h267m-267 9h267m0-77H159m267 9H159m0 8h267" fill="none" stroke-opacity=".4" stroke="#000" stroke-width="2.5" stroke-linecap="round"/><path d="M67 262c-4 0-7-1-7-2v-96c0-2 3-3 7-3h466c4 0 7 1 7 3v96c0 1-3 2-7 2z" stroke="#252525" stroke-width="7.5"/><path d="m72 252-1-1v-12l1-1h42l1 1v12l-1 1z" fill="#18ff00" stroke="#0cb700" stroke-width="4"/><path d="M72 230h-1v-13l1-1h42l1 1v13h-1z" fill="#baff00" stroke="#84b400" stroke-width="4"/><path d="m72 208-1-1v-13h44v13l-1 1z" fill="#ffae00" stroke="#b57c00" stroke-width="4"/><path d="M72 185h-1v-13h44v13h-1z" fill="red" stroke="#be0000" stroke-width="4"/><path d="m131 252-1-1v-12l1-1h42l1 1v12l-1 1z" fill="#18ff00" stroke="#0cb700" stroke-width="4"/><path d="M131 230h-1v-13l1-1h42l1 1v13h-1z" fill="#baff00" stroke="#84b400" stroke-width="4"/><path d="m191 208-1-1v-13h44v13l-1 1z" fill="#ffae00" stroke="#b57c00" stroke-width="4"/><path d="m190 252-1-1v-12l1-1h43v14z" fill="#18ff00" stroke="#0cb700" stroke-width="4"/><path d="M190 230h-1v-13l1-1h43v14z" fill="#baff00" stroke="#84b400" stroke-width="4"/><path d="M249 252v-14h43v14z" fill="#18ff00" stroke="#0cb700" stroke-width="4"/><path d="M249 230v-14h43v14z" fill="#baff00" stroke="#84b400" stroke-width="4"/><path d="M249 208v-14h43v14z" fill="#ffae00" stroke="#b57c00" stroke-width="4"/><path d="M249 185v-13h43v13z" fill="red" stroke="#be0000" stroke-width="4"/><path d="m309 252-1-1v-12l1-1h42l1 1v12l-1 1z" fill="#18ff00" stroke="#0cb700" stroke-width="4"/><path d="M309 230h-1v-13l1-1h42l1 1v13h-1z" fill="#baff00" stroke="#84b400" stroke-width="4"/><path d="m309 208-1-1v-13h44v13l-1 1z" fill="#ffae00" stroke="#b57c00" stroke-width="4"/><path d="m368 252-1-1v-12l1-1h42l1 1v12l-1 1zm59 0-1-1v-12l1-1h42l1 1v12l-1 1z" fill="#18ff00" stroke="#0cb700" stroke-width="4"/><path d="M427 230h-1v-13l1-1h42l1 1v13h-1z" fill="#baff00" stroke="#84b400" stroke-width="4"/><path d="M486 252v-14h43v14z" fill="#18ff00" stroke="#0cb700" stroke-width="4"/><path d="M486 230v-14h43v14z" fill="#baff00" stroke="#84b400" stroke-width="4"/><path d="M486 208v-14h43v14z" fill="#ffae00" stroke="#b57c00" stroke-width="4"/><path d="M486 185v-13h43v13z" fill="red" stroke="#be0000" stroke-width="4"/><path d="M86 66a30 30 0 1 1 30 50 30 30 0 0 1-30-50z" fill="#363636" stroke="#252525" stroke-width="5"/><path d="m129 85-25 5c-2 1-2 0-1-2l17-19 6 7 3 9z" data-paper-data="{&quot;index&quot;:null}" stroke="#252525" stroke-width="5"/><path d="m86 67 5 7m20 34 5 7m-40-9 8-5" fill="none" stroke="#252525" stroke-width="5" stroke-linecap="round"/><path d="M519 112a29 29 0 1 1-40-42 29 29 0 0 1 40 42z" data-paper-data="{&quot;index&quot;:null}" fill="#363636" stroke="#252525" stroke-width="5"/><path d="m473 103 23-11c1 0 2 0 1 2l-12 23-7-6c-3-2-7-7-5-8z" data-paper-data="{&quot;index&quot;:null}" stroke="#252525" stroke-width="5"/><path d="m519 112-7-7m-27-28-6-7m41 1-7 7" data-paper-data="{&quot;index&quot;:null}" fill="none" stroke="#252525" stroke-width="5" stroke-linecap="round"/></g></svg>