<?xml version="1.0" encoding="UTF-8" standalone="no" ?>
<!DOCTYPE svg PUBLIC "-//W3C//DTD SVG 1.1//EN" "http://www.w3.org/Graphics/SVG/1.1/DTD/svg11.dtd">
<svg xmlns="http://www.w3.org/2000/svg" xmlns:xlink="http://www.w3.org/1999/xlink" version="1.1" width="50" height="50" viewBox="0 0 50 50" xml:space="preserve">
<desc>Created with Fabric.js 3.6.6</desc>
<defs>
</defs>
<g transform="matrix(1 0 0 1 21.81 22.31)"  >
<path style="stroke: none; stroke-width: 1; stroke-dasharray: none; stroke-linecap: butt; stroke-dashoffset: 0; stroke-linejoin: miter; stroke-miterlimit: 4; fill: rgb(255,255,255); fill-rule: nonzero; opacity: 1;"  transform=" translate(-25.31, -24.81)" d="M 21 3 C 11.6 3 4 10.6 4 20 C 4 29.4 11.6 37 21 37 C 24.354553 37 27.47104 36.01984 30.103516 34.347656 L 42.378906 46.621094 L 46.621094 42.378906 L 34.523438 30.279297 C 36.695733 27.423994 38 23.870646 38 20 C 38 10.6 30.4 3 21 3 z M 21 7 C 28.2 7 34 12.8 34 20 C 34 27.2 28.2 33 21 33 C 13.8 33 8 27.2 8 20 C 8 12.8 13.8 7 21 7 z" stroke-linecap="round" />
</g>
</svg>