<svg xmlns="http://www.w3.org/2000/svg" viewBox="0 0 123 123"><g data-paper-data="{&quot;isPaintingLayer&quot;:true}" stroke-miterlimit="10" style="mix-blend-mode:normal"><path d="M122 121 2 1h61l59 60z" fill="#ff6161" stroke="#d04747" stroke-width="2"/><path d="M55 21h5l3-2c2-1 4 1 3 2l-2 4v5l2 3c1 2-1 4-3 3l-3-2h-5l-4 2c-2 1-4-1-3-3l2-3v-5l-2-4c-1-1 1-3 3-2zm-14 4h2l1-1 1 1-1 1v2l1 2h-6v-5l1-1zm30 0h2l1-1 1 1v5h-6l1-2v-2l-1-1 1-1zM57 14a2 2 0 1 1-2-2 2 2 0 0 1 2 2zm3 29a3 3 0 1 1-4-4 3 3 0 0 1 4 4z" fill-rule="evenodd"/><path d="M66 49c-1 0-1 0 0 0l12-13h1l1 2-4 10 7-7h1l1 2-12 13h-1l-1-2 3-10-6 7h-1zm8 9v-1l13-13 6 7-2 2-4-4-3 3 4 4-2 2-4-4-3 3 4 4-3 3zm10 9 10-15 3 2-8 10 10-8 2 2-7 10 9-7h1l2 2-15 11h-1l-2-3 6-7-8 5z"/></g></svg>