<svg xmlns="http://www.w3.org/2000/svg" viewBox="0 0 123 123"><g data-paper-data="{&quot;isPaintingLayer&quot;:true}" stroke-miterlimit="10" style="mix-blend-mode:normal"><path d="M122 121 2 1h61l59 60z" fill="#618cff" stroke="#4781d1" stroke-width="2"/><path d="M48 14h5l3-2c2-1 4 1 3 3l-2 3v5l2 4c1 1-1 3-3 2l-3-2h-5l-4 2c-1 1-3-1-2-2l2-4v-5l-2-3c-1-2 1-4 2-3zm-14 4h2l1-1 1 1v5l-1 1-1-1h-2l-1 1-1-1 1-1v-2l-1-2 1-1zm31 0h1l2-1 1 1-1 2v2l1 1-1 1-2-1h-1l-2 1-1-1 1-1v-2l-1-2 1-1zM50 8a2 2 0 1 1-2-3 2 2 0 0 1 2 3zm3 28a3 3 0 1 1-4-4 3 3 0 0 1 4 4z" fill-rule="evenodd"/><path d="m59 44-2-3a6 6 0 0 1 2-5l9-9h1l2 2-10 9v3l2 1 1-1 10-9 2 2-10 9a5 5 0 0 1-5 2l-2-1zm5 5 13-13h1l3 3 2 4-2 4-3 2h-3l-2-1-2-2-4 5h-1zm10-5 1 1 2 1 2-1 1-2-1-2-2-1zm-1 13 13-13 4 4 1 2a5 5 0 0 1-1 5l-6 6-2 1h-3l-3-1zm5 0 1 1 1 1 2-1 6-5v-3l-2-1zm3 8 15-11 3 3-11 16-2-2v-1l1-1-2-3-2 1-2-2zm6 0 2 1 5-6v-1l-1 1zm4 10 10-11-2-2v-1l2-2 7 7v1l-2 2-2-3-11 11zm5 6 13-13h1l6 6-2 2h-1l-4-4-2 3 3 4-2 2-4-4-3 4 4 4-2 2h-1z"/></g></svg>