<svg xmlns="http://www.w3.org/2000/svg" viewBox="0 0 600 300"><g style="mix-blend-mode:normal;fill-rule:nonzero;stroke-linecap:butt;stroke-linejoin:miter;stroke-miterlimit:10;stroke-dasharray:none;stroke-dashoffset:0"><path fill="#cec67d" d="M0 300V0h600v300z"/><path fill="#e8df8e" d="M589 275a14 14 0 1 1-28 0 14 14 0 0 1 28 0z" data-paper-data="{&quot;index&quot;:null}"/><path fill="#b5ae6e" stroke="#b5ae6e" stroke-width="5" d="M589 225a14 14 0 1 1-28 0 14 14 0 0 1 28 0z" data-paper-data="{&quot;index&quot;:null}"/><path fill="#e8df8e" d="M539 225a14 14 0 1 1-28 0 14 14 0 0 1 28 0z" data-paper-data="{&quot;index&quot;:null}"/><path fill="#b5ae6e" d="M539 175a14 14 0 1 1-28 0 14 14 0 0 1 28 0z" data-paper-data="{&quot;index&quot;:null}"/><path fill="#b5ae6e" stroke="#b5ae6e" stroke-width="5" d="M489 175a14 14 0 1 1-28 0 14 14 0 0 1 28 0z" data-paper-data="{&quot;index&quot;:null}"/><path fill="#b5ae6e" d="M489 125a14 14 0 1 1-28 0 14 14 0 0 1 28 0z" data-paper-data="{&quot;index&quot;:null}"/><path fill="#e8df8e" stroke="#e8df8e" stroke-width="5" d="M439 225a14 14 0 1 1-28 0 14 14 0 0 1 28 0z" data-paper-data="{&quot;index&quot;:null}"/><path fill="#e8df8e" d="M489 275a14 14 0 1 1-28 0 14 14 0 0 1 28 0z" data-paper-data="{&quot;index&quot;:null}"/><path fill="#b5ae6e" d="M589 125a14 14 0 1 1-28 0 14 14 0 0 1 28 0zm0-50a14 14 0 1 1-28 0 14 14 0 0 1 28 0zm-50 0a14 14 0 1 1-28 0 14 14 0 0 1 28 0zm50-50a14 14 0 1 1-28 0 14 14 0 0 1 28 0zm-100 0a14 14 0 1 1-28 0 14 14 0 0 1 28 0z" data-paper-data="{&quot;index&quot;:null}"/><path fill="#b5ae6e" stroke="#b5ae6e" stroke-width="5" d="M439 75a14 14 0 1 1-28 0 14 14 0 0 1 28 0z" data-paper-data="{&quot;index&quot;:null}"/><path fill="#b5ae6e" d="M389 75a14 14 0 1 1-28 0 14 14 0 0 1 28 0zm0-50a14 14 0 1 1-28 0 14 14 0 0 1 28 0zm-50 0a14 14 0 1 1-28 0 14 14 0 0 1 28 0z" data-paper-data="{&quot;index&quot;:null}"/><path fill="#b5ae6e" stroke="#b5ae6e" stroke-width="5" d="M339 75a14 14 0 1 1-28 0 14 14 0 0 1 28 0zm0 50a14 14 0 1 1-28 0 14 14 0 0 1 28 0z" data-paper-data="{&quot;index&quot;:null}"/><path fill="#b5ae6e" d="M289 125a14 14 0 1 1-28 0 14 14 0 0 1 28 0z" data-paper-data="{&quot;index&quot;:null}"/><path fill="#e8df8e" d="M389 175a14 14 0 1 1-28 0 14 14 0 0 1 28 0zm-50 50a14 14 0 1 1-28 0 14 14 0 0 1 28 0zm0 50a14 14 0 1 1-28 0 14 14 0 0 1 28 0zm50 0a14 14 0 1 1-28 0 14 14 0 0 1 28 0z" data-paper-data="{&quot;index&quot;:null}"/><path fill="#e8df8e" stroke="#e8df8e" stroke-width="5" d="M289 225a14 14 0 1 1-28 0 14 14 0 0 1 28 0z" data-paper-data="{&quot;index&quot;:null}"/><path fill="#e8df8e" d="M239 275a14 14 0 1 1-28 0 14 14 0 0 1 28 0z" data-paper-data="{&quot;index&quot;:null}"/><path fill="#e8df8e" stroke="#e8df8e" stroke-width="5" d="M189 225a14 14 0 1 1-28 0 14 14 0 0 1 28 0z" data-paper-data="{&quot;index&quot;:null}"/><path fill="#e8df8e" d="M189 175a14 14 0 1 1-28 0 14 14 0 0 1 28 0zm50 0a14 14 0 1 1-28 0 14 14 0 0 1 28 0zm-50-50a14 14 0 1 1-28 0 14 14 0 0 1 28 0z" data-paper-data="{&quot;index&quot;:null}"/><path fill="#e8df8e" stroke="#e8df8e" stroke-width="5" d="M139 125a14 14 0 1 1-28 0 14 14 0 0 1 28 0z" data-paper-data="{&quot;index&quot;:null}"/><path fill="#e8df8e" d="M189 75a14 14 0 1 1-28 0 14 14 0 0 1 28 0z" data-paper-data="{&quot;index&quot;:null}"/><path fill="#b5ae6e" stroke="#b5ae6e" stroke-width="5" d="M239 75a14 14 0 1 1-28 0 14 14 0 0 1 28 0z" data-paper-data="{&quot;index&quot;:null}"/><path fill="#b5ae6e" d="M239 25a14 14 0 1 1-28 0 14 14 0 0 1 28 0zm-100 0a14 14 0 1 1-28 0 14 14 0 0 1 28 0zm-50 0a14 14 0 1 1-28 0 14 14 0 0 1 28 0zm-50 0a14 14 0 1 1-28 0 14 14 0 0 1 28 0z" data-paper-data="{&quot;index&quot;:null}"/><path fill="#e8df8e" d="M39 75a14 14 0 1 1-28 0 14 14 0 0 1 28 0z" data-paper-data="{&quot;index&quot;:null}"/><path fill="#b5ae6e" d="M89 75a14 14 0 1 1-28 0 14 14 0 0 1 28 0z" data-paper-data="{&quot;index&quot;:null}"/><path fill="#e8df8e" d="M39 125a14 14 0 1 1-28 0 14 14 0 0 1 28 0zm50 50a14 14 0 1 1-28 0 14 14 0 0 1 28 0zm50 50a14 14 0 1 1-28 0 14 14 0 0 1 28 0zm0 50a14 14 0 1 1-28 0 14 14 0 0 1 28 0zm-50 0a14 14 0 1 1-28 0 14 14 0 0 1 28 0zm-50 0a14 14 0 1 1-28 0 14 14 0 0 1 28 0zm0-50a14 14 0 1 1-28 0 14 14 0 0 1 28 0z" data-paper-data="{&quot;index&quot;:null}"/></g><path fill="none" stroke="#000" stroke-opacity=".1" stroke-width="18" d="M106 88c0-5 4-10 10-10h21c5 0 7 3 10 5l10 10c3 3 5 6 11 6h30c6 0 8-3 11-6l10-10c3-2 5-5 10-5h255c6 0 10 5 10 10v103c0 6-4 10-10 10H229c-5 0-7 3-10 6l-10 10c-3 2-5 5-11 5h-30c-6 0-8-3-11-5l-10-10c-3-3-5-6-10-6h-21c-6 0-10-4-10-10z" style="mix-blend-mode:normal;fill-rule:nonzero;stroke-linecap:butt;stroke-linejoin:miter;stroke-miterlimit:10;stroke-dasharray:none;stroke-dashoffset:0"/><path fill="#fff" stroke="#fff" stroke-width="8" d="M106 88c0-5 4-10 10-10h21c5 0 7 3 10 5l10 10c3 3 5 6 11 6h30c6 0 8-3 11-6l10-10c3-2 5-5 10-5h255c6 0 10 5 10 10v103c0 6-4 10-10 10H229c-5 0-7 3-10 6l-10 10c-3 2-5 5-11 5h-30c-6 0-8-3-11-5l-10-10c-3-3-5-6-10-6h-21c-6 0-10-4-10-10z" style="mix-blend-mode:normal;fill-rule:nonzero;stroke-linecap:butt;stroke-linejoin:miter;stroke-miterlimit:10;stroke-dasharray:none;stroke-dashoffset:0"/><path fill="#b9b271" stroke="#fff" stroke-width="8" d="M269 102h166a39 39 0 1 1 0 78H269a39 39 0 1 1 0-78z" style="mix-blend-mode:normal;fill-rule:nonzero;stroke-linecap:butt;stroke-linejoin:miter;stroke-miterlimit:10;stroke-dasharray:none;stroke-dashoffset:0"/><path d="M163 120h6l-17 56h-6zm24 0h5l-17 56h-6z" aria-label="//" style="font-size:69.0084px;font-family:&quot;Sans Serif&quot;;fill:#b9b271;stroke:#b9b271;stroke-width:5.17563;stroke-miterlimit:10"/></svg>