<?xml version="1.0" encoding="UTF-8" standalone="no" ?>
<!DOCTYPE svg PUBLIC "-//W3C//DTD SVG 1.1//EN" "http://www.w3.org/Graphics/SVG/1.1/DTD/svg11.dtd">
<svg xmlns="http://www.w3.org/2000/svg" xmlns:xlink="http://www.w3.org/1999/xlink" version="1.1" width="600" height="300" viewBox="0 0 600 300" xml:space="preserve">
<desc>Created with Fabric.js 3.6.6</desc>
<defs>
</defs>
<g transform="matrix(1 0 0 1.02 300 133.58)"  >
<g style=""   >
		<g transform="matrix(1 0 0 1 0 16.71)"  >
<path style="stroke: none; stroke-width: 1; stroke-dasharray: none; stroke-linecap: butt; stroke-dashoffset: 0; stroke-linejoin: miter; stroke-miterlimit: 10; fill: rgb(15,189,140); fill-rule: nonzero; opacity: 1;"  transform=" translate(-240, -168.75)" d="M -60 318.75224 v -300 h 600 v 300 z" stroke-linecap="round" />
</g>
		<g transform="matrix(1 0 0 1 -70.11 16.71)"  >
<path style="stroke: none; stroke-width: 1; stroke-dasharray: none; stroke-linecap: butt; stroke-dashoffset: 0; stroke-linejoin: miter; stroke-miterlimit: 10; fill: rgb(255,255,255); fill-rule: nonzero; opacity: 1;"  transform=" translate(-169.89, -168.75)" d="M 62.10793 168.75224 c 0 -59.525 48.255 -107.78 107.78 -107.78 c 59.525 0 107.78 48.255 107.78 107.78 c 0 59.525 -48.255 107.78 -107.78 107.78 c -59.525 0 -107.78 -48.255 -107.78 -107.78 z" stroke-linecap="round" />
</g>
		<g transform="matrix(1 0 0 1 -70.11 16.72)"  >
<path style="stroke: none; stroke-width: 1; stroke-dasharray: none; stroke-linecap: butt; stroke-dashoffset: 0; stroke-linejoin: miter; stroke-miterlimit: 10; fill: rgb(15,189,140); fill-rule: nonzero; opacity: 1;"  transform=" translate(-169.89, -168.75)" d="M 82.51993 168.75224 c 0 -48.252 39.116 -87.368 87.368 -87.368 c 48.252 0 87.368 39.116 87.368 87.368 c 0 48.252 -39.116 87.368 -87.368 87.368 c -48.252 0 -87.368 -39.116 -87.368 -87.368 z" stroke-linecap="round" />
</g>
		<g transform="matrix(1 0 0 1 -70.12 16.71)"  >
<path style="stroke: none; stroke-width: 1; stroke-dasharray: none; stroke-linecap: butt; stroke-dashoffset: 0; stroke-linejoin: miter; stroke-miterlimit: 10; fill: rgb(255,255,255); fill-rule: nonzero; opacity: 1;"  transform=" translate(-169.89, -168.75)" d="M 96.76393 168.75224 c 0 -40.385 32.739 -73.124 73.124 -73.124 c 40.385 0 73.124 32.739 73.124 73.124 c 0 40.385 -32.739 73.124 -73.124 73.124 c -40.385 0 -73.124 -32.739 -73.124 -73.124 z" stroke-linecap="round" />
</g>
		<g transform="matrix(1 0 0 1 -116.78 16.72)"  >
<path style="stroke: none; stroke-width: 1; stroke-dasharray: none; stroke-linecap: butt; stroke-dashoffset: 0; stroke-linejoin: miter; stroke-miterlimit: 10; fill: rgb(15,189,140); fill-rule: nonzero; opacity: 1;"  transform=" translate(-123.22, -168.75)" d="M 58.18793 299.05824 v -260.612 h 130.068 v 260.612 z" stroke-linecap="round" />
</g>
		<g transform="matrix(1 0 0 1 -70.11 16.72)"  >
<path style="stroke: none; stroke-width: 1; stroke-dasharray: none; stroke-linecap: butt; stroke-dashoffset: 0; stroke-linejoin: miter; stroke-miterlimit: 10; fill: rgb(15,189,140); fill-rule: nonzero; opacity: 1;"  transform=" translate(-169.89, -168.75)" d="M 118.25093 168.75224 c 0 -28.519 23.118 -51.637 51.637 -51.637 c 28.519 0 51.637 23.118 51.637 51.637 c 0 28.519 -23.118 51.637 -51.637 51.637 c -28.519 0 -51.637 -23.118 -51.637 -51.637 z" stroke-linecap="round" />
</g>
		<g transform="matrix(1 0 0 1 -124.17 -23.49)"  >
<path style="stroke: none; stroke-width: 1; stroke-dasharray: none; stroke-linecap: butt; stroke-dashoffset: 0; stroke-linejoin: miter; stroke-miterlimit: 10; fill: rgb(255,255,255); fill-rule: nonzero; opacity: 1;"  transform=" translate(-115.82, -128.55)" d="M 62.62793 176.89624 v -43.666 h 52.677 l 53.717 -53.717 v 98.076 z" stroke-linecap="round" />
</g>
		<g transform="matrix(1 0 0 1 -124.17 55.53)"  >
<path style="stroke: none; stroke-width: 1; stroke-dasharray: none; stroke-linecap: butt; stroke-dashoffset: 0; stroke-linejoin: miter; stroke-miterlimit: 10; fill: rgb(255,255,255); fill-rule: nonzero; opacity: 1;"  transform=" translate(-115.82, -207.57)" d="M 169.02193 158.52824 v 98.077 l -53.717 -53.717 h -52.677 v -43.666 z" stroke-linecap="round" />
</g>
		<g transform="matrix(1 0 0 1 -70.11 16.71)"  >
<path style="stroke: none; stroke-width: 1; stroke-dasharray: none; stroke-linecap: butt; stroke-dashoffset: 0; stroke-linejoin: miter; stroke-miterlimit: 10; fill: rgb(255,255,255); fill-rule: nonzero; opacity: 1;"  transform=" translate(-169.89, -168.75)" d="M 143.89593 168.75224 c 0 -14.355 11.637 -25.992 25.992 -25.992 c 14.355 0 25.992 11.637 25.992 25.992 c 0 14.355 -11.637 25.992 -25.992 25.992 c -14.355 0 -25.992 -11.637 -25.992 -25.992 z" stroke-linecap="round" />
</g>
		<g transform="matrix(7.06 0 0 7.06 135.47 21.04)" style=""  >
		<text xml:space="preserve" font-family="Sans Serif" font-size="40" font-style="normal" font-weight="normal" style="stroke: none; stroke-width: 1; stroke-dasharray: none; stroke-linecap: butt; stroke-dashoffset: 0; stroke-linejoin: miter; stroke-miterlimit: 10; fill: rgb(255,255,255); fill-rule: nonzero; opacity: 1; white-space: pre;" ><tspan x="-11.3" y="12.57" >+</tspan></text>
</g>
</g>
</g>
</svg>