<svg xmlns="http://www.w3.org/2000/svg" xmlns:xlink="http://www.w3.org/1999/xlink" viewBox="0 0 307.7 151.8"><defs><path id="k" fill="#ff5726" d="M115.8 142v-28.6s0 1.5 8.5 1.4c8.5-.1 8.6-1.4 8.6-1.4v28.7s0 2.3-8.6 2.3c-8.5 0-8.5-2.3-8.5-2.3z"/></defs><defs><linearGradient id="a" x1="128" x2="128" y1="116.9" y2="132.7" gradientUnits="userSpaceOnUse"><stop offset="0" stop-color="#d89400"/><stop offset="1" stop-color="#d9d9d9"/></linearGradient><linearGradient id="b" x1="104.6" x2="104.6" y1="115.4" y2="134.1" gradientUnits="userSpaceOnUse"><stop offset="0" stop-color="#549a10"/><stop offset="1" stop-color="#fff"/></linearGradient><linearGradient id="c" x1="152.4" x2="152.4" y1="115.3" y2="133.9" gradientUnits="userSpaceOnUse"><stop offset="0" stop-color="#ec503b"/><stop offset="1" stop-color="#d9d7d3"/></linearGradient><linearGradient id="d" x1="180" x2="180" y1="115.8" y2="133.2" gradientUnits="userSpaceOnUse"><stop offset="0" stop-color="#3cf300"/><stop offset="1" stop-color="#f2f2f2"/></linearGradient><linearGradient id="e" x1="209.6" x2="209.6" y1="115.4" y2="137.8" gradientUnits="userSpaceOnUse"><stop offset="0" stop-color="#d99e82"/><stop offset="1" stop-color="#fff"/></linearGradient><linearGradient id="f" x1="202.8" x2="202.8" y1="115.2" y2="124.4" gradientUnits="userSpaceOnUse"><stop offset="0" stop-color="#fcb1e3"/><stop offset="1" stop-color="#fff"/></linearGradient><linearGradient id="g" x1="207.8" x2="207.8" y1="120.2" y2="129.3" gradientUnits="userSpaceOnUse"><stop offset="0" stop-color="#ffd983"/><stop offset="1" stop-color="#fff"/></linearGradient><linearGradient id="h" x1="212.7" x2="212.7" y1="125.2" y2="134.3" gradientUnits="userSpaceOnUse"><stop offset="0" stop-color="#a6d388"/><stop offset="1" stop-color="#fff"/></linearGradient><linearGradient id="i" x1="217.4" x2="217.4" y1="131" y2="137.8" gradientUnits="userSpaceOnUse"><stop offset="0" stop-color="#d99e82"/><stop offset="1" stop-color="#fff"/></linearGradient><linearGradient id="j" x1="292.5" x2="292.5" y1="116.5" y2="138.5" gradientTransform="translate(-516.5 -290.7) scale(2.18603)" gradientUnits="userSpaceOnUse"><stop offset="0" stop-color="#6477b3"/><stop offset="1" stop-color="#a5b0d3"/></linearGradient><linearGradient id="l" x1="216.5" x2="281.6" y1="204.3" y2="204.3" gradientUnits="userSpaceOnUse"><stop offset="0" stop-color="#ff5726"/><stop offset="1" stop-color="#ff5726" stop-opacity="0"/></linearGradient></defs><g stroke-miterlimit="10"><path fill="none" stroke="#d8e1ff" stroke-width="2.5" d="M1.3 150.6V1.3h305.2v149.3H119.9c-1.6-.3-3.2-.4-4.9-.4-3 0-5.7.2-8.4.4z"/><path fill="#d8e1ff" d="M1.3 150.6V1.3h305.2v149.3H119.9c-1.6-.3-3.2-.4-4.9-.4-3 0-5.7.2-8.4.4z"/><path fill="url(#a)" stroke="#d89400" stroke-width="1.5" d="M120.2 132.7v-15.8h4v15.8zm11.6 0v-15.8h4.1v15.8z" transform="translate(-86.1 -104)"/><path fill="url(#b)" stroke="#549a10" stroke-width="1.5" d="M113 117.5v9.4c0 .2-.1.4-.3.5a6.4 6.4 0 0 1-4.2 1.6c-1.5 0-3-.6-4.2-1.6-1-.8-2.2-1.3-3.5-1.3-1.1 0-2.2.4-3.2 1.1v6.2c0 .4-.3.7-.6.7a.7.7 0 0 1-.7-.7v-15.9c0-.3.2-.5.4-.6a6.5 6.5 0 0 1 8.3.1 5.3 5.3 0 0 0 6.9 0c.2-.1.5-.2.7 0 .2 0 .3.3.3.5z" transform="translate(-86.1 -104)"/><path fill="url(#c)" stroke="#ec503b" stroke-width="1.5" d="m148.5 134-5.4-5.5v-7.8l5.4-5.5h7.8l5.5 5.5v7.7l-5.5 5.5z" transform="translate(-86.1 -104)"/><path fill="#f7faff" stroke="#c6cee8" stroke-width="1.5" d="M6 150.2V76.5A28.4 28.4 0 0 1 34.2 48l270.7-.5.8 101.6z"/><path fill="url(#d)" stroke="#31c500" d="m190.1 119.5-13 13c-.7.8-1.8 1-2.6.5l-.1-.1-.4-.3-4.1-4.3a2.2 2.2 0 0 1 3-3l2.7 2.7 11.4-11.6a2.2 2.2 0 1 1 3.1 3z" transform="translate(-86.1 -104)"/><g stroke-width="1.5"><path fill="url(#e)" stroke="#d99e82" d="M220 137.8a1 1 0 0 1-.7-.3l-20.6-20.7a.8.8 0 0 1 1.1-1.1l20.7 20.6a.8.8 0 0 1-.6 1.5z" transform="translate(-86.1 -104)"/><path fill="url(#f)" stroke="#fcb1e3" d="M207.4 119.8a4.6 4.6 0 1 1-9.2 0 4.6 4.6 0 0 1 9.2 0z" transform="translate(-86.1 -104)"/><path fill="url(#g)" stroke="#ffd983" d="M206.7 129.2a4.6 4.6 0 1 1 2.1-8.9 4.6 4.6 0 0 1-2 9z" transform="translate(-86.1 -104)"/><path fill="url(#h)" stroke="#a6d388" d="M217.3 129.7a4.6 4.6 0 1 1-9.1 0 4.6 4.6 0 0 1 9.1 0z" transform="translate(-86.1 -104)"/><path fill="url(#i)" stroke="#d99e82" d="M220 137.8a1 1 0 0 1-.7-.3l-5-5a.8.8 0 1 1 1.1-1.2l5.1 5a.8.8 0 0 1-.6 1.5z" transform="translate(-86.1 -104)"/></g><text xml:space="preserve" fill="url(#j)" font-family="&quot;Helvetica Neue&quot;, Helvetica, sans-serif" font-size="40" transform="translate(150.2 29) scale(.45745)"><tspan x="0" dy="0">more buttons</tspan></text><path d="M103 103.3z"/><path fill="#d2d3d4" fill-opacity=".4" d="M139.1 11.5v22.3c0 1.7-.8 3.1-1.9 3.1H110c-1 0-1.9-1.4-1.9-3V11.4c0-1.7.9-3 2-3h27.2c1 0 2 1.3 2 3z"/><path fill="#d99e82" d="M58 63.7c4.3-1.6 4 1.8 23.5 52.1 5 13.7 9.6 25.6 12.8 35.2-.4 0-.7.3-1.1.3-1.8 0-4 .4-6.3.3-3.5-9-7.6-20.7-12.3-33.2C57.7 70.2 53 65.6 58.1 63.7z"/><path fill="#fcb1e3" d="M77.3 130.9c-9.2 0-16.6-7.3-16.6-16.2 0-.8-6.3-9.3-5.8-12.9.4-2.8 9.6-.3 11.5-.6 4.9-1 5.5-2.7 10.9-2.7 1.6 0 3.5-7 6-5.5 4.8 2.9 10.5 15.9 10.5 21.7 0 9-7.4 16.2-16.5 16.2z"/><path fill="#ffd983" d="M100.1 149.8c-.9.6-1.7 1.2-2.7 1.7-1.3.1-1.4-1.2-2.8-1.1l-1.7.6c-4.9.1-12.3-.4-18 .5-7-6.3-7.8-18.6-1.8-23.8a21.8 21.8 0 0 1 10.3-5.1c6-1 9.9-.9 14.5 3a17 17 0 0 1 2.2 24.2z"/><path fill="#a6d388" d="M97.8 149c3-.4 5.9.3 8.2 1.6-4.1.4-8 0-12.6.1-1.8.1-4 1-6.3 1 2.3-.9 7.6-2.4 10.7-2.8z"/><path stroke="#000" stroke-width="1.5" d="M77.5 113a2.6 2.6 0 1 1 0-5 2.6 2.6 0 0 1 0 5z"/><path d="M89.5 106.3z"/><path stroke="#000" stroke-width="1.5" d="M91.2 107.2c0 1.4-.2 1.8-1.6 1.8-.6 0-.9-.4-1.3-.8-.5-.5-.8-1-.8-1.7 0-1.4-.1-1.7 1.3-1.7 1.3 0 2.4 1 2.4 2.4z"/><path fill="#66757f" d="M235.4 93.8c3.7-.7 10.7 3.3 11.8 10 1.2 6.7-.8 12.7-4.5 13.4-3.7.6-7.7-4.3-8.8-11-1.2-6.8-2.2-11.8 1.5-12.4z"/><path fill="#d99e82" d="M210 62.4c4.2-1.7 4 1.7 23.3 52 5.6 14.8 9.4 26.5 12.6 36.3-.5 0-.6-.3-1-.3-2 0-3.5.6-5.5.6-3.7-9.4-7.8-20.3-12.9-34-16.9-48.2-21.6-52.8-16.5-54.6z"/><path fill="#d99e82" d="M252 148.5c-2.8 1.9-5.2 1.4-8.3 2.2-4 0-8.1-.2-12.4-.1-1.2-.4-3 1.1-4.1.2-7.5-6.2-8.4-19.2-2.2-24.5 1.4-1.3 3.3-2.5 4.5-3 1.8-1 2-1.1 5.7-2 6-1 10-1 14.6 2.9a17 17 0 0 1 2.2 24.3z"/><path fill="#ccd6dd" d="M236 150.3c2.6-.8 9-2.4 12.6-2.7a17.5 17.5 0 0 1 12.7 3.6c-6 .1-12.6-.7-16.1-.6l-15 .2c1.5-1 3.4.2 5.8-.5z"/><path fill="#66757f" d="M244 104.3c1.9 4.8 7.7 2.4 6.8 5.5-.3 1 1.5 6.8 0 8.5-3 3.2-10 3.5-12.6 4.6-8.6 3.4-20 3-23.8-6.3-3.6-9.3-2.2-16.2 7-20.6 8.4-4 18.9-1 22.6 8.3z"/><path fill="#66757f" d="M219.1 110.7c1.8 6.6.3 12.8-3.3 13.7-3.6 1-8-3.5-9.8-10-1.8-6.7 2.9-13.2 6.5-14.2s4.8 4 6.6 10.5z"/><path stroke="#000" stroke-width="1.5" d="M229 111.4a2.6 2.6 0 1 1 0-5.2 2.6 2.6 0 0 1 0 5.2zm13.8-5.9c0 1.4-.2 1.8-1.6 1.8-.7 0-1-.4-1.4-.8-.5-.5-.8-1-.8-1.7 0-1.4 0-1.7 1.3-1.7 1.4 0 2.5 1 2.5 2.4z"/><use xlink:href="#k"/><use xlink:href="#k"/><path fill="#ff8562" d="M132.9 113.4c0 1-3.9 1.8-8.6 1.8-4.7 0-8.5-.8-8.5-1.8s3.8-1.8 8.5-1.8 8.6.8 8.6 1.8z"/><path fill="#ff8562" d="M132.9 113.2c0 4.4-17 4.4-17 0 0-4.3 3.7-7.8 8.4-7.8s8.6 3.5 8.6 7.8z"/><path fill="#a8a8a8" d="M122.5 96h3.8v11h-3.8z"/><path fill="#ffef00" stroke="#ffb900" stroke-width="1.5" d="m125.5 128.2 2 2-6.5 6.6 2.2-7.2-2-2 6.5-6.6z"/><path fill="#a8a8a8" d="M128.8 106.7c0 .7-2 1.3-4.3 1.3-2.4 0-4.3-.6-4.3-1.3 0-.8 1.6-2.2 4.3-2.2 2.6 0 4.3 1.4 4.3 2.2zm-4-5V98l3.2-.5v5z"/><path fill="#c1c1c1" d="M130.2 99.9c0 1.5-.7 2.7-1.5 2.7s-1.5-1.2-1.5-2.7c0-1.5.7-2.7 1.5-2.7s1.5 1.2 1.5 2.7z"/><path fill="url(#l)" d="m216.5 203.7 65-28.4v58z" transform="translate(-86.1 -104)"/><path fill="#c1c1c1" d="M122.6 96c0-.8.8-1.3 1.8-1.3s1.9.5 1.9 1.2c0 .8-.9 1.3-1.9 1.3-1 0-1.8-.5-1.8-1.3z"/><path fill="none" stroke="#c6cee8" stroke-width="2" d="M1.3 150.6V1.3h305.2v149.3z"/></g></svg>
