<svg xmlns="http://www.w3.org/2000/svg" viewBox="0 0 600 300"><g data-paper-data="{&quot;isPaintingLayer&quot;:true}" stroke-miterlimit="10" style="mix-blend-mode:normal"><path d="M0 300V0h600v300z" fill="#3c3c3c"/><g fill="#5b5b5b" stroke-width="0"><path d="M390 197v14c0 5-4 8-8 8h-8l-7 17 6 6a8 8 0 0 1 0 11l-10 10a8 8 0 0 1-12 0l-6-6-16 7v8c0 5-4 9-8 9h-14c-5 0-8-4-8-9v-8l-17-7-6 6a8 8 0 0 1-12 0l-9-10a8 8 0 0 1 0-11l5-6c-3-5-5-11-6-17h-9c-4 0-8-3-8-8v-14c0-4 4-8 8-8h9c1-6 3-11 6-16l-5-6-3-6c0-2 1-5 3-6l9-10c4-3 9-3 12 0l6 6c5-3 11-5 17-6v-9c0-5 3-8 8-8h14c4 0 8 3 8 8v9c6 1 11 3 16 6l6-6c3-3 9-3 12 0l10 10a8 8 0 0 1 0 12l-6 6 7 16h8c4 0 8 4 8 8zm-50 7a26 26 0 0 0-53 0c0 15 12 26 27 26 14 0 26-11 26-26zm76 92-11-10-6 3c-4 2-8 1-9-3l-6-10c-1-3 0-7 3-9l7-3c-1-5-2-10-1-14l-7-3a7 7 0 0 1-5-8l4-11a7 7 0 0 1 9-5l6 3 9-12-3-6c-1-3 0-7 3-9l10-5c4-2 8 0 10 3l3 6c5-1 9-2 14-1l2-7 4-4h5l11 3c3 1 5 6 4 9l-2 7c4 2 8 5 11 9l6-3c4-2 8-1 10 3l5 10c2 3 0 7-3 9l-7 3c2 5 2 10 2 15l6 2c4 1 6 5 5 9l-4 10a7 7 0 0 1-8 5l-7-2c-2 4-5 8-9 11l3 6 1 3h-66zm37-24c11-5 15-18 9-29-5-11-18-15-29-10-10 6-15 19-9 29 5 11 18 15 29 10zm51-113-9-9c-4-4-4-9 0-12l5-6c-3-5-5-11-6-16l-9-1a8 8 0 0 1-8-8V93a8 8 0 0 1 9-8h8l7-16-6-6c-3-4-4-9 0-12l9-10c4-3 9-3 12 0l6 6c5-3 11-5 16-6l1-9a8 8 0 0 1 8-8h14a8 8 0 0 1 8 8v8l17 7 5-6c3-2 6-3 9-2v122c-3 1-7 1-9-2l-6-6-16 7v9c0 4-4 8-9 8h-13a8 8 0 0 1-9-9v-8c-5-1-11-3-16-7l-6 6c-3 3-8 4-12 0zm31-40a26 26 0 0 0 37-37 26 26 0 0 0-37 0 26 26 0 0 0 0 37zm-150-12 7-8c2-2 5-2 8 0l4 3 11-5v-6a6 6 0 0 1 5-6l9-1a6 6 0 0 1 7 5v6l12 4 4-5c2-2 5-2 8 0l7 6c2 2 3 5 1 8l-4 4 5 11h6a6 6 0 0 1 7 5v10a6 6 0 0 1-5 6h-6l-3 12 4 4c2 2 3 5 1 8l-6 7c-2 3-6 3-9 1l-4-4c-3 3-7 5-11 6l1 6-2 4-4 2-9 1c-3 0-6-3-6-6l-1-6-12-3-3 4c-3 3-6 3-9 1l-7-6c-2-2-3-6 0-8l3-5-5-11-6 1c-3 0-6-2-6-6l-1-9a6 6 0 0 1 5-6l6-1 3-12-4-3c-2-2-3-6-1-8zm30 18c-6 8-5 20 2 26 8 7 20 6 26-2 7-8 6-19-2-26-8-6-19-5-26 2z"/><path d="m122 229-9-9c-4-4-4-9 0-12l5-6c-3-5-5-11-6-16l-9-1a8 8 0 0 1-8-8v-14a8 8 0 0 1 9-8h8l7-16-6-6c-3-4-4-9 0-12l9-10c4-3 9-3 12 0l6 6c5-3 11-5 16-6l1-9a8 8 0 0 1 8-8h14a8 8 0 0 1 8 8v8l17 7 5-6c4-3 9-3 12 0l10 10c3 3 3 9 0 12l-6 6 7 16h8l6 3 2 6v13c0 5-4 9-8 9h-9c-1 5-3 11-7 16l7 6c3 3 3 8 0 12l-10 9c-3 4-9 4-12 0l-6-6-16 7v9c0 4-4 8-9 8h-13a8 8 0 0 1-9-9v-8c-5-1-11-3-16-7l-6 6c-3 3-8 4-12 0zm31-40a26 26 0 0 0 37-37 26 26 0 0 0-37 0 26 26 0 0 0 0 37zM0 0h29c7 1 13 3 19 6l5-6h23l8 7a11 11 0 0 1 2 15l-7 9c5 6 9 13 11 21l11-2c6 0 11 4 12 10l2 18c1 6-4 11-10 12l-10 1-7 23 8 7c2 1 4 4 4 7l-2 8-12 14c-3 5-11 5-15 2l-9-8c-6 5-13 9-20 11l1 12c0 6-4 11-10 12l-18 2c-6 0-11-4-12-10l-1-12H0v-48a35 35 0 0 0 48-35A35 35 0 0 0 0 48zm122 6 3-6h93l4 5 6-2a7 7 0 0 1 9 4l3 11a7 7 0 0 1-5 8l-6 2-1 15 5 3c4 2 5 6 3 9l-5 10c-2 3-6 4-9 2l-6-3c-3 4-7 7-11 9l2 7-1 5c-1 1-2 3-4 3l-11 3c-3 1-7-1-8-4l-2-7c-5 0-9 0-14-2l-3 7c-2 3-6 4-9 2l-10-5c-3-2-5-6-3-9l4-6c-4-3-7-7-9-11l-7 2c-4 1-7-1-8-5l-4-10a7 7 0 0 1 5-9l6-2c0-4 0-9 2-14l-6-3c-3-2-5-6-3-9zm38 14c-5 11-1 23 9 29s23 2 29-8c5-11 2-24-9-29-10-6-23-2-29 8zM353 3c4 3 9 7 12 12l8-3c4-2 9 0 11 4l6 13c2 4 0 9-5 11l-8 3 1 18 8 3a8 8 0 0 1 5 11l-6 13a8 8 0 0 1-10 4l-8-3-13 13 4 8c2 4 0 9-4 11l-13 5c-4 2-9 0-11-4l-3-8-18 1-3 7-5 5h-6l-13-5c-4-2-6-7-5-11l3-8-12-12-8 3c-4 2-9 0-11-4l-6-13c-1-4 1-9 5-11l8-3-1-18-8-3c-4-1-6-6-4-11l5-12a8 8 0 0 1 11-5l7 3 13-13-2-4h77zm-47 26c-13 6-19 21-13 34 5 14 21 20 34 14 13-5 19-21 14-34-6-14-22-20-35-14zm224 157 9-3c3-2 6 0 7 3l3 5h12l2-5a6 6 0 0 1 8-4l9 4a6 6 0 0 1 3 8l-2 5c3 2 6 5 8 9l6-3 5 1v20l-3 1v12l3 1v21h-5l-5-2-9 9 2 5c1 3 0 6-3 7l-9 4c-3 1-6 0-7-3l-2-5h-13l-2 5c0 2-2 3-3 3h-4l-9-3c-3-1-5-5-3-8l2-5-9-9-5 2c-3 2-7 0-8-3l-4-8c-1-3 1-7 3-8l6-2v-12l-6-3c-3-1-4-4-3-7l4-9a6 6 0 0 1 7-3l6 2 8-9-2-5c-1-3 0-7 3-8zm18 30c-9 4-13 15-10 24 4 10 15 14 24 10 10-4 14-14 10-24-4-9-15-13-24-10zM9 288l-8-7H0v-16l10-13a11 11 0 0 1 16-2l9 7c6-4 13-8 20-10l-1-12c-1-6 4-11 10-12l18-2c6 0 11 4 11 10l2 12c8 1 15 3 22 6l7-9a11 11 0 0 1 15-1l15 11a11 11 0 0 1 1 16l-7 8c5 6 9 13 12 21l10-1c5-1 9 2 11 6h-72a35 35 0 0 0-52 0H5l4-12z"/></g><path d="M295 40s-35 8-46 27c-11 18 7 66-41 83-33 13-85-29-85-29s10 72 51 87c40 14 56-22 96-30 40-7 82 46 120 17s13-99 27-128c12-26 32-25 32-25" fill="none" stroke-opacity=".5" stroke="#000" stroke-width="18" stroke-linecap="round"/><path d="M295 39s-35 9-46 28c-11 18 7 66-41 83-33 13-85-29-85-29s10 72 51 87c40 14 56-22 96-30 40-7 82 46 120 17s13-99 27-128c12-26 32-25 32-25" fill="none" stroke="#fff" stroke-width="7.5" stroke-linecap="round"/><path d="M111 129a20 20 0 1 1 40 0 20 20 0 0 1-40 0z" fill="#fff" stroke-opacity=".5" stroke="#000" stroke-width="12.5"/><path d="M111 129a20 20 0 1 1 40 0 20 20 0 0 1-40 0z" fill="#fff"/><path d="M42 258c2 2 4 2 6 2s3-1 3-2l-1-2-3-1a83 83 0 0 1-5-4c-2 0-2-1-3-2l-3-9c0-4 2-7 5-10 2-2 6-3 10-3l9 1 4 2s0 0 0 0l-2 6-2 4c-2-2-5-2-7-2s-3 0-3 2l2 2a55 55 0 0 0 4 2 26 26 0 0 1 6 4c2 2 3 5 3 8 0 5-1 9-4 11-2 3-6 5-11 5l-7-1-5-2c-2-1-3-3-3-5l2-6c1-2 4-1 5 0zm38-2c0 4 2 6 5 6l5-1 1 3 1 4v2l-9 2c-4 0-8-2-10-4-3-3-4-7-4-12s1-9 4-12c2-3 6-5 10-5 5 0 8 1 10 3v6l-3 6-6-5-3 2-1 5zm30 15-5 1-6-1v-21h-2l-1-1-1-3c0-5 1-7 4-7l5 2h5l5-2 4 2v5l-1 4-5 17-2 4zm23 0h-11v-31h11zm0-35-6 1-5-1v-9h11zm19 47h-10v-33h-3l-2-3v-2l1-3c1-2 2-3 4-3l3 1 3 2s0 0 0 0l9-3c4 0 6 1 9 4 2 3 3 6 3 12 0 5-1 9-3 12-3 3-6 5-9 5l-5-1zm3-33-2 1v11h3c1 0 2-2 2-6s-1-6-3-6zm33 21-5 1-6-1v-22h-3c-1 0-2-2-2-5v-3l1-1h4v-6l5-1 5 1v6h6l1 4-1 5h-5zm65 0-5-1-1-21c0-2-1-2-2 0l-6 21-5 1-4-1-6-21-2-2-1 23-2 1a27 27 0 0 1-7 0l-3-1 2-41c0-1 2-2 7-2h6l4 2 5 15c1 2 3 2 3 0l5-15c0-1 3-2 9-2h5l3 2 2 41-2 1h-5zm17-23-2-5 1-2 10-2c4 0 7 1 9 3s3 5 3 9v10h2l2 1v3l-1 5-3 2-5-2-2-2c-2 3-5 4-9 4-3 0-6-1-8-3-2-3-3-5-3-8 0-7 4-10 12-10h4v-1l-1-2-2-1-7 1zm5 12 1 2 2 1 2-1v-5h-2c-2 0-3 1-3 3zm37 11h-11v-21h-2l-2-3a10 10 0 0 1 1-5l3-3 5 1 2 3c3-3 6-4 10-4 3 0 6 1 8 3l2 10v19h-11v-19c0-2 0-3-2-3l-2 1-1 1zm25-23-1-5 1-2 10-2c4 0 7 1 8 3 2 2 3 5 3 9v10h2l2 1v3l-1 5c0 1-1 2-3 2l-5-2-2-2c-2 3-5 4-9 4-3 0-5-1-7-3-2-3-3-5-3-8 0-7 4-10 12-10h3v-3l-3-1-7 1zm5 12 1 2 2 1 2-1v-5h-2c-2 0-3 1-3 3zm36 11c-4 0-8-1-10-4-2-2-3-6-3-11s1-10 4-12c3-3 7-5 12-5s9 1 12 3v32c0 3-1 5-4 7-2 2-6 2-10 2l-10-1-1-3 2-6c2 2 5 2 9 2 2 0 3-1 3-2v-2h-4zm3-22c-3 0-5 3-5 7l2 5 2 1h2v-12l-1-1zm41 21-10 2c-4 0-7-2-10-4-3-3-5-7-5-12s2-9 5-12c2-3 6-5 10-5s7 1 10 3c2 2 3 5 3 8 0 7-4 10-12 10h-4l1 3 3 1 9-2v1l2 4-2 3zm-7-19c0-1-1-2-3-2h-2l-1 3v1h3c2 0 3 0 3-2zm43 20h-11v-19c0-2-1-3-2-3l-3 2v20l-5 1-6-1v-21h-1c-2 0-2-1-2-4v-4c1-2 2-3 4-3l4 1 3 3c2-3 5-4 8-4 4 0 6 1 8 3 2-2 5-3 8-3 7 0 11 4 11 13v19h-11v-19c0-2-1-3-2-3l-3 2zm45-1-10 2c-5 0-8-2-11-4-3-3-4-7-4-12s1-9 4-12 6-5 10-5c5 0 8 1 10 3s4 5 4 8c0 7-4 10-12 10h-5l1 3 4 1 8-2v1l2 4-1 3zm-8-19c0-1-1-2-3-2h-2l-1 3v1h4c1 0 2 0 2-2zm28 20h-11v-21h-2l-2-3a10 10 0 0 1 1-5l3-3 5 1 2 3c3-3 6-4 10-4 3 0 6 1 8 3l2 10v19h-11v-19c0-2-1-3-2-3l-2 1-1 1zm36 0-5 1-7-1v-22h-3l-1-5v-3l1-1h3v-6l6-1 5 1v6h5l1 4-1 5h-4z" fill="none" stroke-opacity=".5" stroke="#000" stroke-width="10.5" stroke-linecap="square"/><path d="m38 256 4 2c2 2 4 2 6 2s3-1 3-2l-1-2-3-1a83 83 0 0 1-5-4c-2 0-2-1-3-2l-3-9c0-4 2-7 5-10 2-2 6-3 10-3l9 1 4 2-2 6-2 4c-2-2-5-2-7-2s-3 0-3 2l2 2a55 55 0 0 0 4 2 26 26 0 0 1 6 4c2 2 3 5 3 8 0 5-1 9-4 11-2 3-6 5-11 5l-7-1-5-2c-2-1-3-3-3-5l1-5 2-3zm42 0c0 4 2 6 5 6l5-1 1 3 1 4v2l-9 2c-4 0-8-2-10-4-3-3-4-7-4-12s1-9 4-12c2-3 6-5 10-5 5 0 8 1 10 3v6l-3 4h-2l-4-3-3 2-1 5zm30 15-5 1-6-1v-21h-2l-1-1-1-3c0-5 1-7 4-7l5 2 2 4 3-4 5-2 4 2v5l-1 4-1 1-1-1h-2c-2 0-3 1-3 4zm23 0h-11v-31h11zm0-35-6 1-5-1v-9h11zm19 47h-10v-33h-3l-2-3v-2l1-3c1-2 2-3 4-3l3 1 3 2 9-3c4 0 6 1 9 4 2 3 3 6 3 12 0 5-1 9-3 12-3 3-6 5-9 5l-5-1zm3-33-2 1v11h3c1 0 2-2 2-6s-1-6-3-6zm33 21-5 1-6-1v-22h-3c-1 0-2-2-2-5v-3l1-1h4v-6l5-1 5 1v6h6l1 4-1 5h-5zm65 0-5-1-2-25-7 25-5 1-4-1-8-25-1 25-2 1a27 27 0 0 1-7 0l-3-1 2-41c0-1 2-2 7-2h6l4 2 7 20 6-20c0-1 3-2 9-2h5l3 2 2 41-2 1h-5zm17-23-2-5 1-2 10-2c4 0 7 1 9 3s3 5 3 9v10h2l2 1v3l-1 5-3 2-5-2-2-2c-2 3-5 4-9 4-3 0-6-1-8-3-2-3-3-5-3-8 0-7 4-10 12-10h4v-1l-1-2-2-1-7 1zm5 12 1 2 2 1 2-1v-5h-2c-2 0-3 1-3 3zm37 11h-11v-21h-2l-2-3a10 10 0 0 1 1-5l3-3 5 1 2 3c3-3 6-4 10-4 3 0 6 1 8 3l2 10v19h-11v-19c0-2 0-3-2-3l-2 1-1 1zm25-23-1-5 1-2 10-2c4 0 7 1 8 3 2 2 3 5 3 9v10h2l2 1v3l-1 5c0 1-1 2-3 2l-5-2-2-2c-2 3-5 4-9 4-3 0-5-1-7-3-2-3-3-5-3-8 0-7 4-10 12-10h3v-3l-3-1-7 1zm5 12 1 2 2 1 2-1v-5h-2c-2 0-3 1-3 3zm36 11c-4 0-8-1-10-4-2-2-3-6-3-11s1-10 4-12c3-3 7-5 12-5s9 1 12 3v32c0 3-1 5-4 7-2 2-6 2-10 2l-10-1-1-3 2-6c2 2 5 2 9 2 2 0 3-1 3-2v-2h-4zm3-22c-3 0-5 3-5 7l2 5 2 1h2v-12l-1-1zm41 21-10 2c-4 0-7-2-10-4-3-3-5-7-5-12s2-9 5-12c2-3 6-5 10-5s7 1 10 3c2 2 3 5 3 8 0 7-4 10-12 10h-4l1 3 3 1 9-2v1l2 4-2 3zm-7-19c0-1-1-2-3-2h-2l-1 3v1h3c2 0 3 0 3-2zm43 20h-11v-19c0-2-1-3-2-3l-3 2v20l-5 1-6-1v-21h-1c-2 0-2-1-2-4v-4c1-2 2-3 4-3l4 1 3 3c2-3 5-4 8-4 4 0 6 1 8 3 2-2 5-3 8-3 7 0 11 4 11 13v19h-11v-19c0-2-1-3-2-3l-3 2zm45-1-10 2c-5 0-8-2-11-4-3-3-4-7-4-12s1-9 4-12 6-5 10-5c5 0 8 1 10 3s4 5 4 8c0 7-4 10-12 10h-5l1 3 4 1 8-2v1l2 4-1 3zm-8-19c0-1-1-2-3-2h-2l-1 3v1h4c1 0 2 0 2-2zm28 20h-11v-21h-2l-2-3a10 10 0 0 1 1-5l3-3 5 1 2 3c3-3 6-4 10-4 3 0 6 1 8 3l2 10v19h-11v-19c0-2-1-3-2-3l-2 1-1 1zm36 0-5 1-7-1v-22h-3l-1-5v-3l1-1h3v-6l6-1 5 1v6h5l1 4-1 5h-4z" fill="#fff"/><path d="M272 42a13 13 0 1 1 26 0 13 13 0 0 1-26 0zm152 2a13 13 0 1 1 26 0 13 13 0 0 1-26 0z" fill="#fff" stroke-opacity=".5" stroke="#000" stroke-width="12.5"/><path d="M424 44a13 13 0 1 1 26 0 13 13 0 0 1-26 0zm-152-2a13 13 0 1 1 26 0 13 13 0 0 1-26 0z" fill="#fff"/><path d="M51 92c0-2 1-4 4-5l8-1 4 2 5 4 5 1 12-1 4-3 4-5 4-2 90-11c2 0 4 1 4 4l5 42c1 2-1 4-3 5l-90 10-4 3-4 5c0 1-1 2-3 2l-13 2-5-2-4-3-5-2-8 1c-3 0-5-1-5-4z" fill="none" stroke-opacity=".5" stroke="#000" stroke-width="10"/><path d="M51 92c0-2 1-4 4-5l8-1 4 2 5 4 5 1 12-1 4-3 4-5 4-2 90-11c2 0 4 1 4 4l5 42c1 2-1 4-3 5l-90 10-4 3-4 5c0 1-1 2-3 2l-13 2-5-2-4-3-5-2-8 1c-3 0-5-1-5-4z" fill="#fff"/><path d="M438 27c15-13 43-11 57 3l46 3 2 2-1 24c0 2-2 3-3 3l-74-5-3 1-2 2-3 1h-7l-2-1-3-3-2-1-5-1-2-2z" stroke-opacity=".5" stroke="#000" stroke-width="10" fill="none"/><g fill="none" stroke-opacity=".5" stroke="#000" stroke-width="10"><path d="m435 62 3-2h5l2 2 2 2c1 1 1 2 3 2h7l2-1 3-2 2-1 65 4 2 2-2 24-2 2-51-3-3 1-2 2-3 2-7-1-2-1-3-3-2-1-8-1c-1 0-3 1-3 3l-4 68 2 2 9 1 2 1 2 2c1 1 1 2 3 2h7l2-1 3-2 2-1 52 3c1 0 2 1 2 3l-1 14c0 1-1 2-3 2l-64-4-3 1-2 2c-1 1-1 2-3 2l-7-1-2-1-2-3-3-1h-4c-2 0-3-2-3-3z"/><path d="M447 97c0-2 1-3 2-3l5 1 2 1 2 2 3 2h7l2-1 3-2 2-1 81 5c2 0 3 1 3 2l-2 24c0 2-1 3-2 2l-81-4c-2-1-2 0-3 1l-2 2-3 1-7-1-2-1-3-2-2-2h-5c-1 0-2-1-2-3zm-2 34c0-2 1-3 2-3l5 1 2 1 2 2c1 1 1 2 3 2h7l2-1 3-2 2-1 40 2c2 0 3 2 2 3l-1 24-2 2-40-2c-2-1-2 0-3 1l-2 2-3 1-7-1-2-1-3-2-2-2h-5c-1 0-2-1-2-3z"/></g><path d="m428 188 2-2h5l2 2 3 2 2 1 7 1 3-1 2-2c1-1 1-2 3-1l36 2 2 2-1 24c0 1-1 2-3 2l-36-2-3 1-2 2c-1 1-1 2-3 2l-7-1-2-1-2-3-3-1h-4c-2 0-3-2-3-3z" fill="none" stroke-opacity=".5" stroke="#000" stroke-width="10"/><path d="M438 27c15-13 43-11 57 3l46 3 2 2-1 24c0 2-2 3-3 3l-74-5-3 1-2 2-3 1h-7l-2-1-3-3-2-1-5-1-2-2z" fill="#fff"/><path d="m435 62 3-2h5l2 2 2 2c1 1 1 2 3 2h7l2-1 3-2 2-1 65 4 2 2-2 24-2 2-51-3-3 1-2 2-3 2-7-1-2-1-3-3-2-1-8-1c-1 0-3 1-3 3l-4 68 2 2 9 1 2 1 2 2c1 1 1 2 3 2h7l2-1 3-2 2-1 52 3c1 0 2 1 2 3l-1 14c0 1-1 2-3 2l-64-4-3 1-2 2c-1 1-1 2-3 2l-7-1-2-1-2-3-3-1h-4c-2 0-3-2-3-3z" fill="#fff"/><path d="M447 97c0-2 1-3 2-3l5 1 2 1 2 2 3 2h7l2-1 3-2 2-1 81 5c2 0 3 1 3 2l-2 24c0 2-1 3-2 2l-81-4c-2-1-2 0-3 1l-2 2-3 1-7-1-2-1-3-2-2-2h-5c-1 0-2-1-2-3zm-2 34c0-2 1-3 2-3l5 1 2 1 2 2c1 1 1 2 3 2h7l2-1 3-2 2-1 40 2c2 0 3 2 2 3l-1 24-2 2-40-2c-2-1-2 0-3 1l-2 2-3 1-7-1-2-1-3-2-2-2h-5c-1 0-2-1-2-3zm-17 57 2-2h5l2 2 3 2 2 1 7 1 3-1 2-2c1-1 1-2 3-1l36 2 2 2-1 24c0 1-1 2-3 2l-36-2-3 1-2 2c-1 1-1 2-3 2l-7-1-2-1-2-3-3-1h-4c-2 0-3-2-3-3z" fill="#fff"/><path d="M285 27c13-13 38-15 53-4l43-2c1-1 2 0 2 2l2 22-2 2-70 5-2 1-2 3-2 1h-9l-3-3-2-1-4 1c-2 0-3-1-3-2zm4 67c0-2 1-3 2-3h5l2 1 2 2 3 1h6l2-2 2-2 3-1 75-6c2 0 3 1 3 2l1 23c0 1 0 2-2 2l-75 5c-2 0-2 1-3 2l-2 2-2 1-7 1-2-1-2-2-3-1h-4l-2-2zm2 31 2-2h5l2 1 2 2 3 1 6-1 3-1 2-2 2-2 37-2 3 2 1 22-2 3-37 2-2 1-3 3-2 1-6 1-3-1-2-3h-7l-2-2zm-4-64 2-2h5l2 1 2 2 3 1 6-1 2-1 2-2c1-1 1-2 3-2l34-2 2 2 1 22c1 2 0 3-2 3l-34 2-2 1-2 3-2 1h-7c-1 1-1 0-2-1l-2-2-3-1-4 1-2-2z" stroke-opacity=".5" stroke="#000" stroke-width="10" fill="none"/><path d="M285 27c13-13 38-15 53-4l43-2c1-1 2 0 2 2l2 22-2 2-70 5-2 1-2 3-2 1h-9l-3-3-2-1-4 1c-2 0-3-1-3-2zm4 67c0-2 1-3 2-3h5l2 1 2 2 3 1h6l2-2 2-2 3-1 75-6c2 0 3 1 3 2l1 23c0 1 0 2-2 2l-75 5c-2 0-2 1-3 2l-2 2-2 1-7 1-2-1-2-2-3-1h-4l-2-2zm2 31 2-2h5l2 1 2 2 3 1 6-1 3-1 2-2 2-2 37-2 3 2 1 22-2 3-37 2-2 1-3 3-2 1-6 1-3-1-2-3h-7l-2-2zm-4-64 2-2h5l2 1 2 2 3 1 6-1 2-1 2-2c1-1 1-2 3-2l34-2 2 2 1 22c1 2 0 3-2 3l-34 2-2 1-2 3-2 1h-7c-1 1-1 0-2-1l-2-2-3-1-4 1-2-2z" fill="#fff"/></g></svg>